<?xml version="1.0" encoding="utf-8" standalone="no"?>
<!DOCTYPE svg PUBLIC "-//W3C//DTD SVG 1.1//EN"
  "http://www.w3.org/Graphics/SVG/1.1/DTD/svg11.dtd">
<!-- Created with matplotlib (https://matplotlib.org/) -->
<svg height="345.870475pt" version="1.1" viewBox="0 0 410.036875 345.870475" width="410.036875pt" xmlns="http://www.w3.org/2000/svg" xmlns:xlink="http://www.w3.org/1999/xlink">
 <defs>
  <style type="text/css">
*{stroke-linecap:butt;stroke-linejoin:round;}
  </style>
 </defs>
 <g id="figure_1">
  <g id="patch_1">
   <path d="M 0 345.870475 
L 410.036875 345.870475 
L 410.036875 0 
L 0 0 
z
" style="fill:#ffffff;"/>
  </g>
  <g id="axes_1">
   <g id="patch_2">
    <path d="M 45.716875 161.2266 
L 402.836875 161.2266 
L 402.836875 40.2666 
L 45.716875 40.2666 
z
" style="fill:#e5e5e5;"/>
   </g>
   <g id="matplotlib.axis_1">
    <g id="xtick_1">
     <g id="line2d_1">
      <path clip-path="url(#pf866bbdc77)" d="M 61.949602 161.2266 
L 61.949602 40.2666 
" style="fill:none;stroke:#ffffff;stroke-linecap:square;stroke-width:0.8;"/>
     </g>
     <g id="line2d_2">
      <defs>
       <path d="M 0 0 
L 0 3.5 
" id="m8c076d6abd" style="stroke:#555555;stroke-width:0.8;"/>
      </defs>
      <g>
       <use style="fill:#555555;stroke:#555555;stroke-width:0.8;" x="61.949602" xlink:href="#m8c076d6abd" y="161.2266"/>
      </g>
     </g>
     <g id="text_1">
      <!-- $\mathdefault{10^{-5}}$ -->
      <defs>
       <path d="M 12.40625 8.296875 
L 28.515625 8.296875 
L 28.515625 63.921875 
L 10.984375 60.40625 
L 10.984375 69.390625 
L 28.421875 72.90625 
L 38.28125 72.90625 
L 38.28125 8.296875 
L 54.390625 8.296875 
L 54.390625 0 
L 12.40625 0 
z
" id="DejaVuSans-49"/>
       <path d="M 31.78125 66.40625 
Q 24.171875 66.40625 20.328125 58.90625 
Q 16.5 51.421875 16.5 36.375 
Q 16.5 21.390625 20.328125 13.890625 
Q 24.171875 6.390625 31.78125 6.390625 
Q 39.453125 6.390625 43.28125 13.890625 
Q 47.125 21.390625 47.125 36.375 
Q 47.125 51.421875 43.28125 58.90625 
Q 39.453125 66.40625 31.78125 66.40625 
z
M 31.78125 74.21875 
Q 44.046875 74.21875 50.515625 64.515625 
Q 56.984375 54.828125 56.984375 36.375 
Q 56.984375 17.96875 50.515625 8.265625 
Q 44.046875 -1.421875 31.78125 -1.421875 
Q 19.53125 -1.421875 13.0625 8.265625 
Q 6.59375 17.96875 6.59375 36.375 
Q 6.59375 54.828125 13.0625 64.515625 
Q 19.53125 74.21875 31.78125 74.21875 
z
" id="DejaVuSans-48"/>
       <path d="M 10.59375 35.5 
L 73.1875 35.5 
L 73.1875 27.203125 
L 10.59375 27.203125 
z
" id="DejaVuSans-8722"/>
       <path d="M 10.796875 72.90625 
L 49.515625 72.90625 
L 49.515625 64.59375 
L 19.828125 64.59375 
L 19.828125 46.734375 
Q 21.96875 47.46875 24.109375 47.828125 
Q 26.265625 48.1875 28.421875 48.1875 
Q 40.625 48.1875 47.75 41.5 
Q 54.890625 34.8125 54.890625 23.390625 
Q 54.890625 11.625 47.5625 5.09375 
Q 40.234375 -1.421875 26.90625 -1.421875 
Q 22.3125 -1.421875 17.546875 -0.640625 
Q 12.796875 0.140625 7.71875 1.703125 
L 7.71875 11.625 
Q 12.109375 9.234375 16.796875 8.0625 
Q 21.484375 6.890625 26.703125 6.890625 
Q 35.15625 6.890625 40.078125 11.328125 
Q 45.015625 15.765625 45.015625 23.390625 
Q 45.015625 31 40.078125 35.4375 
Q 35.15625 39.890625 26.703125 39.890625 
Q 22.75 39.890625 18.8125 39.015625 
Q 14.890625 38.140625 10.796875 36.28125 
z
" id="DejaVuSans-53"/>
      </defs>
      <g style="fill:#555555;" transform="translate(50.199602 175.825037)scale(0.1 -0.1)">
       <use transform="translate(0 0.684375)" xlink:href="#DejaVuSans-49"/>
       <use transform="translate(63.623047 0.684375)" xlink:href="#DejaVuSans-48"/>
       <use transform="translate(128.203125 38.965625)scale(0.7)" xlink:href="#DejaVuSans-8722"/>
       <use transform="translate(186.855469 38.965625)scale(0.7)" xlink:href="#DejaVuSans-53"/>
      </g>
     </g>
    </g>
    <g id="xtick_2">
     <g id="line2d_3">
      <path clip-path="url(#pf866bbdc77)" d="M 143.113239 161.2266 
L 143.113239 40.2666 
" style="fill:none;stroke:#ffffff;stroke-linecap:square;stroke-width:0.8;"/>
     </g>
     <g id="line2d_4">
      <g>
       <use style="fill:#555555;stroke:#555555;stroke-width:0.8;" x="143.113239" xlink:href="#m8c076d6abd" y="161.2266"/>
      </g>
     </g>
     <g id="text_2">
      <!-- $\mathdefault{10^{-4}}$ -->
      <defs>
       <path d="M 37.796875 64.3125 
L 12.890625 25.390625 
L 37.796875 25.390625 
z
M 35.203125 72.90625 
L 47.609375 72.90625 
L 47.609375 25.390625 
L 58.015625 25.390625 
L 58.015625 17.1875 
L 47.609375 17.1875 
L 47.609375 0 
L 37.796875 0 
L 37.796875 17.1875 
L 4.890625 17.1875 
L 4.890625 26.703125 
z
" id="DejaVuSans-52"/>
      </defs>
      <g style="fill:#555555;" transform="translate(131.363239 175.825037)scale(0.1 -0.1)">
       <use transform="translate(0 0.684375)" xlink:href="#DejaVuSans-49"/>
       <use transform="translate(63.623047 0.684375)" xlink:href="#DejaVuSans-48"/>
       <use transform="translate(128.203125 38.965625)scale(0.7)" xlink:href="#DejaVuSans-8722"/>
       <use transform="translate(186.855469 38.965625)scale(0.7)" xlink:href="#DejaVuSans-52"/>
      </g>
     </g>
    </g>
    <g id="xtick_3">
     <g id="line2d_5">
      <path clip-path="url(#pf866bbdc77)" d="M 224.276875 161.2266 
L 224.276875 40.2666 
" style="fill:none;stroke:#ffffff;stroke-linecap:square;stroke-width:0.8;"/>
     </g>
     <g id="line2d_6">
      <g>
       <use style="fill:#555555;stroke:#555555;stroke-width:0.8;" x="224.276875" xlink:href="#m8c076d6abd" y="161.2266"/>
      </g>
     </g>
     <g id="text_3">
      <!-- $\mathdefault{10^{-3}}$ -->
      <defs>
       <path d="M 40.578125 39.3125 
Q 47.65625 37.796875 51.625 33 
Q 55.609375 28.21875 55.609375 21.1875 
Q 55.609375 10.40625 48.1875 4.484375 
Q 40.765625 -1.421875 27.09375 -1.421875 
Q 22.515625 -1.421875 17.65625 -0.515625 
Q 12.796875 0.390625 7.625 2.203125 
L 7.625 11.71875 
Q 11.71875 9.328125 16.59375 8.109375 
Q 21.484375 6.890625 26.8125 6.890625 
Q 36.078125 6.890625 40.9375 10.546875 
Q 45.796875 14.203125 45.796875 21.1875 
Q 45.796875 27.640625 41.28125 31.265625 
Q 36.765625 34.90625 28.71875 34.90625 
L 20.21875 34.90625 
L 20.21875 43.015625 
L 29.109375 43.015625 
Q 36.375 43.015625 40.234375 45.921875 
Q 44.09375 48.828125 44.09375 54.296875 
Q 44.09375 59.90625 40.109375 62.90625 
Q 36.140625 65.921875 28.71875 65.921875 
Q 24.65625 65.921875 20.015625 65.03125 
Q 15.375 64.15625 9.8125 62.3125 
L 9.8125 71.09375 
Q 15.4375 72.65625 20.34375 73.4375 
Q 25.25 74.21875 29.59375 74.21875 
Q 40.828125 74.21875 47.359375 69.109375 
Q 53.90625 64.015625 53.90625 55.328125 
Q 53.90625 49.265625 50.4375 45.09375 
Q 46.96875 40.921875 40.578125 39.3125 
z
" id="DejaVuSans-51"/>
      </defs>
      <g style="fill:#555555;" transform="translate(212.526875 175.825037)scale(0.1 -0.1)">
       <use transform="translate(0 0.765625)" xlink:href="#DejaVuSans-49"/>
       <use transform="translate(63.623047 0.765625)" xlink:href="#DejaVuSans-48"/>
       <use transform="translate(128.203125 39.046875)scale(0.7)" xlink:href="#DejaVuSans-8722"/>
       <use transform="translate(186.855469 39.046875)scale(0.7)" xlink:href="#DejaVuSans-51"/>
      </g>
     </g>
    </g>
    <g id="xtick_4">
     <g id="line2d_7">
      <path clip-path="url(#pf866bbdc77)" d="M 305.440511 161.2266 
L 305.440511 40.2666 
" style="fill:none;stroke:#ffffff;stroke-linecap:square;stroke-width:0.8;"/>
     </g>
     <g id="line2d_8">
      <g>
       <use style="fill:#555555;stroke:#555555;stroke-width:0.8;" x="305.440511" xlink:href="#m8c076d6abd" y="161.2266"/>
      </g>
     </g>
     <g id="text_4">
      <!-- $\mathdefault{10^{-2}}$ -->
      <defs>
       <path d="M 19.1875 8.296875 
L 53.609375 8.296875 
L 53.609375 0 
L 7.328125 0 
L 7.328125 8.296875 
Q 12.9375 14.109375 22.625 23.890625 
Q 32.328125 33.6875 34.8125 36.53125 
Q 39.546875 41.84375 41.421875 45.53125 
Q 43.3125 49.21875 43.3125 52.78125 
Q 43.3125 58.59375 39.234375 62.25 
Q 35.15625 65.921875 28.609375 65.921875 
Q 23.96875 65.921875 18.8125 64.3125 
Q 13.671875 62.703125 7.8125 59.421875 
L 7.8125 69.390625 
Q 13.765625 71.78125 18.9375 73 
Q 24.125 74.21875 28.421875 74.21875 
Q 39.75 74.21875 46.484375 68.546875 
Q 53.21875 62.890625 53.21875 53.421875 
Q 53.21875 48.921875 51.53125 44.890625 
Q 49.859375 40.875 45.40625 35.40625 
Q 44.1875 33.984375 37.640625 27.21875 
Q 31.109375 20.453125 19.1875 8.296875 
z
" id="DejaVuSans-50"/>
      </defs>
      <g style="fill:#555555;" transform="translate(293.690511 175.825037)scale(0.1 -0.1)">
       <use transform="translate(0 0.765625)" xlink:href="#DejaVuSans-49"/>
       <use transform="translate(63.623047 0.765625)" xlink:href="#DejaVuSans-48"/>
       <use transform="translate(128.203125 39.046875)scale(0.7)" xlink:href="#DejaVuSans-8722"/>
       <use transform="translate(186.855469 39.046875)scale(0.7)" xlink:href="#DejaVuSans-50"/>
      </g>
     </g>
    </g>
    <g id="xtick_5">
     <g id="line2d_9">
      <path clip-path="url(#pf866bbdc77)" d="M 386.604148 161.2266 
L 386.604148 40.2666 
" style="fill:none;stroke:#ffffff;stroke-linecap:square;stroke-width:0.8;"/>
     </g>
     <g id="line2d_10">
      <g>
       <use style="fill:#555555;stroke:#555555;stroke-width:0.8;" x="386.604148" xlink:href="#m8c076d6abd" y="161.2266"/>
      </g>
     </g>
     <g id="text_5">
      <!-- $\mathdefault{10^{-1}}$ -->
      <g style="fill:#555555;" transform="translate(374.854148 175.825037)scale(0.1 -0.1)">
       <use transform="translate(0 0.684375)" xlink:href="#DejaVuSans-49"/>
       <use transform="translate(63.623047 0.684375)" xlink:href="#DejaVuSans-48"/>
       <use transform="translate(128.203125 38.965625)scale(0.7)" xlink:href="#DejaVuSans-8722"/>
       <use transform="translate(186.855469 38.965625)scale(0.7)" xlink:href="#DejaVuSans-49"/>
      </g>
     </g>
    </g>
    <g id="xtick_6">
     <g id="line2d_11">
      <defs>
       <path d="M 0 0 
L 0 2 
" id="m04e7423860" style="stroke:#555555;stroke-width:0.6;"/>
      </defs>
      <g>
       <use style="fill:#555555;stroke:#555555;stroke-width:0.6;" x="49.377196" xlink:href="#m04e7423860" y="161.2266"/>
      </g>
     </g>
    </g>
    <g id="xtick_7">
     <g id="line2d_12">
      <g>
       <use style="fill:#555555;stroke:#555555;stroke-width:0.6;" x="54.084033" xlink:href="#m04e7423860" y="161.2266"/>
      </g>
     </g>
    </g>
    <g id="xtick_8">
     <g id="line2d_13">
      <g>
       <use style="fill:#555555;stroke:#555555;stroke-width:0.6;" x="58.235758" xlink:href="#m04e7423860" y="161.2266"/>
      </g>
     </g>
    </g>
    <g id="xtick_9">
     <g id="line2d_14">
      <g>
       <use style="fill:#555555;stroke:#555555;stroke-width:0.6;" x="86.382291" xlink:href="#m04e7423860" y="161.2266"/>
      </g>
     </g>
    </g>
    <g id="xtick_10">
     <g id="line2d_15">
      <g>
       <use style="fill:#555555;stroke:#555555;stroke-width:0.6;" x="100.674498" xlink:href="#m04e7423860" y="161.2266"/>
      </g>
     </g>
    </g>
    <g id="xtick_11">
     <g id="line2d_16">
      <g>
       <use style="fill:#555555;stroke:#555555;stroke-width:0.6;" x="110.81498" xlink:href="#m04e7423860" y="161.2266"/>
      </g>
     </g>
    </g>
    <g id="xtick_12">
     <g id="line2d_17">
      <g>
       <use style="fill:#555555;stroke:#555555;stroke-width:0.6;" x="118.68055" xlink:href="#m04e7423860" y="161.2266"/>
      </g>
     </g>
    </g>
    <g id="xtick_13">
     <g id="line2d_18">
      <g>
       <use style="fill:#555555;stroke:#555555;stroke-width:0.6;" x="125.107187" xlink:href="#m04e7423860" y="161.2266"/>
      </g>
     </g>
    </g>
    <g id="xtick_14">
     <g id="line2d_19">
      <g>
       <use style="fill:#555555;stroke:#555555;stroke-width:0.6;" x="130.540832" xlink:href="#m04e7423860" y="161.2266"/>
      </g>
     </g>
    </g>
    <g id="xtick_15">
     <g id="line2d_20">
      <g>
       <use style="fill:#555555;stroke:#555555;stroke-width:0.6;" x="135.24767" xlink:href="#m04e7423860" y="161.2266"/>
      </g>
     </g>
    </g>
    <g id="xtick_16">
     <g id="line2d_21">
      <g>
       <use style="fill:#555555;stroke:#555555;stroke-width:0.6;" x="139.399394" xlink:href="#m04e7423860" y="161.2266"/>
      </g>
     </g>
    </g>
    <g id="xtick_17">
     <g id="line2d_22">
      <g>
       <use style="fill:#555555;stroke:#555555;stroke-width:0.6;" x="167.545928" xlink:href="#m04e7423860" y="161.2266"/>
      </g>
     </g>
    </g>
    <g id="xtick_18">
     <g id="line2d_23">
      <g>
       <use style="fill:#555555;stroke:#555555;stroke-width:0.6;" x="181.838135" xlink:href="#m04e7423860" y="161.2266"/>
      </g>
     </g>
    </g>
    <g id="xtick_19">
     <g id="line2d_24">
      <g>
       <use style="fill:#555555;stroke:#555555;stroke-width:0.6;" x="191.978617" xlink:href="#m04e7423860" y="161.2266"/>
      </g>
     </g>
    </g>
    <g id="xtick_20">
     <g id="line2d_25">
      <g>
       <use style="fill:#555555;stroke:#555555;stroke-width:0.6;" x="199.844186" xlink:href="#m04e7423860" y="161.2266"/>
      </g>
     </g>
    </g>
    <g id="xtick_21">
     <g id="line2d_26">
      <g>
       <use style="fill:#555555;stroke:#555555;stroke-width:0.6;" x="206.270824" xlink:href="#m04e7423860" y="161.2266"/>
      </g>
     </g>
    </g>
    <g id="xtick_22">
     <g id="line2d_27">
      <g>
       <use style="fill:#555555;stroke:#555555;stroke-width:0.6;" x="211.704469" xlink:href="#m04e7423860" y="161.2266"/>
      </g>
     </g>
    </g>
    <g id="xtick_23">
     <g id="line2d_28">
      <g>
       <use style="fill:#555555;stroke:#555555;stroke-width:0.6;" x="216.411306" xlink:href="#m04e7423860" y="161.2266"/>
      </g>
     </g>
    </g>
    <g id="xtick_24">
     <g id="line2d_29">
      <g>
       <use style="fill:#555555;stroke:#555555;stroke-width:0.6;" x="220.563031" xlink:href="#m04e7423860" y="161.2266"/>
      </g>
     </g>
    </g>
    <g id="xtick_25">
     <g id="line2d_30">
      <g>
       <use style="fill:#555555;stroke:#555555;stroke-width:0.6;" x="248.709564" xlink:href="#m04e7423860" y="161.2266"/>
      </g>
     </g>
    </g>
    <g id="xtick_26">
     <g id="line2d_31">
      <g>
       <use style="fill:#555555;stroke:#555555;stroke-width:0.6;" x="263.001771" xlink:href="#m04e7423860" y="161.2266"/>
      </g>
     </g>
    </g>
    <g id="xtick_27">
     <g id="line2d_32">
      <g>
       <use style="fill:#555555;stroke:#555555;stroke-width:0.6;" x="273.142253" xlink:href="#m04e7423860" y="161.2266"/>
      </g>
     </g>
    </g>
    <g id="xtick_28">
     <g id="line2d_33">
      <g>
       <use style="fill:#555555;stroke:#555555;stroke-width:0.6;" x="281.007822" xlink:href="#m04e7423860" y="161.2266"/>
      </g>
     </g>
    </g>
    <g id="xtick_29">
     <g id="line2d_34">
      <g>
       <use style="fill:#555555;stroke:#555555;stroke-width:0.6;" x="287.43446" xlink:href="#m04e7423860" y="161.2266"/>
      </g>
     </g>
    </g>
    <g id="xtick_30">
     <g id="line2d_35">
      <g>
       <use style="fill:#555555;stroke:#555555;stroke-width:0.6;" x="292.868105" xlink:href="#m04e7423860" y="161.2266"/>
      </g>
     </g>
    </g>
    <g id="xtick_31">
     <g id="line2d_36">
      <g>
       <use style="fill:#555555;stroke:#555555;stroke-width:0.6;" x="297.574942" xlink:href="#m04e7423860" y="161.2266"/>
      </g>
     </g>
    </g>
    <g id="xtick_32">
     <g id="line2d_37">
      <g>
       <use style="fill:#555555;stroke:#555555;stroke-width:0.6;" x="301.726667" xlink:href="#m04e7423860" y="161.2266"/>
      </g>
     </g>
    </g>
    <g id="xtick_33">
     <g id="line2d_38">
      <g>
       <use style="fill:#555555;stroke:#555555;stroke-width:0.6;" x="329.8732" xlink:href="#m04e7423860" y="161.2266"/>
      </g>
     </g>
    </g>
    <g id="xtick_34">
     <g id="line2d_39">
      <g>
       <use style="fill:#555555;stroke:#555555;stroke-width:0.6;" x="344.165407" xlink:href="#m04e7423860" y="161.2266"/>
      </g>
     </g>
    </g>
    <g id="xtick_35">
     <g id="line2d_40">
      <g>
       <use style="fill:#555555;stroke:#555555;stroke-width:0.6;" x="354.30589" xlink:href="#m04e7423860" y="161.2266"/>
      </g>
     </g>
    </g>
    <g id="xtick_36">
     <g id="line2d_41">
      <g>
       <use style="fill:#555555;stroke:#555555;stroke-width:0.6;" x="362.171459" xlink:href="#m04e7423860" y="161.2266"/>
      </g>
     </g>
    </g>
    <g id="xtick_37">
     <g id="line2d_42">
      <g>
       <use style="fill:#555555;stroke:#555555;stroke-width:0.6;" x="368.598096" xlink:href="#m04e7423860" y="161.2266"/>
      </g>
     </g>
    </g>
    <g id="xtick_38">
     <g id="line2d_43">
      <g>
       <use style="fill:#555555;stroke:#555555;stroke-width:0.6;" x="374.031741" xlink:href="#m04e7423860" y="161.2266"/>
      </g>
     </g>
    </g>
    <g id="xtick_39">
     <g id="line2d_44">
      <g>
       <use style="fill:#555555;stroke:#555555;stroke-width:0.6;" x="378.738579" xlink:href="#m04e7423860" y="161.2266"/>
      </g>
     </g>
    </g>
    <g id="xtick_40">
     <g id="line2d_45">
      <g>
       <use style="fill:#555555;stroke:#555555;stroke-width:0.6;" x="382.890303" xlink:href="#m04e7423860" y="161.2266"/>
      </g>
     </g>
    </g>
   </g>
   <g id="matplotlib.axis_2">
    <g id="ytick_1">
     <g id="line2d_46">
      <path clip-path="url(#pf866bbdc77)" d="M 45.716875 155.382908 
L 402.836875 155.382908 
" style="fill:none;stroke:#ffffff;stroke-linecap:square;stroke-width:0.8;"/>
     </g>
     <g id="line2d_47">
      <defs>
       <path d="M 0 0 
L -3.5 0 
" id="m73b516075b" style="stroke:#555555;stroke-width:0.8;"/>
      </defs>
      <g>
       <use style="fill:#555555;stroke:#555555;stroke-width:0.8;" x="45.716875" xlink:href="#m73b516075b" y="155.382908"/>
      </g>
     </g>
     <g id="text_6">
      <!-- 0.0 -->
      <defs>
       <path d="M 10.6875 12.40625 
L 21 12.40625 
L 21 0 
L 10.6875 0 
z
" id="DejaVuSans-46"/>
      </defs>
      <g style="fill:#555555;" transform="translate(22.81375 159.182127)scale(0.1 -0.1)">
       <use xlink:href="#DejaVuSans-48"/>
       <use x="63.623047" xlink:href="#DejaVuSans-46"/>
       <use x="95.410156" xlink:href="#DejaVuSans-48"/>
      </g>
     </g>
    </g>
    <g id="ytick_2">
     <g id="line2d_48">
      <path clip-path="url(#pf866bbdc77)" d="M 45.716875 118.240566 
L 402.836875 118.240566 
" style="fill:none;stroke:#ffffff;stroke-linecap:square;stroke-width:0.8;"/>
     </g>
     <g id="line2d_49">
      <g>
       <use style="fill:#555555;stroke:#555555;stroke-width:0.8;" x="45.716875" xlink:href="#m73b516075b" y="118.240566"/>
      </g>
     </g>
     <g id="text_7">
      <!-- 0.2 -->
      <g style="fill:#555555;" transform="translate(22.81375 122.039784)scale(0.1 -0.1)">
       <use xlink:href="#DejaVuSans-48"/>
       <use x="63.623047" xlink:href="#DejaVuSans-46"/>
       <use x="95.410156" xlink:href="#DejaVuSans-50"/>
      </g>
     </g>
    </g>
    <g id="ytick_3">
     <g id="line2d_50">
      <path clip-path="url(#pf866bbdc77)" d="M 45.716875 81.098223 
L 402.836875 81.098223 
" style="fill:none;stroke:#ffffff;stroke-linecap:square;stroke-width:0.8;"/>
     </g>
     <g id="line2d_51">
      <g>
       <use style="fill:#555555;stroke:#555555;stroke-width:0.8;" x="45.716875" xlink:href="#m73b516075b" y="81.098223"/>
      </g>
     </g>
     <g id="text_8">
      <!-- 0.4 -->
      <g style="fill:#555555;" transform="translate(22.81375 84.897442)scale(0.1 -0.1)">
       <use xlink:href="#DejaVuSans-48"/>
       <use x="63.623047" xlink:href="#DejaVuSans-46"/>
       <use x="95.410156" xlink:href="#DejaVuSans-52"/>
      </g>
     </g>
    </g>
    <g id="ytick_4">
     <g id="line2d_52">
      <path clip-path="url(#pf866bbdc77)" d="M 45.716875 43.955881 
L 402.836875 43.955881 
" style="fill:none;stroke:#ffffff;stroke-linecap:square;stroke-width:0.8;"/>
     </g>
     <g id="line2d_53">
      <g>
       <use style="fill:#555555;stroke:#555555;stroke-width:0.8;" x="45.716875" xlink:href="#m73b516075b" y="43.955881"/>
      </g>
     </g>
     <g id="text_9">
      <!-- 0.6 -->
      <defs>
       <path d="M 33.015625 40.375 
Q 26.375 40.375 22.484375 35.828125 
Q 18.609375 31.296875 18.609375 23.390625 
Q 18.609375 15.53125 22.484375 10.953125 
Q 26.375 6.390625 33.015625 6.390625 
Q 39.65625 6.390625 43.53125 10.953125 
Q 47.40625 15.53125 47.40625 23.390625 
Q 47.40625 31.296875 43.53125 35.828125 
Q 39.65625 40.375 33.015625 40.375 
z
M 52.59375 71.296875 
L 52.59375 62.3125 
Q 48.875 64.0625 45.09375 64.984375 
Q 41.3125 65.921875 37.59375 65.921875 
Q 27.828125 65.921875 22.671875 59.328125 
Q 17.53125 52.734375 16.796875 39.40625 
Q 19.671875 43.65625 24.015625 45.921875 
Q 28.375 48.1875 33.59375 48.1875 
Q 44.578125 48.1875 50.953125 41.515625 
Q 57.328125 34.859375 57.328125 23.390625 
Q 57.328125 12.15625 50.6875 5.359375 
Q 44.046875 -1.421875 33.015625 -1.421875 
Q 20.359375 -1.421875 13.671875 8.265625 
Q 6.984375 17.96875 6.984375 36.375 
Q 6.984375 53.65625 15.1875 63.9375 
Q 23.390625 74.21875 37.203125 74.21875 
Q 40.921875 74.21875 44.703125 73.484375 
Q 48.484375 72.75 52.59375 71.296875 
z
" id="DejaVuSans-54"/>
      </defs>
      <g style="fill:#555555;" transform="translate(22.81375 47.7551)scale(0.1 -0.1)">
       <use xlink:href="#DejaVuSans-48"/>
       <use x="63.623047" xlink:href="#DejaVuSans-46"/>
       <use x="95.410156" xlink:href="#DejaVuSans-54"/>
      </g>
     </g>
    </g>
    <g id="text_10">
     <!-- F1-score -->
     <defs>
      <path d="M 9.8125 72.90625 
L 51.703125 72.90625 
L 51.703125 64.59375 
L 19.671875 64.59375 
L 19.671875 43.109375 
L 48.578125 43.109375 
L 48.578125 34.8125 
L 19.671875 34.8125 
L 19.671875 0 
L 9.8125 0 
z
" id="DejaVuSans-70"/>
      <path d="M 4.890625 31.390625 
L 31.203125 31.390625 
L 31.203125 23.390625 
L 4.890625 23.390625 
z
" id="DejaVuSans-45"/>
      <path d="M 44.28125 53.078125 
L 44.28125 44.578125 
Q 40.484375 46.53125 36.375 47.5 
Q 32.28125 48.484375 27.875 48.484375 
Q 21.1875 48.484375 17.84375 46.4375 
Q 14.5 44.390625 14.5 40.28125 
Q 14.5 37.15625 16.890625 35.375 
Q 19.28125 33.59375 26.515625 31.984375 
L 29.59375 31.296875 
Q 39.15625 29.25 43.1875 25.515625 
Q 47.21875 21.78125 47.21875 15.09375 
Q 47.21875 7.46875 41.1875 3.015625 
Q 35.15625 -1.421875 24.609375 -1.421875 
Q 20.21875 -1.421875 15.453125 -0.5625 
Q 10.6875 0.296875 5.421875 2 
L 5.421875 11.28125 
Q 10.40625 8.6875 15.234375 7.390625 
Q 20.0625 6.109375 24.8125 6.109375 
Q 31.15625 6.109375 34.5625 8.28125 
Q 37.984375 10.453125 37.984375 14.40625 
Q 37.984375 18.0625 35.515625 20.015625 
Q 33.0625 21.96875 24.703125 23.78125 
L 21.578125 24.515625 
Q 13.234375 26.265625 9.515625 29.90625 
Q 5.8125 33.546875 5.8125 39.890625 
Q 5.8125 47.609375 11.28125 51.796875 
Q 16.75 56 26.8125 56 
Q 31.78125 56 36.171875 55.265625 
Q 40.578125 54.546875 44.28125 53.078125 
z
" id="DejaVuSans-115"/>
      <path d="M 48.78125 52.59375 
L 48.78125 44.1875 
Q 44.96875 46.296875 41.140625 47.34375 
Q 37.3125 48.390625 33.40625 48.390625 
Q 24.65625 48.390625 19.8125 42.84375 
Q 14.984375 37.3125 14.984375 27.296875 
Q 14.984375 17.28125 19.8125 11.734375 
Q 24.65625 6.203125 33.40625 6.203125 
Q 37.3125 6.203125 41.140625 7.25 
Q 44.96875 8.296875 48.78125 10.40625 
L 48.78125 2.09375 
Q 45.015625 0.34375 40.984375 -0.53125 
Q 36.96875 -1.421875 32.421875 -1.421875 
Q 20.0625 -1.421875 12.78125 6.34375 
Q 5.515625 14.109375 5.515625 27.296875 
Q 5.515625 40.671875 12.859375 48.328125 
Q 20.21875 56 33.015625 56 
Q 37.15625 56 41.109375 55.140625 
Q 45.0625 54.296875 48.78125 52.59375 
z
" id="DejaVuSans-99"/>
      <path d="M 30.609375 48.390625 
Q 23.390625 48.390625 19.1875 42.75 
Q 14.984375 37.109375 14.984375 27.296875 
Q 14.984375 17.484375 19.15625 11.84375 
Q 23.34375 6.203125 30.609375 6.203125 
Q 37.796875 6.203125 41.984375 11.859375 
Q 46.1875 17.53125 46.1875 27.296875 
Q 46.1875 37.015625 41.984375 42.703125 
Q 37.796875 48.390625 30.609375 48.390625 
z
M 30.609375 56 
Q 42.328125 56 49.015625 48.375 
Q 55.71875 40.765625 55.71875 27.296875 
Q 55.71875 13.875 49.015625 6.21875 
Q 42.328125 -1.421875 30.609375 -1.421875 
Q 18.84375 -1.421875 12.171875 6.21875 
Q 5.515625 13.875 5.515625 27.296875 
Q 5.515625 40.765625 12.171875 48.375 
Q 18.84375 56 30.609375 56 
z
" id="DejaVuSans-111"/>
      <path d="M 41.109375 46.296875 
Q 39.59375 47.171875 37.8125 47.578125 
Q 36.03125 48 33.890625 48 
Q 26.265625 48 22.1875 43.046875 
Q 18.109375 38.09375 18.109375 28.8125 
L 18.109375 0 
L 9.078125 0 
L 9.078125 54.6875 
L 18.109375 54.6875 
L 18.109375 46.1875 
Q 20.953125 51.171875 25.484375 53.578125 
Q 30.03125 56 36.53125 56 
Q 37.453125 56 38.578125 55.875 
Q 39.703125 55.765625 41.0625 55.515625 
z
" id="DejaVuSans-114"/>
      <path d="M 56.203125 29.59375 
L 56.203125 25.203125 
L 14.890625 25.203125 
Q 15.484375 15.921875 20.484375 11.0625 
Q 25.484375 6.203125 34.421875 6.203125 
Q 39.59375 6.203125 44.453125 7.46875 
Q 49.3125 8.734375 54.109375 11.28125 
L 54.109375 2.78125 
Q 49.265625 0.734375 44.1875 -0.34375 
Q 39.109375 -1.421875 33.890625 -1.421875 
Q 20.796875 -1.421875 13.15625 6.1875 
Q 5.515625 13.8125 5.515625 26.8125 
Q 5.515625 40.234375 12.765625 48.109375 
Q 20.015625 56 32.328125 56 
Q 43.359375 56 49.78125 48.890625 
Q 56.203125 41.796875 56.203125 29.59375 
z
M 47.21875 32.234375 
Q 47.125 39.59375 43.09375 43.984375 
Q 39.0625 48.390625 32.421875 48.390625 
Q 24.90625 48.390625 20.390625 44.140625 
Q 15.875 39.890625 15.1875 32.171875 
z
" id="DejaVuSans-101"/>
     </defs>
     <g style="fill:#555555;" transform="translate(16.318125 126.2991)rotate(-90)scale(0.12 -0.12)">
      <use xlink:href="#DejaVuSans-70"/>
      <use x="57.519531" xlink:href="#DejaVuSans-49"/>
      <use x="121.142578" xlink:href="#DejaVuSans-45"/>
      <use x="157.226562" xlink:href="#DejaVuSans-115"/>
      <use x="209.326172" xlink:href="#DejaVuSans-99"/>
      <use x="264.306641" xlink:href="#DejaVuSans-111"/>
      <use x="325.488281" xlink:href="#DejaVuSans-114"/>
      <use x="364.351562" xlink:href="#DejaVuSans-101"/>
     </g>
    </g>
   </g>
   <g id="PolyCollection_1">
    <path clip-path="url(#pf866bbdc77)" d="M 61.949602 50.88011 
L 61.949602 46.190384 
L 118.68055 46.058124 
L 143.113239 46.885436 
L 199.844186 51.132958 
L 224.276875 51.813487 
L 281.007822 77.608454 
L 305.440511 79.57942 
L 362.171459 154.469572 
L 386.604148 155.382908 
L 386.604148 155.382908 
L 386.604148 155.382908 
L 362.171459 155.687353 
L 305.440511 100.553674 
L 281.007822 81.679915 
L 224.276875 56.573864 
L 199.844186 57.386537 
L 143.113239 49.796657 
L 118.68055 51.534936 
L 61.949602 50.88011 
z
" style="fill:#e24a33;fill-opacity:0.2;"/>
   </g>
   <g id="PolyCollection_2">
    <path clip-path="url(#pf866bbdc77)" d="M 61.949602 81.845019 
L 61.949602 67.096399 
L 118.68055 64.536746 
L 143.113239 65.058721 
L 199.844186 67.769761 
L 224.276875 58.486734 
L 281.007822 61.149337 
L 305.440511 68.426698 
L 362.171459 149.387383 
L 386.604148 155.382908 
L 386.604148 155.382908 
L 386.604148 155.382908 
L 362.171459 155.325778 
L 305.440511 77.656632 
L 281.007822 77.608988 
L 224.276875 70.933417 
L 199.844186 80.744803 
L 143.113239 79.749803 
L 118.68055 79.073002 
L 61.949602 81.845019 
z
" style="fill:#348abd;fill-opacity:0.2;"/>
   </g>
   <g id="PolyCollection_3">
    <path clip-path="url(#pf866bbdc77)" d="M 61.949602 62.550959 
L 61.949602 55.047455 
L 118.68055 55.460523 
L 143.113239 55.410289 
L 199.844186 58.8014 
L 224.276875 58.716836 
L 281.007822 72.766234 
L 305.440511 79.734671 
L 362.171459 154.346378 
L 386.604148 155.382908 
L 386.604148 155.382908 
L 386.604148 155.382908 
L 362.171459 155.728418 
L 305.440511 93.474374 
L 281.007822 82.675786 
L 224.276875 65.303405 
L 199.844186 66.294062 
L 143.113239 63.862219 
L 118.68055 62.788538 
L 61.949602 62.550959 
z
" style="fill:#988ed5;fill-opacity:0.2;"/>
   </g>
   <g id="PolyCollection_4">
    <path clip-path="url(#pf866bbdc77)" d="M 61.949602 53.804871 
L 61.949602 48.568238 
L 118.68055 47.881102 
L 143.113239 48.761185 
L 199.844186 53.370537 
L 224.276875 52.389077 
L 281.007822 75.895082 
L 305.440511 78.405114 
L 362.171459 153.768658 
L 386.604148 155.382908 
L 386.604148 155.382908 
L 386.604148 155.382908 
L 362.171459 155.454511 
L 305.440511 95.905889 
L 281.007822 79.942462 
L 224.276875 57.712997 
L 199.844186 59.430427 
L 143.113239 52.549806 
L 118.68055 54.282468 
L 61.949602 53.804871 
z
" style="fill:#777777;fill-opacity:0.2;"/>
   </g>
   <g id="PolyCollection_5">
    <path clip-path="url(#pf866bbdc77)" d="M 61.949602 51.617496 
L 61.949602 46.062332 
L 118.68055 45.764782 
L 143.113239 47.044164 
L 199.844186 51.195254 
L 224.276875 50.280937 
L 281.007822 72.535569 
L 305.440511 75.126728 
L 362.171459 153.66675 
L 386.604148 155.382908 
L 386.604148 155.382908 
L 386.604148 155.382908 
L 362.171459 155.44379 
L 305.440511 94.640933 
L 281.007822 77.691643 
L 224.276875 55.752851 
L 199.844186 57.40459 
L 143.113239 49.92057 
L 118.68055 52.03142 
L 61.949602 51.617496 
z
" style="fill:#fbc15e;fill-opacity:0.2;"/>
   </g>
   <g id="PolyCollection_6">
    <path clip-path="url(#pf866bbdc77)" d="M 61.949602 68.286743 
L 61.949602 60.72236 
L 118.68055 59.46616 
L 143.113239 59.641762 
L 199.844186 63.482153 
L 224.276875 62.912156 
L 281.007822 84.915359 
L 305.440511 92.219603 
L 362.171459 154.413977 
L 386.604148 155.382908 
L 386.604148 155.382908 
L 386.604148 155.382908 
L 362.171459 155.705885 
L 305.440511 100.565863 
L 281.007822 94.305514 
L 224.276875 70.531507 
L 199.844186 72.628961 
L 143.113239 68.199669 
L 118.68055 68.324913 
L 61.949602 68.286743 
z
" style="fill:#8eba42;fill-opacity:0.2;"/>
   </g>
   <g id="line2d_54">
    <path clip-path="url(#pf866bbdc77)" d="M 61.949602 48.535247 
L 118.68055 48.79653 
L 143.113239 48.341046 
L 199.844186 54.259748 
L 224.276875 54.193676 
L 281.007822 79.644184 
L 305.440511 90.066547 
L 362.171459 155.078463 
L 386.604148 155.382908 
" style="fill:none;stroke:#e24a33;stroke-linecap:square;stroke-width:1.5;"/>
   </g>
   <g id="line2d_55">
    <path clip-path="url(#pf866bbdc77)" d="M 61.949602 74.470709 
L 118.68055 71.804874 
L 143.113239 72.404262 
L 199.844186 74.257282 
L 224.276875 64.710075 
L 281.007822 69.379162 
L 305.440511 73.041665 
L 362.171459 152.356581 
L 386.604148 155.382908 
" style="fill:none;stroke:#348abd;stroke-linecap:square;stroke-width:1.5;"/>
   </g>
   <g id="line2d_56">
    <path clip-path="url(#pf866bbdc77)" d="M 61.949602 58.799207 
L 118.68055 59.124531 
L 143.113239 59.636254 
L 199.844186 62.547731 
L 224.276875 62.010121 
L 281.007822 77.72101 
L 305.440511 86.604522 
L 362.171459 155.037398 
L 386.604148 155.382908 
" style="fill:none;stroke:#988ed5;stroke-linecap:square;stroke-width:1.5;"/>
   </g>
   <g id="line2d_57">
    <path clip-path="url(#pf866bbdc77)" d="M 61.949602 51.186554 
L 118.68055 51.081785 
L 143.113239 50.655495 
L 199.844186 56.400482 
L 224.276875 55.051037 
L 281.007822 77.918772 
L 305.440511 87.155502 
L 362.171459 154.611585 
L 386.604148 155.382908 
" style="fill:none;stroke:#777777;stroke-linecap:square;stroke-width:1.5;"/>
   </g>
   <g id="line2d_58">
    <path clip-path="url(#pf866bbdc77)" d="M 61.949602 48.839914 
L 118.68055 48.898101 
L 143.113239 48.482367 
L 199.844186 54.299922 
L 224.276875 53.016894 
L 281.007822 75.113606 
L 305.440511 84.883831 
L 362.171459 154.55527 
L 386.604148 155.382908 
" style="fill:none;stroke:#fbc15e;stroke-linecap:square;stroke-width:1.5;"/>
   </g>
   <g id="line2d_59">
    <path clip-path="url(#pf866bbdc77)" d="M 61.949602 64.504552 
L 118.68055 63.895537 
L 143.113239 63.920716 
L 199.844186 68.055557 
L 224.276875 66.721831 
L 281.007822 89.610437 
L 305.440511 96.392733 
L 362.171459 155.059931 
L 386.604148 155.382908 
" style="fill:none;stroke:#8eba42;stroke-linecap:square;stroke-width:1.5;"/>
   </g>
   <g id="patch_3">
    <path d="M 45.716875 161.2266 
L 45.716875 40.2666 
" style="fill:none;stroke:#ffffff;stroke-linecap:square;stroke-linejoin:miter;"/>
   </g>
   <g id="patch_4">
    <path d="M 402.836875 161.2266 
L 402.836875 40.2666 
" style="fill:none;stroke:#ffffff;stroke-linecap:square;stroke-linejoin:miter;"/>
   </g>
   <g id="patch_5">
    <path d="M 45.716875 161.2266 
L 402.836875 161.2266 
" style="fill:none;stroke:#ffffff;stroke-linecap:square;stroke-linejoin:miter;"/>
   </g>
   <g id="patch_6">
    <path d="M 45.716875 40.2666 
L 402.836875 40.2666 
" style="fill:none;stroke:#ffffff;stroke-linecap:square;stroke-linejoin:miter;"/>
   </g>
   <g id="text_11">
    <!-- Adult income - triple constrained model -->
    <defs>
     <path d="M 34.1875 63.1875 
L 20.796875 26.90625 
L 47.609375 26.90625 
z
M 28.609375 72.90625 
L 39.796875 72.90625 
L 67.578125 0 
L 57.328125 0 
L 50.6875 18.703125 
L 17.828125 18.703125 
L 11.1875 0 
L 0.78125 0 
z
" id="DejaVuSans-65"/>
     <path d="M 45.40625 46.390625 
L 45.40625 75.984375 
L 54.390625 75.984375 
L 54.390625 0 
L 45.40625 0 
L 45.40625 8.203125 
Q 42.578125 3.328125 38.25 0.953125 
Q 33.9375 -1.421875 27.875 -1.421875 
Q 17.96875 -1.421875 11.734375 6.484375 
Q 5.515625 14.40625 5.515625 27.296875 
Q 5.515625 40.1875 11.734375 48.09375 
Q 17.96875 56 27.875 56 
Q 33.9375 56 38.25 53.625 
Q 42.578125 51.265625 45.40625 46.390625 
z
M 14.796875 27.296875 
Q 14.796875 17.390625 18.875 11.75 
Q 22.953125 6.109375 30.078125 6.109375 
Q 37.203125 6.109375 41.296875 11.75 
Q 45.40625 17.390625 45.40625 27.296875 
Q 45.40625 37.203125 41.296875 42.84375 
Q 37.203125 48.484375 30.078125 48.484375 
Q 22.953125 48.484375 18.875 42.84375 
Q 14.796875 37.203125 14.796875 27.296875 
z
" id="DejaVuSans-100"/>
     <path d="M 8.5 21.578125 
L 8.5 54.6875 
L 17.484375 54.6875 
L 17.484375 21.921875 
Q 17.484375 14.15625 20.5 10.265625 
Q 23.53125 6.390625 29.59375 6.390625 
Q 36.859375 6.390625 41.078125 11.03125 
Q 45.3125 15.671875 45.3125 23.6875 
L 45.3125 54.6875 
L 54.296875 54.6875 
L 54.296875 0 
L 45.3125 0 
L 45.3125 8.40625 
Q 42.046875 3.421875 37.71875 1 
Q 33.40625 -1.421875 27.6875 -1.421875 
Q 18.265625 -1.421875 13.375 4.4375 
Q 8.5 10.296875 8.5 21.578125 
z
M 31.109375 56 
z
" id="DejaVuSans-117"/>
     <path d="M 9.421875 75.984375 
L 18.40625 75.984375 
L 18.40625 0 
L 9.421875 0 
z
" id="DejaVuSans-108"/>
     <path d="M 18.3125 70.21875 
L 18.3125 54.6875 
L 36.8125 54.6875 
L 36.8125 47.703125 
L 18.3125 47.703125 
L 18.3125 18.015625 
Q 18.3125 11.328125 20.140625 9.421875 
Q 21.96875 7.515625 27.59375 7.515625 
L 36.8125 7.515625 
L 36.8125 0 
L 27.59375 0 
Q 17.1875 0 13.234375 3.875 
Q 9.28125 7.765625 9.28125 18.015625 
L 9.28125 47.703125 
L 2.6875 47.703125 
L 2.6875 54.6875 
L 9.28125 54.6875 
L 9.28125 70.21875 
z
" id="DejaVuSans-116"/>
     <path id="DejaVuSans-32"/>
     <path d="M 9.421875 54.6875 
L 18.40625 54.6875 
L 18.40625 0 
L 9.421875 0 
z
M 9.421875 75.984375 
L 18.40625 75.984375 
L 18.40625 64.59375 
L 9.421875 64.59375 
z
" id="DejaVuSans-105"/>
     <path d="M 54.890625 33.015625 
L 54.890625 0 
L 45.90625 0 
L 45.90625 32.71875 
Q 45.90625 40.484375 42.875 44.328125 
Q 39.84375 48.1875 33.796875 48.1875 
Q 26.515625 48.1875 22.3125 43.546875 
Q 18.109375 38.921875 18.109375 30.90625 
L 18.109375 0 
L 9.078125 0 
L 9.078125 54.6875 
L 18.109375 54.6875 
L 18.109375 46.1875 
Q 21.34375 51.125 25.703125 53.5625 
Q 30.078125 56 35.796875 56 
Q 45.21875 56 50.046875 50.171875 
Q 54.890625 44.34375 54.890625 33.015625 
z
" id="DejaVuSans-110"/>
     <path d="M 52 44.1875 
Q 55.375 50.25 60.0625 53.125 
Q 64.75 56 71.09375 56 
Q 79.640625 56 84.28125 50.015625 
Q 88.921875 44.046875 88.921875 33.015625 
L 88.921875 0 
L 79.890625 0 
L 79.890625 32.71875 
Q 79.890625 40.578125 77.09375 44.375 
Q 74.3125 48.1875 68.609375 48.1875 
Q 61.625 48.1875 57.5625 43.546875 
Q 53.515625 38.921875 53.515625 30.90625 
L 53.515625 0 
L 44.484375 0 
L 44.484375 32.71875 
Q 44.484375 40.625 41.703125 44.40625 
Q 38.921875 48.1875 33.109375 48.1875 
Q 26.21875 48.1875 22.15625 43.53125 
Q 18.109375 38.875 18.109375 30.90625 
L 18.109375 0 
L 9.078125 0 
L 9.078125 54.6875 
L 18.109375 54.6875 
L 18.109375 46.1875 
Q 21.1875 51.21875 25.484375 53.609375 
Q 29.78125 56 35.6875 56 
Q 41.65625 56 45.828125 52.96875 
Q 50 49.953125 52 44.1875 
z
" id="DejaVuSans-109"/>
     <path d="M 18.109375 8.203125 
L 18.109375 -20.796875 
L 9.078125 -20.796875 
L 9.078125 54.6875 
L 18.109375 54.6875 
L 18.109375 46.390625 
Q 20.953125 51.265625 25.265625 53.625 
Q 29.59375 56 35.59375 56 
Q 45.5625 56 51.78125 48.09375 
Q 58.015625 40.1875 58.015625 27.296875 
Q 58.015625 14.40625 51.78125 6.484375 
Q 45.5625 -1.421875 35.59375 -1.421875 
Q 29.59375 -1.421875 25.265625 0.953125 
Q 20.953125 3.328125 18.109375 8.203125 
z
M 48.6875 27.296875 
Q 48.6875 37.203125 44.609375 42.84375 
Q 40.53125 48.484375 33.40625 48.484375 
Q 26.265625 48.484375 22.1875 42.84375 
Q 18.109375 37.203125 18.109375 27.296875 
Q 18.109375 17.390625 22.1875 11.75 
Q 26.265625 6.109375 33.40625 6.109375 
Q 40.53125 6.109375 44.609375 11.75 
Q 48.6875 17.390625 48.6875 27.296875 
z
" id="DejaVuSans-112"/>
     <path d="M 34.28125 27.484375 
Q 23.390625 27.484375 19.1875 25 
Q 14.984375 22.515625 14.984375 16.5 
Q 14.984375 11.71875 18.140625 8.90625 
Q 21.296875 6.109375 26.703125 6.109375 
Q 34.1875 6.109375 38.703125 11.40625 
Q 43.21875 16.703125 43.21875 25.484375 
L 43.21875 27.484375 
z
M 52.203125 31.203125 
L 52.203125 0 
L 43.21875 0 
L 43.21875 8.296875 
Q 40.140625 3.328125 35.546875 0.953125 
Q 30.953125 -1.421875 24.3125 -1.421875 
Q 15.921875 -1.421875 10.953125 3.296875 
Q 6 8.015625 6 15.921875 
Q 6 25.140625 12.171875 29.828125 
Q 18.359375 34.515625 30.609375 34.515625 
L 43.21875 34.515625 
L 43.21875 35.40625 
Q 43.21875 41.609375 39.140625 45 
Q 35.0625 48.390625 27.6875 48.390625 
Q 23 48.390625 18.546875 47.265625 
Q 14.109375 46.140625 10.015625 43.890625 
L 10.015625 52.203125 
Q 14.9375 54.109375 19.578125 55.046875 
Q 24.21875 56 28.609375 56 
Q 40.484375 56 46.34375 49.84375 
Q 52.203125 43.703125 52.203125 31.203125 
z
" id="DejaVuSans-97"/>
    </defs>
    <g transform="translate(81.469375 18.14175)scale(0.144 -0.144)">
     <use xlink:href="#DejaVuSans-65"/>
     <use x="66.658203" xlink:href="#DejaVuSans-100"/>
     <use x="130.134766" xlink:href="#DejaVuSans-117"/>
     <use x="193.513672" xlink:href="#DejaVuSans-108"/>
     <use x="221.296875" xlink:href="#DejaVuSans-116"/>
     <use x="260.505859" xlink:href="#DejaVuSans-32"/>
     <use x="292.292969" xlink:href="#DejaVuSans-105"/>
     <use x="320.076172" xlink:href="#DejaVuSans-110"/>
     <use x="383.455078" xlink:href="#DejaVuSans-99"/>
     <use x="438.435547" xlink:href="#DejaVuSans-111"/>
     <use x="499.617188" xlink:href="#DejaVuSans-109"/>
     <use x="597.029297" xlink:href="#DejaVuSans-101"/>
     <use x="658.552734" xlink:href="#DejaVuSans-32"/>
     <use x="690.339844" xlink:href="#DejaVuSans-45"/>
     <use x="726.423828" xlink:href="#DejaVuSans-32"/>
     <use x="758.210938" xlink:href="#DejaVuSans-116"/>
     <use x="797.419922" xlink:href="#DejaVuSans-114"/>
     <use x="838.533203" xlink:href="#DejaVuSans-105"/>
     <use x="866.316406" xlink:href="#DejaVuSans-112"/>
     <use x="929.792969" xlink:href="#DejaVuSans-108"/>
     <use x="957.576172" xlink:href="#DejaVuSans-101"/>
     <use x="1019.099609" xlink:href="#DejaVuSans-32"/>
     <use x="1050.886719" xlink:href="#DejaVuSans-99"/>
     <use x="1105.867188" xlink:href="#DejaVuSans-111"/>
     <use x="1167.048828" xlink:href="#DejaVuSans-110"/>
     <use x="1230.427734" xlink:href="#DejaVuSans-115"/>
     <use x="1282.527344" xlink:href="#DejaVuSans-116"/>
     <use x="1321.736328" xlink:href="#DejaVuSans-114"/>
     <use x="1362.849609" xlink:href="#DejaVuSans-97"/>
     <use x="1424.128906" xlink:href="#DejaVuSans-105"/>
     <use x="1451.912109" xlink:href="#DejaVuSans-110"/>
     <use x="1515.291016" xlink:href="#DejaVuSans-101"/>
     <use x="1576.814453" xlink:href="#DejaVuSans-100"/>
     <use x="1640.291016" xlink:href="#DejaVuSans-32"/>
     <use x="1672.078125" xlink:href="#DejaVuSans-109"/>
     <use x="1769.490234" xlink:href="#DejaVuSans-111"/>
     <use x="1830.671875" xlink:href="#DejaVuSans-100"/>
     <use x="1894.148438" xlink:href="#DejaVuSans-101"/>
     <use x="1955.671875" xlink:href="#DejaVuSans-108"/>
    </g>
    <!-- Pareto curves for different values of gamma -->
    <defs>
     <path d="M 19.671875 64.796875 
L 19.671875 37.40625 
L 32.078125 37.40625 
Q 38.96875 37.40625 42.71875 40.96875 
Q 46.484375 44.53125 46.484375 51.125 
Q 46.484375 57.671875 42.71875 61.234375 
Q 38.96875 64.796875 32.078125 64.796875 
z
M 9.8125 72.90625 
L 32.078125 72.90625 
Q 44.34375 72.90625 50.609375 67.359375 
Q 56.890625 61.8125 56.890625 51.125 
Q 56.890625 40.328125 50.609375 34.8125 
Q 44.34375 29.296875 32.078125 29.296875 
L 19.671875 29.296875 
L 19.671875 0 
L 9.8125 0 
z
" id="DejaVuSans-80"/>
     <path d="M 2.984375 54.6875 
L 12.5 54.6875 
L 29.59375 8.796875 
L 46.6875 54.6875 
L 56.203125 54.6875 
L 35.6875 0 
L 23.484375 0 
z
" id="DejaVuSans-118"/>
     <path d="M 37.109375 75.984375 
L 37.109375 68.5 
L 28.515625 68.5 
Q 23.6875 68.5 21.796875 66.546875 
Q 19.921875 64.59375 19.921875 59.515625 
L 19.921875 54.6875 
L 34.71875 54.6875 
L 34.71875 47.703125 
L 19.921875 47.703125 
L 19.921875 0 
L 10.890625 0 
L 10.890625 47.703125 
L 2.296875 47.703125 
L 2.296875 54.6875 
L 10.890625 54.6875 
L 10.890625 58.5 
Q 10.890625 67.625 15.140625 71.796875 
Q 19.390625 75.984375 28.609375 75.984375 
z
" id="DejaVuSans-102"/>
     <path d="M 45.40625 27.984375 
Q 45.40625 37.75 41.375 43.109375 
Q 37.359375 48.484375 30.078125 48.484375 
Q 22.859375 48.484375 18.828125 43.109375 
Q 14.796875 37.75 14.796875 27.984375 
Q 14.796875 18.265625 18.828125 12.890625 
Q 22.859375 7.515625 30.078125 7.515625 
Q 37.359375 7.515625 41.375 12.890625 
Q 45.40625 18.265625 45.40625 27.984375 
z
M 54.390625 6.78125 
Q 54.390625 -7.171875 48.1875 -13.984375 
Q 42 -20.796875 29.203125 -20.796875 
Q 24.46875 -20.796875 20.265625 -20.09375 
Q 16.0625 -19.390625 12.109375 -17.921875 
L 12.109375 -9.1875 
Q 16.0625 -11.328125 19.921875 -12.34375 
Q 23.78125 -13.375 27.78125 -13.375 
Q 36.625 -13.375 41.015625 -8.765625 
Q 45.40625 -4.15625 45.40625 5.171875 
L 45.40625 9.625 
Q 42.625 4.78125 38.28125 2.390625 
Q 33.9375 0 27.875 0 
Q 17.828125 0 11.671875 7.65625 
Q 5.515625 15.328125 5.515625 27.984375 
Q 5.515625 40.671875 11.671875 48.328125 
Q 17.828125 56 27.875 56 
Q 33.9375 56 38.28125 53.609375 
Q 42.625 51.21875 45.40625 46.390625 
L 45.40625 54.6875 
L 54.390625 54.6875 
z
" id="DejaVuSans-103"/>
    </defs>
    <g transform="translate(65.372875 34.2666)scale(0.144 -0.144)">
     <use xlink:href="#DejaVuSans-80"/>
     <use x="55.802734" xlink:href="#DejaVuSans-97"/>
     <use x="117.082031" xlink:href="#DejaVuSans-114"/>
     <use x="155.945312" xlink:href="#DejaVuSans-101"/>
     <use x="217.46875" xlink:href="#DejaVuSans-116"/>
     <use x="256.677734" xlink:href="#DejaVuSans-111"/>
     <use x="317.859375" xlink:href="#DejaVuSans-32"/>
     <use x="349.646484" xlink:href="#DejaVuSans-99"/>
     <use x="404.626953" xlink:href="#DejaVuSans-117"/>
     <use x="468.005859" xlink:href="#DejaVuSans-114"/>
     <use x="509.119141" xlink:href="#DejaVuSans-118"/>
     <use x="568.298828" xlink:href="#DejaVuSans-101"/>
     <use x="629.822266" xlink:href="#DejaVuSans-115"/>
     <use x="681.921875" xlink:href="#DejaVuSans-32"/>
     <use x="713.708984" xlink:href="#DejaVuSans-102"/>
     <use x="748.914062" xlink:href="#DejaVuSans-111"/>
     <use x="810.095703" xlink:href="#DejaVuSans-114"/>
     <use x="851.208984" xlink:href="#DejaVuSans-32"/>
     <use x="882.996094" xlink:href="#DejaVuSans-100"/>
     <use x="946.472656" xlink:href="#DejaVuSans-105"/>
     <use x="974.255859" xlink:href="#DejaVuSans-102"/>
     <use x="1009.460938" xlink:href="#DejaVuSans-102"/>
     <use x="1044.666016" xlink:href="#DejaVuSans-101"/>
     <use x="1106.189453" xlink:href="#DejaVuSans-114"/>
     <use x="1145.052734" xlink:href="#DejaVuSans-101"/>
     <use x="1206.576172" xlink:href="#DejaVuSans-110"/>
     <use x="1269.955078" xlink:href="#DejaVuSans-116"/>
     <use x="1309.164062" xlink:href="#DejaVuSans-32"/>
     <use x="1340.951172" xlink:href="#DejaVuSans-118"/>
     <use x="1400.130859" xlink:href="#DejaVuSans-97"/>
     <use x="1461.410156" xlink:href="#DejaVuSans-108"/>
     <use x="1489.193359" xlink:href="#DejaVuSans-117"/>
     <use x="1552.572266" xlink:href="#DejaVuSans-101"/>
     <use x="1614.095703" xlink:href="#DejaVuSans-115"/>
     <use x="1666.195312" xlink:href="#DejaVuSans-32"/>
     <use x="1697.982422" xlink:href="#DejaVuSans-111"/>
     <use x="1759.164062" xlink:href="#DejaVuSans-102"/>
     <use x="1794.369141" xlink:href="#DejaVuSans-32"/>
     <use x="1826.15625" xlink:href="#DejaVuSans-103"/>
     <use x="1889.632812" xlink:href="#DejaVuSans-97"/>
     <use x="1950.912109" xlink:href="#DejaVuSans-109"/>
     <use x="2048.324219" xlink:href="#DejaVuSans-109"/>
     <use x="2145.736328" xlink:href="#DejaVuSans-97"/>
    </g>
   </g>
   <g id="legend_1">
    <g id="patch_7">
     <path d="M 52.716875 156.2266 
L 136.42625 156.2266 
Q 138.42625 156.2266 138.42625 154.2266 
L 138.42625 67.15785 
Q 138.42625 65.15785 136.42625 65.15785 
L 52.716875 65.15785 
Q 50.716875 65.15785 50.716875 67.15785 
L 50.716875 154.2266 
Q 50.716875 156.2266 52.716875 156.2266 
z
" style="fill:#e5e5e5;opacity:0.8;stroke:#cccccc;stroke-linejoin:miter;stroke-width:0.5;"/>
    </g>
    <g id="line2d_60">
     <path d="M 54.716875 73.256287 
L 74.716875 73.256287 
" style="fill:none;stroke:#e24a33;stroke-linecap:square;stroke-width:1.5;"/>
    </g>
    <g id="line2d_61"/>
    <g id="text_12">
     <!-- male -->
     <g transform="translate(82.716875 76.756287)scale(0.1 -0.1)">
      <use xlink:href="#DejaVuSans-109"/>
      <use x="97.412109" xlink:href="#DejaVuSans-97"/>
      <use x="158.691406" xlink:href="#DejaVuSans-108"/>
      <use x="186.474609" xlink:href="#DejaVuSans-101"/>
     </g>
    </g>
    <g id="line2d_62">
     <path d="M 54.716875 87.934412 
L 74.716875 87.934412 
" style="fill:none;stroke:#348abd;stroke-linecap:square;stroke-width:1.5;"/>
    </g>
    <g id="line2d_63"/>
    <g id="text_13">
     <!-- female -->
     <g transform="translate(82.716875 91.434412)scale(0.1 -0.1)">
      <use xlink:href="#DejaVuSans-102"/>
      <use x="35.205078" xlink:href="#DejaVuSans-101"/>
      <use x="96.728516" xlink:href="#DejaVuSans-109"/>
      <use x="194.140625" xlink:href="#DejaVuSans-97"/>
      <use x="255.419922" xlink:href="#DejaVuSans-108"/>
      <use x="283.203125" xlink:href="#DejaVuSans-101"/>
     </g>
    </g>
    <g id="line2d_64">
     <path d="M 54.716875 102.612537 
L 74.716875 102.612537 
" style="fill:none;stroke:#988ed5;stroke-linecap:square;stroke-width:1.5;"/>
    </g>
    <g id="line2d_65"/>
    <g id="text_14">
     <!-- white -->
     <defs>
      <path d="M 4.203125 54.6875 
L 13.1875 54.6875 
L 24.421875 12.015625 
L 35.59375 54.6875 
L 46.1875 54.6875 
L 57.421875 12.015625 
L 68.609375 54.6875 
L 77.59375 54.6875 
L 63.28125 0 
L 52.6875 0 
L 40.921875 44.828125 
L 29.109375 0 
L 18.5 0 
z
" id="DejaVuSans-119"/>
      <path d="M 54.890625 33.015625 
L 54.890625 0 
L 45.90625 0 
L 45.90625 32.71875 
Q 45.90625 40.484375 42.875 44.328125 
Q 39.84375 48.1875 33.796875 48.1875 
Q 26.515625 48.1875 22.3125 43.546875 
Q 18.109375 38.921875 18.109375 30.90625 
L 18.109375 0 
L 9.078125 0 
L 9.078125 75.984375 
L 18.109375 75.984375 
L 18.109375 46.1875 
Q 21.34375 51.125 25.703125 53.5625 
Q 30.078125 56 35.796875 56 
Q 45.21875 56 50.046875 50.171875 
Q 54.890625 44.34375 54.890625 33.015625 
z
" id="DejaVuSans-104"/>
     </defs>
     <g transform="translate(82.716875 106.112537)scale(0.1 -0.1)">
      <use xlink:href="#DejaVuSans-119"/>
      <use x="81.787109" xlink:href="#DejaVuSans-104"/>
      <use x="145.166016" xlink:href="#DejaVuSans-105"/>
      <use x="172.949219" xlink:href="#DejaVuSans-116"/>
      <use x="212.158203" xlink:href="#DejaVuSans-101"/>
     </g>
    </g>
    <g id="line2d_66">
     <path d="M 54.716875 117.290662 
L 74.716875 117.290662 
" style="fill:none;stroke:#777777;stroke-linecap:square;stroke-width:1.5;"/>
    </g>
    <g id="line2d_67"/>
    <g id="text_15">
     <!-- other race -->
     <g transform="translate(82.716875 120.790662)scale(0.1 -0.1)">
      <use xlink:href="#DejaVuSans-111"/>
      <use x="61.181641" xlink:href="#DejaVuSans-116"/>
      <use x="100.390625" xlink:href="#DejaVuSans-104"/>
      <use x="163.769531" xlink:href="#DejaVuSans-101"/>
      <use x="225.292969" xlink:href="#DejaVuSans-114"/>
      <use x="266.40625" xlink:href="#DejaVuSans-32"/>
      <use x="298.193359" xlink:href="#DejaVuSans-114"/>
      <use x="339.306641" xlink:href="#DejaVuSans-97"/>
      <use x="400.585938" xlink:href="#DejaVuSans-99"/>
      <use x="455.566406" xlink:href="#DejaVuSans-101"/>
     </g>
    </g>
    <g id="line2d_68">
     <path d="M 54.716875 131.968787 
L 74.716875 131.968787 
" style="fill:none;stroke:#fbc15e;stroke-linecap:square;stroke-width:1.5;"/>
    </g>
    <g id="line2d_69"/>
    <g id="text_16">
     <!-- young -->
     <defs>
      <path d="M 32.171875 -5.078125 
Q 28.375 -14.84375 24.75 -17.8125 
Q 21.140625 -20.796875 15.09375 -20.796875 
L 7.90625 -20.796875 
L 7.90625 -13.28125 
L 13.1875 -13.28125 
Q 16.890625 -13.28125 18.9375 -11.515625 
Q 21 -9.765625 23.484375 -3.21875 
L 25.09375 0.875 
L 2.984375 54.6875 
L 12.5 54.6875 
L 29.59375 11.921875 
L 46.6875 54.6875 
L 56.203125 54.6875 
z
" id="DejaVuSans-121"/>
     </defs>
     <g transform="translate(82.716875 135.468787)scale(0.1 -0.1)">
      <use xlink:href="#DejaVuSans-121"/>
      <use x="59.179688" xlink:href="#DejaVuSans-111"/>
      <use x="120.361328" xlink:href="#DejaVuSans-117"/>
      <use x="183.740234" xlink:href="#DejaVuSans-110"/>
      <use x="247.119141" xlink:href="#DejaVuSans-103"/>
     </g>
    </g>
    <g id="line2d_70">
     <path d="M 54.716875 146.646912 
L 74.716875 146.646912 
" style="fill:none;stroke:#8eba42;stroke-linecap:square;stroke-width:1.5;"/>
    </g>
    <g id="line2d_71"/>
    <g id="text_17">
     <!-- old -->
     <g transform="translate(82.716875 150.146912)scale(0.1 -0.1)">
      <use xlink:href="#DejaVuSans-111"/>
      <use x="61.181641" xlink:href="#DejaVuSans-108"/>
      <use x="88.964844" xlink:href="#DejaVuSans-100"/>
     </g>
    </g>
   </g>
  </g>
  <g id="axes_2">
   <g id="patch_8">
    <path d="M 45.716875 306.3786 
L 402.836875 306.3786 
L 402.836875 185.4186 
L 45.716875 185.4186 
z
" style="fill:#e5e5e5;"/>
   </g>
   <g id="matplotlib.axis_3">
    <g id="xtick_41">
     <g id="line2d_72">
      <path clip-path="url(#p9190f3d807)" d="M 61.949602 306.3786 
L 61.949602 185.4186 
" style="fill:none;stroke:#ffffff;stroke-linecap:square;stroke-width:0.8;"/>
     </g>
     <g id="line2d_73">
      <g>
       <use style="fill:#555555;stroke:#555555;stroke-width:0.8;" x="61.949602" xlink:href="#m8c076d6abd" y="306.3786"/>
      </g>
     </g>
     <g id="text_18">
      <!-- $\mathdefault{10^{-5}}$ -->
      <g style="fill:#555555;" transform="translate(50.199602 320.977037)scale(0.1 -0.1)">
       <use transform="translate(0 0.684375)" xlink:href="#DejaVuSans-49"/>
       <use transform="translate(63.623047 0.684375)" xlink:href="#DejaVuSans-48"/>
       <use transform="translate(128.203125 38.965625)scale(0.7)" xlink:href="#DejaVuSans-8722"/>
       <use transform="translate(186.855469 38.965625)scale(0.7)" xlink:href="#DejaVuSans-53"/>
      </g>
     </g>
    </g>
    <g id="xtick_42">
     <g id="line2d_74">
      <path clip-path="url(#p9190f3d807)" d="M 143.113239 306.3786 
L 143.113239 185.4186 
" style="fill:none;stroke:#ffffff;stroke-linecap:square;stroke-width:0.8;"/>
     </g>
     <g id="line2d_75">
      <g>
       <use style="fill:#555555;stroke:#555555;stroke-width:0.8;" x="143.113239" xlink:href="#m8c076d6abd" y="306.3786"/>
      </g>
     </g>
     <g id="text_19">
      <!-- $\mathdefault{10^{-4}}$ -->
      <g style="fill:#555555;" transform="translate(131.363239 320.977037)scale(0.1 -0.1)">
       <use transform="translate(0 0.684375)" xlink:href="#DejaVuSans-49"/>
       <use transform="translate(63.623047 0.684375)" xlink:href="#DejaVuSans-48"/>
       <use transform="translate(128.203125 38.965625)scale(0.7)" xlink:href="#DejaVuSans-8722"/>
       <use transform="translate(186.855469 38.965625)scale(0.7)" xlink:href="#DejaVuSans-52"/>
      </g>
     </g>
    </g>
    <g id="xtick_43">
     <g id="line2d_76">
      <path clip-path="url(#p9190f3d807)" d="M 224.276875 306.3786 
L 224.276875 185.4186 
" style="fill:none;stroke:#ffffff;stroke-linecap:square;stroke-width:0.8;"/>
     </g>
     <g id="line2d_77">
      <g>
       <use style="fill:#555555;stroke:#555555;stroke-width:0.8;" x="224.276875" xlink:href="#m8c076d6abd" y="306.3786"/>
      </g>
     </g>
     <g id="text_20">
      <!-- $\mathdefault{10^{-3}}$ -->
      <g style="fill:#555555;" transform="translate(212.526875 320.977037)scale(0.1 -0.1)">
       <use transform="translate(0 0.765625)" xlink:href="#DejaVuSans-49"/>
       <use transform="translate(63.623047 0.765625)" xlink:href="#DejaVuSans-48"/>
       <use transform="translate(128.203125 39.046875)scale(0.7)" xlink:href="#DejaVuSans-8722"/>
       <use transform="translate(186.855469 39.046875)scale(0.7)" xlink:href="#DejaVuSans-51"/>
      </g>
     </g>
    </g>
    <g id="xtick_44">
     <g id="line2d_78">
      <path clip-path="url(#p9190f3d807)" d="M 305.440511 306.3786 
L 305.440511 185.4186 
" style="fill:none;stroke:#ffffff;stroke-linecap:square;stroke-width:0.8;"/>
     </g>
     <g id="line2d_79">
      <g>
       <use style="fill:#555555;stroke:#555555;stroke-width:0.8;" x="305.440511" xlink:href="#m8c076d6abd" y="306.3786"/>
      </g>
     </g>
     <g id="text_21">
      <!-- $\mathdefault{10^{-2}}$ -->
      <g style="fill:#555555;" transform="translate(293.690511 320.977037)scale(0.1 -0.1)">
       <use transform="translate(0 0.765625)" xlink:href="#DejaVuSans-49"/>
       <use transform="translate(63.623047 0.765625)" xlink:href="#DejaVuSans-48"/>
       <use transform="translate(128.203125 39.046875)scale(0.7)" xlink:href="#DejaVuSans-8722"/>
       <use transform="translate(186.855469 39.046875)scale(0.7)" xlink:href="#DejaVuSans-50"/>
      </g>
     </g>
    </g>
    <g id="xtick_45">
     <g id="line2d_80">
      <path clip-path="url(#p9190f3d807)" d="M 386.604148 306.3786 
L 386.604148 185.4186 
" style="fill:none;stroke:#ffffff;stroke-linecap:square;stroke-width:0.8;"/>
     </g>
     <g id="line2d_81">
      <g>
       <use style="fill:#555555;stroke:#555555;stroke-width:0.8;" x="386.604148" xlink:href="#m8c076d6abd" y="306.3786"/>
      </g>
     </g>
     <g id="text_22">
      <!-- $\mathdefault{10^{-1}}$ -->
      <g style="fill:#555555;" transform="translate(374.854148 320.977037)scale(0.1 -0.1)">
       <use transform="translate(0 0.684375)" xlink:href="#DejaVuSans-49"/>
       <use transform="translate(63.623047 0.684375)" xlink:href="#DejaVuSans-48"/>
       <use transform="translate(128.203125 38.965625)scale(0.7)" xlink:href="#DejaVuSans-8722"/>
       <use transform="translate(186.855469 38.965625)scale(0.7)" xlink:href="#DejaVuSans-49"/>
      </g>
     </g>
    </g>
    <g id="xtick_46">
     <g id="line2d_82">
      <g>
       <use style="fill:#555555;stroke:#555555;stroke-width:0.6;" x="49.377196" xlink:href="#m04e7423860" y="306.3786"/>
      </g>
     </g>
    </g>
    <g id="xtick_47">
     <g id="line2d_83">
      <g>
       <use style="fill:#555555;stroke:#555555;stroke-width:0.6;" x="54.084033" xlink:href="#m04e7423860" y="306.3786"/>
      </g>
     </g>
    </g>
    <g id="xtick_48">
     <g id="line2d_84">
      <g>
       <use style="fill:#555555;stroke:#555555;stroke-width:0.6;" x="58.235758" xlink:href="#m04e7423860" y="306.3786"/>
      </g>
     </g>
    </g>
    <g id="xtick_49">
     <g id="line2d_85">
      <g>
       <use style="fill:#555555;stroke:#555555;stroke-width:0.6;" x="86.382291" xlink:href="#m04e7423860" y="306.3786"/>
      </g>
     </g>
    </g>
    <g id="xtick_50">
     <g id="line2d_86">
      <g>
       <use style="fill:#555555;stroke:#555555;stroke-width:0.6;" x="100.674498" xlink:href="#m04e7423860" y="306.3786"/>
      </g>
     </g>
    </g>
    <g id="xtick_51">
     <g id="line2d_87">
      <g>
       <use style="fill:#555555;stroke:#555555;stroke-width:0.6;" x="110.81498" xlink:href="#m04e7423860" y="306.3786"/>
      </g>
     </g>
    </g>
    <g id="xtick_52">
     <g id="line2d_88">
      <g>
       <use style="fill:#555555;stroke:#555555;stroke-width:0.6;" x="118.68055" xlink:href="#m04e7423860" y="306.3786"/>
      </g>
     </g>
    </g>
    <g id="xtick_53">
     <g id="line2d_89">
      <g>
       <use style="fill:#555555;stroke:#555555;stroke-width:0.6;" x="125.107187" xlink:href="#m04e7423860" y="306.3786"/>
      </g>
     </g>
    </g>
    <g id="xtick_54">
     <g id="line2d_90">
      <g>
       <use style="fill:#555555;stroke:#555555;stroke-width:0.6;" x="130.540832" xlink:href="#m04e7423860" y="306.3786"/>
      </g>
     </g>
    </g>
    <g id="xtick_55">
     <g id="line2d_91">
      <g>
       <use style="fill:#555555;stroke:#555555;stroke-width:0.6;" x="135.24767" xlink:href="#m04e7423860" y="306.3786"/>
      </g>
     </g>
    </g>
    <g id="xtick_56">
     <g id="line2d_92">
      <g>
       <use style="fill:#555555;stroke:#555555;stroke-width:0.6;" x="139.399394" xlink:href="#m04e7423860" y="306.3786"/>
      </g>
     </g>
    </g>
    <g id="xtick_57">
     <g id="line2d_93">
      <g>
       <use style="fill:#555555;stroke:#555555;stroke-width:0.6;" x="167.545928" xlink:href="#m04e7423860" y="306.3786"/>
      </g>
     </g>
    </g>
    <g id="xtick_58">
     <g id="line2d_94">
      <g>
       <use style="fill:#555555;stroke:#555555;stroke-width:0.6;" x="181.838135" xlink:href="#m04e7423860" y="306.3786"/>
      </g>
     </g>
    </g>
    <g id="xtick_59">
     <g id="line2d_95">
      <g>
       <use style="fill:#555555;stroke:#555555;stroke-width:0.6;" x="191.978617" xlink:href="#m04e7423860" y="306.3786"/>
      </g>
     </g>
    </g>
    <g id="xtick_60">
     <g id="line2d_96">
      <g>
       <use style="fill:#555555;stroke:#555555;stroke-width:0.6;" x="199.844186" xlink:href="#m04e7423860" y="306.3786"/>
      </g>
     </g>
    </g>
    <g id="xtick_61">
     <g id="line2d_97">
      <g>
       <use style="fill:#555555;stroke:#555555;stroke-width:0.6;" x="206.270824" xlink:href="#m04e7423860" y="306.3786"/>
      </g>
     </g>
    </g>
    <g id="xtick_62">
     <g id="line2d_98">
      <g>
       <use style="fill:#555555;stroke:#555555;stroke-width:0.6;" x="211.704469" xlink:href="#m04e7423860" y="306.3786"/>
      </g>
     </g>
    </g>
    <g id="xtick_63">
     <g id="line2d_99">
      <g>
       <use style="fill:#555555;stroke:#555555;stroke-width:0.6;" x="216.411306" xlink:href="#m04e7423860" y="306.3786"/>
      </g>
     </g>
    </g>
    <g id="xtick_64">
     <g id="line2d_100">
      <g>
       <use style="fill:#555555;stroke:#555555;stroke-width:0.6;" x="220.563031" xlink:href="#m04e7423860" y="306.3786"/>
      </g>
     </g>
    </g>
    <g id="xtick_65">
     <g id="line2d_101">
      <g>
       <use style="fill:#555555;stroke:#555555;stroke-width:0.6;" x="248.709564" xlink:href="#m04e7423860" y="306.3786"/>
      </g>
     </g>
    </g>
    <g id="xtick_66">
     <g id="line2d_102">
      <g>
       <use style="fill:#555555;stroke:#555555;stroke-width:0.6;" x="263.001771" xlink:href="#m04e7423860" y="306.3786"/>
      </g>
     </g>
    </g>
    <g id="xtick_67">
     <g id="line2d_103">
      <g>
       <use style="fill:#555555;stroke:#555555;stroke-width:0.6;" x="273.142253" xlink:href="#m04e7423860" y="306.3786"/>
      </g>
     </g>
    </g>
    <g id="xtick_68">
     <g id="line2d_104">
      <g>
       <use style="fill:#555555;stroke:#555555;stroke-width:0.6;" x="281.007822" xlink:href="#m04e7423860" y="306.3786"/>
      </g>
     </g>
    </g>
    <g id="xtick_69">
     <g id="line2d_105">
      <g>
       <use style="fill:#555555;stroke:#555555;stroke-width:0.6;" x="287.43446" xlink:href="#m04e7423860" y="306.3786"/>
      </g>
     </g>
    </g>
    <g id="xtick_70">
     <g id="line2d_106">
      <g>
       <use style="fill:#555555;stroke:#555555;stroke-width:0.6;" x="292.868105" xlink:href="#m04e7423860" y="306.3786"/>
      </g>
     </g>
    </g>
    <g id="xtick_71">
     <g id="line2d_107">
      <g>
       <use style="fill:#555555;stroke:#555555;stroke-width:0.6;" x="297.574942" xlink:href="#m04e7423860" y="306.3786"/>
      </g>
     </g>
    </g>
    <g id="xtick_72">
     <g id="line2d_108">
      <g>
       <use style="fill:#555555;stroke:#555555;stroke-width:0.6;" x="301.726667" xlink:href="#m04e7423860" y="306.3786"/>
      </g>
     </g>
    </g>
    <g id="xtick_73">
     <g id="line2d_109">
      <g>
       <use style="fill:#555555;stroke:#555555;stroke-width:0.6;" x="329.8732" xlink:href="#m04e7423860" y="306.3786"/>
      </g>
     </g>
    </g>
    <g id="xtick_74">
     <g id="line2d_110">
      <g>
       <use style="fill:#555555;stroke:#555555;stroke-width:0.6;" x="344.165407" xlink:href="#m04e7423860" y="306.3786"/>
      </g>
     </g>
    </g>
    <g id="xtick_75">
     <g id="line2d_111">
      <g>
       <use style="fill:#555555;stroke:#555555;stroke-width:0.6;" x="354.30589" xlink:href="#m04e7423860" y="306.3786"/>
      </g>
     </g>
    </g>
    <g id="xtick_76">
     <g id="line2d_112">
      <g>
       <use style="fill:#555555;stroke:#555555;stroke-width:0.6;" x="362.171459" xlink:href="#m04e7423860" y="306.3786"/>
      </g>
     </g>
    </g>
    <g id="xtick_77">
     <g id="line2d_113">
      <g>
       <use style="fill:#555555;stroke:#555555;stroke-width:0.6;" x="368.598096" xlink:href="#m04e7423860" y="306.3786"/>
      </g>
     </g>
    </g>
    <g id="xtick_78">
     <g id="line2d_114">
      <g>
       <use style="fill:#555555;stroke:#555555;stroke-width:0.6;" x="374.031741" xlink:href="#m04e7423860" y="306.3786"/>
      </g>
     </g>
    </g>
    <g id="xtick_79">
     <g id="line2d_115">
      <g>
       <use style="fill:#555555;stroke:#555555;stroke-width:0.6;" x="378.738579" xlink:href="#m04e7423860" y="306.3786"/>
      </g>
     </g>
    </g>
    <g id="xtick_80">
     <g id="line2d_116">
      <g>
       <use style="fill:#555555;stroke:#555555;stroke-width:0.6;" x="382.890303" xlink:href="#m04e7423860" y="306.3786"/>
      </g>
     </g>
    </g>
    <g id="text_23">
     <!-- $\gamma$ -->
     <defs>
      <path d="M 23.296875 46.09375 
L 28.71875 12.3125 
L 54 54.6875 
L 63.53125 54.6875 
L 30.8125 0 
L 26.765625 -20.796875 
L 17.78125 -20.796875 
L 21.828125 0 
L 15.4375 40.828125 
Q 14.453125 46.96875 9.8125 46.96875 
L 7.421875 46.96875 
L 8.890625 54.6875 
L 12.3125 54.6875 
Q 21.921875 54.6875 23.296875 46.09375 
z
" id="DejaVuSans-Oblique-947"/>
     </defs>
     <g style="fill:#555555;" transform="translate(220.676875 336.150475)scale(0.12 -0.12)">
      <use transform="translate(0 0.3125)" xlink:href="#DejaVuSans-Oblique-947"/>
     </g>
    </g>
   </g>
   <g id="matplotlib.axis_4">
    <g id="ytick_5">
     <g id="line2d_117">
      <path clip-path="url(#p9190f3d807)" d="M 45.716875 300.676087 
L 402.836875 300.676087 
" style="fill:none;stroke:#ffffff;stroke-linecap:square;stroke-width:0.8;"/>
     </g>
     <g id="line2d_118">
      <g>
       <use style="fill:#555555;stroke:#555555;stroke-width:0.8;" x="45.716875" xlink:href="#m73b516075b" y="300.676087"/>
      </g>
     </g>
     <g id="text_24">
      <!-- 0.0 -->
      <g style="fill:#555555;" transform="translate(22.81375 304.475306)scale(0.1 -0.1)">
       <use xlink:href="#DejaVuSans-48"/>
       <use x="63.623047" xlink:href="#DejaVuSans-46"/>
       <use x="95.410156" xlink:href="#DejaVuSans-48"/>
      </g>
     </g>
    </g>
    <g id="ytick_6">
     <g id="line2d_119">
      <path clip-path="url(#p9190f3d807)" d="M 45.716875 278.914815 
L 402.836875 278.914815 
" style="fill:none;stroke:#ffffff;stroke-linecap:square;stroke-width:0.8;"/>
     </g>
     <g id="line2d_120">
      <g>
       <use style="fill:#555555;stroke:#555555;stroke-width:0.8;" x="45.716875" xlink:href="#m73b516075b" y="278.914815"/>
      </g>
     </g>
     <g id="text_25">
      <!-- 0.1 -->
      <g style="fill:#555555;" transform="translate(22.81375 282.714034)scale(0.1 -0.1)">
       <use xlink:href="#DejaVuSans-48"/>
       <use x="63.623047" xlink:href="#DejaVuSans-46"/>
       <use x="95.410156" xlink:href="#DejaVuSans-49"/>
      </g>
     </g>
    </g>
    <g id="ytick_7">
     <g id="line2d_121">
      <path clip-path="url(#p9190f3d807)" d="M 45.716875 257.153544 
L 402.836875 257.153544 
" style="fill:none;stroke:#ffffff;stroke-linecap:square;stroke-width:0.8;"/>
     </g>
     <g id="line2d_122">
      <g>
       <use style="fill:#555555;stroke:#555555;stroke-width:0.8;" x="45.716875" xlink:href="#m73b516075b" y="257.153544"/>
      </g>
     </g>
     <g id="text_26">
      <!-- 0.2 -->
      <g style="fill:#555555;" transform="translate(22.81375 260.952762)scale(0.1 -0.1)">
       <use xlink:href="#DejaVuSans-48"/>
       <use x="63.623047" xlink:href="#DejaVuSans-46"/>
       <use x="95.410156" xlink:href="#DejaVuSans-50"/>
      </g>
     </g>
    </g>
    <g id="ytick_8">
     <g id="line2d_123">
      <path clip-path="url(#p9190f3d807)" d="M 45.716875 235.392272 
L 402.836875 235.392272 
" style="fill:none;stroke:#ffffff;stroke-linecap:square;stroke-width:0.8;"/>
     </g>
     <g id="line2d_124">
      <g>
       <use style="fill:#555555;stroke:#555555;stroke-width:0.8;" x="45.716875" xlink:href="#m73b516075b" y="235.392272"/>
      </g>
     </g>
     <g id="text_27">
      <!-- 0.3 -->
      <g style="fill:#555555;" transform="translate(22.81375 239.191491)scale(0.1 -0.1)">
       <use xlink:href="#DejaVuSans-48"/>
       <use x="63.623047" xlink:href="#DejaVuSans-46"/>
       <use x="95.410156" xlink:href="#DejaVuSans-51"/>
      </g>
     </g>
    </g>
    <g id="ytick_9">
     <g id="line2d_125">
      <path clip-path="url(#p9190f3d807)" d="M 45.716875 213.631 
L 402.836875 213.631 
" style="fill:none;stroke:#ffffff;stroke-linecap:square;stroke-width:0.8;"/>
     </g>
     <g id="line2d_126">
      <g>
       <use style="fill:#555555;stroke:#555555;stroke-width:0.8;" x="45.716875" xlink:href="#m73b516075b" y="213.631"/>
      </g>
     </g>
     <g id="text_28">
      <!-- 0.4 -->
      <g style="fill:#555555;" transform="translate(22.81375 217.430219)scale(0.1 -0.1)">
       <use xlink:href="#DejaVuSans-48"/>
       <use x="63.623047" xlink:href="#DejaVuSans-46"/>
       <use x="95.410156" xlink:href="#DejaVuSans-52"/>
      </g>
     </g>
    </g>
    <g id="ytick_10">
     <g id="line2d_127">
      <path clip-path="url(#p9190f3d807)" d="M 45.716875 191.869728 
L 402.836875 191.869728 
" style="fill:none;stroke:#ffffff;stroke-linecap:square;stroke-width:0.8;"/>
     </g>
     <g id="line2d_128">
      <g>
       <use style="fill:#555555;stroke:#555555;stroke-width:0.8;" x="45.716875" xlink:href="#m73b516075b" y="191.869728"/>
      </g>
     </g>
     <g id="text_29">
      <!-- 0.5 -->
      <g style="fill:#555555;" transform="translate(22.81375 195.668947)scale(0.1 -0.1)">
       <use xlink:href="#DejaVuSans-48"/>
       <use x="63.623047" xlink:href="#DejaVuSans-46"/>
       <use x="95.410156" xlink:href="#DejaVuSans-53"/>
      </g>
     </g>
    </g>
    <g id="text_30">
     <!-- TPR -->
     <defs>
      <path d="M -0.296875 72.90625 
L 61.375 72.90625 
L 61.375 64.59375 
L 35.5 64.59375 
L 35.5 0 
L 25.59375 0 
L 25.59375 64.59375 
L -0.296875 64.59375 
z
" id="DejaVuSans-84"/>
      <path d="M 44.390625 34.1875 
Q 47.5625 33.109375 50.5625 29.59375 
Q 53.5625 26.078125 56.59375 19.921875 
L 66.609375 0 
L 56 0 
L 46.6875 18.703125 
Q 43.0625 26.03125 39.671875 28.421875 
Q 36.28125 30.8125 30.421875 30.8125 
L 19.671875 30.8125 
L 19.671875 0 
L 9.8125 0 
L 9.8125 72.90625 
L 32.078125 72.90625 
Q 44.578125 72.90625 50.734375 67.671875 
Q 56.890625 62.453125 56.890625 51.90625 
Q 56.890625 45.015625 53.6875 40.46875 
Q 50.484375 35.9375 44.390625 34.1875 
z
M 19.671875 64.796875 
L 19.671875 38.921875 
L 32.078125 38.921875 
Q 39.203125 38.921875 42.84375 42.21875 
Q 46.484375 45.515625 46.484375 51.90625 
Q 46.484375 58.296875 42.84375 61.546875 
Q 39.203125 64.796875 32.078125 64.796875 
z
" id="DejaVuSans-82"/>
     </defs>
     <g style="fill:#555555;" transform="translate(16.318125 257.350162)rotate(-90)scale(0.12 -0.12)">
      <use xlink:href="#DejaVuSans-84"/>
      <use x="61.083984" xlink:href="#DejaVuSans-80"/>
      <use x="121.386719" xlink:href="#DejaVuSans-82"/>
     </g>
    </g>
   </g>
   <g id="PolyCollection_7">
    <path clip-path="url(#p9190f3d807)" d="M 61.949602 199.724685 
L 61.949602 190.968768 
L 118.68055 190.916782 
L 143.113239 192.48122 
L 199.844186 201.789982 
L 224.276875 202.676797 
L 281.007822 238.835025 
L 305.440511 241.295099 
L 362.171459 300.137941 
L 386.604148 300.676087 
L 386.604148 300.676087 
L 386.604148 300.676087 
L 362.171459 300.855469 
L 305.440511 261.465944 
L 281.007822 243.447546 
L 224.276875 211.288154 
L 199.844186 212.023238 
L 143.113239 197.993547 
L 118.68055 200.76757 
L 61.949602 199.724685 
z
" style="fill:#e24a33;fill-opacity:0.2;"/>
   </g>
   <g id="PolyCollection_8">
    <path clip-path="url(#p9190f3d807)" d="M 61.949602 240.326639 
L 61.949602 225.689678 
L 118.68055 222.611296 
L 143.113239 222.336316 
L 199.844186 226.447045 
L 224.276875 212.019003 
L 281.007822 217.065965 
L 305.440511 226.564839 
L 362.171459 297.080062 
L 386.604148 300.676087 
L 386.604148 300.676087 
L 386.604148 300.676087 
L 362.171459 300.653821 
L 305.440511 235.451059 
L 281.007822 234.661044 
L 224.276875 226.638908 
L 199.844186 239.567962 
L 143.113239 238.129463 
L 118.68055 236.884753 
L 61.949602 240.326639 
z
" style="fill:#348abd;fill-opacity:0.2;"/>
   </g>
   <g id="PolyCollection_9">
    <path clip-path="url(#p9190f3d807)" d="M 61.949602 211.791328 
L 61.949602 200.852516 
L 118.68055 201.013781 
L 143.113239 202.92671 
L 199.844186 209.26926 
L 224.276875 209.268113 
L 281.007822 231.343508 
L 305.440511 238.824188 
L 362.171459 300.063093 
L 386.604148 300.676087 
L 386.604148 300.676087 
L 386.604148 300.676087 
L 362.171459 300.880418 
L 305.440511 253.019859 
L 281.007822 239.840529 
L 224.276875 216.238816 
L 199.844186 219.885983 
L 143.113239 211.6726 
L 118.68055 212.400394 
L 61.949602 211.791328 
z
" style="fill:#988ed5;fill-opacity:0.2;"/>
   </g>
   <g id="PolyCollection_10">
    <path clip-path="url(#p9190f3d807)" d="M 61.949602 204.504619 
L 61.949602 196.420016 
L 118.68055 195.431127 
L 143.113239 196.823126 
L 199.844186 205.939992 
L 224.276875 204.007127 
L 281.007822 236.837786 
L 305.440511 239.718941 
L 362.171459 299.724562 
L 386.604148 300.676087 
L 386.604148 300.676087 
L 386.604148 300.676087 
L 362.171459 300.718867 
L 305.440511 257.274206 
L 281.007822 241.421226 
L 224.276875 212.83446 
L 199.844186 214.944856 
L 143.113239 202.767871 
L 118.68055 205.260683 
L 61.949602 204.504619 
z
" style="fill:#777777;fill-opacity:0.2;"/>
   </g>
   <g id="PolyCollection_11">
    <path clip-path="url(#p9190f3d807)" d="M 61.949602 203.226224 
L 61.949602 194.733717 
L 118.68055 193.816563 
L 143.113239 195.957979 
L 199.844186 204.201331 
L 224.276875 202.938144 
L 281.007822 233.797051 
L 305.440511 236.81831 
L 362.171459 299.663766 
L 386.604148 300.676087 
L 386.604148 300.676087 
L 386.604148 300.676087 
L 362.171459 300.712686 
L 305.440511 256.3377 
L 281.007822 239.622685 
L 224.276875 211.67725 
L 199.844186 213.925784 
L 143.113239 201.136179 
L 118.68055 204.286237 
L 61.949602 203.226224 
z
" style="fill:#fbc15e;fill-opacity:0.2;"/>
   </g>
   <g id="PolyCollection_12">
    <path clip-path="url(#p9190f3d807)" d="M 61.949602 214.901877 
L 61.949602 204.503906 
L 118.68055 204.15365 
L 143.113239 203.422808 
L 199.844186 212.602109 
L 224.276875 209.572737 
L 281.007822 243.091039 
L 305.440511 251.246495 
L 362.171459 300.105923 
L 386.604148 300.676087 
L 386.604148 300.676087 
L 386.604148 300.676087 
L 362.171459 300.866142 
L 305.440511 259.348751 
L 281.007822 252.115504 
L 224.276875 220.997549 
L 199.844186 224.008282 
L 143.113239 214.366822 
L 118.68055 213.882384 
L 61.949602 214.901877 
z
" style="fill:#8eba42;fill-opacity:0.2;"/>
   </g>
   <g id="line2d_129">
    <path clip-path="url(#p9190f3d807)" d="M 61.949602 195.346727 
L 118.68055 195.842176 
L 143.113239 195.237383 
L 199.844186 206.90661 
L 224.276875 206.982476 
L 281.007822 241.141285 
L 305.440511 251.380521 
L 362.171459 300.496705 
L 386.604148 300.676087 
" style="fill:none;stroke:#e24a33;stroke-linecap:square;stroke-width:1.5;"/>
   </g>
   <g id="line2d_130">
    <path clip-path="url(#p9190f3d807)" d="M 61.949602 233.008158 
L 118.68055 229.748024 
L 143.113239 230.232889 
L 199.844186 233.007503 
L 224.276875 219.328956 
L 281.007822 225.863505 
L 305.440511 231.007949 
L 362.171459 298.866941 
L 386.604148 300.676087 
" style="fill:none;stroke:#348abd;stroke-linecap:square;stroke-width:1.5;"/>
   </g>
   <g id="line2d_131">
    <path clip-path="url(#p9190f3d807)" d="M 61.949602 206.321922 
L 118.68055 206.707088 
L 143.113239 207.299655 
L 199.844186 214.577622 
L 224.276875 212.753464 
L 281.007822 235.592018 
L 305.440511 245.922023 
L 362.171459 300.471756 
L 386.604148 300.676087 
" style="fill:none;stroke:#988ed5;stroke-linecap:square;stroke-width:1.5;"/>
   </g>
   <g id="line2d_132">
    <path clip-path="url(#p9190f3d807)" d="M 61.949602 200.462317 
L 118.68055 200.345905 
L 143.113239 199.795499 
L 199.844186 210.442424 
L 224.276875 208.420793 
L 281.007822 239.129506 
L 305.440511 248.496574 
L 362.171459 300.221714 
L 386.604148 300.676087 
" style="fill:none;stroke:#777777;stroke-linecap:square;stroke-width:1.5;"/>
   </g>
   <g id="line2d_133">
    <path clip-path="url(#p9190f3d807)" d="M 61.949602 198.97997 
L 118.68055 199.0514 
L 143.113239 198.547079 
L 199.844186 209.063558 
L 224.276875 207.307697 
L 281.007822 236.709868 
L 305.440511 246.578005 
L 362.171459 300.188226 
L 386.604148 300.676087 
" style="fill:none;stroke:#fbc15e;stroke-linecap:square;stroke-width:1.5;"/>
   </g>
   <g id="line2d_134">
    <path clip-path="url(#p9190f3d807)" d="M 61.949602 209.702891 
L 118.68055 209.018017 
L 143.113239 208.894815 
L 199.844186 218.305195 
L 224.276875 215.285143 
L 281.007822 247.603273 
L 305.440511 255.297623 
L 362.171459 300.486032 
L 386.604148 300.676087 
" style="fill:none;stroke:#8eba42;stroke-linecap:square;stroke-width:1.5;"/>
   </g>
   <g id="patch_9">
    <path d="M 45.716875 306.3786 
L 45.716875 185.4186 
" style="fill:none;stroke:#ffffff;stroke-linecap:square;stroke-linejoin:miter;"/>
   </g>
   <g id="patch_10">
    <path d="M 402.836875 306.3786 
L 402.836875 185.4186 
" style="fill:none;stroke:#ffffff;stroke-linecap:square;stroke-linejoin:miter;"/>
   </g>
   <g id="patch_11">
    <path d="M 45.716875 306.3786 
L 402.836875 306.3786 
" style="fill:none;stroke:#ffffff;stroke-linecap:square;stroke-linejoin:miter;"/>
   </g>
   <g id="patch_12">
    <path d="M 45.716875 185.4186 
L 402.836875 185.4186 
" style="fill:none;stroke:#ffffff;stroke-linecap:square;stroke-linejoin:miter;"/>
   </g>
  </g>
 </g>
 <defs>
  <clipPath id="pf866bbdc77">
   <rect height="120.96" width="357.12" x="45.716875" y="40.2666"/>
  </clipPath>
  <clipPath id="p9190f3d807">
   <rect height="120.96" width="357.12" x="45.716875" y="185.4186"/>
  </clipPath>
 </defs>
</svg>
