<?xml version="1.0" encoding="utf-8" standalone="no"?>
<!DOCTYPE svg PUBLIC "-//W3C//DTD SVG 1.1//EN"
  "http://www.w3.org/Graphics/SVG/1.1/DTD/svg11.dtd">
<!-- Created with matplotlib (https://matplotlib.org/) -->
<svg height="281.073625pt" version="1.1" viewBox="0 0 394.079375 281.073625" width="394.079375pt" xmlns="http://www.w3.org/2000/svg" xmlns:xlink="http://www.w3.org/1999/xlink">
 <metadata>
  <rdf:RDF xmlns:cc="http://creativecommons.org/ns#" xmlns:dc="http://purl.org/dc/elements/1.1/" xmlns:rdf="http://www.w3.org/1999/02/22-rdf-syntax-ns#">
   <cc:Work>
    <dc:type rdf:resource="http://purl.org/dc/dcmitype/StillImage"/>
    <dc:date>2023-05-15T12:22:41.288757</dc:date>
    <dc:format>image/svg+xml</dc:format>
    <dc:creator>
     <cc:Agent>
      <dc:title>Matplotlib v3.3.4, https://matplotlib.org/</dc:title>
     </cc:Agent>
    </dc:creator>
   </cc:Work>
  </rdf:RDF>
 </metadata>
 <defs>
  <style type="text/css">*{stroke-linecap:butt;stroke-linejoin:round;}</style>
 </defs>
 <g id="figure_1">
  <g id="patch_1">
   <path d="M 0 281.073625 
L 394.079375 281.073625 
L 394.079375 0 
L 0 0 
z
" style="fill:#ffffff;"/>
  </g>
  <g id="axes_1">
   <g id="patch_2">
    <path d="M 52.079375 241.58175 
L 386.879375 241.58175 
L 386.879375 24.14175 
L 52.079375 24.14175 
z
" style="fill:#e5e5e5;"/>
   </g>
   <g id="matplotlib.axis_1">
    <g id="xtick_1">
     <g id="line2d_1">
      <path clip-path="url(#pb9db50a0e2)" d="M 79.805651 241.58175 
L 79.805651 24.14175 
" style="fill:none;stroke:#ffffff;stroke-linecap:square;stroke-width:0.8;"/>
     </g>
     <g id="line2d_2">
      <defs>
       <path d="M 0 0 
L 0 3.5 
" id="m3cb8742532" style="stroke:#555555;stroke-width:0.8;"/>
      </defs>
      <g>
       <use style="fill:#555555;stroke:#555555;stroke-width:0.8;" x="79.805651" xlink:href="#m3cb8742532" y="241.58175"/>
      </g>
     </g>
     <g id="text_1">
      <!-- 20 -->
      <g style="fill:#555555;" transform="translate(73.443151 256.180187)scale(0.1 -0.1)">
       <defs>
        <path d="M 19.1875 8.296875 
L 53.609375 8.296875 
L 53.609375 0 
L 7.328125 0 
L 7.328125 8.296875 
Q 12.9375 14.109375 22.625 23.890625 
Q 32.328125 33.6875 34.8125 36.53125 
Q 39.546875 41.84375 41.421875 45.53125 
Q 43.3125 49.21875 43.3125 52.78125 
Q 43.3125 58.59375 39.234375 62.25 
Q 35.15625 65.921875 28.609375 65.921875 
Q 23.96875 65.921875 18.8125 64.3125 
Q 13.671875 62.703125 7.8125 59.421875 
L 7.8125 69.390625 
Q 13.765625 71.78125 18.9375 73 
Q 24.125 74.21875 28.421875 74.21875 
Q 39.75 74.21875 46.484375 68.546875 
Q 53.21875 62.890625 53.21875 53.421875 
Q 53.21875 48.921875 51.53125 44.890625 
Q 49.859375 40.875 45.40625 35.40625 
Q 44.1875 33.984375 37.640625 27.21875 
Q 31.109375 20.453125 19.1875 8.296875 
z
" id="DejaVuSans-50"/>
        <path d="M 31.78125 66.40625 
Q 24.171875 66.40625 20.328125 58.90625 
Q 16.5 51.421875 16.5 36.375 
Q 16.5 21.390625 20.328125 13.890625 
Q 24.171875 6.390625 31.78125 6.390625 
Q 39.453125 6.390625 43.28125 13.890625 
Q 47.125 21.390625 47.125 36.375 
Q 47.125 51.421875 43.28125 58.90625 
Q 39.453125 66.40625 31.78125 66.40625 
z
M 31.78125 74.21875 
Q 44.046875 74.21875 50.515625 64.515625 
Q 56.984375 54.828125 56.984375 36.375 
Q 56.984375 17.96875 50.515625 8.265625 
Q 44.046875 -1.421875 31.78125 -1.421875 
Q 19.53125 -1.421875 13.0625 8.265625 
Q 6.59375 17.96875 6.59375 36.375 
Q 6.59375 54.828125 13.0625 64.515625 
Q 19.53125 74.21875 31.78125 74.21875 
z
" id="DejaVuSans-48"/>
       </defs>
       <use xlink:href="#DejaVuSans-50"/>
       <use x="63.623047" xlink:href="#DejaVuSans-48"/>
      </g>
     </g>
    </g>
    <g id="xtick_2">
     <g id="line2d_3">
      <path clip-path="url(#pb9db50a0e2)" d="M 121.4993 241.58175 
L 121.4993 24.14175 
" style="fill:none;stroke:#ffffff;stroke-linecap:square;stroke-width:0.8;"/>
     </g>
     <g id="line2d_4">
      <g>
       <use style="fill:#555555;stroke:#555555;stroke-width:0.8;" x="121.4993" xlink:href="#m3cb8742532" y="241.58175"/>
      </g>
     </g>
     <g id="text_2">
      <!-- 30 -->
      <g style="fill:#555555;" transform="translate(115.1368 256.180187)scale(0.1 -0.1)">
       <defs>
        <path d="M 40.578125 39.3125 
Q 47.65625 37.796875 51.625 33 
Q 55.609375 28.21875 55.609375 21.1875 
Q 55.609375 10.40625 48.1875 4.484375 
Q 40.765625 -1.421875 27.09375 -1.421875 
Q 22.515625 -1.421875 17.65625 -0.515625 
Q 12.796875 0.390625 7.625 2.203125 
L 7.625 11.71875 
Q 11.71875 9.328125 16.59375 8.109375 
Q 21.484375 6.890625 26.8125 6.890625 
Q 36.078125 6.890625 40.9375 10.546875 
Q 45.796875 14.203125 45.796875 21.1875 
Q 45.796875 27.640625 41.28125 31.265625 
Q 36.765625 34.90625 28.71875 34.90625 
L 20.21875 34.90625 
L 20.21875 43.015625 
L 29.109375 43.015625 
Q 36.375 43.015625 40.234375 45.921875 
Q 44.09375 48.828125 44.09375 54.296875 
Q 44.09375 59.90625 40.109375 62.90625 
Q 36.140625 65.921875 28.71875 65.921875 
Q 24.65625 65.921875 20.015625 65.03125 
Q 15.375 64.15625 9.8125 62.3125 
L 9.8125 71.09375 
Q 15.4375 72.65625 20.34375 73.4375 
Q 25.25 74.21875 29.59375 74.21875 
Q 40.828125 74.21875 47.359375 69.109375 
Q 53.90625 64.015625 53.90625 55.328125 
Q 53.90625 49.265625 50.4375 45.09375 
Q 46.96875 40.921875 40.578125 39.3125 
z
" id="DejaVuSans-51"/>
       </defs>
       <use xlink:href="#DejaVuSans-51"/>
       <use x="63.623047" xlink:href="#DejaVuSans-48"/>
      </g>
     </g>
    </g>
    <g id="xtick_3">
     <g id="line2d_5">
      <path clip-path="url(#pb9db50a0e2)" d="M 163.192949 241.58175 
L 163.192949 24.14175 
" style="fill:none;stroke:#ffffff;stroke-linecap:square;stroke-width:0.8;"/>
     </g>
     <g id="line2d_6">
      <g>
       <use style="fill:#555555;stroke:#555555;stroke-width:0.8;" x="163.192949" xlink:href="#m3cb8742532" y="241.58175"/>
      </g>
     </g>
     <g id="text_3">
      <!-- 40 -->
      <g style="fill:#555555;" transform="translate(156.830449 256.180187)scale(0.1 -0.1)">
       <defs>
        <path d="M 37.796875 64.3125 
L 12.890625 25.390625 
L 37.796875 25.390625 
z
M 35.203125 72.90625 
L 47.609375 72.90625 
L 47.609375 25.390625 
L 58.015625 25.390625 
L 58.015625 17.1875 
L 47.609375 17.1875 
L 47.609375 0 
L 37.796875 0 
L 37.796875 17.1875 
L 4.890625 17.1875 
L 4.890625 26.703125 
z
" id="DejaVuSans-52"/>
       </defs>
       <use xlink:href="#DejaVuSans-52"/>
       <use x="63.623047" xlink:href="#DejaVuSans-48"/>
      </g>
     </g>
    </g>
    <g id="xtick_4">
     <g id="line2d_7">
      <path clip-path="url(#pb9db50a0e2)" d="M 204.886598 241.58175 
L 204.886598 24.14175 
" style="fill:none;stroke:#ffffff;stroke-linecap:square;stroke-width:0.8;"/>
     </g>
     <g id="line2d_8">
      <g>
       <use style="fill:#555555;stroke:#555555;stroke-width:0.8;" x="204.886598" xlink:href="#m3cb8742532" y="241.58175"/>
      </g>
     </g>
     <g id="text_4">
      <!-- 50 -->
      <g style="fill:#555555;" transform="translate(198.524098 256.180187)scale(0.1 -0.1)">
       <defs>
        <path d="M 10.796875 72.90625 
L 49.515625 72.90625 
L 49.515625 64.59375 
L 19.828125 64.59375 
L 19.828125 46.734375 
Q 21.96875 47.46875 24.109375 47.828125 
Q 26.265625 48.1875 28.421875 48.1875 
Q 40.625 48.1875 47.75 41.5 
Q 54.890625 34.8125 54.890625 23.390625 
Q 54.890625 11.625 47.5625 5.09375 
Q 40.234375 -1.421875 26.90625 -1.421875 
Q 22.3125 -1.421875 17.546875 -0.640625 
Q 12.796875 0.140625 7.71875 1.703125 
L 7.71875 11.625 
Q 12.109375 9.234375 16.796875 8.0625 
Q 21.484375 6.890625 26.703125 6.890625 
Q 35.15625 6.890625 40.078125 11.328125 
Q 45.015625 15.765625 45.015625 23.390625 
Q 45.015625 31 40.078125 35.4375 
Q 35.15625 39.890625 26.703125 39.890625 
Q 22.75 39.890625 18.8125 39.015625 
Q 14.890625 38.140625 10.796875 36.28125 
z
" id="DejaVuSans-53"/>
       </defs>
       <use xlink:href="#DejaVuSans-53"/>
       <use x="63.623047" xlink:href="#DejaVuSans-48"/>
      </g>
     </g>
    </g>
    <g id="xtick_5">
     <g id="line2d_9">
      <path clip-path="url(#pb9db50a0e2)" d="M 246.580247 241.58175 
L 246.580247 24.14175 
" style="fill:none;stroke:#ffffff;stroke-linecap:square;stroke-width:0.8;"/>
     </g>
     <g id="line2d_10">
      <g>
       <use style="fill:#555555;stroke:#555555;stroke-width:0.8;" x="246.580247" xlink:href="#m3cb8742532" y="241.58175"/>
      </g>
     </g>
     <g id="text_5">
      <!-- 60 -->
      <g style="fill:#555555;" transform="translate(240.217747 256.180187)scale(0.1 -0.1)">
       <defs>
        <path d="M 33.015625 40.375 
Q 26.375 40.375 22.484375 35.828125 
Q 18.609375 31.296875 18.609375 23.390625 
Q 18.609375 15.53125 22.484375 10.953125 
Q 26.375 6.390625 33.015625 6.390625 
Q 39.65625 6.390625 43.53125 10.953125 
Q 47.40625 15.53125 47.40625 23.390625 
Q 47.40625 31.296875 43.53125 35.828125 
Q 39.65625 40.375 33.015625 40.375 
z
M 52.59375 71.296875 
L 52.59375 62.3125 
Q 48.875 64.0625 45.09375 64.984375 
Q 41.3125 65.921875 37.59375 65.921875 
Q 27.828125 65.921875 22.671875 59.328125 
Q 17.53125 52.734375 16.796875 39.40625 
Q 19.671875 43.65625 24.015625 45.921875 
Q 28.375 48.1875 33.59375 48.1875 
Q 44.578125 48.1875 50.953125 41.515625 
Q 57.328125 34.859375 57.328125 23.390625 
Q 57.328125 12.15625 50.6875 5.359375 
Q 44.046875 -1.421875 33.015625 -1.421875 
Q 20.359375 -1.421875 13.671875 8.265625 
Q 6.984375 17.96875 6.984375 36.375 
Q 6.984375 53.65625 15.1875 63.9375 
Q 23.390625 74.21875 37.203125 74.21875 
Q 40.921875 74.21875 44.703125 73.484375 
Q 48.484375 72.75 52.59375 71.296875 
z
" id="DejaVuSans-54"/>
       </defs>
       <use xlink:href="#DejaVuSans-54"/>
       <use x="63.623047" xlink:href="#DejaVuSans-48"/>
      </g>
     </g>
    </g>
    <g id="xtick_6">
     <g id="line2d_11">
      <path clip-path="url(#pb9db50a0e2)" d="M 288.273896 241.58175 
L 288.273896 24.14175 
" style="fill:none;stroke:#ffffff;stroke-linecap:square;stroke-width:0.8;"/>
     </g>
     <g id="line2d_12">
      <g>
       <use style="fill:#555555;stroke:#555555;stroke-width:0.8;" x="288.273896" xlink:href="#m3cb8742532" y="241.58175"/>
      </g>
     </g>
     <g id="text_6">
      <!-- 70 -->
      <g style="fill:#555555;" transform="translate(281.911396 256.180187)scale(0.1 -0.1)">
       <defs>
        <path d="M 8.203125 72.90625 
L 55.078125 72.90625 
L 55.078125 68.703125 
L 28.609375 0 
L 18.3125 0 
L 43.21875 64.59375 
L 8.203125 64.59375 
z
" id="DejaVuSans-55"/>
       </defs>
       <use xlink:href="#DejaVuSans-55"/>
       <use x="63.623047" xlink:href="#DejaVuSans-48"/>
      </g>
     </g>
    </g>
    <g id="xtick_7">
     <g id="line2d_13">
      <path clip-path="url(#pb9db50a0e2)" d="M 329.967544 241.58175 
L 329.967544 24.14175 
" style="fill:none;stroke:#ffffff;stroke-linecap:square;stroke-width:0.8;"/>
     </g>
     <g id="line2d_14">
      <g>
       <use style="fill:#555555;stroke:#555555;stroke-width:0.8;" x="329.967544" xlink:href="#m3cb8742532" y="241.58175"/>
      </g>
     </g>
     <g id="text_7">
      <!-- 80 -->
      <g style="fill:#555555;" transform="translate(323.605044 256.180187)scale(0.1 -0.1)">
       <defs>
        <path d="M 31.78125 34.625 
Q 24.75 34.625 20.71875 30.859375 
Q 16.703125 27.09375 16.703125 20.515625 
Q 16.703125 13.921875 20.71875 10.15625 
Q 24.75 6.390625 31.78125 6.390625 
Q 38.8125 6.390625 42.859375 10.171875 
Q 46.921875 13.96875 46.921875 20.515625 
Q 46.921875 27.09375 42.890625 30.859375 
Q 38.875 34.625 31.78125 34.625 
z
M 21.921875 38.8125 
Q 15.578125 40.375 12.03125 44.71875 
Q 8.5 49.078125 8.5 55.328125 
Q 8.5 64.0625 14.71875 69.140625 
Q 20.953125 74.21875 31.78125 74.21875 
Q 42.671875 74.21875 48.875 69.140625 
Q 55.078125 64.0625 55.078125 55.328125 
Q 55.078125 49.078125 51.53125 44.71875 
Q 48 40.375 41.703125 38.8125 
Q 48.828125 37.15625 52.796875 32.3125 
Q 56.78125 27.484375 56.78125 20.515625 
Q 56.78125 9.90625 50.3125 4.234375 
Q 43.84375 -1.421875 31.78125 -1.421875 
Q 19.734375 -1.421875 13.25 4.234375 
Q 6.78125 9.90625 6.78125 20.515625 
Q 6.78125 27.484375 10.78125 32.3125 
Q 14.796875 37.15625 21.921875 38.8125 
z
M 18.3125 54.390625 
Q 18.3125 48.734375 21.84375 45.5625 
Q 25.390625 42.390625 31.78125 42.390625 
Q 38.140625 42.390625 41.71875 45.5625 
Q 45.3125 48.734375 45.3125 54.390625 
Q 45.3125 60.0625 41.71875 63.234375 
Q 38.140625 66.40625 31.78125 66.40625 
Q 25.390625 66.40625 21.84375 63.234375 
Q 18.3125 60.0625 18.3125 54.390625 
z
" id="DejaVuSans-56"/>
       </defs>
       <use xlink:href="#DejaVuSans-56"/>
       <use x="63.623047" xlink:href="#DejaVuSans-48"/>
      </g>
     </g>
    </g>
    <g id="xtick_8">
     <g id="line2d_15">
      <path clip-path="url(#pb9db50a0e2)" d="M 371.661193 241.58175 
L 371.661193 24.14175 
" style="fill:none;stroke:#ffffff;stroke-linecap:square;stroke-width:0.8;"/>
     </g>
     <g id="line2d_16">
      <g>
       <use style="fill:#555555;stroke:#555555;stroke-width:0.8;" x="371.661193" xlink:href="#m3cb8742532" y="241.58175"/>
      </g>
     </g>
     <g id="text_8">
      <!-- 90 -->
      <g style="fill:#555555;" transform="translate(365.298693 256.180187)scale(0.1 -0.1)">
       <defs>
        <path d="M 10.984375 1.515625 
L 10.984375 10.5 
Q 14.703125 8.734375 18.5 7.8125 
Q 22.3125 6.890625 25.984375 6.890625 
Q 35.75 6.890625 40.890625 13.453125 
Q 46.046875 20.015625 46.78125 33.40625 
Q 43.953125 29.203125 39.59375 26.953125 
Q 35.25 24.703125 29.984375 24.703125 
Q 19.046875 24.703125 12.671875 31.3125 
Q 6.296875 37.9375 6.296875 49.421875 
Q 6.296875 60.640625 12.9375 67.421875 
Q 19.578125 74.21875 30.609375 74.21875 
Q 43.265625 74.21875 49.921875 64.515625 
Q 56.59375 54.828125 56.59375 36.375 
Q 56.59375 19.140625 48.40625 8.859375 
Q 40.234375 -1.421875 26.421875 -1.421875 
Q 22.703125 -1.421875 18.890625 -0.6875 
Q 15.09375 0.046875 10.984375 1.515625 
z
M 30.609375 32.421875 
Q 37.25 32.421875 41.125 36.953125 
Q 45.015625 41.5 45.015625 49.421875 
Q 45.015625 57.28125 41.125 61.84375 
Q 37.25 66.40625 30.609375 66.40625 
Q 23.96875 66.40625 20.09375 61.84375 
Q 16.21875 57.28125 16.21875 49.421875 
Q 16.21875 41.5 20.09375 36.953125 
Q 23.96875 32.421875 30.609375 32.421875 
z
" id="DejaVuSans-57"/>
       </defs>
       <use xlink:href="#DejaVuSans-57"/>
       <use x="63.623047" xlink:href="#DejaVuSans-48"/>
      </g>
     </g>
    </g>
    <g id="text_9">
     <!-- age -->
     <g style="fill:#555555;" transform="translate(208.301563 271.378)scale(0.12 -0.12)">
      <defs>
       <path d="M 34.28125 27.484375 
Q 23.390625 27.484375 19.1875 25 
Q 14.984375 22.515625 14.984375 16.5 
Q 14.984375 11.71875 18.140625 8.90625 
Q 21.296875 6.109375 26.703125 6.109375 
Q 34.1875 6.109375 38.703125 11.40625 
Q 43.21875 16.703125 43.21875 25.484375 
L 43.21875 27.484375 
z
M 52.203125 31.203125 
L 52.203125 0 
L 43.21875 0 
L 43.21875 8.296875 
Q 40.140625 3.328125 35.546875 0.953125 
Q 30.953125 -1.421875 24.3125 -1.421875 
Q 15.921875 -1.421875 10.953125 3.296875 
Q 6 8.015625 6 15.921875 
Q 6 25.140625 12.171875 29.828125 
Q 18.359375 34.515625 30.609375 34.515625 
L 43.21875 34.515625 
L 43.21875 35.40625 
Q 43.21875 41.609375 39.140625 45 
Q 35.0625 48.390625 27.6875 48.390625 
Q 23 48.390625 18.546875 47.265625 
Q 14.109375 46.140625 10.015625 43.890625 
L 10.015625 52.203125 
Q 14.9375 54.109375 19.578125 55.046875 
Q 24.21875 56 28.609375 56 
Q 40.484375 56 46.34375 49.84375 
Q 52.203125 43.703125 52.203125 31.203125 
z
" id="DejaVuSans-97"/>
       <path d="M 45.40625 27.984375 
Q 45.40625 37.75 41.375 43.109375 
Q 37.359375 48.484375 30.078125 48.484375 
Q 22.859375 48.484375 18.828125 43.109375 
Q 14.796875 37.75 14.796875 27.984375 
Q 14.796875 18.265625 18.828125 12.890625 
Q 22.859375 7.515625 30.078125 7.515625 
Q 37.359375 7.515625 41.375 12.890625 
Q 45.40625 18.265625 45.40625 27.984375 
z
M 54.390625 6.78125 
Q 54.390625 -7.171875 48.1875 -13.984375 
Q 42 -20.796875 29.203125 -20.796875 
Q 24.46875 -20.796875 20.265625 -20.09375 
Q 16.0625 -19.390625 12.109375 -17.921875 
L 12.109375 -9.1875 
Q 16.0625 -11.328125 19.921875 -12.34375 
Q 23.78125 -13.375 27.78125 -13.375 
Q 36.625 -13.375 41.015625 -8.765625 
Q 45.40625 -4.15625 45.40625 5.171875 
L 45.40625 9.625 
Q 42.625 4.78125 38.28125 2.390625 
Q 33.9375 0 27.875 0 
Q 17.828125 0 11.671875 7.65625 
Q 5.515625 15.328125 5.515625 27.984375 
Q 5.515625 40.671875 11.671875 48.328125 
Q 17.828125 56 27.875 56 
Q 33.9375 56 38.28125 53.609375 
Q 42.625 51.21875 45.40625 46.390625 
L 45.40625 54.6875 
L 54.390625 54.6875 
z
" id="DejaVuSans-103"/>
       <path d="M 56.203125 29.59375 
L 56.203125 25.203125 
L 14.890625 25.203125 
Q 15.484375 15.921875 20.484375 11.0625 
Q 25.484375 6.203125 34.421875 6.203125 
Q 39.59375 6.203125 44.453125 7.46875 
Q 49.3125 8.734375 54.109375 11.28125 
L 54.109375 2.78125 
Q 49.265625 0.734375 44.1875 -0.34375 
Q 39.109375 -1.421875 33.890625 -1.421875 
Q 20.796875 -1.421875 13.15625 6.1875 
Q 5.515625 13.8125 5.515625 26.8125 
Q 5.515625 40.234375 12.765625 48.109375 
Q 20.015625 56 32.328125 56 
Q 43.359375 56 49.78125 48.890625 
Q 56.203125 41.796875 56.203125 29.59375 
z
M 47.21875 32.234375 
Q 47.125 39.59375 43.09375 43.984375 
Q 39.0625 48.390625 32.421875 48.390625 
Q 24.90625 48.390625 20.390625 44.140625 
Q 15.875 39.890625 15.1875 32.171875 
z
" id="DejaVuSans-101"/>
      </defs>
      <use xlink:href="#DejaVuSans-97"/>
      <use x="61.279297" xlink:href="#DejaVuSans-103"/>
      <use x="124.755859" xlink:href="#DejaVuSans-101"/>
     </g>
    </g>
   </g>
   <g id="matplotlib.axis_2">
    <g id="ytick_1">
     <g id="line2d_17">
      <path clip-path="url(#pb9db50a0e2)" d="M 52.079375 241.58175 
L 386.879375 241.58175 
" style="fill:none;stroke:#ffffff;stroke-linecap:square;stroke-width:0.8;"/>
     </g>
     <g id="line2d_18">
      <defs>
       <path d="M 0 0 
L -3.5 0 
" id="m0c56de8f3d" style="stroke:#555555;stroke-width:0.8;"/>
      </defs>
      <g>
       <use style="fill:#555555;stroke:#555555;stroke-width:0.8;" x="52.079375" xlink:href="#m0c56de8f3d" y="241.58175"/>
      </g>
     </g>
     <g id="text_10">
      <!-- 0.00 -->
      <g style="fill:#555555;" transform="translate(22.81375 245.380969)scale(0.1 -0.1)">
       <defs>
        <path d="M 10.6875 12.40625 
L 21 12.40625 
L 21 0 
L 10.6875 0 
z
" id="DejaVuSans-46"/>
       </defs>
       <use xlink:href="#DejaVuSans-48"/>
       <use x="63.623047" xlink:href="#DejaVuSans-46"/>
       <use x="95.410156" xlink:href="#DejaVuSans-48"/>
       <use x="159.033203" xlink:href="#DejaVuSans-48"/>
      </g>
     </g>
    </g>
    <g id="ytick_2">
     <g id="line2d_19">
      <path clip-path="url(#pb9db50a0e2)" d="M 52.079375 197.518356 
L 386.879375 197.518356 
" style="fill:none;stroke:#ffffff;stroke-linecap:square;stroke-width:0.8;"/>
     </g>
     <g id="line2d_20">
      <g>
       <use style="fill:#555555;stroke:#555555;stroke-width:0.8;" x="52.079375" xlink:href="#m0c56de8f3d" y="197.518356"/>
      </g>
     </g>
     <g id="text_11">
      <!-- 0.01 -->
      <g style="fill:#555555;" transform="translate(22.81375 201.317575)scale(0.1 -0.1)">
       <defs>
        <path d="M 12.40625 8.296875 
L 28.515625 8.296875 
L 28.515625 63.921875 
L 10.984375 60.40625 
L 10.984375 69.390625 
L 28.421875 72.90625 
L 38.28125 72.90625 
L 38.28125 8.296875 
L 54.390625 8.296875 
L 54.390625 0 
L 12.40625 0 
z
" id="DejaVuSans-49"/>
       </defs>
       <use xlink:href="#DejaVuSans-48"/>
       <use x="63.623047" xlink:href="#DejaVuSans-46"/>
       <use x="95.410156" xlink:href="#DejaVuSans-48"/>
       <use x="159.033203" xlink:href="#DejaVuSans-49"/>
      </g>
     </g>
    </g>
    <g id="ytick_3">
     <g id="line2d_21">
      <path clip-path="url(#pb9db50a0e2)" d="M 52.079375 153.454962 
L 386.879375 153.454962 
" style="fill:none;stroke:#ffffff;stroke-linecap:square;stroke-width:0.8;"/>
     </g>
     <g id="line2d_22">
      <g>
       <use style="fill:#555555;stroke:#555555;stroke-width:0.8;" x="52.079375" xlink:href="#m0c56de8f3d" y="153.454962"/>
      </g>
     </g>
     <g id="text_12">
      <!-- 0.02 -->
      <g style="fill:#555555;" transform="translate(22.81375 157.254181)scale(0.1 -0.1)">
       <use xlink:href="#DejaVuSans-48"/>
       <use x="63.623047" xlink:href="#DejaVuSans-46"/>
       <use x="95.410156" xlink:href="#DejaVuSans-48"/>
       <use x="159.033203" xlink:href="#DejaVuSans-50"/>
      </g>
     </g>
    </g>
    <g id="ytick_4">
     <g id="line2d_23">
      <path clip-path="url(#pb9db50a0e2)" d="M 52.079375 109.391568 
L 386.879375 109.391568 
" style="fill:none;stroke:#ffffff;stroke-linecap:square;stroke-width:0.8;"/>
     </g>
     <g id="line2d_24">
      <g>
       <use style="fill:#555555;stroke:#555555;stroke-width:0.8;" x="52.079375" xlink:href="#m0c56de8f3d" y="109.391568"/>
      </g>
     </g>
     <g id="text_13">
      <!-- 0.03 -->
      <g style="fill:#555555;" transform="translate(22.81375 113.190787)scale(0.1 -0.1)">
       <use xlink:href="#DejaVuSans-48"/>
       <use x="63.623047" xlink:href="#DejaVuSans-46"/>
       <use x="95.410156" xlink:href="#DejaVuSans-48"/>
       <use x="159.033203" xlink:href="#DejaVuSans-51"/>
      </g>
     </g>
    </g>
    <g id="ytick_5">
     <g id="line2d_25">
      <path clip-path="url(#pb9db50a0e2)" d="M 52.079375 65.328174 
L 386.879375 65.328174 
" style="fill:none;stroke:#ffffff;stroke-linecap:square;stroke-width:0.8;"/>
     </g>
     <g id="line2d_26">
      <g>
       <use style="fill:#555555;stroke:#555555;stroke-width:0.8;" x="52.079375" xlink:href="#m0c56de8f3d" y="65.328174"/>
      </g>
     </g>
     <g id="text_14">
      <!-- 0.04 -->
      <g style="fill:#555555;" transform="translate(22.81375 69.127393)scale(0.1 -0.1)">
       <use xlink:href="#DejaVuSans-48"/>
       <use x="63.623047" xlink:href="#DejaVuSans-46"/>
       <use x="95.410156" xlink:href="#DejaVuSans-48"/>
       <use x="159.033203" xlink:href="#DejaVuSans-52"/>
      </g>
     </g>
    </g>
    <g id="text_15">
     <!-- Density -->
     <g style="fill:#555555;" transform="translate(16.318125 155.672062)rotate(-90)scale(0.12 -0.12)">
      <defs>
       <path d="M 19.671875 64.796875 
L 19.671875 8.109375 
L 31.59375 8.109375 
Q 46.6875 8.109375 53.6875 14.9375 
Q 60.6875 21.78125 60.6875 36.53125 
Q 60.6875 51.171875 53.6875 57.984375 
Q 46.6875 64.796875 31.59375 64.796875 
z
M 9.8125 72.90625 
L 30.078125 72.90625 
Q 51.265625 72.90625 61.171875 64.09375 
Q 71.09375 55.28125 71.09375 36.53125 
Q 71.09375 17.671875 61.125 8.828125 
Q 51.171875 0 30.078125 0 
L 9.8125 0 
z
" id="DejaVuSans-68"/>
       <path d="M 54.890625 33.015625 
L 54.890625 0 
L 45.90625 0 
L 45.90625 32.71875 
Q 45.90625 40.484375 42.875 44.328125 
Q 39.84375 48.1875 33.796875 48.1875 
Q 26.515625 48.1875 22.3125 43.546875 
Q 18.109375 38.921875 18.109375 30.90625 
L 18.109375 0 
L 9.078125 0 
L 9.078125 54.6875 
L 18.109375 54.6875 
L 18.109375 46.1875 
Q 21.34375 51.125 25.703125 53.5625 
Q 30.078125 56 35.796875 56 
Q 45.21875 56 50.046875 50.171875 
Q 54.890625 44.34375 54.890625 33.015625 
z
" id="DejaVuSans-110"/>
       <path d="M 44.28125 53.078125 
L 44.28125 44.578125 
Q 40.484375 46.53125 36.375 47.5 
Q 32.28125 48.484375 27.875 48.484375 
Q 21.1875 48.484375 17.84375 46.4375 
Q 14.5 44.390625 14.5 40.28125 
Q 14.5 37.15625 16.890625 35.375 
Q 19.28125 33.59375 26.515625 31.984375 
L 29.59375 31.296875 
Q 39.15625 29.25 43.1875 25.515625 
Q 47.21875 21.78125 47.21875 15.09375 
Q 47.21875 7.46875 41.1875 3.015625 
Q 35.15625 -1.421875 24.609375 -1.421875 
Q 20.21875 -1.421875 15.453125 -0.5625 
Q 10.6875 0.296875 5.421875 2 
L 5.421875 11.28125 
Q 10.40625 8.6875 15.234375 7.390625 
Q 20.0625 6.109375 24.8125 6.109375 
Q 31.15625 6.109375 34.5625 8.28125 
Q 37.984375 10.453125 37.984375 14.40625 
Q 37.984375 18.0625 35.515625 20.015625 
Q 33.0625 21.96875 24.703125 23.78125 
L 21.578125 24.515625 
Q 13.234375 26.265625 9.515625 29.90625 
Q 5.8125 33.546875 5.8125 39.890625 
Q 5.8125 47.609375 11.28125 51.796875 
Q 16.75 56 26.8125 56 
Q 31.78125 56 36.171875 55.265625 
Q 40.578125 54.546875 44.28125 53.078125 
z
" id="DejaVuSans-115"/>
       <path d="M 9.421875 54.6875 
L 18.40625 54.6875 
L 18.40625 0 
L 9.421875 0 
z
M 9.421875 75.984375 
L 18.40625 75.984375 
L 18.40625 64.59375 
L 9.421875 64.59375 
z
" id="DejaVuSans-105"/>
       <path d="M 18.3125 70.21875 
L 18.3125 54.6875 
L 36.8125 54.6875 
L 36.8125 47.703125 
L 18.3125 47.703125 
L 18.3125 18.015625 
Q 18.3125 11.328125 20.140625 9.421875 
Q 21.96875 7.515625 27.59375 7.515625 
L 36.8125 7.515625 
L 36.8125 0 
L 27.59375 0 
Q 17.1875 0 13.234375 3.875 
Q 9.28125 7.765625 9.28125 18.015625 
L 9.28125 47.703125 
L 2.6875 47.703125 
L 2.6875 54.6875 
L 9.28125 54.6875 
L 9.28125 70.21875 
z
" id="DejaVuSans-116"/>
       <path d="M 32.171875 -5.078125 
Q 28.375 -14.84375 24.75 -17.8125 
Q 21.140625 -20.796875 15.09375 -20.796875 
L 7.90625 -20.796875 
L 7.90625 -13.28125 
L 13.1875 -13.28125 
Q 16.890625 -13.28125 18.9375 -11.515625 
Q 21 -9.765625 23.484375 -3.21875 
L 25.09375 0.875 
L 2.984375 54.6875 
L 12.5 54.6875 
L 29.59375 11.921875 
L 46.6875 54.6875 
L 56.203125 54.6875 
z
" id="DejaVuSans-121"/>
      </defs>
      <use xlink:href="#DejaVuSans-68"/>
      <use x="77.001953" xlink:href="#DejaVuSans-101"/>
      <use x="138.525391" xlink:href="#DejaVuSans-110"/>
      <use x="201.904297" xlink:href="#DejaVuSans-115"/>
      <use x="254.003906" xlink:href="#DejaVuSans-105"/>
      <use x="281.787109" xlink:href="#DejaVuSans-116"/>
      <use x="320.996094" xlink:href="#DejaVuSans-121"/>
     </g>
    </g>
   </g>
   <g id="patch_3">
    <path clip-path="url(#pb9db50a0e2)" d="M 67.297557 241.58175 
L 71.840298 241.58175 
L 71.840298 241.58175 
L 67.297557 241.58175 
z
" style="fill:#348abd;fill-opacity:0.75;stroke:#eeeeee;stroke-linejoin:miter;stroke-width:0.454274;"/>
   </g>
   <g id="patch_4">
    <path clip-path="url(#pb9db50a0e2)" d="M 71.840298 241.58175 
L 76.383039 241.58175 
L 76.383039 241.333347 
L 71.840298 241.333347 
z
" style="fill:#348abd;fill-opacity:0.75;stroke:#eeeeee;stroke-linejoin:miter;stroke-width:0.454274;"/>
   </g>
   <g id="patch_5">
    <path clip-path="url(#pb9db50a0e2)" d="M 76.383039 241.58175 
L 80.925779 241.58175 
L 80.925779 241.498949 
L 76.383039 241.498949 
z
" style="fill:#348abd;fill-opacity:0.75;stroke:#eeeeee;stroke-linejoin:miter;stroke-width:0.454274;"/>
   </g>
   <g id="patch_6">
    <path clip-path="url(#pb9db50a0e2)" d="M 80.925779 241.58175 
L 85.46852 241.58175 
L 85.46852 241.084943 
L 80.925779 241.084943 
z
" style="fill:#348abd;fill-opacity:0.75;stroke:#eeeeee;stroke-linejoin:miter;stroke-width:0.454274;"/>
   </g>
   <g id="patch_7">
    <path clip-path="url(#pb9db50a0e2)" d="M 85.46852 241.58175 
L 90.011261 241.58175 
L 90.011261 240.17413 
L 85.46852 240.17413 
z
" style="fill:#348abd;fill-opacity:0.75;stroke:#eeeeee;stroke-linejoin:miter;stroke-width:0.454274;"/>
   </g>
   <g id="patch_8">
    <path clip-path="url(#pb9db50a0e2)" d="M 90.011261 241.58175 
L 94.554002 241.58175 
L 94.554002 239.760124 
L 90.011261 239.760124 
z
" style="fill:#348abd;fill-opacity:0.75;stroke:#eeeeee;stroke-linejoin:miter;stroke-width:0.454274;"/>
   </g>
   <g id="patch_9">
    <path clip-path="url(#pb9db50a0e2)" d="M 94.554002 241.58175 
L 99.096743 241.58175 
L 99.096743 237.938499 
L 94.554002 237.938499 
z
" style="fill:#348abd;fill-opacity:0.75;stroke:#eeeeee;stroke-linejoin:miter;stroke-width:0.454274;"/>
   </g>
   <g id="patch_10">
    <path clip-path="url(#pb9db50a0e2)" d="M 99.096743 241.58175 
L 103.639484 241.58175 
L 103.639484 235.288861 
L 99.096743 235.288861 
z
" style="fill:#348abd;fill-opacity:0.75;stroke:#eeeeee;stroke-linejoin:miter;stroke-width:0.454274;"/>
   </g>
   <g id="patch_11">
    <path clip-path="url(#pb9db50a0e2)" d="M 103.639484 241.58175 
L 108.182224 241.58175 
L 108.182224 234.543651 
L 103.639484 234.543651 
z
" style="fill:#348abd;fill-opacity:0.75;stroke:#eeeeee;stroke-linejoin:miter;stroke-width:0.454274;"/>
   </g>
   <g id="patch_12">
    <path clip-path="url(#pb9db50a0e2)" d="M 108.182224 241.58175 
L 112.724965 241.58175 
L 112.724965 232.059616 
L 108.182224 232.059616 
z
" style="fill:#348abd;fill-opacity:0.75;stroke:#eeeeee;stroke-linejoin:miter;stroke-width:0.454274;"/>
   </g>
   <g id="patch_13">
    <path clip-path="url(#pb9db50a0e2)" d="M 112.724965 241.58175 
L 117.267706 241.58175 
L 117.267706 226.760341 
L 112.724965 226.760341 
z
" style="fill:#348abd;fill-opacity:0.75;stroke:#eeeeee;stroke-linejoin:miter;stroke-width:0.454274;"/>
   </g>
   <g id="patch_14">
    <path clip-path="url(#pb9db50a0e2)" d="M 117.267706 241.58175 
L 121.810447 241.58175 
L 121.810447 204.735231 
L 117.267706 204.735231 
z
" style="fill:#348abd;fill-opacity:0.75;stroke:#eeeeee;stroke-linejoin:miter;stroke-width:0.454274;"/>
   </g>
   <g id="patch_15">
    <path clip-path="url(#pb9db50a0e2)" d="M 121.810447 241.58175 
L 126.353188 241.58175 
L 126.353188 218.81143 
L 121.810447 218.81143 
z
" style="fill:#348abd;fill-opacity:0.75;stroke:#eeeeee;stroke-linejoin:miter;stroke-width:0.454274;"/>
   </g>
   <g id="patch_16">
    <path clip-path="url(#pb9db50a0e2)" d="M 126.353188 241.58175 
L 130.895929 241.58175 
L 130.895929 217.072605 
L 126.353188 217.072605 
z
" style="fill:#348abd;fill-opacity:0.75;stroke:#eeeeee;stroke-linejoin:miter;stroke-width:0.454274;"/>
   </g>
   <g id="patch_17">
    <path clip-path="url(#pb9db50a0e2)" d="M 130.895929 241.58175 
L 135.438669 241.58175 
L 135.438669 217.569412 
L 130.895929 217.569412 
z
" style="fill:#348abd;fill-opacity:0.75;stroke:#eeeeee;stroke-linejoin:miter;stroke-width:0.454274;"/>
   </g>
   <g id="patch_18">
    <path clip-path="url(#pb9db50a0e2)" d="M 135.438669 241.58175 
L 139.98141 241.58175 
L 139.98141 212.270138 
L 135.438669 212.270138 
z
" style="fill:#348abd;fill-opacity:0.75;stroke:#eeeeee;stroke-linejoin:miter;stroke-width:0.454274;"/>
   </g>
   <g id="patch_19">
    <path clip-path="url(#pb9db50a0e2)" d="M 139.98141 241.58175 
L 144.524151 241.58175 
L 144.524151 213.429354 
L 139.98141 213.429354 
z
" style="fill:#348abd;fill-opacity:0.75;stroke:#eeeeee;stroke-linejoin:miter;stroke-width:0.454274;"/>
   </g>
   <g id="patch_20">
    <path clip-path="url(#pb9db50a0e2)" d="M 144.524151 241.58175 
L 149.066892 241.58175 
L 149.066892 208.461284 
L 144.524151 208.461284 
z
" style="fill:#348abd;fill-opacity:0.75;stroke:#eeeeee;stroke-linejoin:miter;stroke-width:0.454274;"/>
   </g>
   <g id="patch_21">
    <path clip-path="url(#pb9db50a0e2)" d="M 149.066892 241.58175 
L 153.609633 241.58175 
L 153.609633 206.639658 
L 149.066892 206.639658 
z
" style="fill:#348abd;fill-opacity:0.75;stroke:#eeeeee;stroke-linejoin:miter;stroke-width:0.454274;"/>
   </g>
   <g id="patch_22">
    <path clip-path="url(#pb9db50a0e2)" d="M 153.609633 241.58175 
L 158.152374 241.58175 
L 158.152374 207.302068 
L 153.609633 207.302068 
z
" style="fill:#348abd;fill-opacity:0.75;stroke:#eeeeee;stroke-linejoin:miter;stroke-width:0.454274;"/>
   </g>
   <g id="patch_23">
    <path clip-path="url(#pb9db50a0e2)" d="M 158.152374 241.58175 
L 162.695114 241.58175 
L 162.695114 206.556857 
L 158.152374 206.556857 
z
" style="fill:#348abd;fill-opacity:0.75;stroke:#eeeeee;stroke-linejoin:miter;stroke-width:0.454274;"/>
   </g>
   <g id="patch_24">
    <path clip-path="url(#pb9db50a0e2)" d="M 162.695114 241.58175 
L 167.237855 241.58175 
L 167.237855 208.958091 
L 162.695114 208.958091 
z
" style="fill:#348abd;fill-opacity:0.75;stroke:#eeeeee;stroke-linejoin:miter;stroke-width:0.454274;"/>
   </g>
   <g id="patch_25">
    <path clip-path="url(#pb9db50a0e2)" d="M 167.237855 241.58175 
L 171.780596 241.58175 
L 171.780596 171.449163 
L 167.237855 171.449163 
z
" style="fill:#348abd;fill-opacity:0.75;stroke:#eeeeee;stroke-linejoin:miter;stroke-width:0.454274;"/>
   </g>
   <g id="patch_26">
    <path clip-path="url(#pb9db50a0e2)" d="M 171.780596 241.58175 
L 176.323337 241.58175 
L 176.323337 207.550471 
L 171.780596 207.550471 
z
" style="fill:#348abd;fill-opacity:0.75;stroke:#eeeeee;stroke-linejoin:miter;stroke-width:0.454274;"/>
   </g>
   <g id="patch_27">
    <path clip-path="url(#pb9db50a0e2)" d="M 176.323337 241.58175 
L 180.866078 241.58175 
L 180.866078 207.798875 
L 176.323337 207.798875 
z
" style="fill:#348abd;fill-opacity:0.75;stroke:#eeeeee;stroke-linejoin:miter;stroke-width:0.454274;"/>
   </g>
   <g id="patch_28">
    <path clip-path="url(#pb9db50a0e2)" d="M 180.866078 241.58175 
L 185.408819 241.58175 
L 185.408819 207.46767 
L 180.866078 207.46767 
z
" style="fill:#348abd;fill-opacity:0.75;stroke:#eeeeee;stroke-linejoin:miter;stroke-width:0.454274;"/>
   </g>
   <g id="patch_29">
    <path clip-path="url(#pb9db50a0e2)" d="M 185.408819 241.58175 
L 189.95156 241.58175 
L 189.95156 205.232038 
L 185.408819 205.232038 
z
" style="fill:#348abd;fill-opacity:0.75;stroke:#eeeeee;stroke-linejoin:miter;stroke-width:0.454274;"/>
   </g>
   <g id="patch_30">
    <path clip-path="url(#pb9db50a0e2)" d="M 189.95156 241.58175 
L 194.4943 241.58175 
L 194.4943 206.06005 
L 189.95156 206.06005 
z
" style="fill:#348abd;fill-opacity:0.75;stroke:#eeeeee;stroke-linejoin:miter;stroke-width:0.454274;"/>
   </g>
   <g id="patch_31">
    <path clip-path="url(#pb9db50a0e2)" d="M 194.4943 241.58175 
L 199.037041 241.58175 
L 199.037041 213.926161 
L 194.4943 213.926161 
z
" style="fill:#348abd;fill-opacity:0.75;stroke:#eeeeee;stroke-linejoin:miter;stroke-width:0.454274;"/>
   </g>
   <g id="patch_32">
    <path clip-path="url(#pb9db50a0e2)" d="M 199.037041 241.58175 
L 203.579782 241.58175 
L 203.579782 215.747786 
L 199.037041 215.747786 
z
" style="fill:#348abd;fill-opacity:0.75;stroke:#eeeeee;stroke-linejoin:miter;stroke-width:0.454274;"/>
   </g>
   <g id="patch_33">
    <path clip-path="url(#pb9db50a0e2)" d="M 203.579782 241.58175 
L 208.122523 241.58175 
L 208.122523 210.696915 
L 203.579782 210.696915 
z
" style="fill:#348abd;fill-opacity:0.75;stroke:#eeeeee;stroke-linejoin:miter;stroke-width:0.454274;"/>
   </g>
   <g id="patch_34">
    <path clip-path="url(#pb9db50a0e2)" d="M 208.122523 241.58175 
L 212.665264 241.58175 
L 212.665264 212.601342 
L 208.122523 212.601342 
z
" style="fill:#348abd;fill-opacity:0.75;stroke:#eeeeee;stroke-linejoin:miter;stroke-width:0.454274;"/>
   </g>
   <g id="patch_35">
    <path clip-path="url(#pb9db50a0e2)" d="M 212.665264 241.58175 
L 217.208005 241.58175 
L 217.208005 218.645827 
L 212.665264 218.645827 
z
" style="fill:#348abd;fill-opacity:0.75;stroke:#eeeeee;stroke-linejoin:miter;stroke-width:0.454274;"/>
   </g>
   <g id="patch_36">
    <path clip-path="url(#pb9db50a0e2)" d="M 217.208005 241.58175 
L 221.750745 241.58175 
L 221.750745 197.779934 
L 217.208005 197.779934 
z
" style="fill:#348abd;fill-opacity:0.75;stroke:#eeeeee;stroke-linejoin:miter;stroke-width:0.454274;"/>
   </g>
   <g id="patch_37">
    <path clip-path="url(#pb9db50a0e2)" d="M 221.750745 241.58175 
L 226.293486 241.58175 
L 226.293486 224.027903 
L 221.750745 224.027903 
z
" style="fill:#348abd;fill-opacity:0.75;stroke:#eeeeee;stroke-linejoin:miter;stroke-width:0.454274;"/>
   </g>
   <g id="patch_38">
    <path clip-path="url(#pb9db50a0e2)" d="M 226.293486 241.58175 
L 230.836227 241.58175 
L 230.836227 226.511938 
L 226.293486 226.511938 
z
" style="fill:#348abd;fill-opacity:0.75;stroke:#eeeeee;stroke-linejoin:miter;stroke-width:0.454274;"/>
   </g>
   <g id="patch_39">
    <path clip-path="url(#pb9db50a0e2)" d="M 230.836227 241.58175 
L 235.378968 241.58175 
L 235.378968 224.938716 
L 230.836227 224.938716 
z
" style="fill:#348abd;fill-opacity:0.75;stroke:#eeeeee;stroke-linejoin:miter;stroke-width:0.454274;"/>
   </g>
   <g id="patch_40">
    <path clip-path="url(#pb9db50a0e2)" d="M 235.378968 241.58175 
L 239.921709 241.58175 
L 239.921709 225.601125 
L 235.378968 225.601125 
z
" style="fill:#348abd;fill-opacity:0.75;stroke:#eeeeee;stroke-linejoin:miter;stroke-width:0.454274;"/>
   </g>
   <g id="patch_41">
    <path clip-path="url(#pb9db50a0e2)" d="M 239.921709 241.58175 
L 244.46445 241.58175 
L 244.46445 225.683926 
L 239.921709 225.683926 
z
" style="fill:#348abd;fill-opacity:0.75;stroke:#eeeeee;stroke-linejoin:miter;stroke-width:0.454274;"/>
   </g>
   <g id="patch_42">
    <path clip-path="url(#pb9db50a0e2)" d="M 244.46445 241.58175 
L 249.00719 241.58175 
L 249.00719 230.486394 
L 244.46445 230.486394 
z
" style="fill:#348abd;fill-opacity:0.75;stroke:#eeeeee;stroke-linejoin:miter;stroke-width:0.454274;"/>
   </g>
   <g id="patch_43">
    <path clip-path="url(#pb9db50a0e2)" d="M 249.00719 241.58175 
L 253.549931 241.58175 
L 253.549931 229.906786 
L 249.00719 229.906786 
z
" style="fill:#348abd;fill-opacity:0.75;stroke:#eeeeee;stroke-linejoin:miter;stroke-width:0.454274;"/>
   </g>
   <g id="patch_44">
    <path clip-path="url(#pb9db50a0e2)" d="M 253.549931 241.58175 
L 258.092672 241.58175 
L 258.092672 232.970429 
L 253.549931 232.970429 
z
" style="fill:#348abd;fill-opacity:0.75;stroke:#eeeeee;stroke-linejoin:miter;stroke-width:0.454274;"/>
   </g>
   <g id="patch_45">
    <path clip-path="url(#pb9db50a0e2)" d="M 258.092672 241.58175 
L 262.635413 241.58175 
L 262.635413 234.129645 
L 258.092672 234.129645 
z
" style="fill:#348abd;fill-opacity:0.75;stroke:#eeeeee;stroke-linejoin:miter;stroke-width:0.454274;"/>
   </g>
   <g id="patch_46">
    <path clip-path="url(#pb9db50a0e2)" d="M 262.635413 241.58175 
L 267.178154 241.58175 
L 267.178154 234.212446 
L 262.635413 234.212446 
z
" style="fill:#348abd;fill-opacity:0.75;stroke:#eeeeee;stroke-linejoin:miter;stroke-width:0.454274;"/>
   </g>
   <g id="patch_47">
    <path clip-path="url(#pb9db50a0e2)" d="M 267.178154 241.58175 
L 271.720895 241.58175 
L 271.720895 231.148803 
L 267.178154 231.148803 
z
" style="fill:#348abd;fill-opacity:0.75;stroke:#eeeeee;stroke-linejoin:miter;stroke-width:0.454274;"/>
   </g>
   <g id="patch_48">
    <path clip-path="url(#pb9db50a0e2)" d="M 271.720895 241.58175 
L 276.263636 241.58175 
L 276.263636 236.862084 
L 271.720895 236.862084 
z
" style="fill:#348abd;fill-opacity:0.75;stroke:#eeeeee;stroke-linejoin:miter;stroke-width:0.454274;"/>
   </g>
   <g id="patch_49">
    <path clip-path="url(#pb9db50a0e2)" d="M 276.263636 241.58175 
L 280.806376 241.58175 
L 280.806376 238.518107 
L 276.263636 238.518107 
z
" style="fill:#348abd;fill-opacity:0.75;stroke:#eeeeee;stroke-linejoin:miter;stroke-width:0.454274;"/>
   </g>
   <g id="patch_50">
    <path clip-path="url(#pb9db50a0e2)" d="M 280.806376 241.58175 
L 285.349117 241.58175 
L 285.349117 239.014914 
L 280.806376 239.014914 
z
" style="fill:#348abd;fill-opacity:0.75;stroke:#eeeeee;stroke-linejoin:miter;stroke-width:0.454274;"/>
   </g>
   <g id="patch_51">
    <path clip-path="url(#pb9db50a0e2)" d="M 285.349117 241.58175 
L 289.891858 241.58175 
L 289.891858 239.511721 
L 285.349117 239.511721 
z
" style="fill:#348abd;fill-opacity:0.75;stroke:#eeeeee;stroke-linejoin:miter;stroke-width:0.454274;"/>
   </g>
   <g id="patch_52">
    <path clip-path="url(#pb9db50a0e2)" d="M 289.891858 241.58175 
L 294.434599 241.58175 
L 294.434599 239.263317 
L 289.891858 239.263317 
z
" style="fill:#348abd;fill-opacity:0.75;stroke:#eeeeee;stroke-linejoin:miter;stroke-width:0.454274;"/>
   </g>
   <g id="patch_53">
    <path clip-path="url(#pb9db50a0e2)" d="M 294.434599 241.58175 
L 298.97734 241.58175 
L 298.97734 240.256931 
L 294.434599 240.256931 
z
" style="fill:#348abd;fill-opacity:0.75;stroke:#eeeeee;stroke-linejoin:miter;stroke-width:0.454274;"/>
   </g>
   <g id="patch_54">
    <path clip-path="url(#pb9db50a0e2)" d="M 298.97734 241.58175 
L 303.520081 241.58175 
L 303.520081 240.17413 
L 298.97734 240.17413 
z
" style="fill:#348abd;fill-opacity:0.75;stroke:#eeeeee;stroke-linejoin:miter;stroke-width:0.454274;"/>
   </g>
   <g id="patch_55">
    <path clip-path="url(#pb9db50a0e2)" d="M 303.520081 241.58175 
L 308.062821 241.58175 
L 308.062821 240.091329 
L 303.520081 240.091329 
z
" style="fill:#348abd;fill-opacity:0.75;stroke:#eeeeee;stroke-linejoin:miter;stroke-width:0.454274;"/>
   </g>
   <g id="patch_56">
    <path clip-path="url(#pb9db50a0e2)" d="M 308.062821 241.58175 
L 312.605562 241.58175 
L 312.605562 240.505335 
L 308.062821 240.505335 
z
" style="fill:#348abd;fill-opacity:0.75;stroke:#eeeeee;stroke-linejoin:miter;stroke-width:0.454274;"/>
   </g>
   <g id="patch_57">
    <path clip-path="url(#pb9db50a0e2)" d="M 312.605562 241.58175 
L 317.148303 241.58175 
L 317.148303 240.919341 
L 312.605562 240.919341 
z
" style="fill:#348abd;fill-opacity:0.75;stroke:#eeeeee;stroke-linejoin:miter;stroke-width:0.454274;"/>
   </g>
   <g id="patch_58">
    <path clip-path="url(#pb9db50a0e2)" d="M 317.148303 241.58175 
L 321.691044 241.58175 
L 321.691044 240.505335 
L 317.148303 240.505335 
z
" style="fill:#348abd;fill-opacity:0.75;stroke:#eeeeee;stroke-linejoin:miter;stroke-width:0.454274;"/>
   </g>
   <g id="patch_59">
    <path clip-path="url(#pb9db50a0e2)" d="M 321.691044 241.58175 
L 326.233785 241.58175 
L 326.233785 240.83654 
L 321.691044 240.83654 
z
" style="fill:#348abd;fill-opacity:0.75;stroke:#eeeeee;stroke-linejoin:miter;stroke-width:0.454274;"/>
   </g>
   <g id="patch_60">
    <path clip-path="url(#pb9db50a0e2)" d="M 326.233785 241.58175 
L 330.776526 241.58175 
L 330.776526 241.250545 
L 326.233785 241.250545 
z
" style="fill:#348abd;fill-opacity:0.75;stroke:#eeeeee;stroke-linejoin:miter;stroke-width:0.454274;"/>
   </g>
   <g id="patch_61">
    <path clip-path="url(#pb9db50a0e2)" d="M 330.776526 241.58175 
L 335.319266 241.58175 
L 335.319266 241.002142 
L 330.776526 241.002142 
z
" style="fill:#348abd;fill-opacity:0.75;stroke:#eeeeee;stroke-linejoin:miter;stroke-width:0.454274;"/>
   </g>
   <g id="patch_62">
    <path clip-path="url(#pb9db50a0e2)" d="M 335.319266 241.58175 
L 339.862007 241.58175 
L 339.862007 241.58175 
L 335.319266 241.58175 
z
" style="fill:#348abd;fill-opacity:0.75;stroke:#eeeeee;stroke-linejoin:miter;stroke-width:0.454274;"/>
   </g>
   <g id="patch_63">
    <path clip-path="url(#pb9db50a0e2)" d="M 339.862007 241.58175 
L 344.404748 241.58175 
L 344.404748 241.416148 
L 339.862007 241.416148 
z
" style="fill:#348abd;fill-opacity:0.75;stroke:#eeeeee;stroke-linejoin:miter;stroke-width:0.454274;"/>
   </g>
   <g id="patch_64">
    <path clip-path="url(#pb9db50a0e2)" d="M 344.404748 241.58175 
L 348.947489 241.58175 
L 348.947489 241.498949 
L 344.404748 241.498949 
z
" style="fill:#348abd;fill-opacity:0.75;stroke:#eeeeee;stroke-linejoin:miter;stroke-width:0.454274;"/>
   </g>
   <g id="patch_65">
    <path clip-path="url(#pb9db50a0e2)" d="M 348.947489 241.58175 
L 353.49023 241.58175 
L 353.49023 241.498949 
L 348.947489 241.498949 
z
" style="fill:#348abd;fill-opacity:0.75;stroke:#eeeeee;stroke-linejoin:miter;stroke-width:0.454274;"/>
   </g>
   <g id="patch_66">
    <path clip-path="url(#pb9db50a0e2)" d="M 353.49023 241.58175 
L 358.032971 241.58175 
L 358.032971 241.58175 
L 353.49023 241.58175 
z
" style="fill:#348abd;fill-opacity:0.75;stroke:#eeeeee;stroke-linejoin:miter;stroke-width:0.454274;"/>
   </g>
   <g id="patch_67">
    <path clip-path="url(#pb9db50a0e2)" d="M 358.032971 241.58175 
L 362.575711 241.58175 
L 362.575711 241.58175 
L 358.032971 241.58175 
z
" style="fill:#348abd;fill-opacity:0.75;stroke:#eeeeee;stroke-linejoin:miter;stroke-width:0.454274;"/>
   </g>
   <g id="patch_68">
    <path clip-path="url(#pb9db50a0e2)" d="M 362.575711 241.58175 
L 367.118452 241.58175 
L 367.118452 241.498949 
L 362.575711 241.498949 
z
" style="fill:#348abd;fill-opacity:0.75;stroke:#eeeeee;stroke-linejoin:miter;stroke-width:0.454274;"/>
   </g>
   <g id="patch_69">
    <path clip-path="url(#pb9db50a0e2)" d="M 367.118452 241.58175 
L 371.661193 241.58175 
L 371.661193 240.505335 
L 367.118452 240.505335 
z
" style="fill:#348abd;fill-opacity:0.75;stroke:#eeeeee;stroke-linejoin:miter;stroke-width:0.454274;"/>
   </g>
   <g id="patch_70">
    <path clip-path="url(#pb9db50a0e2)" d="M 67.297557 241.58175 
L 71.840298 241.58175 
L 71.840298 120.940452 
L 67.297557 120.940452 
z
" style="fill:#e24a33;fill-opacity:0.75;stroke:#eeeeee;stroke-linejoin:miter;stroke-width:0.454274;"/>
   </g>
   <g id="patch_71">
    <path clip-path="url(#pb9db50a0e2)" d="M 71.840298 241.333347 
L 76.383039 241.333347 
L 76.383039 154.392123 
L 71.840298 154.392123 
z
" style="fill:#e24a33;fill-opacity:0.75;stroke:#eeeeee;stroke-linejoin:miter;stroke-width:0.454274;"/>
   </g>
   <g id="patch_72">
    <path clip-path="url(#pb9db50a0e2)" d="M 76.383039 241.498949 
L 80.925779 241.498949 
L 80.925779 149.424053 
L 76.383039 149.424053 
z
" style="fill:#e24a33;fill-opacity:0.75;stroke:#eeeeee;stroke-linejoin:miter;stroke-width:0.454274;"/>
   </g>
   <g id="patch_73">
    <path clip-path="url(#pb9db50a0e2)" d="M 80.925779 241.084943 
L 85.46852 241.084943 
L 85.46852 150.831673 
L 80.925779 150.831673 
z
" style="fill:#e24a33;fill-opacity:0.75;stroke:#eeeeee;stroke-linejoin:miter;stroke-width:0.454274;"/>
   </g>
   <g id="patch_74">
    <path clip-path="url(#pb9db50a0e2)" d="M 85.46852 240.17413 
L 90.011261 240.17413 
L 90.011261 144.041977 
L 85.46852 144.041977 
z
" style="fill:#e24a33;fill-opacity:0.75;stroke:#eeeeee;stroke-linejoin:miter;stroke-width:0.454274;"/>
   </g>
   <g id="patch_75">
    <path clip-path="url(#pb9db50a0e2)" d="M 90.011261 239.760124 
L 94.554002 239.760124 
L 94.554002 131.539001 
L 90.011261 131.539001 
z
" style="fill:#e24a33;fill-opacity:0.75;stroke:#eeeeee;stroke-linejoin:miter;stroke-width:0.454274;"/>
   </g>
   <g id="patch_76">
    <path clip-path="url(#pb9db50a0e2)" d="M 94.554002 237.938499 
L 99.096743 237.938499 
L 99.096743 141.723545 
L 94.554002 141.723545 
z
" style="fill:#e24a33;fill-opacity:0.75;stroke:#eeeeee;stroke-linejoin:miter;stroke-width:0.454274;"/>
   </g>
   <g id="patch_77">
    <path clip-path="url(#pb9db50a0e2)" d="M 99.096743 235.288861 
L 103.639484 235.288861 
L 103.639484 142.634358 
L 99.096743 142.634358 
z
" style="fill:#e24a33;fill-opacity:0.75;stroke:#eeeeee;stroke-linejoin:miter;stroke-width:0.454274;"/>
   </g>
   <g id="patch_78">
    <path clip-path="url(#pb9db50a0e2)" d="M 103.639484 234.543651 
L 108.182224 234.543651 
L 108.182224 146.112006 
L 103.639484 146.112006 
z
" style="fill:#e24a33;fill-opacity:0.75;stroke:#eeeeee;stroke-linejoin:miter;stroke-width:0.454274;"/>
   </g>
   <g id="patch_79">
    <path clip-path="url(#pb9db50a0e2)" d="M 108.182224 232.059616 
L 112.724965 232.059616 
L 112.724965 139.570714 
L 108.182224 139.570714 
z
" style="fill:#e24a33;fill-opacity:0.75;stroke:#eeeeee;stroke-linejoin:miter;stroke-width:0.454274;"/>
   </g>
   <g id="patch_80">
    <path clip-path="url(#pb9db50a0e2)" d="M 112.724965 226.760341 
L 117.267706 226.760341 
L 117.267706 135.596258 
L 112.724965 135.596258 
z
" style="fill:#e24a33;fill-opacity:0.75;stroke:#eeeeee;stroke-linejoin:miter;stroke-width:0.454274;"/>
   </g>
   <g id="patch_81">
    <path clip-path="url(#pb9db50a0e2)" d="M 117.267706 204.735231 
L 121.810447 204.735231 
L 121.810447 34.496036 
L 117.267706 34.496036 
z
" style="fill:#e24a33;fill-opacity:0.75;stroke:#eeeeee;stroke-linejoin:miter;stroke-width:0.454274;"/>
   </g>
   <g id="patch_82">
    <path clip-path="url(#pb9db50a0e2)" d="M 121.810447 218.81143 
L 126.353188 218.81143 
L 126.353188 131.870206 
L 121.810447 131.870206 
z
" style="fill:#e24a33;fill-opacity:0.75;stroke:#eeeeee;stroke-linejoin:miter;stroke-width:0.454274;"/>
   </g>
   <g id="patch_83">
    <path clip-path="url(#pb9db50a0e2)" d="M 126.353188 217.072605 
L 130.895929 217.072605 
L 130.895929 137.83189 
L 126.353188 137.83189 
z
" style="fill:#e24a33;fill-opacity:0.75;stroke:#eeeeee;stroke-linejoin:miter;stroke-width:0.454274;"/>
   </g>
   <g id="patch_84">
    <path clip-path="url(#pb9db50a0e2)" d="M 130.895929 217.569412 
L 135.438669 217.569412 
L 135.438669 131.042194 
L 130.895929 131.042194 
z
" style="fill:#e24a33;fill-opacity:0.75;stroke:#eeeeee;stroke-linejoin:miter;stroke-width:0.454274;"/>
   </g>
   <g id="patch_85">
    <path clip-path="url(#pb9db50a0e2)" d="M 135.438669 212.270138 
L 139.98141 212.270138 
L 139.98141 133.691832 
L 135.438669 133.691832 
z
" style="fill:#e24a33;fill-opacity:0.75;stroke:#eeeeee;stroke-linejoin:miter;stroke-width:0.454274;"/>
   </g>
   <g id="patch_86">
    <path clip-path="url(#pb9db50a0e2)" d="M 139.98141 213.429354 
L 144.524151 213.429354 
L 144.524151 130.876592 
L 139.98141 130.876592 
z
" style="fill:#e24a33;fill-opacity:0.75;stroke:#eeeeee;stroke-linejoin:miter;stroke-width:0.454274;"/>
   </g>
   <g id="patch_87">
    <path clip-path="url(#pb9db50a0e2)" d="M 144.524151 208.461284 
L 149.066892 208.461284 
L 149.066892 129.965779 
L 144.524151 129.965779 
z
" style="fill:#e24a33;fill-opacity:0.75;stroke:#eeeeee;stroke-linejoin:miter;stroke-width:0.454274;"/>
   </g>
   <g id="patch_88">
    <path clip-path="url(#pb9db50a0e2)" d="M 149.066892 206.639658 
L 153.609633 206.639658 
L 153.609633 135.596258 
L 149.066892 135.596258 
z
" style="fill:#e24a33;fill-opacity:0.75;stroke:#eeeeee;stroke-linejoin:miter;stroke-width:0.454274;"/>
   </g>
   <g id="patch_89">
    <path clip-path="url(#pb9db50a0e2)" d="M 153.609633 207.302068 
L 158.152374 207.302068 
L 158.152374 136.921077 
L 153.609633 136.921077 
z
" style="fill:#e24a33;fill-opacity:0.75;stroke:#eeeeee;stroke-linejoin:miter;stroke-width:0.454274;"/>
   </g>
   <g id="patch_90">
    <path clip-path="url(#pb9db50a0e2)" d="M 158.152374 206.556857 
L 162.695114 206.556857 
L 162.695114 141.723545 
L 158.152374 141.723545 
z
" style="fill:#e24a33;fill-opacity:0.75;stroke:#eeeeee;stroke-linejoin:miter;stroke-width:0.454274;"/>
   </g>
   <g id="patch_91">
    <path clip-path="url(#pb9db50a0e2)" d="M 162.695114 208.958091 
L 167.237855 208.958091 
L 167.237855 143.296767 
L 162.695114 143.296767 
z
" style="fill:#e24a33;fill-opacity:0.75;stroke:#eeeeee;stroke-linejoin:miter;stroke-width:0.454274;"/>
   </g>
   <g id="patch_92">
    <path clip-path="url(#pb9db50a0e2)" d="M 167.237855 171.449163 
L 171.780596 171.449163 
L 171.780596 42.858953 
L 167.237855 42.858953 
z
" style="fill:#e24a33;fill-opacity:0.75;stroke:#eeeeee;stroke-linejoin:miter;stroke-width:0.454274;"/>
   </g>
   <g id="patch_93">
    <path clip-path="url(#pb9db50a0e2)" d="M 171.780596 207.550471 
L 176.323337 207.550471 
L 176.323337 150.169264 
L 171.780596 150.169264 
z
" style="fill:#e24a33;fill-opacity:0.75;stroke:#eeeeee;stroke-linejoin:miter;stroke-width:0.454274;"/>
   </g>
   <g id="patch_94">
    <path clip-path="url(#pb9db50a0e2)" d="M 176.323337 207.798875 
L 180.866078 207.798875 
L 180.866078 153.232907 
L 176.323337 153.232907 
z
" style="fill:#e24a33;fill-opacity:0.75;stroke:#eeeeee;stroke-linejoin:miter;stroke-width:0.454274;"/>
   </g>
   <g id="patch_95">
    <path clip-path="url(#pb9db50a0e2)" d="M 180.866078 207.46767 
L 185.408819 207.46767 
L 185.408819 150.831673 
L 180.866078 150.831673 
z
" style="fill:#e24a33;fill-opacity:0.75;stroke:#eeeeee;stroke-linejoin:miter;stroke-width:0.454274;"/>
   </g>
   <g id="patch_96">
    <path clip-path="url(#pb9db50a0e2)" d="M 185.408819 205.232038 
L 189.95156 205.232038 
L 189.95156 150.748872 
L 185.408819 150.748872 
z
" style="fill:#e24a33;fill-opacity:0.75;stroke:#eeeeee;stroke-linejoin:miter;stroke-width:0.454274;"/>
   </g>
   <g id="patch_97">
    <path clip-path="url(#pb9db50a0e2)" d="M 189.95156 206.06005 
L 194.4943 206.06005 
L 194.4943 152.07369 
L 189.95156 152.07369 
z
" style="fill:#e24a33;fill-opacity:0.75;stroke:#eeeeee;stroke-linejoin:miter;stroke-width:0.454274;"/>
   </g>
   <g id="patch_98">
    <path clip-path="url(#pb9db50a0e2)" d="M 194.4943 213.926161 
L 199.037041 213.926161 
L 199.037041 171.614765 
L 194.4943 171.614765 
z
" style="fill:#e24a33;fill-opacity:0.75;stroke:#eeeeee;stroke-linejoin:miter;stroke-width:0.454274;"/>
   </g>
   <g id="patch_99">
    <path clip-path="url(#pb9db50a0e2)" d="M 199.037041 215.747786 
L 203.579782 215.747786 
L 203.579782 171.449163 
L 199.037041 171.449163 
z
" style="fill:#e24a33;fill-opacity:0.75;stroke:#eeeeee;stroke-linejoin:miter;stroke-width:0.454274;"/>
   </g>
   <g id="patch_100">
    <path clip-path="url(#pb9db50a0e2)" d="M 203.579782 210.696915 
L 208.122523 210.696915 
L 208.122523 169.875941 
L 203.579782 169.875941 
z
" style="fill:#e24a33;fill-opacity:0.75;stroke:#eeeeee;stroke-linejoin:miter;stroke-width:0.454274;"/>
   </g>
   <g id="patch_101">
    <path clip-path="url(#pb9db50a0e2)" d="M 208.122523 212.601342 
L 212.665264 212.601342 
L 212.665264 168.965128 
L 208.122523 168.965128 
z
" style="fill:#e24a33;fill-opacity:0.75;stroke:#eeeeee;stroke-linejoin:miter;stroke-width:0.454274;"/>
   </g>
   <g id="patch_102">
    <path clip-path="url(#pb9db50a0e2)" d="M 212.665264 218.645827 
L 217.208005 218.645827 
L 217.208005 180.47449 
L 212.665264 180.47449 
z
" style="fill:#e24a33;fill-opacity:0.75;stroke:#eeeeee;stroke-linejoin:miter;stroke-width:0.454274;"/>
   </g>
   <g id="patch_103">
    <path clip-path="url(#pb9db50a0e2)" d="M 217.208005 197.779934 
L 221.750745 197.779934 
L 221.750745 131.953007 
L 217.208005 131.953007 
z
" style="fill:#e24a33;fill-opacity:0.75;stroke:#eeeeee;stroke-linejoin:miter;stroke-width:0.454274;"/>
   </g>
   <g id="patch_104">
    <path clip-path="url(#pb9db50a0e2)" d="M 221.750745 224.027903 
L 226.293486 224.027903 
L 226.293486 190.162226 
L 221.750745 190.162226 
z
" style="fill:#e24a33;fill-opacity:0.75;stroke:#eeeeee;stroke-linejoin:miter;stroke-width:0.454274;"/>
   </g>
   <g id="patch_105">
    <path clip-path="url(#pb9db50a0e2)" d="M 226.293486 226.511938 
L 230.836227 226.511938 
L 230.836227 194.881893 
L 226.293486 194.881893 
z
" style="fill:#e24a33;fill-opacity:0.75;stroke:#eeeeee;stroke-linejoin:miter;stroke-width:0.454274;"/>
   </g>
   <g id="patch_106">
    <path clip-path="url(#pb9db50a0e2)" d="M 230.836227 224.938716 
L 235.378968 224.938716 
L 235.378968 195.958308 
L 230.836227 195.958308 
z
" style="fill:#e24a33;fill-opacity:0.75;stroke:#eeeeee;stroke-linejoin:miter;stroke-width:0.454274;"/>
   </g>
   <g id="patch_107">
    <path clip-path="url(#pb9db50a0e2)" d="M 235.378968 225.601125 
L 239.921709 225.601125 
L 239.921709 195.627103 
L 235.378968 195.627103 
z
" style="fill:#e24a33;fill-opacity:0.75;stroke:#eeeeee;stroke-linejoin:miter;stroke-width:0.454274;"/>
   </g>
   <g id="patch_108">
    <path clip-path="url(#pb9db50a0e2)" d="M 239.921709 225.683926 
L 244.46445 225.683926 
L 244.46445 198.276741 
L 239.921709 198.276741 
z
" style="fill:#e24a33;fill-opacity:0.75;stroke:#eeeeee;stroke-linejoin:miter;stroke-width:0.454274;"/>
   </g>
   <g id="patch_109">
    <path clip-path="url(#pb9db50a0e2)" d="M 244.46445 230.486394 
L 249.00719 230.486394 
L 249.00719 204.404027 
L 244.46445 204.404027 
z
" style="fill:#e24a33;fill-opacity:0.75;stroke:#eeeeee;stroke-linejoin:miter;stroke-width:0.454274;"/>
   </g>
   <g id="patch_110">
    <path clip-path="url(#pb9db50a0e2)" d="M 249.00719 229.906786 
L 253.549931 229.906786 
L 253.549931 204.321226 
L 249.00719 204.321226 
z
" style="fill:#e24a33;fill-opacity:0.75;stroke:#eeeeee;stroke-linejoin:miter;stroke-width:0.454274;"/>
   </g>
   <g id="patch_111">
    <path clip-path="url(#pb9db50a0e2)" d="M 253.549931 232.970429 
L 258.092672 232.970429 
L 258.092672 208.958091 
L 253.549931 208.958091 
z
" style="fill:#e24a33;fill-opacity:0.75;stroke:#eeeeee;stroke-linejoin:miter;stroke-width:0.454274;"/>
   </g>
   <g id="patch_112">
    <path clip-path="url(#pb9db50a0e2)" d="M 258.092672 234.129645 
L 262.635413 234.129645 
L 262.635413 213.84336 
L 258.092672 213.84336 
z
" style="fill:#e24a33;fill-opacity:0.75;stroke:#eeeeee;stroke-linejoin:miter;stroke-width:0.454274;"/>
   </g>
   <g id="patch_113">
    <path clip-path="url(#pb9db50a0e2)" d="M 262.635413 234.212446 
L 267.178154 234.212446 
L 267.178154 213.429354 
L 262.635413 213.429354 
z
" style="fill:#e24a33;fill-opacity:0.75;stroke:#eeeeee;stroke-linejoin:miter;stroke-width:0.454274;"/>
   </g>
   <g id="patch_114">
    <path clip-path="url(#pb9db50a0e2)" d="M 267.178154 231.148803 
L 271.720895 231.148803 
L 271.720895 198.442343 
L 267.178154 198.442343 
z
" style="fill:#e24a33;fill-opacity:0.75;stroke:#eeeeee;stroke-linejoin:miter;stroke-width:0.454274;"/>
   </g>
   <g id="patch_115">
    <path clip-path="url(#pb9db50a0e2)" d="M 271.720895 236.862084 
L 276.263636 236.862084 
L 276.263636 221.875073 
L 271.720895 221.875073 
z
" style="fill:#e24a33;fill-opacity:0.75;stroke:#eeeeee;stroke-linejoin:miter;stroke-width:0.454274;"/>
   </g>
   <g id="patch_116">
    <path clip-path="url(#pb9db50a0e2)" d="M 276.263636 238.518107 
L 280.806376 238.518107 
L 280.806376 226.843143 
L 276.263636 226.843143 
z
" style="fill:#e24a33;fill-opacity:0.75;stroke:#eeeeee;stroke-linejoin:miter;stroke-width:0.454274;"/>
   </g>
   <g id="patch_117">
    <path clip-path="url(#pb9db50a0e2)" d="M 280.806376 239.014914 
L 285.349117 239.014914 
L 285.349117 229.244376 
L 280.806376 229.244376 
z
" style="fill:#e24a33;fill-opacity:0.75;stroke:#eeeeee;stroke-linejoin:miter;stroke-width:0.454274;"/>
   </g>
   <g id="patch_118">
    <path clip-path="url(#pb9db50a0e2)" d="M 285.349117 239.511721 
L 289.891858 239.511721 
L 289.891858 230.569195 
L 285.349117 230.569195 
z
" style="fill:#e24a33;fill-opacity:0.75;stroke:#eeeeee;stroke-linejoin:miter;stroke-width:0.454274;"/>
   </g>
   <g id="patch_119">
    <path clip-path="url(#pb9db50a0e2)" d="M 289.891858 239.263317 
L 294.434599 239.263317 
L 294.434599 231.811213 
L 289.891858 231.811213 
z
" style="fill:#e24a33;fill-opacity:0.75;stroke:#eeeeee;stroke-linejoin:miter;stroke-width:0.454274;"/>
   </g>
   <g id="patch_120">
    <path clip-path="url(#pb9db50a0e2)" d="M 294.434599 240.256931 
L 298.97734 240.256931 
L 298.97734 231.64561 
L 294.434599 231.64561 
z
" style="fill:#e24a33;fill-opacity:0.75;stroke:#eeeeee;stroke-linejoin:miter;stroke-width:0.454274;"/>
   </g>
   <g id="patch_121">
    <path clip-path="url(#pb9db50a0e2)" d="M 298.97734 240.17413 
L 303.520081 240.17413 
L 303.520081 232.639224 
L 298.97734 232.639224 
z
" style="fill:#e24a33;fill-opacity:0.75;stroke:#eeeeee;stroke-linejoin:miter;stroke-width:0.454274;"/>
   </g>
   <g id="patch_122">
    <path clip-path="url(#pb9db50a0e2)" d="M 303.520081 240.091329 
L 308.062821 240.091329 
L 308.062821 235.20606 
L 303.520081 235.20606 
z
" style="fill:#e24a33;fill-opacity:0.75;stroke:#eeeeee;stroke-linejoin:miter;stroke-width:0.454274;"/>
   </g>
   <g id="patch_123">
    <path clip-path="url(#pb9db50a0e2)" d="M 308.062821 240.505335 
L 312.605562 240.505335 
L 312.605562 235.620066 
L 308.062821 235.620066 
z
" style="fill:#e24a33;fill-opacity:0.75;stroke:#eeeeee;stroke-linejoin:miter;stroke-width:0.454274;"/>
   </g>
   <g id="patch_124">
    <path clip-path="url(#pb9db50a0e2)" d="M 312.605562 240.919341 
L 317.148303 240.919341 
L 317.148303 235.86847 
L 312.605562 235.86847 
z
" style="fill:#e24a33;fill-opacity:0.75;stroke:#eeeeee;stroke-linejoin:miter;stroke-width:0.454274;"/>
   </g>
   <g id="patch_125">
    <path clip-path="url(#pb9db50a0e2)" d="M 317.148303 240.505335 
L 321.691044 240.505335 
L 321.691044 234.295247 
L 317.148303 234.295247 
z
" style="fill:#e24a33;fill-opacity:0.75;stroke:#eeeeee;stroke-linejoin:miter;stroke-width:0.454274;"/>
   </g>
   <g id="patch_126">
    <path clip-path="url(#pb9db50a0e2)" d="M 321.691044 240.83654 
L 326.233785 240.83654 
L 326.233785 239.097715 
L 321.691044 239.097715 
z
" style="fill:#e24a33;fill-opacity:0.75;stroke:#eeeeee;stroke-linejoin:miter;stroke-width:0.454274;"/>
   </g>
   <g id="patch_127">
    <path clip-path="url(#pb9db50a0e2)" d="M 326.233785 241.250545 
L 330.776526 241.250545 
L 330.776526 238.435306 
L 326.233785 238.435306 
z
" style="fill:#e24a33;fill-opacity:0.75;stroke:#eeeeee;stroke-linejoin:miter;stroke-width:0.454274;"/>
   </g>
   <g id="patch_128">
    <path clip-path="url(#pb9db50a0e2)" d="M 330.776526 241.002142 
L 335.319266 241.002142 
L 335.319266 238.518107 
L 330.776526 238.518107 
z
" style="fill:#e24a33;fill-opacity:0.75;stroke:#eeeeee;stroke-linejoin:miter;stroke-width:0.454274;"/>
   </g>
   <g id="patch_129">
    <path clip-path="url(#pb9db50a0e2)" d="M 335.319266 241.58175 
L 339.862007 241.58175 
L 339.862007 240.339733 
L 335.319266 240.339733 
z
" style="fill:#e24a33;fill-opacity:0.75;stroke:#eeeeee;stroke-linejoin:miter;stroke-width:0.454274;"/>
   </g>
   <g id="patch_130">
    <path clip-path="url(#pb9db50a0e2)" d="M 339.862007 241.416148 
L 344.404748 241.416148 
L 344.404748 240.670937 
L 339.862007 240.670937 
z
" style="fill:#e24a33;fill-opacity:0.75;stroke:#eeeeee;stroke-linejoin:miter;stroke-width:0.454274;"/>
   </g>
   <g id="patch_131">
    <path clip-path="url(#pb9db50a0e2)" d="M 344.404748 241.498949 
L 348.947489 241.498949 
L 348.947489 240.505335 
L 344.404748 240.505335 
z
" style="fill:#e24a33;fill-opacity:0.75;stroke:#eeeeee;stroke-linejoin:miter;stroke-width:0.454274;"/>
   </g>
   <g id="patch_132">
    <path clip-path="url(#pb9db50a0e2)" d="M 348.947489 241.498949 
L 353.49023 241.498949 
L 353.49023 241.167744 
L 348.947489 241.167744 
z
" style="fill:#e24a33;fill-opacity:0.75;stroke:#eeeeee;stroke-linejoin:miter;stroke-width:0.454274;"/>
   </g>
   <g id="patch_133">
    <path clip-path="url(#pb9db50a0e2)" d="M 353.49023 241.58175 
L 358.032971 241.58175 
L 358.032971 241.498949 
L 353.49023 241.498949 
z
" style="fill:#e24a33;fill-opacity:0.75;stroke:#eeeeee;stroke-linejoin:miter;stroke-width:0.454274;"/>
   </g>
   <g id="patch_134">
    <path clip-path="url(#pb9db50a0e2)" d="M 358.032971 241.58175 
L 362.575711 241.58175 
L 362.575711 241.333347 
L 358.032971 241.333347 
z
" style="fill:#e24a33;fill-opacity:0.75;stroke:#eeeeee;stroke-linejoin:miter;stroke-width:0.454274;"/>
   </g>
   <g id="patch_135">
    <path clip-path="url(#pb9db50a0e2)" d="M 362.575711 241.498949 
L 367.118452 241.498949 
L 367.118452 241.084943 
L 362.575711 241.084943 
z
" style="fill:#e24a33;fill-opacity:0.75;stroke:#eeeeee;stroke-linejoin:miter;stroke-width:0.454274;"/>
   </g>
   <g id="patch_136">
    <path clip-path="url(#pb9db50a0e2)" d="M 367.118452 240.505335 
L 371.661193 240.505335 
L 371.661193 236.862084 
L 367.118452 236.862084 
z
" style="fill:#e24a33;fill-opacity:0.75;stroke:#eeeeee;stroke-linejoin:miter;stroke-width:0.454274;"/>
   </g>
   <g id="patch_137">
    <path d="M 52.079375 241.58175 
L 52.079375 24.14175 
" style="fill:none;stroke:#ffffff;stroke-linecap:square;stroke-linejoin:miter;"/>
   </g>
   <g id="patch_138">
    <path d="M 386.879375 241.58175 
L 386.879375 24.14175 
" style="fill:none;stroke:#ffffff;stroke-linecap:square;stroke-linejoin:miter;"/>
   </g>
   <g id="patch_139">
    <path d="M 52.079375 241.58175 
L 386.879375 241.58175 
" style="fill:none;stroke:#ffffff;stroke-linecap:square;stroke-linejoin:miter;"/>
   </g>
   <g id="patch_140">
    <path d="M 52.079375 24.14175 
L 386.879375 24.14175 
" style="fill:none;stroke:#ffffff;stroke-linecap:square;stroke-linejoin:miter;"/>
   </g>
   <g id="text_16">
    <!-- Income in relation to age -->
    <g transform="translate(129.19475 18.14175)scale(0.144 -0.144)">
     <defs>
      <path d="M 9.8125 72.90625 
L 19.671875 72.90625 
L 19.671875 0 
L 9.8125 0 
z
" id="DejaVuSans-73"/>
      <path d="M 48.78125 52.59375 
L 48.78125 44.1875 
Q 44.96875 46.296875 41.140625 47.34375 
Q 37.3125 48.390625 33.40625 48.390625 
Q 24.65625 48.390625 19.8125 42.84375 
Q 14.984375 37.3125 14.984375 27.296875 
Q 14.984375 17.28125 19.8125 11.734375 
Q 24.65625 6.203125 33.40625 6.203125 
Q 37.3125 6.203125 41.140625 7.25 
Q 44.96875 8.296875 48.78125 10.40625 
L 48.78125 2.09375 
Q 45.015625 0.34375 40.984375 -0.53125 
Q 36.96875 -1.421875 32.421875 -1.421875 
Q 20.0625 -1.421875 12.78125 6.34375 
Q 5.515625 14.109375 5.515625 27.296875 
Q 5.515625 40.671875 12.859375 48.328125 
Q 20.21875 56 33.015625 56 
Q 37.15625 56 41.109375 55.140625 
Q 45.0625 54.296875 48.78125 52.59375 
z
" id="DejaVuSans-99"/>
      <path d="M 30.609375 48.390625 
Q 23.390625 48.390625 19.1875 42.75 
Q 14.984375 37.109375 14.984375 27.296875 
Q 14.984375 17.484375 19.15625 11.84375 
Q 23.34375 6.203125 30.609375 6.203125 
Q 37.796875 6.203125 41.984375 11.859375 
Q 46.1875 17.53125 46.1875 27.296875 
Q 46.1875 37.015625 41.984375 42.703125 
Q 37.796875 48.390625 30.609375 48.390625 
z
M 30.609375 56 
Q 42.328125 56 49.015625 48.375 
Q 55.71875 40.765625 55.71875 27.296875 
Q 55.71875 13.875 49.015625 6.21875 
Q 42.328125 -1.421875 30.609375 -1.421875 
Q 18.84375 -1.421875 12.171875 6.21875 
Q 5.515625 13.875 5.515625 27.296875 
Q 5.515625 40.765625 12.171875 48.375 
Q 18.84375 56 30.609375 56 
z
" id="DejaVuSans-111"/>
      <path d="M 52 44.1875 
Q 55.375 50.25 60.0625 53.125 
Q 64.75 56 71.09375 56 
Q 79.640625 56 84.28125 50.015625 
Q 88.921875 44.046875 88.921875 33.015625 
L 88.921875 0 
L 79.890625 0 
L 79.890625 32.71875 
Q 79.890625 40.578125 77.09375 44.375 
Q 74.3125 48.1875 68.609375 48.1875 
Q 61.625 48.1875 57.5625 43.546875 
Q 53.515625 38.921875 53.515625 30.90625 
L 53.515625 0 
L 44.484375 0 
L 44.484375 32.71875 
Q 44.484375 40.625 41.703125 44.40625 
Q 38.921875 48.1875 33.109375 48.1875 
Q 26.21875 48.1875 22.15625 43.53125 
Q 18.109375 38.875 18.109375 30.90625 
L 18.109375 0 
L 9.078125 0 
L 9.078125 54.6875 
L 18.109375 54.6875 
L 18.109375 46.1875 
Q 21.1875 51.21875 25.484375 53.609375 
Q 29.78125 56 35.6875 56 
Q 41.65625 56 45.828125 52.96875 
Q 50 49.953125 52 44.1875 
z
" id="DejaVuSans-109"/>
      <path id="DejaVuSans-32"/>
      <path d="M 41.109375 46.296875 
Q 39.59375 47.171875 37.8125 47.578125 
Q 36.03125 48 33.890625 48 
Q 26.265625 48 22.1875 43.046875 
Q 18.109375 38.09375 18.109375 28.8125 
L 18.109375 0 
L 9.078125 0 
L 9.078125 54.6875 
L 18.109375 54.6875 
L 18.109375 46.1875 
Q 20.953125 51.171875 25.484375 53.578125 
Q 30.03125 56 36.53125 56 
Q 37.453125 56 38.578125 55.875 
Q 39.703125 55.765625 41.0625 55.515625 
z
" id="DejaVuSans-114"/>
      <path d="M 9.421875 75.984375 
L 18.40625 75.984375 
L 18.40625 0 
L 9.421875 0 
z
" id="DejaVuSans-108"/>
     </defs>
     <use xlink:href="#DejaVuSans-73"/>
     <use x="29.492188" xlink:href="#DejaVuSans-110"/>
     <use x="92.871094" xlink:href="#DejaVuSans-99"/>
     <use x="147.851562" xlink:href="#DejaVuSans-111"/>
     <use x="209.033203" xlink:href="#DejaVuSans-109"/>
     <use x="306.445312" xlink:href="#DejaVuSans-101"/>
     <use x="367.96875" xlink:href="#DejaVuSans-32"/>
     <use x="399.755859" xlink:href="#DejaVuSans-105"/>
     <use x="427.539062" xlink:href="#DejaVuSans-110"/>
     <use x="490.917969" xlink:href="#DejaVuSans-32"/>
     <use x="522.705078" xlink:href="#DejaVuSans-114"/>
     <use x="561.568359" xlink:href="#DejaVuSans-101"/>
     <use x="623.091797" xlink:href="#DejaVuSans-108"/>
     <use x="650.875" xlink:href="#DejaVuSans-97"/>
     <use x="712.154297" xlink:href="#DejaVuSans-116"/>
     <use x="751.363281" xlink:href="#DejaVuSans-105"/>
     <use x="779.146484" xlink:href="#DejaVuSans-111"/>
     <use x="840.328125" xlink:href="#DejaVuSans-110"/>
     <use x="903.707031" xlink:href="#DejaVuSans-32"/>
     <use x="935.494141" xlink:href="#DejaVuSans-116"/>
     <use x="974.703125" xlink:href="#DejaVuSans-111"/>
     <use x="1035.884766" xlink:href="#DejaVuSans-32"/>
     <use x="1067.671875" xlink:href="#DejaVuSans-97"/>
     <use x="1128.951172" xlink:href="#DejaVuSans-103"/>
     <use x="1192.427734" xlink:href="#DejaVuSans-101"/>
    </g>
   </g>
   <g id="legend_1">
    <g id="patch_141">
     <path d="M 311.837188 76.176125 
L 379.879375 76.176125 
Q 381.879375 76.176125 381.879375 74.176125 
L 381.879375 31.14175 
Q 381.879375 29.14175 379.879375 29.14175 
L 311.837188 29.14175 
Q 309.837188 29.14175 309.837188 31.14175 
L 309.837188 74.176125 
Q 309.837188 76.176125 311.837188 76.176125 
z
" style="fill:#e5e5e5;opacity:0.8;stroke:#cccccc;stroke-linejoin:miter;stroke-width:0.5;"/>
    </g>
    <g id="text_17">
     <!-- income -->
     <g transform="translate(327.545 40.740188)scale(0.1 -0.1)">
      <use xlink:href="#DejaVuSans-105"/>
      <use x="27.783203" xlink:href="#DejaVuSans-110"/>
      <use x="91.162109" xlink:href="#DejaVuSans-99"/>
      <use x="146.142578" xlink:href="#DejaVuSans-111"/>
      <use x="207.324219" xlink:href="#DejaVuSans-109"/>
      <use x="304.736328" xlink:href="#DejaVuSans-101"/>
     </g>
    </g>
    <g id="patch_142">
     <path d="M 313.837188 55.418313 
L 333.837188 55.418313 
L 333.837188 48.418313 
L 313.837188 48.418313 
z
" style="fill:#e24a33;fill-opacity:0.75;stroke:#eeeeee;stroke-linejoin:miter;stroke-width:0.5;"/>
    </g>
    <g id="text_18">
     <!-- &lt;=50K -->
     <g transform="translate(341.837188 55.418313)scale(0.1 -0.1)">
      <defs>
       <path d="M 73.1875 49.21875 
L 22.796875 31.296875 
L 73.1875 13.484375 
L 73.1875 4.59375 
L 10.59375 27.296875 
L 10.59375 35.40625 
L 73.1875 58.109375 
z
" id="DejaVuSans-60"/>
       <path d="M 10.59375 45.40625 
L 73.1875 45.40625 
L 73.1875 37.203125 
L 10.59375 37.203125 
z
M 10.59375 25.484375 
L 73.1875 25.484375 
L 73.1875 17.1875 
L 10.59375 17.1875 
z
" id="DejaVuSans-61"/>
       <path d="M 9.8125 72.90625 
L 19.671875 72.90625 
L 19.671875 42.09375 
L 52.390625 72.90625 
L 65.09375 72.90625 
L 28.90625 38.921875 
L 67.671875 0 
L 54.6875 0 
L 19.671875 35.109375 
L 19.671875 0 
L 9.8125 0 
z
" id="DejaVuSans-75"/>
      </defs>
      <use xlink:href="#DejaVuSans-60"/>
      <use x="83.789062" xlink:href="#DejaVuSans-61"/>
      <use x="167.578125" xlink:href="#DejaVuSans-53"/>
      <use x="231.201172" xlink:href="#DejaVuSans-48"/>
      <use x="294.824219" xlink:href="#DejaVuSans-75"/>
     </g>
    </g>
    <g id="patch_143">
     <path d="M 313.837188 70.096438 
L 333.837188 70.096438 
L 333.837188 63.096438 
L 313.837188 63.096438 
z
" style="fill:#348abd;fill-opacity:0.75;stroke:#eeeeee;stroke-linejoin:miter;stroke-width:0.5;"/>
    </g>
    <g id="text_19">
     <!-- &gt;50K -->
     <g transform="translate(341.837188 70.096438)scale(0.1 -0.1)">
      <defs>
       <path d="M 10.59375 49.21875 
L 10.59375 58.109375 
L 73.1875 35.40625 
L 73.1875 27.296875 
L 10.59375 4.59375 
L 10.59375 13.484375 
L 60.890625 31.296875 
z
" id="DejaVuSans-62"/>
      </defs>
      <use xlink:href="#DejaVuSans-62"/>
      <use x="83.789062" xlink:href="#DejaVuSans-53"/>
      <use x="147.412109" xlink:href="#DejaVuSans-48"/>
      <use x="211.035156" xlink:href="#DejaVuSans-75"/>
     </g>
    </g>
   </g>
  </g>
 </g>
 <defs>
  <clipPath id="pb9db50a0e2">
   <rect height="217.44" width="334.8" x="52.079375" y="24.14175"/>
  </clipPath>
 </defs>
</svg>
