<?xml version="1.0" encoding="utf-8" standalone="no"?>
<!DOCTYPE svg PUBLIC "-//W3C//DTD SVG 1.1//EN"
  "http://www.w3.org/Graphics/SVG/1.1/DTD/svg11.dtd">
<!-- Created with matplotlib (https://matplotlib.org/) -->
<svg height="360pt" version="1.1" viewBox="0 0 720 360" width="720pt" xmlns="http://www.w3.org/2000/svg" xmlns:xlink="http://www.w3.org/1999/xlink">
 <metadata>
  <rdf:RDF xmlns:cc="http://creativecommons.org/ns#" xmlns:dc="http://purl.org/dc/elements/1.1/" xmlns:rdf="http://www.w3.org/1999/02/22-rdf-syntax-ns#">
   <cc:Work>
    <dc:type rdf:resource="http://purl.org/dc/dcmitype/StillImage"/>
    <dc:date>2023-04-27T13:09:00.771479</dc:date>
    <dc:format>image/svg+xml</dc:format>
    <dc:creator>
     <cc:Agent>
      <dc:title>Matplotlib v3.3.2, https://matplotlib.org/</dc:title>
     </cc:Agent>
    </dc:creator>
   </cc:Work>
  </rdf:RDF>
 </metadata>
 <defs>
  <style type="text/css">*{stroke-linecap:butt;stroke-linejoin:round;}</style>
 </defs>
 <g id="figure_1">
  <g id="patch_1">
   <path d="M 0 360 
L 720 360 
L 720 0 
L 0 0 
z
" style="fill:#ffffff;"/>
  </g>
  <g id="axes_1">
   <g id="patch_2">
    <path d="M 90 320.4 
L 648 320.4 
L 648 43.2 
L 90 43.2 
z
" style="fill:#ffffff;"/>
   </g>
   <g id="patch_3">
    <path clip-path="url(#p2f08693dcf)" d="M 115.363636 320.4 
L 122.312578 320.4 
L 122.312578 319.602417 
L 115.363636 319.602417 
z
" style="fill:#2ca02c;fill-opacity:0.5;stroke:#000000;stroke-linejoin:miter;stroke-width:0.694894;"/>
   </g>
   <g id="patch_4">
    <path clip-path="url(#p2f08693dcf)" d="M 122.312578 320.4 
L 129.261519 320.4 
L 129.261519 251.807855 
L 122.312578 251.807855 
z
" style="fill:#2ca02c;fill-opacity:0.5;stroke:#000000;stroke-linejoin:miter;stroke-width:0.694894;"/>
   </g>
   <g id="patch_5">
    <path clip-path="url(#p2f08693dcf)" d="M 129.261519 320.4 
L 136.210461 320.4 
L 136.210461 257.789728 
L 129.261519 257.789728 
z
" style="fill:#2ca02c;fill-opacity:0.5;stroke:#000000;stroke-linejoin:miter;stroke-width:0.694894;"/>
   </g>
   <g id="patch_6">
    <path clip-path="url(#p2f08693dcf)" d="M 136.210461 320.4 
L 143.159402 320.4 
L 143.159402 320.4 
L 136.210461 320.4 
z
" style="fill:#2ca02c;fill-opacity:0.5;stroke:#000000;stroke-linejoin:miter;stroke-width:0.694894;"/>
   </g>
   <g id="patch_7">
    <path clip-path="url(#p2f08693dcf)" d="M 143.159402 320.4 
L 150.108344 320.4 
L 150.108344 264.569184 
L 143.159402 264.569184 
z
" style="fill:#2ca02c;fill-opacity:0.5;stroke:#000000;stroke-linejoin:miter;stroke-width:0.694894;"/>
   </g>
   <g id="patch_8">
    <path clip-path="url(#p2f08693dcf)" d="M 150.108344 320.4 
L 157.057285 320.4 
L 157.057285 292.484592 
L 150.108344 292.484592 
z
" style="fill:#2ca02c;fill-opacity:0.5;stroke:#000000;stroke-linejoin:miter;stroke-width:0.694894;"/>
   </g>
   <g id="patch_9">
    <path clip-path="url(#p2f08693dcf)" d="M 157.057285 320.4 
L 164.006227 320.4 
L 164.006227 305.644713 
L 157.057285 305.644713 
z
" style="fill:#2ca02c;fill-opacity:0.5;stroke:#000000;stroke-linejoin:miter;stroke-width:0.694894;"/>
   </g>
   <g id="patch_10">
    <path clip-path="url(#p2f08693dcf)" d="M 164.006227 320.4 
L 170.955168 320.4 
L 170.955168 320.4 
L 164.006227 320.4 
z
" style="fill:#2ca02c;fill-opacity:0.5;stroke:#000000;stroke-linejoin:miter;stroke-width:0.694894;"/>
   </g>
   <g id="patch_11">
    <path clip-path="url(#p2f08693dcf)" d="M 170.955168 320.4 
L 177.90411 320.4 
L 177.90411 310.829003 
L 170.955168 310.829003 
z
" style="fill:#2ca02c;fill-opacity:0.5;stroke:#000000;stroke-linejoin:miter;stroke-width:0.694894;"/>
   </g>
   <g id="patch_12">
    <path clip-path="url(#p2f08693dcf)" d="M 177.90411 320.4 
L 184.853051 320.4 
L 184.853051 308.436254 
L 177.90411 308.436254 
z
" style="fill:#2ca02c;fill-opacity:0.5;stroke:#000000;stroke-linejoin:miter;stroke-width:0.694894;"/>
   </g>
   <g id="patch_13">
    <path clip-path="url(#p2f08693dcf)" d="M 184.853051 320.4 
L 191.801993 320.4 
L 191.801993 320.4 
L 184.853051 320.4 
z
" style="fill:#2ca02c;fill-opacity:0.5;stroke:#000000;stroke-linejoin:miter;stroke-width:0.694894;"/>
   </g>
   <g id="patch_14">
    <path clip-path="url(#p2f08693dcf)" d="M 191.801993 320.4 
L 198.750934 320.4 
L 198.750934 312.025378 
L 191.801993 312.025378 
z
" style="fill:#2ca02c;fill-opacity:0.5;stroke:#000000;stroke-linejoin:miter;stroke-width:0.694894;"/>
   </g>
   <g id="patch_15">
    <path clip-path="url(#p2f08693dcf)" d="M 198.750934 320.4 
L 205.699875 320.4 
L 205.699875 312.822961 
L 198.750934 312.822961 
z
" style="fill:#2ca02c;fill-opacity:0.5;stroke:#000000;stroke-linejoin:miter;stroke-width:0.694894;"/>
   </g>
   <g id="patch_16">
    <path clip-path="url(#p2f08693dcf)" d="M 205.699875 320.4 
L 212.648817 320.4 
L 212.648817 315.614502 
L 205.699875 315.614502 
z
" style="fill:#2ca02c;fill-opacity:0.5;stroke:#000000;stroke-linejoin:miter;stroke-width:0.694894;"/>
   </g>
   <g id="patch_17">
    <path clip-path="url(#p2f08693dcf)" d="M 212.648817 320.4 
L 219.597758 320.4 
L 219.597758 320.4 
L 212.648817 320.4 
z
" style="fill:#2ca02c;fill-opacity:0.5;stroke:#000000;stroke-linejoin:miter;stroke-width:0.694894;"/>
   </g>
   <g id="patch_18">
    <path clip-path="url(#p2f08693dcf)" d="M 219.597758 320.4 
L 226.5467 320.4 
L 226.5467 314.418127 
L 219.597758 314.418127 
z
" style="fill:#2ca02c;fill-opacity:0.5;stroke:#000000;stroke-linejoin:miter;stroke-width:0.694894;"/>
   </g>
   <g id="patch_19">
    <path clip-path="url(#p2f08693dcf)" d="M 226.5467 320.4 
L 233.495641 320.4 
L 233.495641 318.406042 
L 226.5467 318.406042 
z
" style="fill:#2ca02c;fill-opacity:0.5;stroke:#000000;stroke-linejoin:miter;stroke-width:0.694894;"/>
   </g>
   <g id="patch_20">
    <path clip-path="url(#p2f08693dcf)" d="M 233.495641 320.4 
L 240.444583 320.4 
L 240.444583 318.007251 
L 233.495641 318.007251 
z
" style="fill:#2ca02c;fill-opacity:0.5;stroke:#000000;stroke-linejoin:miter;stroke-width:0.694894;"/>
   </g>
   <g id="patch_21">
    <path clip-path="url(#p2f08693dcf)" d="M 240.444583 320.4 
L 247.393524 320.4 
L 247.393524 320.4 
L 240.444583 320.4 
z
" style="fill:#2ca02c;fill-opacity:0.5;stroke:#000000;stroke-linejoin:miter;stroke-width:0.694894;"/>
   </g>
   <g id="patch_22">
    <path clip-path="url(#p2f08693dcf)" d="M 247.393524 320.4 
L 254.342466 320.4 
L 254.342466 317.608459 
L 247.393524 317.608459 
z
" style="fill:#2ca02c;fill-opacity:0.5;stroke:#000000;stroke-linejoin:miter;stroke-width:0.694894;"/>
   </g>
   <g id="patch_23">
    <path clip-path="url(#p2f08693dcf)" d="M 254.342466 320.4 
L 261.291407 320.4 
L 261.291407 318.406042 
L 254.342466 318.406042 
z
" style="fill:#2ca02c;fill-opacity:0.5;stroke:#000000;stroke-linejoin:miter;stroke-width:0.694894;"/>
   </g>
   <g id="patch_24">
    <path clip-path="url(#p2f08693dcf)" d="M 261.291407 320.4 
L 268.240349 320.4 
L 268.240349 320.4 
L 261.291407 320.4 
z
" style="fill:#2ca02c;fill-opacity:0.5;stroke:#000000;stroke-linejoin:miter;stroke-width:0.694894;"/>
   </g>
   <g id="patch_25">
    <path clip-path="url(#p2f08693dcf)" d="M 268.240349 320.4 
L 275.18929 320.4 
L 275.18929 317.209668 
L 268.240349 317.209668 
z
" style="fill:#2ca02c;fill-opacity:0.5;stroke:#000000;stroke-linejoin:miter;stroke-width:0.694894;"/>
   </g>
   <g id="patch_26">
    <path clip-path="url(#p2f08693dcf)" d="M 275.18929 320.4 
L 282.138232 320.4 
L 282.138232 315.614502 
L 275.18929 315.614502 
z
" style="fill:#2ca02c;fill-opacity:0.5;stroke:#000000;stroke-linejoin:miter;stroke-width:0.694894;"/>
   </g>
   <g id="patch_27">
    <path clip-path="url(#p2f08693dcf)" d="M 282.138232 320.4 
L 289.087173 320.4 
L 289.087173 318.406042 
L 282.138232 318.406042 
z
" style="fill:#2ca02c;fill-opacity:0.5;stroke:#000000;stroke-linejoin:miter;stroke-width:0.694894;"/>
   </g>
   <g id="patch_28">
    <path clip-path="url(#p2f08693dcf)" d="M 289.087173 320.4 
L 296.036115 320.4 
L 296.036115 320.4 
L 289.087173 320.4 
z
" style="fill:#2ca02c;fill-opacity:0.5;stroke:#000000;stroke-linejoin:miter;stroke-width:0.694894;"/>
   </g>
   <g id="patch_29">
    <path clip-path="url(#p2f08693dcf)" d="M 296.036115 320.4 
L 302.985056 320.4 
L 302.985056 319.203625 
L 296.036115 319.203625 
z
" style="fill:#2ca02c;fill-opacity:0.5;stroke:#000000;stroke-linejoin:miter;stroke-width:0.694894;"/>
   </g>
   <g id="patch_30">
    <path clip-path="url(#p2f08693dcf)" d="M 302.985056 320.4 
L 309.933998 320.4 
L 309.933998 318.406042 
L 302.985056 318.406042 
z
" style="fill:#2ca02c;fill-opacity:0.5;stroke:#000000;stroke-linejoin:miter;stroke-width:0.694894;"/>
   </g>
   <g id="patch_31">
    <path clip-path="url(#p2f08693dcf)" d="M 309.933998 320.4 
L 316.882939 320.4 
L 316.882939 318.804834 
L 309.933998 318.804834 
z
" style="fill:#2ca02c;fill-opacity:0.5;stroke:#000000;stroke-linejoin:miter;stroke-width:0.694894;"/>
   </g>
   <g id="patch_32">
    <path clip-path="url(#p2f08693dcf)" d="M 316.882939 320.4 
L 323.83188 320.4 
L 323.83188 320.4 
L 316.882939 320.4 
z
" style="fill:#2ca02c;fill-opacity:0.5;stroke:#000000;stroke-linejoin:miter;stroke-width:0.694894;"/>
   </g>
   <g id="patch_33">
    <path clip-path="url(#p2f08693dcf)" d="M 323.83188 320.4 
L 330.780822 320.4 
L 330.780822 318.406042 
L 323.83188 318.406042 
z
" style="fill:#2ca02c;fill-opacity:0.5;stroke:#000000;stroke-linejoin:miter;stroke-width:0.694894;"/>
   </g>
   <g id="patch_34">
    <path clip-path="url(#p2f08693dcf)" d="M 330.780822 320.4 
L 337.729763 320.4 
L 337.729763 318.804834 
L 330.780822 318.804834 
z
" style="fill:#2ca02c;fill-opacity:0.5;stroke:#000000;stroke-linejoin:miter;stroke-width:0.694894;"/>
   </g>
   <g id="patch_35">
    <path clip-path="url(#p2f08693dcf)" d="M 337.729763 320.4 
L 344.678705 320.4 
L 344.678705 320.4 
L 337.729763 320.4 
z
" style="fill:#2ca02c;fill-opacity:0.5;stroke:#000000;stroke-linejoin:miter;stroke-width:0.694894;"/>
   </g>
   <g id="patch_36">
    <path clip-path="url(#p2f08693dcf)" d="M 344.678705 320.4 
L 351.627646 320.4 
L 351.627646 318.406042 
L 344.678705 318.406042 
z
" style="fill:#2ca02c;fill-opacity:0.5;stroke:#000000;stroke-linejoin:miter;stroke-width:0.694894;"/>
   </g>
   <g id="patch_37">
    <path clip-path="url(#p2f08693dcf)" d="M 351.627646 320.4 
L 358.576588 320.4 
L 358.576588 319.602417 
L 351.627646 319.602417 
z
" style="fill:#2ca02c;fill-opacity:0.5;stroke:#000000;stroke-linejoin:miter;stroke-width:0.694894;"/>
   </g>
   <g id="patch_38">
    <path clip-path="url(#p2f08693dcf)" d="M 358.576588 320.4 
L 365.525529 320.4 
L 365.525529 319.203625 
L 358.576588 319.203625 
z
" style="fill:#2ca02c;fill-opacity:0.5;stroke:#000000;stroke-linejoin:miter;stroke-width:0.694894;"/>
   </g>
   <g id="patch_39">
    <path clip-path="url(#p2f08693dcf)" d="M 365.525529 320.4 
L 372.474471 320.4 
L 372.474471 320.4 
L 365.525529 320.4 
z
" style="fill:#2ca02c;fill-opacity:0.5;stroke:#000000;stroke-linejoin:miter;stroke-width:0.694894;"/>
   </g>
   <g id="patch_40">
    <path clip-path="url(#p2f08693dcf)" d="M 372.474471 320.4 
L 379.423412 320.4 
L 379.423412 319.602417 
L 372.474471 319.602417 
z
" style="fill:#2ca02c;fill-opacity:0.5;stroke:#000000;stroke-linejoin:miter;stroke-width:0.694894;"/>
   </g>
   <g id="patch_41">
    <path clip-path="url(#p2f08693dcf)" d="M 379.423412 320.4 
L 386.372354 320.4 
L 386.372354 318.804834 
L 379.423412 318.804834 
z
" style="fill:#2ca02c;fill-opacity:0.5;stroke:#000000;stroke-linejoin:miter;stroke-width:0.694894;"/>
   </g>
   <g id="patch_42">
    <path clip-path="url(#p2f08693dcf)" d="M 386.372354 320.4 
L 393.321295 320.4 
L 393.321295 320.4 
L 386.372354 320.4 
z
" style="fill:#2ca02c;fill-opacity:0.5;stroke:#000000;stroke-linejoin:miter;stroke-width:0.694894;"/>
   </g>
   <g id="patch_43">
    <path clip-path="url(#p2f08693dcf)" d="M 393.321295 320.4 
L 400.270237 320.4 
L 400.270237 320.4 
L 393.321295 320.4 
z
" style="fill:#2ca02c;fill-opacity:0.5;stroke:#000000;stroke-linejoin:miter;stroke-width:0.694894;"/>
   </g>
   <g id="patch_44">
    <path clip-path="url(#p2f08693dcf)" d="M 400.270237 320.4 
L 407.219178 320.4 
L 407.219178 319.602417 
L 400.270237 319.602417 
z
" style="fill:#2ca02c;fill-opacity:0.5;stroke:#000000;stroke-linejoin:miter;stroke-width:0.694894;"/>
   </g>
   <g id="patch_45">
    <path clip-path="url(#p2f08693dcf)" d="M 407.219178 320.4 
L 414.16812 320.4 
L 414.16812 319.203625 
L 407.219178 319.203625 
z
" style="fill:#2ca02c;fill-opacity:0.5;stroke:#000000;stroke-linejoin:miter;stroke-width:0.694894;"/>
   </g>
   <g id="patch_46">
    <path clip-path="url(#p2f08693dcf)" d="M 414.16812 320.4 
L 421.117061 320.4 
L 421.117061 320.4 
L 414.16812 320.4 
z
" style="fill:#2ca02c;fill-opacity:0.5;stroke:#000000;stroke-linejoin:miter;stroke-width:0.694894;"/>
   </g>
   <g id="patch_47">
    <path clip-path="url(#p2f08693dcf)" d="M 421.117061 320.4 
L 428.066002 320.4 
L 428.066002 320.001208 
L 421.117061 320.001208 
z
" style="fill:#2ca02c;fill-opacity:0.5;stroke:#000000;stroke-linejoin:miter;stroke-width:0.694894;"/>
   </g>
   <g id="patch_48">
    <path clip-path="url(#p2f08693dcf)" d="M 428.066002 320.4 
L 435.014944 320.4 
L 435.014944 319.602417 
L 428.066002 319.602417 
z
" style="fill:#2ca02c;fill-opacity:0.5;stroke:#000000;stroke-linejoin:miter;stroke-width:0.694894;"/>
   </g>
   <g id="patch_49">
    <path clip-path="url(#p2f08693dcf)" d="M 435.014944 320.4 
L 441.963885 320.4 
L 441.963885 320.4 
L 435.014944 320.4 
z
" style="fill:#2ca02c;fill-opacity:0.5;stroke:#000000;stroke-linejoin:miter;stroke-width:0.694894;"/>
   </g>
   <g id="patch_50">
    <path clip-path="url(#p2f08693dcf)" d="M 441.963885 320.4 
L 448.912827 320.4 
L 448.912827 320.4 
L 441.963885 320.4 
z
" style="fill:#2ca02c;fill-opacity:0.5;stroke:#000000;stroke-linejoin:miter;stroke-width:0.694894;"/>
   </g>
   <g id="patch_51">
    <path clip-path="url(#p2f08693dcf)" d="M 448.912827 320.4 
L 455.861768 320.4 
L 455.861768 320.4 
L 448.912827 320.4 
z
" style="fill:#2ca02c;fill-opacity:0.5;stroke:#000000;stroke-linejoin:miter;stroke-width:0.694894;"/>
   </g>
   <g id="patch_52">
    <path clip-path="url(#p2f08693dcf)" d="M 455.861768 320.4 
L 462.81071 320.4 
L 462.81071 320.001208 
L 455.861768 320.001208 
z
" style="fill:#2ca02c;fill-opacity:0.5;stroke:#000000;stroke-linejoin:miter;stroke-width:0.694894;"/>
   </g>
   <g id="patch_53">
    <path clip-path="url(#p2f08693dcf)" d="M 462.81071 320.4 
L 469.759651 320.4 
L 469.759651 320.001208 
L 462.81071 320.001208 
z
" style="fill:#2ca02c;fill-opacity:0.5;stroke:#000000;stroke-linejoin:miter;stroke-width:0.694894;"/>
   </g>
   <g id="patch_54">
    <path clip-path="url(#p2f08693dcf)" d="M 469.759651 320.4 
L 476.708593 320.4 
L 476.708593 320.4 
L 469.759651 320.4 
z
" style="fill:#2ca02c;fill-opacity:0.5;stroke:#000000;stroke-linejoin:miter;stroke-width:0.694894;"/>
   </g>
   <g id="patch_55">
    <path clip-path="url(#p2f08693dcf)" d="M 476.708593 320.4 
L 483.657534 320.4 
L 483.657534 320.4 
L 476.708593 320.4 
z
" style="fill:#2ca02c;fill-opacity:0.5;stroke:#000000;stroke-linejoin:miter;stroke-width:0.694894;"/>
   </g>
   <g id="patch_56">
    <path clip-path="url(#p2f08693dcf)" d="M 483.657534 320.4 
L 490.606476 320.4 
L 490.606476 320.4 
L 483.657534 320.4 
z
" style="fill:#2ca02c;fill-opacity:0.5;stroke:#000000;stroke-linejoin:miter;stroke-width:0.694894;"/>
   </g>
   <g id="patch_57">
    <path clip-path="url(#p2f08693dcf)" d="M 490.606476 320.4 
L 497.555417 320.4 
L 497.555417 320.4 
L 490.606476 320.4 
z
" style="fill:#2ca02c;fill-opacity:0.5;stroke:#000000;stroke-linejoin:miter;stroke-width:0.694894;"/>
   </g>
   <g id="patch_58">
    <path clip-path="url(#p2f08693dcf)" d="M 497.555417 320.4 
L 504.504359 320.4 
L 504.504359 320.4 
L 497.555417 320.4 
z
" style="fill:#2ca02c;fill-opacity:0.5;stroke:#000000;stroke-linejoin:miter;stroke-width:0.694894;"/>
   </g>
   <g id="patch_59">
    <path clip-path="url(#p2f08693dcf)" d="M 504.504359 320.4 
L 511.4533 320.4 
L 511.4533 320.4 
L 504.504359 320.4 
z
" style="fill:#2ca02c;fill-opacity:0.5;stroke:#000000;stroke-linejoin:miter;stroke-width:0.694894;"/>
   </g>
   <g id="patch_60">
    <path clip-path="url(#p2f08693dcf)" d="M 511.4533 320.4 
L 518.402242 320.4 
L 518.402242 320.4 
L 511.4533 320.4 
z
" style="fill:#2ca02c;fill-opacity:0.5;stroke:#000000;stroke-linejoin:miter;stroke-width:0.694894;"/>
   </g>
   <g id="patch_61">
    <path clip-path="url(#p2f08693dcf)" d="M 518.402242 320.4 
L 525.351183 320.4 
L 525.351183 320.4 
L 518.402242 320.4 
z
" style="fill:#2ca02c;fill-opacity:0.5;stroke:#000000;stroke-linejoin:miter;stroke-width:0.694894;"/>
   </g>
   <g id="patch_62">
    <path clip-path="url(#p2f08693dcf)" d="M 525.351183 320.4 
L 532.300125 320.4 
L 532.300125 320.4 
L 525.351183 320.4 
z
" style="fill:#2ca02c;fill-opacity:0.5;stroke:#000000;stroke-linejoin:miter;stroke-width:0.694894;"/>
   </g>
   <g id="patch_63">
    <path clip-path="url(#p2f08693dcf)" d="M 532.300125 320.4 
L 539.249066 320.4 
L 539.249066 320.4 
L 532.300125 320.4 
z
" style="fill:#2ca02c;fill-opacity:0.5;stroke:#000000;stroke-linejoin:miter;stroke-width:0.694894;"/>
   </g>
   <g id="patch_64">
    <path clip-path="url(#p2f08693dcf)" d="M 539.249066 320.4 
L 546.198007 320.4 
L 546.198007 320.4 
L 539.249066 320.4 
z
" style="fill:#2ca02c;fill-opacity:0.5;stroke:#000000;stroke-linejoin:miter;stroke-width:0.694894;"/>
   </g>
   <g id="patch_65">
    <path clip-path="url(#p2f08693dcf)" d="M 546.198007 320.4 
L 553.146949 320.4 
L 553.146949 320.4 
L 546.198007 320.4 
z
" style="fill:#2ca02c;fill-opacity:0.5;stroke:#000000;stroke-linejoin:miter;stroke-width:0.694894;"/>
   </g>
   <g id="patch_66">
    <path clip-path="url(#p2f08693dcf)" d="M 553.146949 320.4 
L 560.09589 320.4 
L 560.09589 320.4 
L 553.146949 320.4 
z
" style="fill:#2ca02c;fill-opacity:0.5;stroke:#000000;stroke-linejoin:miter;stroke-width:0.694894;"/>
   </g>
   <g id="patch_67">
    <path clip-path="url(#p2f08693dcf)" d="M 560.09589 320.4 
L 567.044832 320.4 
L 567.044832 320.4 
L 560.09589 320.4 
z
" style="fill:#2ca02c;fill-opacity:0.5;stroke:#000000;stroke-linejoin:miter;stroke-width:0.694894;"/>
   </g>
   <g id="patch_68">
    <path clip-path="url(#p2f08693dcf)" d="M 567.044832 320.4 
L 573.993773 320.4 
L 573.993773 320.4 
L 567.044832 320.4 
z
" style="fill:#2ca02c;fill-opacity:0.5;stroke:#000000;stroke-linejoin:miter;stroke-width:0.694894;"/>
   </g>
   <g id="patch_69">
    <path clip-path="url(#p2f08693dcf)" d="M 573.993773 320.4 
L 580.942715 320.4 
L 580.942715 320.4 
L 573.993773 320.4 
z
" style="fill:#2ca02c;fill-opacity:0.5;stroke:#000000;stroke-linejoin:miter;stroke-width:0.694894;"/>
   </g>
   <g id="patch_70">
    <path clip-path="url(#p2f08693dcf)" d="M 580.942715 320.4 
L 587.891656 320.4 
L 587.891656 320.4 
L 580.942715 320.4 
z
" style="fill:#2ca02c;fill-opacity:0.5;stroke:#000000;stroke-linejoin:miter;stroke-width:0.694894;"/>
   </g>
   <g id="patch_71">
    <path clip-path="url(#p2f08693dcf)" d="M 587.891656 320.4 
L 594.840598 320.4 
L 594.840598 320.4 
L 587.891656 320.4 
z
" style="fill:#2ca02c;fill-opacity:0.5;stroke:#000000;stroke-linejoin:miter;stroke-width:0.694894;"/>
   </g>
   <g id="patch_72">
    <path clip-path="url(#p2f08693dcf)" d="M 594.840598 320.4 
L 601.789539 320.4 
L 601.789539 320.4 
L 594.840598 320.4 
z
" style="fill:#2ca02c;fill-opacity:0.5;stroke:#000000;stroke-linejoin:miter;stroke-width:0.694894;"/>
   </g>
   <g id="patch_73">
    <path clip-path="url(#p2f08693dcf)" d="M 601.789539 320.4 
L 608.738481 320.4 
L 608.738481 320.4 
L 601.789539 320.4 
z
" style="fill:#2ca02c;fill-opacity:0.5;stroke:#000000;stroke-linejoin:miter;stroke-width:0.694894;"/>
   </g>
   <g id="patch_74">
    <path clip-path="url(#p2f08693dcf)" d="M 608.738481 320.4 
L 615.687422 320.4 
L 615.687422 320.4 
L 608.738481 320.4 
z
" style="fill:#2ca02c;fill-opacity:0.5;stroke:#000000;stroke-linejoin:miter;stroke-width:0.694894;"/>
   </g>
   <g id="patch_75">
    <path clip-path="url(#p2f08693dcf)" d="M 615.687422 320.4 
L 622.636364 320.4 
L 622.636364 320.4 
L 615.687422 320.4 
z
" style="fill:#2ca02c;fill-opacity:0.5;stroke:#000000;stroke-linejoin:miter;stroke-width:0.694894;"/>
   </g>
   <g id="patch_76">
    <path clip-path="url(#p2f08693dcf)" d="M 115.363636 320.4 
L 122.312578 320.4 
L 122.312578 319.203625 
L 115.363636 319.203625 
z
" style="fill:#ff7f0e;fill-opacity:0.5;stroke:#000000;stroke-linejoin:miter;stroke-width:0.694894;"/>
   </g>
   <g id="patch_77">
    <path clip-path="url(#p2f08693dcf)" d="M 122.312578 320.4 
L 129.261519 320.4 
L 129.261519 56.4 
L 122.312578 56.4 
z
" style="fill:#ff7f0e;fill-opacity:0.5;stroke:#000000;stroke-linejoin:miter;stroke-width:0.694894;"/>
   </g>
   <g id="patch_78">
    <path clip-path="url(#p2f08693dcf)" d="M 129.261519 320.4 
L 136.210461 320.4 
L 136.210461 102.261027 
L 129.261519 102.261027 
z
" style="fill:#ff7f0e;fill-opacity:0.5;stroke:#000000;stroke-linejoin:miter;stroke-width:0.694894;"/>
   </g>
   <g id="patch_79">
    <path clip-path="url(#p2f08693dcf)" d="M 136.210461 320.4 
L 143.159402 320.4 
L 143.159402 320.4 
L 136.210461 320.4 
z
" style="fill:#ff7f0e;fill-opacity:0.5;stroke:#000000;stroke-linejoin:miter;stroke-width:0.694894;"/>
   </g>
   <g id="patch_80">
    <path clip-path="url(#p2f08693dcf)" d="M 143.159402 320.4 
L 150.108344 320.4 
L 150.108344 190.393958 
L 143.159402 190.393958 
z
" style="fill:#ff7f0e;fill-opacity:0.5;stroke:#000000;stroke-linejoin:miter;stroke-width:0.694894;"/>
   </g>
   <g id="patch_81">
    <path clip-path="url(#p2f08693dcf)" d="M 150.108344 320.4 
L 157.057285 320.4 
L 157.057285 256.992145 
L 150.108344 256.992145 
z
" style="fill:#ff7f0e;fill-opacity:0.5;stroke:#000000;stroke-linejoin:miter;stroke-width:0.694894;"/>
   </g>
   <g id="patch_82">
    <path clip-path="url(#p2f08693dcf)" d="M 157.057285 320.4 
L 164.006227 320.4 
L 164.006227 288.895468 
L 157.057285 288.895468 
z
" style="fill:#ff7f0e;fill-opacity:0.5;stroke:#000000;stroke-linejoin:miter;stroke-width:0.694894;"/>
   </g>
   <g id="patch_83">
    <path clip-path="url(#p2f08693dcf)" d="M 164.006227 320.4 
L 170.955168 320.4 
L 170.955168 320.4 
L 164.006227 320.4 
z
" style="fill:#ff7f0e;fill-opacity:0.5;stroke:#000000;stroke-linejoin:miter;stroke-width:0.694894;"/>
   </g>
   <g id="patch_84">
    <path clip-path="url(#p2f08693dcf)" d="M 170.955168 320.4 
L 177.90411 320.4 
L 177.90411 303.251964 
L 170.955168 303.251964 
z
" style="fill:#ff7f0e;fill-opacity:0.5;stroke:#000000;stroke-linejoin:miter;stroke-width:0.694894;"/>
   </g>
   <g id="patch_85">
    <path clip-path="url(#p2f08693dcf)" d="M 177.90411 320.4 
L 184.853051 320.4 
L 184.853051 302.454381 
L 177.90411 302.454381 
z
" style="fill:#ff7f0e;fill-opacity:0.5;stroke:#000000;stroke-linejoin:miter;stroke-width:0.694894;"/>
   </g>
   <g id="patch_86">
    <path clip-path="url(#p2f08693dcf)" d="M 184.853051 320.4 
L 191.801993 320.4 
L 191.801993 320.4 
L 184.853051 320.4 
z
" style="fill:#ff7f0e;fill-opacity:0.5;stroke:#000000;stroke-linejoin:miter;stroke-width:0.694894;"/>
   </g>
   <g id="patch_87">
    <path clip-path="url(#p2f08693dcf)" d="M 191.801993 320.4 
L 198.750934 320.4 
L 198.750934 310.430211 
L 191.801993 310.430211 
z
" style="fill:#ff7f0e;fill-opacity:0.5;stroke:#000000;stroke-linejoin:miter;stroke-width:0.694894;"/>
   </g>
   <g id="patch_88">
    <path clip-path="url(#p2f08693dcf)" d="M 198.750934 320.4 
L 205.699875 320.4 
L 205.699875 311.227795 
L 198.750934 311.227795 
z
" style="fill:#ff7f0e;fill-opacity:0.5;stroke:#000000;stroke-linejoin:miter;stroke-width:0.694894;"/>
   </g>
   <g id="patch_89">
    <path clip-path="url(#p2f08693dcf)" d="M 205.699875 320.4 
L 212.648817 320.4 
L 212.648817 310.829003 
L 205.699875 310.829003 
z
" style="fill:#ff7f0e;fill-opacity:0.5;stroke:#000000;stroke-linejoin:miter;stroke-width:0.694894;"/>
   </g>
   <g id="patch_90">
    <path clip-path="url(#p2f08693dcf)" d="M 212.648817 320.4 
L 219.597758 320.4 
L 219.597758 320.4 
L 212.648817 320.4 
z
" style="fill:#ff7f0e;fill-opacity:0.5;stroke:#000000;stroke-linejoin:miter;stroke-width:0.694894;"/>
   </g>
   <g id="patch_91">
    <path clip-path="url(#p2f08693dcf)" d="M 219.597758 320.4 
L 226.5467 320.4 
L 226.5467 312.025378 
L 219.597758 312.025378 
z
" style="fill:#ff7f0e;fill-opacity:0.5;stroke:#000000;stroke-linejoin:miter;stroke-width:0.694894;"/>
   </g>
   <g id="patch_92">
    <path clip-path="url(#p2f08693dcf)" d="M 226.5467 320.4 
L 233.495641 320.4 
L 233.495641 314.019335 
L 226.5467 314.019335 
z
" style="fill:#ff7f0e;fill-opacity:0.5;stroke:#000000;stroke-linejoin:miter;stroke-width:0.694894;"/>
   </g>
   <g id="patch_93">
    <path clip-path="url(#p2f08693dcf)" d="M 233.495641 320.4 
L 240.444583 320.4 
L 240.444583 315.21571 
L 233.495641 315.21571 
z
" style="fill:#ff7f0e;fill-opacity:0.5;stroke:#000000;stroke-linejoin:miter;stroke-width:0.694894;"/>
   </g>
   <g id="patch_94">
    <path clip-path="url(#p2f08693dcf)" d="M 240.444583 320.4 
L 247.393524 320.4 
L 247.393524 320.4 
L 240.444583 320.4 
z
" style="fill:#ff7f0e;fill-opacity:0.5;stroke:#000000;stroke-linejoin:miter;stroke-width:0.694894;"/>
   </g>
   <g id="patch_95">
    <path clip-path="url(#p2f08693dcf)" d="M 247.393524 320.4 
L 254.342466 320.4 
L 254.342466 315.614502 
L 247.393524 315.614502 
z
" style="fill:#ff7f0e;fill-opacity:0.5;stroke:#000000;stroke-linejoin:miter;stroke-width:0.694894;"/>
   </g>
   <g id="patch_96">
    <path clip-path="url(#p2f08693dcf)" d="M 254.342466 320.4 
L 261.291407 320.4 
L 261.291407 311.227795 
L 254.342466 311.227795 
z
" style="fill:#ff7f0e;fill-opacity:0.5;stroke:#000000;stroke-linejoin:miter;stroke-width:0.694894;"/>
   </g>
   <g id="patch_97">
    <path clip-path="url(#p2f08693dcf)" d="M 261.291407 320.4 
L 268.240349 320.4 
L 268.240349 320.4 
L 261.291407 320.4 
z
" style="fill:#ff7f0e;fill-opacity:0.5;stroke:#000000;stroke-linejoin:miter;stroke-width:0.694894;"/>
   </g>
   <g id="patch_98">
    <path clip-path="url(#p2f08693dcf)" d="M 268.240349 320.4 
L 275.18929 320.4 
L 275.18929 313.620544 
L 268.240349 313.620544 
z
" style="fill:#ff7f0e;fill-opacity:0.5;stroke:#000000;stroke-linejoin:miter;stroke-width:0.694894;"/>
   </g>
   <g id="patch_99">
    <path clip-path="url(#p2f08693dcf)" d="M 275.18929 320.4 
L 282.138232 320.4 
L 282.138232 312.822961 
L 275.18929 312.822961 
z
" style="fill:#ff7f0e;fill-opacity:0.5;stroke:#000000;stroke-linejoin:miter;stroke-width:0.694894;"/>
   </g>
   <g id="patch_100">
    <path clip-path="url(#p2f08693dcf)" d="M 282.138232 320.4 
L 289.087173 320.4 
L 289.087173 314.418127 
L 282.138232 314.418127 
z
" style="fill:#ff7f0e;fill-opacity:0.5;stroke:#000000;stroke-linejoin:miter;stroke-width:0.694894;"/>
   </g>
   <g id="patch_101">
    <path clip-path="url(#p2f08693dcf)" d="M 289.087173 320.4 
L 296.036115 320.4 
L 296.036115 320.4 
L 289.087173 320.4 
z
" style="fill:#ff7f0e;fill-opacity:0.5;stroke:#000000;stroke-linejoin:miter;stroke-width:0.694894;"/>
   </g>
   <g id="patch_102">
    <path clip-path="url(#p2f08693dcf)" d="M 296.036115 320.4 
L 302.985056 320.4 
L 302.985056 316.013293 
L 296.036115 316.013293 
z
" style="fill:#ff7f0e;fill-opacity:0.5;stroke:#000000;stroke-linejoin:miter;stroke-width:0.694894;"/>
   </g>
   <g id="patch_103">
    <path clip-path="url(#p2f08693dcf)" d="M 302.985056 320.4 
L 309.933998 320.4 
L 309.933998 314.816918 
L 302.985056 314.816918 
z
" style="fill:#ff7f0e;fill-opacity:0.5;stroke:#000000;stroke-linejoin:miter;stroke-width:0.694894;"/>
   </g>
   <g id="patch_104">
    <path clip-path="url(#p2f08693dcf)" d="M 309.933998 320.4 
L 316.882939 320.4 
L 316.882939 318.007251 
L 309.933998 318.007251 
z
" style="fill:#ff7f0e;fill-opacity:0.5;stroke:#000000;stroke-linejoin:miter;stroke-width:0.694894;"/>
   </g>
   <g id="patch_105">
    <path clip-path="url(#p2f08693dcf)" d="M 316.882939 320.4 
L 323.83188 320.4 
L 323.83188 320.4 
L 316.882939 320.4 
z
" style="fill:#ff7f0e;fill-opacity:0.5;stroke:#000000;stroke-linejoin:miter;stroke-width:0.694894;"/>
   </g>
   <g id="patch_106">
    <path clip-path="url(#p2f08693dcf)" d="M 323.83188 320.4 
L 330.780822 320.4 
L 330.780822 314.418127 
L 323.83188 314.418127 
z
" style="fill:#ff7f0e;fill-opacity:0.5;stroke:#000000;stroke-linejoin:miter;stroke-width:0.694894;"/>
   </g>
   <g id="patch_107">
    <path clip-path="url(#p2f08693dcf)" d="M 330.780822 320.4 
L 337.729763 320.4 
L 337.729763 318.007251 
L 330.780822 318.007251 
z
" style="fill:#ff7f0e;fill-opacity:0.5;stroke:#000000;stroke-linejoin:miter;stroke-width:0.694894;"/>
   </g>
   <g id="patch_108">
    <path clip-path="url(#p2f08693dcf)" d="M 337.729763 320.4 
L 344.678705 320.4 
L 344.678705 320.4 
L 337.729763 320.4 
z
" style="fill:#ff7f0e;fill-opacity:0.5;stroke:#000000;stroke-linejoin:miter;stroke-width:0.694894;"/>
   </g>
   <g id="patch_109">
    <path clip-path="url(#p2f08693dcf)" d="M 344.678705 320.4 
L 351.627646 320.4 
L 351.627646 314.418127 
L 344.678705 314.418127 
z
" style="fill:#ff7f0e;fill-opacity:0.5;stroke:#000000;stroke-linejoin:miter;stroke-width:0.694894;"/>
   </g>
   <g id="patch_110">
    <path clip-path="url(#p2f08693dcf)" d="M 351.627646 320.4 
L 358.576588 320.4 
L 358.576588 318.804834 
L 351.627646 318.804834 
z
" style="fill:#ff7f0e;fill-opacity:0.5;stroke:#000000;stroke-linejoin:miter;stroke-width:0.694894;"/>
   </g>
   <g id="patch_111">
    <path clip-path="url(#p2f08693dcf)" d="M 358.576588 320.4 
L 365.525529 320.4 
L 365.525529 316.013293 
L 358.576588 316.013293 
z
" style="fill:#ff7f0e;fill-opacity:0.5;stroke:#000000;stroke-linejoin:miter;stroke-width:0.694894;"/>
   </g>
   <g id="patch_112">
    <path clip-path="url(#p2f08693dcf)" d="M 365.525529 320.4 
L 372.474471 320.4 
L 372.474471 320.4 
L 365.525529 320.4 
z
" style="fill:#ff7f0e;fill-opacity:0.5;stroke:#000000;stroke-linejoin:miter;stroke-width:0.694894;"/>
   </g>
   <g id="patch_113">
    <path clip-path="url(#p2f08693dcf)" d="M 372.474471 320.4 
L 379.423412 320.4 
L 379.423412 316.810876 
L 372.474471 316.810876 
z
" style="fill:#ff7f0e;fill-opacity:0.5;stroke:#000000;stroke-linejoin:miter;stroke-width:0.694894;"/>
   </g>
   <g id="patch_114">
    <path clip-path="url(#p2f08693dcf)" d="M 379.423412 320.4 
L 386.372354 320.4 
L 386.372354 318.406042 
L 379.423412 318.406042 
z
" style="fill:#ff7f0e;fill-opacity:0.5;stroke:#000000;stroke-linejoin:miter;stroke-width:0.694894;"/>
   </g>
   <g id="patch_115">
    <path clip-path="url(#p2f08693dcf)" d="M 386.372354 320.4 
L 393.321295 320.4 
L 393.321295 318.007251 
L 386.372354 318.007251 
z
" style="fill:#ff7f0e;fill-opacity:0.5;stroke:#000000;stroke-linejoin:miter;stroke-width:0.694894;"/>
   </g>
   <g id="patch_116">
    <path clip-path="url(#p2f08693dcf)" d="M 393.321295 320.4 
L 400.270237 320.4 
L 400.270237 320.4 
L 393.321295 320.4 
z
" style="fill:#ff7f0e;fill-opacity:0.5;stroke:#000000;stroke-linejoin:miter;stroke-width:0.694894;"/>
   </g>
   <g id="patch_117">
    <path clip-path="url(#p2f08693dcf)" d="M 400.270237 320.4 
L 407.219178 320.4 
L 407.219178 318.406042 
L 400.270237 318.406042 
z
" style="fill:#ff7f0e;fill-opacity:0.5;stroke:#000000;stroke-linejoin:miter;stroke-width:0.694894;"/>
   </g>
   <g id="patch_118">
    <path clip-path="url(#p2f08693dcf)" d="M 407.219178 320.4 
L 414.16812 320.4 
L 414.16812 320.001208 
L 407.219178 320.001208 
z
" style="fill:#ff7f0e;fill-opacity:0.5;stroke:#000000;stroke-linejoin:miter;stroke-width:0.694894;"/>
   </g>
   <g id="patch_119">
    <path clip-path="url(#p2f08693dcf)" d="M 414.16812 320.4 
L 421.117061 320.4 
L 421.117061 320.4 
L 414.16812 320.4 
z
" style="fill:#ff7f0e;fill-opacity:0.5;stroke:#000000;stroke-linejoin:miter;stroke-width:0.694894;"/>
   </g>
   <g id="patch_120">
    <path clip-path="url(#p2f08693dcf)" d="M 421.117061 320.4 
L 428.066002 320.4 
L 428.066002 318.406042 
L 421.117061 318.406042 
z
" style="fill:#ff7f0e;fill-opacity:0.5;stroke:#000000;stroke-linejoin:miter;stroke-width:0.694894;"/>
   </g>
   <g id="patch_121">
    <path clip-path="url(#p2f08693dcf)" d="M 428.066002 320.4 
L 435.014944 320.4 
L 435.014944 318.406042 
L 428.066002 318.406042 
z
" style="fill:#ff7f0e;fill-opacity:0.5;stroke:#000000;stroke-linejoin:miter;stroke-width:0.694894;"/>
   </g>
   <g id="patch_122">
    <path clip-path="url(#p2f08693dcf)" d="M 435.014944 320.4 
L 441.963885 320.4 
L 441.963885 319.602417 
L 435.014944 319.602417 
z
" style="fill:#ff7f0e;fill-opacity:0.5;stroke:#000000;stroke-linejoin:miter;stroke-width:0.694894;"/>
   </g>
   <g id="patch_123">
    <path clip-path="url(#p2f08693dcf)" d="M 441.963885 320.4 
L 448.912827 320.4 
L 448.912827 320.4 
L 441.963885 320.4 
z
" style="fill:#ff7f0e;fill-opacity:0.5;stroke:#000000;stroke-linejoin:miter;stroke-width:0.694894;"/>
   </g>
   <g id="patch_124">
    <path clip-path="url(#p2f08693dcf)" d="M 448.912827 320.4 
L 455.861768 320.4 
L 455.861768 318.804834 
L 448.912827 318.804834 
z
" style="fill:#ff7f0e;fill-opacity:0.5;stroke:#000000;stroke-linejoin:miter;stroke-width:0.694894;"/>
   </g>
   <g id="patch_125">
    <path clip-path="url(#p2f08693dcf)" d="M 455.861768 320.4 
L 462.81071 320.4 
L 462.81071 319.203625 
L 455.861768 319.203625 
z
" style="fill:#ff7f0e;fill-opacity:0.5;stroke:#000000;stroke-linejoin:miter;stroke-width:0.694894;"/>
   </g>
   <g id="patch_126">
    <path clip-path="url(#p2f08693dcf)" d="M 462.81071 320.4 
L 469.759651 320.4 
L 469.759651 319.602417 
L 462.81071 319.602417 
z
" style="fill:#ff7f0e;fill-opacity:0.5;stroke:#000000;stroke-linejoin:miter;stroke-width:0.694894;"/>
   </g>
   <g id="patch_127">
    <path clip-path="url(#p2f08693dcf)" d="M 469.759651 320.4 
L 476.708593 320.4 
L 476.708593 320.4 
L 469.759651 320.4 
z
" style="fill:#ff7f0e;fill-opacity:0.5;stroke:#000000;stroke-linejoin:miter;stroke-width:0.694894;"/>
   </g>
   <g id="patch_128">
    <path clip-path="url(#p2f08693dcf)" d="M 476.708593 320.4 
L 483.657534 320.4 
L 483.657534 319.602417 
L 476.708593 319.602417 
z
" style="fill:#ff7f0e;fill-opacity:0.5;stroke:#000000;stroke-linejoin:miter;stroke-width:0.694894;"/>
   </g>
   <g id="patch_129">
    <path clip-path="url(#p2f08693dcf)" d="M 483.657534 320.4 
L 490.606476 320.4 
L 490.606476 320.4 
L 483.657534 320.4 
z
" style="fill:#ff7f0e;fill-opacity:0.5;stroke:#000000;stroke-linejoin:miter;stroke-width:0.694894;"/>
   </g>
   <g id="patch_130">
    <path clip-path="url(#p2f08693dcf)" d="M 490.606476 320.4 
L 497.555417 320.4 
L 497.555417 320.4 
L 490.606476 320.4 
z
" style="fill:#ff7f0e;fill-opacity:0.5;stroke:#000000;stroke-linejoin:miter;stroke-width:0.694894;"/>
   </g>
   <g id="patch_131">
    <path clip-path="url(#p2f08693dcf)" d="M 497.555417 320.4 
L 504.504359 320.4 
L 504.504359 320.001208 
L 497.555417 320.001208 
z
" style="fill:#ff7f0e;fill-opacity:0.5;stroke:#000000;stroke-linejoin:miter;stroke-width:0.694894;"/>
   </g>
   <g id="patch_132">
    <path clip-path="url(#p2f08693dcf)" d="M 504.504359 320.4 
L 511.4533 320.4 
L 511.4533 320.001208 
L 504.504359 320.001208 
z
" style="fill:#ff7f0e;fill-opacity:0.5;stroke:#000000;stroke-linejoin:miter;stroke-width:0.694894;"/>
   </g>
   <g id="patch_133">
    <path clip-path="url(#p2f08693dcf)" d="M 511.4533 320.4 
L 518.402242 320.4 
L 518.402242 320.001208 
L 511.4533 320.001208 
z
" style="fill:#ff7f0e;fill-opacity:0.5;stroke:#000000;stroke-linejoin:miter;stroke-width:0.694894;"/>
   </g>
   <g id="patch_134">
    <path clip-path="url(#p2f08693dcf)" d="M 518.402242 320.4 
L 525.351183 320.4 
L 525.351183 320.4 
L 518.402242 320.4 
z
" style="fill:#ff7f0e;fill-opacity:0.5;stroke:#000000;stroke-linejoin:miter;stroke-width:0.694894;"/>
   </g>
   <g id="patch_135">
    <path clip-path="url(#p2f08693dcf)" d="M 525.351183 320.4 
L 532.300125 320.4 
L 532.300125 319.602417 
L 525.351183 319.602417 
z
" style="fill:#ff7f0e;fill-opacity:0.5;stroke:#000000;stroke-linejoin:miter;stroke-width:0.694894;"/>
   </g>
   <g id="patch_136">
    <path clip-path="url(#p2f08693dcf)" d="M 532.300125 320.4 
L 539.249066 320.4 
L 539.249066 320.4 
L 532.300125 320.4 
z
" style="fill:#ff7f0e;fill-opacity:0.5;stroke:#000000;stroke-linejoin:miter;stroke-width:0.694894;"/>
   </g>
   <g id="patch_137">
    <path clip-path="url(#p2f08693dcf)" d="M 539.249066 320.4 
L 546.198007 320.4 
L 546.198007 320.001208 
L 539.249066 320.001208 
z
" style="fill:#ff7f0e;fill-opacity:0.5;stroke:#000000;stroke-linejoin:miter;stroke-width:0.694894;"/>
   </g>
   <g id="patch_138">
    <path clip-path="url(#p2f08693dcf)" d="M 546.198007 320.4 
L 553.146949 320.4 
L 553.146949 320.4 
L 546.198007 320.4 
z
" style="fill:#ff7f0e;fill-opacity:0.5;stroke:#000000;stroke-linejoin:miter;stroke-width:0.694894;"/>
   </g>
   <g id="patch_139">
    <path clip-path="url(#p2f08693dcf)" d="M 553.146949 320.4 
L 560.09589 320.4 
L 560.09589 320.4 
L 553.146949 320.4 
z
" style="fill:#ff7f0e;fill-opacity:0.5;stroke:#000000;stroke-linejoin:miter;stroke-width:0.694894;"/>
   </g>
   <g id="patch_140">
    <path clip-path="url(#p2f08693dcf)" d="M 560.09589 320.4 
L 567.044832 320.4 
L 567.044832 320.4 
L 560.09589 320.4 
z
" style="fill:#ff7f0e;fill-opacity:0.5;stroke:#000000;stroke-linejoin:miter;stroke-width:0.694894;"/>
   </g>
   <g id="patch_141">
    <path clip-path="url(#p2f08693dcf)" d="M 567.044832 320.4 
L 573.993773 320.4 
L 573.993773 320.4 
L 567.044832 320.4 
z
" style="fill:#ff7f0e;fill-opacity:0.5;stroke:#000000;stroke-linejoin:miter;stroke-width:0.694894;"/>
   </g>
   <g id="patch_142">
    <path clip-path="url(#p2f08693dcf)" d="M 573.993773 320.4 
L 580.942715 320.4 
L 580.942715 320.4 
L 573.993773 320.4 
z
" style="fill:#ff7f0e;fill-opacity:0.5;stroke:#000000;stroke-linejoin:miter;stroke-width:0.694894;"/>
   </g>
   <g id="patch_143">
    <path clip-path="url(#p2f08693dcf)" d="M 580.942715 320.4 
L 587.891656 320.4 
L 587.891656 320.4 
L 580.942715 320.4 
z
" style="fill:#ff7f0e;fill-opacity:0.5;stroke:#000000;stroke-linejoin:miter;stroke-width:0.694894;"/>
   </g>
   <g id="patch_144">
    <path clip-path="url(#p2f08693dcf)" d="M 587.891656 320.4 
L 594.840598 320.4 
L 594.840598 320.4 
L 587.891656 320.4 
z
" style="fill:#ff7f0e;fill-opacity:0.5;stroke:#000000;stroke-linejoin:miter;stroke-width:0.694894;"/>
   </g>
   <g id="patch_145">
    <path clip-path="url(#p2f08693dcf)" d="M 594.840598 320.4 
L 601.789539 320.4 
L 601.789539 320.4 
L 594.840598 320.4 
z
" style="fill:#ff7f0e;fill-opacity:0.5;stroke:#000000;stroke-linejoin:miter;stroke-width:0.694894;"/>
   </g>
   <g id="patch_146">
    <path clip-path="url(#p2f08693dcf)" d="M 601.789539 320.4 
L 608.738481 320.4 
L 608.738481 320.4 
L 601.789539 320.4 
z
" style="fill:#ff7f0e;fill-opacity:0.5;stroke:#000000;stroke-linejoin:miter;stroke-width:0.694894;"/>
   </g>
   <g id="patch_147">
    <path clip-path="url(#p2f08693dcf)" d="M 608.738481 320.4 
L 615.687422 320.4 
L 615.687422 320.4 
L 608.738481 320.4 
z
" style="fill:#ff7f0e;fill-opacity:0.5;stroke:#000000;stroke-linejoin:miter;stroke-width:0.694894;"/>
   </g>
   <g id="patch_148">
    <path clip-path="url(#p2f08693dcf)" d="M 615.687422 320.4 
L 622.636364 320.4 
L 622.636364 320.4 
L 615.687422 320.4 
z
" style="fill:#ff7f0e;fill-opacity:0.5;stroke:#000000;stroke-linejoin:miter;stroke-width:0.694894;"/>
   </g>
   <g id="patch_149">
    <path clip-path="url(#p2f08693dcf)" d="M 115.363636 320.4 
L 122.312578 320.4 
L 122.312578 320.4 
L 115.363636 320.4 
z
" style="fill:#1f77b4;fill-opacity:0.5;stroke:#000000;stroke-linejoin:miter;stroke-width:0.694894;"/>
   </g>
   <g id="patch_150">
    <path clip-path="url(#p2f08693dcf)" d="M 122.312578 320.4 
L 129.261519 320.4 
L 129.261519 239.844109 
L 122.312578 239.844109 
z
" style="fill:#1f77b4;fill-opacity:0.5;stroke:#000000;stroke-linejoin:miter;stroke-width:0.694894;"/>
   </g>
   <g id="patch_151">
    <path clip-path="url(#p2f08693dcf)" d="M 129.261519 320.4 
L 136.210461 320.4 
L 136.210461 237.850151 
L 129.261519 237.850151 
z
" style="fill:#1f77b4;fill-opacity:0.5;stroke:#000000;stroke-linejoin:miter;stroke-width:0.694894;"/>
   </g>
   <g id="patch_152">
    <path clip-path="url(#p2f08693dcf)" d="M 136.210461 320.4 
L 143.159402 320.4 
L 143.159402 320.4 
L 136.210461 320.4 
z
" style="fill:#1f77b4;fill-opacity:0.5;stroke:#000000;stroke-linejoin:miter;stroke-width:0.694894;"/>
   </g>
   <g id="patch_153">
    <path clip-path="url(#p2f08693dcf)" d="M 143.159402 320.4 
L 150.108344 320.4 
L 150.108344 267.360725 
L 143.159402 267.360725 
z
" style="fill:#1f77b4;fill-opacity:0.5;stroke:#000000;stroke-linejoin:miter;stroke-width:0.694894;"/>
   </g>
   <g id="patch_154">
    <path clip-path="url(#p2f08693dcf)" d="M 150.108344 320.4 
L 157.057285 320.4 
L 157.057285 283.312387 
L 150.108344 283.312387 
z
" style="fill:#1f77b4;fill-opacity:0.5;stroke:#000000;stroke-linejoin:miter;stroke-width:0.694894;"/>
   </g>
   <g id="patch_155">
    <path clip-path="url(#p2f08693dcf)" d="M 157.057285 320.4 
L 164.006227 320.4 
L 164.006227 297.270091 
L 157.057285 297.270091 
z
" style="fill:#1f77b4;fill-opacity:0.5;stroke:#000000;stroke-linejoin:miter;stroke-width:0.694894;"/>
   </g>
   <g id="patch_156">
    <path clip-path="url(#p2f08693dcf)" d="M 164.006227 320.4 
L 170.955168 320.4 
L 170.955168 320.4 
L 164.006227 320.4 
z
" style="fill:#1f77b4;fill-opacity:0.5;stroke:#000000;stroke-linejoin:miter;stroke-width:0.694894;"/>
   </g>
   <g id="patch_157">
    <path clip-path="url(#p2f08693dcf)" d="M 170.955168 320.4 
L 177.90411 320.4 
L 177.90411 304.049547 
L 170.955168 304.049547 
z
" style="fill:#1f77b4;fill-opacity:0.5;stroke:#000000;stroke-linejoin:miter;stroke-width:0.694894;"/>
   </g>
   <g id="patch_158">
    <path clip-path="url(#p2f08693dcf)" d="M 177.90411 320.4 
L 184.853051 320.4 
L 184.853051 298.067674 
L 177.90411 298.067674 
z
" style="fill:#1f77b4;fill-opacity:0.5;stroke:#000000;stroke-linejoin:miter;stroke-width:0.694894;"/>
   </g>
   <g id="patch_159">
    <path clip-path="url(#p2f08693dcf)" d="M 184.853051 320.4 
L 191.801993 320.4 
L 191.801993 320.4 
L 184.853051 320.4 
z
" style="fill:#1f77b4;fill-opacity:0.5;stroke:#000000;stroke-linejoin:miter;stroke-width:0.694894;"/>
   </g>
   <g id="patch_160">
    <path clip-path="url(#p2f08693dcf)" d="M 191.801993 320.4 
L 198.750934 320.4 
L 198.750934 301.656798 
L 191.801993 301.656798 
z
" style="fill:#1f77b4;fill-opacity:0.5;stroke:#000000;stroke-linejoin:miter;stroke-width:0.694894;"/>
   </g>
   <g id="patch_161">
    <path clip-path="url(#p2f08693dcf)" d="M 198.750934 320.4 
L 205.699875 320.4 
L 205.699875 299.66284 
L 198.750934 299.66284 
z
" style="fill:#1f77b4;fill-opacity:0.5;stroke:#000000;stroke-linejoin:miter;stroke-width:0.694894;"/>
   </g>
   <g id="patch_162">
    <path clip-path="url(#p2f08693dcf)" d="M 205.699875 320.4 
L 212.648817 320.4 
L 212.648817 298.466465 
L 205.699875 298.466465 
z
" style="fill:#1f77b4;fill-opacity:0.5;stroke:#000000;stroke-linejoin:miter;stroke-width:0.694894;"/>
   </g>
   <g id="patch_163">
    <path clip-path="url(#p2f08693dcf)" d="M 212.648817 320.4 
L 219.597758 320.4 
L 219.597758 320.4 
L 212.648817 320.4 
z
" style="fill:#1f77b4;fill-opacity:0.5;stroke:#000000;stroke-linejoin:miter;stroke-width:0.694894;"/>
   </g>
   <g id="patch_164">
    <path clip-path="url(#p2f08693dcf)" d="M 219.597758 320.4 
L 226.5467 320.4 
L 226.5467 301.656798 
L 219.597758 301.656798 
z
" style="fill:#1f77b4;fill-opacity:0.5;stroke:#000000;stroke-linejoin:miter;stroke-width:0.694894;"/>
   </g>
   <g id="patch_165">
    <path clip-path="url(#p2f08693dcf)" d="M 226.5467 320.4 
L 233.495641 320.4 
L 233.495641 302.454381 
L 226.5467 302.454381 
z
" style="fill:#1f77b4;fill-opacity:0.5;stroke:#000000;stroke-linejoin:miter;stroke-width:0.694894;"/>
   </g>
   <g id="patch_166">
    <path clip-path="url(#p2f08693dcf)" d="M 233.495641 320.4 
L 240.444583 320.4 
L 240.444583 308.436254 
L 233.495641 308.436254 
z
" style="fill:#1f77b4;fill-opacity:0.5;stroke:#000000;stroke-linejoin:miter;stroke-width:0.694894;"/>
   </g>
   <g id="patch_167">
    <path clip-path="url(#p2f08693dcf)" d="M 240.444583 320.4 
L 247.393524 320.4 
L 247.393524 320.4 
L 240.444583 320.4 
z
" style="fill:#1f77b4;fill-opacity:0.5;stroke:#000000;stroke-linejoin:miter;stroke-width:0.694894;"/>
   </g>
   <g id="patch_168">
    <path clip-path="url(#p2f08693dcf)" d="M 247.393524 320.4 
L 254.342466 320.4 
L 254.342466 306.043505 
L 247.393524 306.043505 
z
" style="fill:#1f77b4;fill-opacity:0.5;stroke:#000000;stroke-linejoin:miter;stroke-width:0.694894;"/>
   </g>
   <g id="patch_169">
    <path clip-path="url(#p2f08693dcf)" d="M 254.342466 320.4 
L 261.291407 320.4 
L 261.291407 307.239879 
L 254.342466 307.239879 
z
" style="fill:#1f77b4;fill-opacity:0.5;stroke:#000000;stroke-linejoin:miter;stroke-width:0.694894;"/>
   </g>
   <g id="patch_170">
    <path clip-path="url(#p2f08693dcf)" d="M 261.291407 320.4 
L 268.240349 320.4 
L 268.240349 320.4 
L 261.291407 320.4 
z
" style="fill:#1f77b4;fill-opacity:0.5;stroke:#000000;stroke-linejoin:miter;stroke-width:0.694894;"/>
   </g>
   <g id="patch_171">
    <path clip-path="url(#p2f08693dcf)" d="M 268.240349 320.4 
L 275.18929 320.4 
L 275.18929 312.424169 
L 268.240349 312.424169 
z
" style="fill:#1f77b4;fill-opacity:0.5;stroke:#000000;stroke-linejoin:miter;stroke-width:0.694894;"/>
   </g>
   <g id="patch_172">
    <path clip-path="url(#p2f08693dcf)" d="M 275.18929 320.4 
L 282.138232 320.4 
L 282.138232 308.835045 
L 275.18929 308.835045 
z
" style="fill:#1f77b4;fill-opacity:0.5;stroke:#000000;stroke-linejoin:miter;stroke-width:0.694894;"/>
   </g>
   <g id="patch_173">
    <path clip-path="url(#p2f08693dcf)" d="M 282.138232 320.4 
L 289.087173 320.4 
L 289.087173 308.835045 
L 282.138232 308.835045 
z
" style="fill:#1f77b4;fill-opacity:0.5;stroke:#000000;stroke-linejoin:miter;stroke-width:0.694894;"/>
   </g>
   <g id="patch_174">
    <path clip-path="url(#p2f08693dcf)" d="M 289.087173 320.4 
L 296.036115 320.4 
L 296.036115 320.4 
L 289.087173 320.4 
z
" style="fill:#1f77b4;fill-opacity:0.5;stroke:#000000;stroke-linejoin:miter;stroke-width:0.694894;"/>
   </g>
   <g id="patch_175">
    <path clip-path="url(#p2f08693dcf)" d="M 296.036115 320.4 
L 302.985056 320.4 
L 302.985056 312.025378 
L 296.036115 312.025378 
z
" style="fill:#1f77b4;fill-opacity:0.5;stroke:#000000;stroke-linejoin:miter;stroke-width:0.694894;"/>
   </g>
   <g id="patch_176">
    <path clip-path="url(#p2f08693dcf)" d="M 302.985056 320.4 
L 309.933998 320.4 
L 309.933998 311.227795 
L 302.985056 311.227795 
z
" style="fill:#1f77b4;fill-opacity:0.5;stroke:#000000;stroke-linejoin:miter;stroke-width:0.694894;"/>
   </g>
   <g id="patch_177">
    <path clip-path="url(#p2f08693dcf)" d="M 309.933998 320.4 
L 316.882939 320.4 
L 316.882939 312.822961 
L 309.933998 312.822961 
z
" style="fill:#1f77b4;fill-opacity:0.5;stroke:#000000;stroke-linejoin:miter;stroke-width:0.694894;"/>
   </g>
   <g id="patch_178">
    <path clip-path="url(#p2f08693dcf)" d="M 316.882939 320.4 
L 323.83188 320.4 
L 323.83188 320.4 
L 316.882939 320.4 
z
" style="fill:#1f77b4;fill-opacity:0.5;stroke:#000000;stroke-linejoin:miter;stroke-width:0.694894;"/>
   </g>
   <g id="patch_179">
    <path clip-path="url(#p2f08693dcf)" d="M 323.83188 320.4 
L 330.780822 320.4 
L 330.780822 313.221752 
L 323.83188 313.221752 
z
" style="fill:#1f77b4;fill-opacity:0.5;stroke:#000000;stroke-linejoin:miter;stroke-width:0.694894;"/>
   </g>
   <g id="patch_180">
    <path clip-path="url(#p2f08693dcf)" d="M 330.780822 320.4 
L 337.729763 320.4 
L 337.729763 315.21571 
L 330.780822 315.21571 
z
" style="fill:#1f77b4;fill-opacity:0.5;stroke:#000000;stroke-linejoin:miter;stroke-width:0.694894;"/>
   </g>
   <g id="patch_181">
    <path clip-path="url(#p2f08693dcf)" d="M 337.729763 320.4 
L 344.678705 320.4 
L 344.678705 320.4 
L 337.729763 320.4 
z
" style="fill:#1f77b4;fill-opacity:0.5;stroke:#000000;stroke-linejoin:miter;stroke-width:0.694894;"/>
   </g>
   <g id="patch_182">
    <path clip-path="url(#p2f08693dcf)" d="M 344.678705 320.4 
L 351.627646 320.4 
L 351.627646 316.013293 
L 344.678705 316.013293 
z
" style="fill:#1f77b4;fill-opacity:0.5;stroke:#000000;stroke-linejoin:miter;stroke-width:0.694894;"/>
   </g>
   <g id="patch_183">
    <path clip-path="url(#p2f08693dcf)" d="M 351.627646 320.4 
L 358.576588 320.4 
L 358.576588 317.608459 
L 351.627646 317.608459 
z
" style="fill:#1f77b4;fill-opacity:0.5;stroke:#000000;stroke-linejoin:miter;stroke-width:0.694894;"/>
   </g>
   <g id="patch_184">
    <path clip-path="url(#p2f08693dcf)" d="M 358.576588 320.4 
L 365.525529 320.4 
L 365.525529 316.013293 
L 358.576588 316.013293 
z
" style="fill:#1f77b4;fill-opacity:0.5;stroke:#000000;stroke-linejoin:miter;stroke-width:0.694894;"/>
   </g>
   <g id="patch_185">
    <path clip-path="url(#p2f08693dcf)" d="M 365.525529 320.4 
L 372.474471 320.4 
L 372.474471 320.4 
L 365.525529 320.4 
z
" style="fill:#1f77b4;fill-opacity:0.5;stroke:#000000;stroke-linejoin:miter;stroke-width:0.694894;"/>
   </g>
   <g id="patch_186">
    <path clip-path="url(#p2f08693dcf)" d="M 372.474471 320.4 
L 379.423412 320.4 
L 379.423412 316.412085 
L 372.474471 316.412085 
z
" style="fill:#1f77b4;fill-opacity:0.5;stroke:#000000;stroke-linejoin:miter;stroke-width:0.694894;"/>
   </g>
   <g id="patch_187">
    <path clip-path="url(#p2f08693dcf)" d="M 379.423412 320.4 
L 386.372354 320.4 
L 386.372354 315.21571 
L 379.423412 315.21571 
z
" style="fill:#1f77b4;fill-opacity:0.5;stroke:#000000;stroke-linejoin:miter;stroke-width:0.694894;"/>
   </g>
   <g id="patch_188">
    <path clip-path="url(#p2f08693dcf)" d="M 386.372354 320.4 
L 393.321295 320.4 
L 393.321295 318.007251 
L 386.372354 318.007251 
z
" style="fill:#1f77b4;fill-opacity:0.5;stroke:#000000;stroke-linejoin:miter;stroke-width:0.694894;"/>
   </g>
   <g id="patch_189">
    <path clip-path="url(#p2f08693dcf)" d="M 393.321295 320.4 
L 400.270237 320.4 
L 400.270237 320.4 
L 393.321295 320.4 
z
" style="fill:#1f77b4;fill-opacity:0.5;stroke:#000000;stroke-linejoin:miter;stroke-width:0.694894;"/>
   </g>
   <g id="patch_190">
    <path clip-path="url(#p2f08693dcf)" d="M 400.270237 320.4 
L 407.219178 320.4 
L 407.219178 316.013293 
L 400.270237 316.013293 
z
" style="fill:#1f77b4;fill-opacity:0.5;stroke:#000000;stroke-linejoin:miter;stroke-width:0.694894;"/>
   </g>
   <g id="patch_191">
    <path clip-path="url(#p2f08693dcf)" d="M 407.219178 320.4 
L 414.16812 320.4 
L 414.16812 317.608459 
L 407.219178 317.608459 
z
" style="fill:#1f77b4;fill-opacity:0.5;stroke:#000000;stroke-linejoin:miter;stroke-width:0.694894;"/>
   </g>
   <g id="patch_192">
    <path clip-path="url(#p2f08693dcf)" d="M 414.16812 320.4 
L 421.117061 320.4 
L 421.117061 320.4 
L 414.16812 320.4 
z
" style="fill:#1f77b4;fill-opacity:0.5;stroke:#000000;stroke-linejoin:miter;stroke-width:0.694894;"/>
   </g>
   <g id="patch_193">
    <path clip-path="url(#p2f08693dcf)" d="M 421.117061 320.4 
L 428.066002 320.4 
L 428.066002 317.608459 
L 421.117061 317.608459 
z
" style="fill:#1f77b4;fill-opacity:0.5;stroke:#000000;stroke-linejoin:miter;stroke-width:0.694894;"/>
   </g>
   <g id="patch_194">
    <path clip-path="url(#p2f08693dcf)" d="M 428.066002 320.4 
L 435.014944 320.4 
L 435.014944 316.810876 
L 428.066002 316.810876 
z
" style="fill:#1f77b4;fill-opacity:0.5;stroke:#000000;stroke-linejoin:miter;stroke-width:0.694894;"/>
   </g>
   <g id="patch_195">
    <path clip-path="url(#p2f08693dcf)" d="M 435.014944 320.4 
L 441.963885 320.4 
L 441.963885 318.406042 
L 435.014944 318.406042 
z
" style="fill:#1f77b4;fill-opacity:0.5;stroke:#000000;stroke-linejoin:miter;stroke-width:0.694894;"/>
   </g>
   <g id="patch_196">
    <path clip-path="url(#p2f08693dcf)" d="M 441.963885 320.4 
L 448.912827 320.4 
L 448.912827 320.4 
L 441.963885 320.4 
z
" style="fill:#1f77b4;fill-opacity:0.5;stroke:#000000;stroke-linejoin:miter;stroke-width:0.694894;"/>
   </g>
   <g id="patch_197">
    <path clip-path="url(#p2f08693dcf)" d="M 448.912827 320.4 
L 455.861768 320.4 
L 455.861768 320.4 
L 448.912827 320.4 
z
" style="fill:#1f77b4;fill-opacity:0.5;stroke:#000000;stroke-linejoin:miter;stroke-width:0.694894;"/>
   </g>
   <g id="patch_198">
    <path clip-path="url(#p2f08693dcf)" d="M 455.861768 320.4 
L 462.81071 320.4 
L 462.81071 319.203625 
L 455.861768 319.203625 
z
" style="fill:#1f77b4;fill-opacity:0.5;stroke:#000000;stroke-linejoin:miter;stroke-width:0.694894;"/>
   </g>
   <g id="patch_199">
    <path clip-path="url(#p2f08693dcf)" d="M 462.81071 320.4 
L 469.759651 320.4 
L 469.759651 318.804834 
L 462.81071 318.804834 
z
" style="fill:#1f77b4;fill-opacity:0.5;stroke:#000000;stroke-linejoin:miter;stroke-width:0.694894;"/>
   </g>
   <g id="patch_200">
    <path clip-path="url(#p2f08693dcf)" d="M 469.759651 320.4 
L 476.708593 320.4 
L 476.708593 320.4 
L 469.759651 320.4 
z
" style="fill:#1f77b4;fill-opacity:0.5;stroke:#000000;stroke-linejoin:miter;stroke-width:0.694894;"/>
   </g>
   <g id="patch_201">
    <path clip-path="url(#p2f08693dcf)" d="M 476.708593 320.4 
L 483.657534 320.4 
L 483.657534 319.203625 
L 476.708593 319.203625 
z
" style="fill:#1f77b4;fill-opacity:0.5;stroke:#000000;stroke-linejoin:miter;stroke-width:0.694894;"/>
   </g>
   <g id="patch_202">
    <path clip-path="url(#p2f08693dcf)" d="M 483.657534 320.4 
L 490.606476 320.4 
L 490.606476 320.4 
L 483.657534 320.4 
z
" style="fill:#1f77b4;fill-opacity:0.5;stroke:#000000;stroke-linejoin:miter;stroke-width:0.694894;"/>
   </g>
   <g id="patch_203">
    <path clip-path="url(#p2f08693dcf)" d="M 490.606476 320.4 
L 497.555417 320.4 
L 497.555417 320.4 
L 490.606476 320.4 
z
" style="fill:#1f77b4;fill-opacity:0.5;stroke:#000000;stroke-linejoin:miter;stroke-width:0.694894;"/>
   </g>
   <g id="patch_204">
    <path clip-path="url(#p2f08693dcf)" d="M 497.555417 320.4 
L 504.504359 320.4 
L 504.504359 320.001208 
L 497.555417 320.001208 
z
" style="fill:#1f77b4;fill-opacity:0.5;stroke:#000000;stroke-linejoin:miter;stroke-width:0.694894;"/>
   </g>
   <g id="patch_205">
    <path clip-path="url(#p2f08693dcf)" d="M 504.504359 320.4 
L 511.4533 320.4 
L 511.4533 319.602417 
L 504.504359 319.602417 
z
" style="fill:#1f77b4;fill-opacity:0.5;stroke:#000000;stroke-linejoin:miter;stroke-width:0.694894;"/>
   </g>
   <g id="patch_206">
    <path clip-path="url(#p2f08693dcf)" d="M 511.4533 320.4 
L 518.402242 320.4 
L 518.402242 319.602417 
L 511.4533 319.602417 
z
" style="fill:#1f77b4;fill-opacity:0.5;stroke:#000000;stroke-linejoin:miter;stroke-width:0.694894;"/>
   </g>
   <g id="patch_207">
    <path clip-path="url(#p2f08693dcf)" d="M 518.402242 320.4 
L 525.351183 320.4 
L 525.351183 320.4 
L 518.402242 320.4 
z
" style="fill:#1f77b4;fill-opacity:0.5;stroke:#000000;stroke-linejoin:miter;stroke-width:0.694894;"/>
   </g>
   <g id="patch_208">
    <path clip-path="url(#p2f08693dcf)" d="M 525.351183 320.4 
L 532.300125 320.4 
L 532.300125 320.4 
L 525.351183 320.4 
z
" style="fill:#1f77b4;fill-opacity:0.5;stroke:#000000;stroke-linejoin:miter;stroke-width:0.694894;"/>
   </g>
   <g id="patch_209">
    <path clip-path="url(#p2f08693dcf)" d="M 532.300125 320.4 
L 539.249066 320.4 
L 539.249066 320.001208 
L 532.300125 320.001208 
z
" style="fill:#1f77b4;fill-opacity:0.5;stroke:#000000;stroke-linejoin:miter;stroke-width:0.694894;"/>
   </g>
   <g id="patch_210">
    <path clip-path="url(#p2f08693dcf)" d="M 539.249066 320.4 
L 546.198007 320.4 
L 546.198007 320.4 
L 539.249066 320.4 
z
" style="fill:#1f77b4;fill-opacity:0.5;stroke:#000000;stroke-linejoin:miter;stroke-width:0.694894;"/>
   </g>
   <g id="patch_211">
    <path clip-path="url(#p2f08693dcf)" d="M 546.198007 320.4 
L 553.146949 320.4 
L 553.146949 320.4 
L 546.198007 320.4 
z
" style="fill:#1f77b4;fill-opacity:0.5;stroke:#000000;stroke-linejoin:miter;stroke-width:0.694894;"/>
   </g>
   <g id="patch_212">
    <path clip-path="url(#p2f08693dcf)" d="M 553.146949 320.4 
L 560.09589 320.4 
L 560.09589 320.4 
L 553.146949 320.4 
z
" style="fill:#1f77b4;fill-opacity:0.5;stroke:#000000;stroke-linejoin:miter;stroke-width:0.694894;"/>
   </g>
   <g id="patch_213">
    <path clip-path="url(#p2f08693dcf)" d="M 560.09589 320.4 
L 567.044832 320.4 
L 567.044832 320.4 
L 560.09589 320.4 
z
" style="fill:#1f77b4;fill-opacity:0.5;stroke:#000000;stroke-linejoin:miter;stroke-width:0.694894;"/>
   </g>
   <g id="patch_214">
    <path clip-path="url(#p2f08693dcf)" d="M 567.044832 320.4 
L 573.993773 320.4 
L 573.993773 320.4 
L 567.044832 320.4 
z
" style="fill:#1f77b4;fill-opacity:0.5;stroke:#000000;stroke-linejoin:miter;stroke-width:0.694894;"/>
   </g>
   <g id="patch_215">
    <path clip-path="url(#p2f08693dcf)" d="M 573.993773 320.4 
L 580.942715 320.4 
L 580.942715 320.4 
L 573.993773 320.4 
z
" style="fill:#1f77b4;fill-opacity:0.5;stroke:#000000;stroke-linejoin:miter;stroke-width:0.694894;"/>
   </g>
   <g id="patch_216">
    <path clip-path="url(#p2f08693dcf)" d="M 580.942715 320.4 
L 587.891656 320.4 
L 587.891656 320.4 
L 580.942715 320.4 
z
" style="fill:#1f77b4;fill-opacity:0.5;stroke:#000000;stroke-linejoin:miter;stroke-width:0.694894;"/>
   </g>
   <g id="patch_217">
    <path clip-path="url(#p2f08693dcf)" d="M 587.891656 320.4 
L 594.840598 320.4 
L 594.840598 320.4 
L 587.891656 320.4 
z
" style="fill:#1f77b4;fill-opacity:0.5;stroke:#000000;stroke-linejoin:miter;stroke-width:0.694894;"/>
   </g>
   <g id="patch_218">
    <path clip-path="url(#p2f08693dcf)" d="M 594.840598 320.4 
L 601.789539 320.4 
L 601.789539 320.4 
L 594.840598 320.4 
z
" style="fill:#1f77b4;fill-opacity:0.5;stroke:#000000;stroke-linejoin:miter;stroke-width:0.694894;"/>
   </g>
   <g id="patch_219">
    <path clip-path="url(#p2f08693dcf)" d="M 601.789539 320.4 
L 608.738481 320.4 
L 608.738481 320.4 
L 601.789539 320.4 
z
" style="fill:#1f77b4;fill-opacity:0.5;stroke:#000000;stroke-linejoin:miter;stroke-width:0.694894;"/>
   </g>
   <g id="patch_220">
    <path clip-path="url(#p2f08693dcf)" d="M 608.738481 320.4 
L 615.687422 320.4 
L 615.687422 320.4 
L 608.738481 320.4 
z
" style="fill:#1f77b4;fill-opacity:0.5;stroke:#000000;stroke-linejoin:miter;stroke-width:0.694894;"/>
   </g>
   <g id="patch_221">
    <path clip-path="url(#p2f08693dcf)" d="M 615.687422 320.4 
L 622.636364 320.4 
L 622.636364 320.001208 
L 615.687422 320.001208 
z
" style="fill:#1f77b4;fill-opacity:0.5;stroke:#000000;stroke-linejoin:miter;stroke-width:0.694894;"/>
   </g>
   <g id="matplotlib.axis_1">
    <g id="xtick_1">
     <g id="line2d_1">
      <defs>
       <path d="M 0 0 
L 0 3.5 
" id="mfcecccca4e" style="stroke:#000000;stroke-width:0.8;"/>
      </defs>
      <g>
       <use style="stroke:#000000;stroke-width:0.8;" x="144.077187" xlink:href="#mfcecccca4e" y="320.4"/>
      </g>
     </g>
     <g id="text_1">
      <!-- 20 -->
      <g transform="translate(137.714687 334.998438)scale(0.1 -0.1)">
       <defs>
        <path d="M 19.1875 8.296875 
L 53.609375 8.296875 
L 53.609375 0 
L 7.328125 0 
L 7.328125 8.296875 
Q 12.9375 14.109375 22.625 23.890625 
Q 32.328125 33.6875 34.8125 36.53125 
Q 39.546875 41.84375 41.421875 45.53125 
Q 43.3125 49.21875 43.3125 52.78125 
Q 43.3125 58.59375 39.234375 62.25 
Q 35.15625 65.921875 28.609375 65.921875 
Q 23.96875 65.921875 18.8125 64.3125 
Q 13.671875 62.703125 7.8125 59.421875 
L 7.8125 69.390625 
Q 13.765625 71.78125 18.9375 73 
Q 24.125 74.21875 28.421875 74.21875 
Q 39.75 74.21875 46.484375 68.546875 
Q 53.21875 62.890625 53.21875 53.421875 
Q 53.21875 48.921875 51.53125 44.890625 
Q 49.859375 40.875 45.40625 35.40625 
Q 44.1875 33.984375 37.640625 27.21875 
Q 31.109375 20.453125 19.1875 8.296875 
z
" id="DejaVuSans-50"/>
        <path d="M 31.78125 66.40625 
Q 24.171875 66.40625 20.328125 58.90625 
Q 16.5 51.421875 16.5 36.375 
Q 16.5 21.390625 20.328125 13.890625 
Q 24.171875 6.390625 31.78125 6.390625 
Q 39.453125 6.390625 43.28125 13.890625 
Q 47.125 21.390625 47.125 36.375 
Q 47.125 51.421875 43.28125 58.90625 
Q 39.453125 66.40625 31.78125 66.40625 
z
M 31.78125 74.21875 
Q 44.046875 74.21875 50.515625 64.515625 
Q 56.984375 54.828125 56.984375 36.375 
Q 56.984375 17.96875 50.515625 8.265625 
Q 44.046875 -1.421875 31.78125 -1.421875 
Q 19.53125 -1.421875 13.0625 8.265625 
Q 6.59375 17.96875 6.59375 36.375 
Q 6.59375 54.828125 13.0625 64.515625 
Q 19.53125 74.21875 31.78125 74.21875 
z
" id="DejaVuSans-48"/>
       </defs>
       <use xlink:href="#DejaVuSans-50"/>
       <use x="63.623047" xlink:href="#DejaVuSans-48"/>
      </g>
     </g>
    </g>
    <g id="xtick_2">
     <g id="line2d_2">
      <g>
       <use style="stroke:#000000;stroke-width:0.8;" x="239.789022" xlink:href="#mfcecccca4e" y="320.4"/>
      </g>
     </g>
     <g id="text_2">
      <!-- 30 -->
      <g transform="translate(233.426522 334.998438)scale(0.1 -0.1)">
       <defs>
        <path d="M 40.578125 39.3125 
Q 47.65625 37.796875 51.625 33 
Q 55.609375 28.21875 55.609375 21.1875 
Q 55.609375 10.40625 48.1875 4.484375 
Q 40.765625 -1.421875 27.09375 -1.421875 
Q 22.515625 -1.421875 17.65625 -0.515625 
Q 12.796875 0.390625 7.625 2.203125 
L 7.625 11.71875 
Q 11.71875 9.328125 16.59375 8.109375 
Q 21.484375 6.890625 26.8125 6.890625 
Q 36.078125 6.890625 40.9375 10.546875 
Q 45.796875 14.203125 45.796875 21.1875 
Q 45.796875 27.640625 41.28125 31.265625 
Q 36.765625 34.90625 28.71875 34.90625 
L 20.21875 34.90625 
L 20.21875 43.015625 
L 29.109375 43.015625 
Q 36.375 43.015625 40.234375 45.921875 
Q 44.09375 48.828125 44.09375 54.296875 
Q 44.09375 59.90625 40.109375 62.90625 
Q 36.140625 65.921875 28.71875 65.921875 
Q 24.65625 65.921875 20.015625 65.03125 
Q 15.375 64.15625 9.8125 62.3125 
L 9.8125 71.09375 
Q 15.4375 72.65625 20.34375 73.4375 
Q 25.25 74.21875 29.59375 74.21875 
Q 40.828125 74.21875 47.359375 69.109375 
Q 53.90625 64.015625 53.90625 55.328125 
Q 53.90625 49.265625 50.4375 45.09375 
Q 46.96875 40.921875 40.578125 39.3125 
z
" id="DejaVuSans-51"/>
       </defs>
       <use xlink:href="#DejaVuSans-51"/>
       <use x="63.623047" xlink:href="#DejaVuSans-48"/>
      </g>
     </g>
    </g>
    <g id="xtick_3">
     <g id="line2d_3">
      <g>
       <use style="stroke:#000000;stroke-width:0.8;" x="335.500858" xlink:href="#mfcecccca4e" y="320.4"/>
      </g>
     </g>
     <g id="text_3">
      <!-- 40 -->
      <g transform="translate(329.138358 334.998438)scale(0.1 -0.1)">
       <defs>
        <path d="M 37.796875 64.3125 
L 12.890625 25.390625 
L 37.796875 25.390625 
z
M 35.203125 72.90625 
L 47.609375 72.90625 
L 47.609375 25.390625 
L 58.015625 25.390625 
L 58.015625 17.1875 
L 47.609375 17.1875 
L 47.609375 0 
L 37.796875 0 
L 37.796875 17.1875 
L 4.890625 17.1875 
L 4.890625 26.703125 
z
" id="DejaVuSans-52"/>
       </defs>
       <use xlink:href="#DejaVuSans-52"/>
       <use x="63.623047" xlink:href="#DejaVuSans-48"/>
      </g>
     </g>
    </g>
    <g id="xtick_4">
     <g id="line2d_4">
      <g>
       <use style="stroke:#000000;stroke-width:0.8;" x="431.212693" xlink:href="#mfcecccca4e" y="320.4"/>
      </g>
     </g>
     <g id="text_4">
      <!-- 50 -->
      <g transform="translate(424.850193 334.998438)scale(0.1 -0.1)">
       <defs>
        <path d="M 10.796875 72.90625 
L 49.515625 72.90625 
L 49.515625 64.59375 
L 19.828125 64.59375 
L 19.828125 46.734375 
Q 21.96875 47.46875 24.109375 47.828125 
Q 26.265625 48.1875 28.421875 48.1875 
Q 40.625 48.1875 47.75 41.5 
Q 54.890625 34.8125 54.890625 23.390625 
Q 54.890625 11.625 47.5625 5.09375 
Q 40.234375 -1.421875 26.90625 -1.421875 
Q 22.3125 -1.421875 17.546875 -0.640625 
Q 12.796875 0.140625 7.71875 1.703125 
L 7.71875 11.625 
Q 12.109375 9.234375 16.796875 8.0625 
Q 21.484375 6.890625 26.703125 6.890625 
Q 35.15625 6.890625 40.078125 11.328125 
Q 45.015625 15.765625 45.015625 23.390625 
Q 45.015625 31 40.078125 35.4375 
Q 35.15625 39.890625 26.703125 39.890625 
Q 22.75 39.890625 18.8125 39.015625 
Q 14.890625 38.140625 10.796875 36.28125 
z
" id="DejaVuSans-53"/>
       </defs>
       <use xlink:href="#DejaVuSans-53"/>
       <use x="63.623047" xlink:href="#DejaVuSans-48"/>
      </g>
     </g>
    </g>
    <g id="xtick_5">
     <g id="line2d_5">
      <g>
       <use style="stroke:#000000;stroke-width:0.8;" x="526.924528" xlink:href="#mfcecccca4e" y="320.4"/>
      </g>
     </g>
     <g id="text_5">
      <!-- 60 -->
      <g transform="translate(520.562028 334.998438)scale(0.1 -0.1)">
       <defs>
        <path d="M 33.015625 40.375 
Q 26.375 40.375 22.484375 35.828125 
Q 18.609375 31.296875 18.609375 23.390625 
Q 18.609375 15.53125 22.484375 10.953125 
Q 26.375 6.390625 33.015625 6.390625 
Q 39.65625 6.390625 43.53125 10.953125 
Q 47.40625 15.53125 47.40625 23.390625 
Q 47.40625 31.296875 43.53125 35.828125 
Q 39.65625 40.375 33.015625 40.375 
z
M 52.59375 71.296875 
L 52.59375 62.3125 
Q 48.875 64.0625 45.09375 64.984375 
Q 41.3125 65.921875 37.59375 65.921875 
Q 27.828125 65.921875 22.671875 59.328125 
Q 17.53125 52.734375 16.796875 39.40625 
Q 19.671875 43.65625 24.015625 45.921875 
Q 28.375 48.1875 33.59375 48.1875 
Q 44.578125 48.1875 50.953125 41.515625 
Q 57.328125 34.859375 57.328125 23.390625 
Q 57.328125 12.15625 50.6875 5.359375 
Q 44.046875 -1.421875 33.015625 -1.421875 
Q 20.359375 -1.421875 13.671875 8.265625 
Q 6.984375 17.96875 6.984375 36.375 
Q 6.984375 53.65625 15.1875 63.9375 
Q 23.390625 74.21875 37.203125 74.21875 
Q 40.921875 74.21875 44.703125 73.484375 
Q 48.484375 72.75 52.59375 71.296875 
z
" id="DejaVuSans-54"/>
       </defs>
       <use xlink:href="#DejaVuSans-54"/>
       <use x="63.623047" xlink:href="#DejaVuSans-48"/>
      </g>
     </g>
    </g>
    <g id="xtick_6">
     <g id="line2d_6">
      <g>
       <use style="stroke:#000000;stroke-width:0.8;" x="622.636364" xlink:href="#mfcecccca4e" y="320.4"/>
      </g>
     </g>
     <g id="text_6">
      <!-- 70 -->
      <g transform="translate(616.273864 334.998438)scale(0.1 -0.1)">
       <defs>
        <path d="M 8.203125 72.90625 
L 55.078125 72.90625 
L 55.078125 68.703125 
L 28.609375 0 
L 18.3125 0 
L 43.21875 64.59375 
L 8.203125 64.59375 
z
" id="DejaVuSans-55"/>
       </defs>
       <use xlink:href="#DejaVuSans-55"/>
       <use x="63.623047" xlink:href="#DejaVuSans-48"/>
      </g>
     </g>
    </g>
    <g id="text_7">
     <!-- Age at enrollment -->
     <g transform="translate(324.025 348.676562)scale(0.1 -0.1)">
      <defs>
       <path d="M 34.1875 63.1875 
L 20.796875 26.90625 
L 47.609375 26.90625 
z
M 28.609375 72.90625 
L 39.796875 72.90625 
L 67.578125 0 
L 57.328125 0 
L 50.6875 18.703125 
L 17.828125 18.703125 
L 11.1875 0 
L 0.78125 0 
z
" id="DejaVuSans-65"/>
       <path d="M 45.40625 27.984375 
Q 45.40625 37.75 41.375 43.109375 
Q 37.359375 48.484375 30.078125 48.484375 
Q 22.859375 48.484375 18.828125 43.109375 
Q 14.796875 37.75 14.796875 27.984375 
Q 14.796875 18.265625 18.828125 12.890625 
Q 22.859375 7.515625 30.078125 7.515625 
Q 37.359375 7.515625 41.375 12.890625 
Q 45.40625 18.265625 45.40625 27.984375 
z
M 54.390625 6.78125 
Q 54.390625 -7.171875 48.1875 -13.984375 
Q 42 -20.796875 29.203125 -20.796875 
Q 24.46875 -20.796875 20.265625 -20.09375 
Q 16.0625 -19.390625 12.109375 -17.921875 
L 12.109375 -9.1875 
Q 16.0625 -11.328125 19.921875 -12.34375 
Q 23.78125 -13.375 27.78125 -13.375 
Q 36.625 -13.375 41.015625 -8.765625 
Q 45.40625 -4.15625 45.40625 5.171875 
L 45.40625 9.625 
Q 42.625 4.78125 38.28125 2.390625 
Q 33.9375 0 27.875 0 
Q 17.828125 0 11.671875 7.65625 
Q 5.515625 15.328125 5.515625 27.984375 
Q 5.515625 40.671875 11.671875 48.328125 
Q 17.828125 56 27.875 56 
Q 33.9375 56 38.28125 53.609375 
Q 42.625 51.21875 45.40625 46.390625 
L 45.40625 54.6875 
L 54.390625 54.6875 
z
" id="DejaVuSans-103"/>
       <path d="M 56.203125 29.59375 
L 56.203125 25.203125 
L 14.890625 25.203125 
Q 15.484375 15.921875 20.484375 11.0625 
Q 25.484375 6.203125 34.421875 6.203125 
Q 39.59375 6.203125 44.453125 7.46875 
Q 49.3125 8.734375 54.109375 11.28125 
L 54.109375 2.78125 
Q 49.265625 0.734375 44.1875 -0.34375 
Q 39.109375 -1.421875 33.890625 -1.421875 
Q 20.796875 -1.421875 13.15625 6.1875 
Q 5.515625 13.8125 5.515625 26.8125 
Q 5.515625 40.234375 12.765625 48.109375 
Q 20.015625 56 32.328125 56 
Q 43.359375 56 49.78125 48.890625 
Q 56.203125 41.796875 56.203125 29.59375 
z
M 47.21875 32.234375 
Q 47.125 39.59375 43.09375 43.984375 
Q 39.0625 48.390625 32.421875 48.390625 
Q 24.90625 48.390625 20.390625 44.140625 
Q 15.875 39.890625 15.1875 32.171875 
z
" id="DejaVuSans-101"/>
       <path id="DejaVuSans-32"/>
       <path d="M 34.28125 27.484375 
Q 23.390625 27.484375 19.1875 25 
Q 14.984375 22.515625 14.984375 16.5 
Q 14.984375 11.71875 18.140625 8.90625 
Q 21.296875 6.109375 26.703125 6.109375 
Q 34.1875 6.109375 38.703125 11.40625 
Q 43.21875 16.703125 43.21875 25.484375 
L 43.21875 27.484375 
z
M 52.203125 31.203125 
L 52.203125 0 
L 43.21875 0 
L 43.21875 8.296875 
Q 40.140625 3.328125 35.546875 0.953125 
Q 30.953125 -1.421875 24.3125 -1.421875 
Q 15.921875 -1.421875 10.953125 3.296875 
Q 6 8.015625 6 15.921875 
Q 6 25.140625 12.171875 29.828125 
Q 18.359375 34.515625 30.609375 34.515625 
L 43.21875 34.515625 
L 43.21875 35.40625 
Q 43.21875 41.609375 39.140625 45 
Q 35.0625 48.390625 27.6875 48.390625 
Q 23 48.390625 18.546875 47.265625 
Q 14.109375 46.140625 10.015625 43.890625 
L 10.015625 52.203125 
Q 14.9375 54.109375 19.578125 55.046875 
Q 24.21875 56 28.609375 56 
Q 40.484375 56 46.34375 49.84375 
Q 52.203125 43.703125 52.203125 31.203125 
z
" id="DejaVuSans-97"/>
       <path d="M 18.3125 70.21875 
L 18.3125 54.6875 
L 36.8125 54.6875 
L 36.8125 47.703125 
L 18.3125 47.703125 
L 18.3125 18.015625 
Q 18.3125 11.328125 20.140625 9.421875 
Q 21.96875 7.515625 27.59375 7.515625 
L 36.8125 7.515625 
L 36.8125 0 
L 27.59375 0 
Q 17.1875 0 13.234375 3.875 
Q 9.28125 7.765625 9.28125 18.015625 
L 9.28125 47.703125 
L 2.6875 47.703125 
L 2.6875 54.6875 
L 9.28125 54.6875 
L 9.28125 70.21875 
z
" id="DejaVuSans-116"/>
       <path d="M 54.890625 33.015625 
L 54.890625 0 
L 45.90625 0 
L 45.90625 32.71875 
Q 45.90625 40.484375 42.875 44.328125 
Q 39.84375 48.1875 33.796875 48.1875 
Q 26.515625 48.1875 22.3125 43.546875 
Q 18.109375 38.921875 18.109375 30.90625 
L 18.109375 0 
L 9.078125 0 
L 9.078125 54.6875 
L 18.109375 54.6875 
L 18.109375 46.1875 
Q 21.34375 51.125 25.703125 53.5625 
Q 30.078125 56 35.796875 56 
Q 45.21875 56 50.046875 50.171875 
Q 54.890625 44.34375 54.890625 33.015625 
z
" id="DejaVuSans-110"/>
       <path d="M 41.109375 46.296875 
Q 39.59375 47.171875 37.8125 47.578125 
Q 36.03125 48 33.890625 48 
Q 26.265625 48 22.1875 43.046875 
Q 18.109375 38.09375 18.109375 28.8125 
L 18.109375 0 
L 9.078125 0 
L 9.078125 54.6875 
L 18.109375 54.6875 
L 18.109375 46.1875 
Q 20.953125 51.171875 25.484375 53.578125 
Q 30.03125 56 36.53125 56 
Q 37.453125 56 38.578125 55.875 
Q 39.703125 55.765625 41.0625 55.515625 
z
" id="DejaVuSans-114"/>
       <path d="M 30.609375 48.390625 
Q 23.390625 48.390625 19.1875 42.75 
Q 14.984375 37.109375 14.984375 27.296875 
Q 14.984375 17.484375 19.15625 11.84375 
Q 23.34375 6.203125 30.609375 6.203125 
Q 37.796875 6.203125 41.984375 11.859375 
Q 46.1875 17.53125 46.1875 27.296875 
Q 46.1875 37.015625 41.984375 42.703125 
Q 37.796875 48.390625 30.609375 48.390625 
z
M 30.609375 56 
Q 42.328125 56 49.015625 48.375 
Q 55.71875 40.765625 55.71875 27.296875 
Q 55.71875 13.875 49.015625 6.21875 
Q 42.328125 -1.421875 30.609375 -1.421875 
Q 18.84375 -1.421875 12.171875 6.21875 
Q 5.515625 13.875 5.515625 27.296875 
Q 5.515625 40.765625 12.171875 48.375 
Q 18.84375 56 30.609375 56 
z
" id="DejaVuSans-111"/>
       <path d="M 9.421875 75.984375 
L 18.40625 75.984375 
L 18.40625 0 
L 9.421875 0 
z
" id="DejaVuSans-108"/>
       <path d="M 52 44.1875 
Q 55.375 50.25 60.0625 53.125 
Q 64.75 56 71.09375 56 
Q 79.640625 56 84.28125 50.015625 
Q 88.921875 44.046875 88.921875 33.015625 
L 88.921875 0 
L 79.890625 0 
L 79.890625 32.71875 
Q 79.890625 40.578125 77.09375 44.375 
Q 74.3125 48.1875 68.609375 48.1875 
Q 61.625 48.1875 57.5625 43.546875 
Q 53.515625 38.921875 53.515625 30.90625 
L 53.515625 0 
L 44.484375 0 
L 44.484375 32.71875 
Q 44.484375 40.625 41.703125 44.40625 
Q 38.921875 48.1875 33.109375 48.1875 
Q 26.21875 48.1875 22.15625 43.53125 
Q 18.109375 38.875 18.109375 30.90625 
L 18.109375 0 
L 9.078125 0 
L 9.078125 54.6875 
L 18.109375 54.6875 
L 18.109375 46.1875 
Q 21.1875 51.21875 25.484375 53.609375 
Q 29.78125 56 35.6875 56 
Q 41.65625 56 45.828125 52.96875 
Q 50 49.953125 52 44.1875 
z
" id="DejaVuSans-109"/>
      </defs>
      <use xlink:href="#DejaVuSans-65"/>
      <use x="68.408203" xlink:href="#DejaVuSans-103"/>
      <use x="131.884766" xlink:href="#DejaVuSans-101"/>
      <use x="193.408203" xlink:href="#DejaVuSans-32"/>
      <use x="225.195312" xlink:href="#DejaVuSans-97"/>
      <use x="286.474609" xlink:href="#DejaVuSans-116"/>
      <use x="325.683594" xlink:href="#DejaVuSans-32"/>
      <use x="357.470703" xlink:href="#DejaVuSans-101"/>
      <use x="418.994141" xlink:href="#DejaVuSans-110"/>
      <use x="482.373047" xlink:href="#DejaVuSans-114"/>
      <use x="521.236328" xlink:href="#DejaVuSans-111"/>
      <use x="582.417969" xlink:href="#DejaVuSans-108"/>
      <use x="610.201172" xlink:href="#DejaVuSans-108"/>
      <use x="637.984375" xlink:href="#DejaVuSans-109"/>
      <use x="735.396484" xlink:href="#DejaVuSans-101"/>
      <use x="796.919922" xlink:href="#DejaVuSans-110"/>
      <use x="860.298828" xlink:href="#DejaVuSans-116"/>
     </g>
    </g>
   </g>
   <g id="matplotlib.axis_2">
    <g id="ytick_1">
     <g id="line2d_7">
      <defs>
       <path d="M 0 0 
L -3.5 0 
" id="md513883cfb" style="stroke:#000000;stroke-width:0.8;"/>
      </defs>
      <g>
       <use style="stroke:#000000;stroke-width:0.8;" x="90" xlink:href="#md513883cfb" y="320.4"/>
      </g>
     </g>
     <g id="text_8">
      <!-- 0 -->
      <g transform="translate(76.6375 324.199219)scale(0.1 -0.1)">
       <use xlink:href="#DejaVuSans-48"/>
      </g>
     </g>
    </g>
    <g id="ytick_2">
     <g id="line2d_8">
      <g>
       <use style="stroke:#000000;stroke-width:0.8;" x="90" xlink:href="#md513883cfb" y="280.520846"/>
      </g>
     </g>
     <g id="text_9">
      <!-- 100 -->
      <g transform="translate(63.9125 284.320065)scale(0.1 -0.1)">
       <defs>
        <path d="M 12.40625 8.296875 
L 28.515625 8.296875 
L 28.515625 63.921875 
L 10.984375 60.40625 
L 10.984375 69.390625 
L 28.421875 72.90625 
L 38.28125 72.90625 
L 38.28125 8.296875 
L 54.390625 8.296875 
L 54.390625 0 
L 12.40625 0 
z
" id="DejaVuSans-49"/>
       </defs>
       <use xlink:href="#DejaVuSans-49"/>
       <use x="63.623047" xlink:href="#DejaVuSans-48"/>
       <use x="127.246094" xlink:href="#DejaVuSans-48"/>
      </g>
     </g>
    </g>
    <g id="ytick_3">
     <g id="line2d_9">
      <g>
       <use style="stroke:#000000;stroke-width:0.8;" x="90" xlink:href="#md513883cfb" y="240.641692"/>
      </g>
     </g>
     <g id="text_10">
      <!-- 200 -->
      <g transform="translate(63.9125 244.440911)scale(0.1 -0.1)">
       <use xlink:href="#DejaVuSans-50"/>
       <use x="63.623047" xlink:href="#DejaVuSans-48"/>
       <use x="127.246094" xlink:href="#DejaVuSans-48"/>
      </g>
     </g>
    </g>
    <g id="ytick_4">
     <g id="line2d_10">
      <g>
       <use style="stroke:#000000;stroke-width:0.8;" x="90" xlink:href="#md513883cfb" y="200.762538"/>
      </g>
     </g>
     <g id="text_11">
      <!-- 300 -->
      <g transform="translate(63.9125 204.561757)scale(0.1 -0.1)">
       <use xlink:href="#DejaVuSans-51"/>
       <use x="63.623047" xlink:href="#DejaVuSans-48"/>
       <use x="127.246094" xlink:href="#DejaVuSans-48"/>
      </g>
     </g>
    </g>
    <g id="ytick_5">
     <g id="line2d_11">
      <g>
       <use style="stroke:#000000;stroke-width:0.8;" x="90" xlink:href="#md513883cfb" y="160.883384"/>
      </g>
     </g>
     <g id="text_12">
      <!-- 400 -->
      <g transform="translate(63.9125 164.682602)scale(0.1 -0.1)">
       <use xlink:href="#DejaVuSans-52"/>
       <use x="63.623047" xlink:href="#DejaVuSans-48"/>
       <use x="127.246094" xlink:href="#DejaVuSans-48"/>
      </g>
     </g>
    </g>
    <g id="ytick_6">
     <g id="line2d_12">
      <g>
       <use style="stroke:#000000;stroke-width:0.8;" x="90" xlink:href="#md513883cfb" y="121.00423"/>
      </g>
     </g>
     <g id="text_13">
      <!-- 500 -->
      <g transform="translate(63.9125 124.803448)scale(0.1 -0.1)">
       <use xlink:href="#DejaVuSans-53"/>
       <use x="63.623047" xlink:href="#DejaVuSans-48"/>
       <use x="127.246094" xlink:href="#DejaVuSans-48"/>
      </g>
     </g>
    </g>
    <g id="ytick_7">
     <g id="line2d_13">
      <g>
       <use style="stroke:#000000;stroke-width:0.8;" x="90" xlink:href="#md513883cfb" y="81.125076"/>
      </g>
     </g>
     <g id="text_14">
      <!-- 600 -->
      <g transform="translate(63.9125 84.924294)scale(0.1 -0.1)">
       <use xlink:href="#DejaVuSans-54"/>
       <use x="63.623047" xlink:href="#DejaVuSans-48"/>
       <use x="127.246094" xlink:href="#DejaVuSans-48"/>
      </g>
     </g>
    </g>
    <g id="text_15">
     <!-- Count -->
     <g transform="translate(57.832812 196.648437)rotate(-90)scale(0.1 -0.1)">
      <defs>
       <path d="M 64.40625 67.28125 
L 64.40625 56.890625 
Q 59.421875 61.53125 53.78125 63.8125 
Q 48.140625 66.109375 41.796875 66.109375 
Q 29.296875 66.109375 22.65625 58.46875 
Q 16.015625 50.828125 16.015625 36.375 
Q 16.015625 21.96875 22.65625 14.328125 
Q 29.296875 6.6875 41.796875 6.6875 
Q 48.140625 6.6875 53.78125 8.984375 
Q 59.421875 11.28125 64.40625 15.921875 
L 64.40625 5.609375 
Q 59.234375 2.09375 53.4375 0.328125 
Q 47.65625 -1.421875 41.21875 -1.421875 
Q 24.65625 -1.421875 15.125 8.703125 
Q 5.609375 18.84375 5.609375 36.375 
Q 5.609375 53.953125 15.125 64.078125 
Q 24.65625 74.21875 41.21875 74.21875 
Q 47.75 74.21875 53.53125 72.484375 
Q 59.328125 70.75 64.40625 67.28125 
z
" id="DejaVuSans-67"/>
       <path d="M 8.5 21.578125 
L 8.5 54.6875 
L 17.484375 54.6875 
L 17.484375 21.921875 
Q 17.484375 14.15625 20.5 10.265625 
Q 23.53125 6.390625 29.59375 6.390625 
Q 36.859375 6.390625 41.078125 11.03125 
Q 45.3125 15.671875 45.3125 23.6875 
L 45.3125 54.6875 
L 54.296875 54.6875 
L 54.296875 0 
L 45.3125 0 
L 45.3125 8.40625 
Q 42.046875 3.421875 37.71875 1 
Q 33.40625 -1.421875 27.6875 -1.421875 
Q 18.265625 -1.421875 13.375 4.4375 
Q 8.5 10.296875 8.5 21.578125 
z
M 31.109375 56 
z
" id="DejaVuSans-117"/>
      </defs>
      <use xlink:href="#DejaVuSans-67"/>
      <use x="69.824219" xlink:href="#DejaVuSans-111"/>
      <use x="131.005859" xlink:href="#DejaVuSans-117"/>
      <use x="194.384766" xlink:href="#DejaVuSans-110"/>
      <use x="257.763672" xlink:href="#DejaVuSans-116"/>
     </g>
    </g>
   </g>
   <g id="patch_222">
    <path d="M 90 320.4 
L 90 43.2 
" style="fill:none;stroke:#000000;stroke-linecap:square;stroke-linejoin:miter;stroke-width:0.8;"/>
   </g>
   <g id="patch_223">
    <path d="M 648 320.4 
L 648 43.2 
" style="fill:none;stroke:#000000;stroke-linecap:square;stroke-linejoin:miter;stroke-width:0.8;"/>
   </g>
   <g id="patch_224">
    <path d="M 90 320.4 
L 648 320.4 
" style="fill:none;stroke:#000000;stroke-linecap:square;stroke-linejoin:miter;stroke-width:0.8;"/>
   </g>
   <g id="patch_225">
    <path d="M 90 43.2 
L 648 43.2 
" style="fill:none;stroke:#000000;stroke-linecap:square;stroke-linejoin:miter;stroke-width:0.8;"/>
   </g>
   <g id="legend_1">
    <g id="patch_226">
     <path d="M 562.125 109.9125 
L 641 109.9125 
Q 643 109.9125 643 107.9125 
L 643 50.2 
Q 643 48.2 641 48.2 
L 562.125 48.2 
Q 560.125 48.2 560.125 50.2 
L 560.125 107.9125 
Q 560.125 109.9125 562.125 109.9125 
z
" style="fill:#ffffff;opacity:0.8;stroke:#cccccc;stroke-linejoin:miter;"/>
    </g>
    <g id="text_16">
     <!-- Target -->
     <g transform="translate(586.090625 59.798437)scale(0.1 -0.1)">
      <defs>
       <path d="M -0.296875 72.90625 
L 61.375 72.90625 
L 61.375 64.59375 
L 35.5 64.59375 
L 35.5 0 
L 25.59375 0 
L 25.59375 64.59375 
L -0.296875 64.59375 
z
" id="DejaVuSans-84"/>
      </defs>
      <use xlink:href="#DejaVuSans-84"/>
      <use x="44.583984" xlink:href="#DejaVuSans-97"/>
      <use x="105.863281" xlink:href="#DejaVuSans-114"/>
      <use x="145.226562" xlink:href="#DejaVuSans-103"/>
      <use x="208.703125" xlink:href="#DejaVuSans-101"/>
      <use x="270.226562" xlink:href="#DejaVuSans-116"/>
     </g>
    </g>
    <g id="patch_227">
     <path d="M 564.125 74.476562 
L 584.125 74.476562 
L 584.125 67.476562 
L 564.125 67.476562 
z
" style="fill:#1f77b4;fill-opacity:0.5;stroke:#000000;stroke-linejoin:miter;"/>
    </g>
    <g id="text_17">
     <!-- Dropout -->
     <g transform="translate(592.125 74.476562)scale(0.1 -0.1)">
      <defs>
       <path d="M 19.671875 64.796875 
L 19.671875 8.109375 
L 31.59375 8.109375 
Q 46.6875 8.109375 53.6875 14.9375 
Q 60.6875 21.78125 60.6875 36.53125 
Q 60.6875 51.171875 53.6875 57.984375 
Q 46.6875 64.796875 31.59375 64.796875 
z
M 9.8125 72.90625 
L 30.078125 72.90625 
Q 51.265625 72.90625 61.171875 64.09375 
Q 71.09375 55.28125 71.09375 36.53125 
Q 71.09375 17.671875 61.125 8.828125 
Q 51.171875 0 30.078125 0 
L 9.8125 0 
z
" id="DejaVuSans-68"/>
       <path d="M 18.109375 8.203125 
L 18.109375 -20.796875 
L 9.078125 -20.796875 
L 9.078125 54.6875 
L 18.109375 54.6875 
L 18.109375 46.390625 
Q 20.953125 51.265625 25.265625 53.625 
Q 29.59375 56 35.59375 56 
Q 45.5625 56 51.78125 48.09375 
Q 58.015625 40.1875 58.015625 27.296875 
Q 58.015625 14.40625 51.78125 6.484375 
Q 45.5625 -1.421875 35.59375 -1.421875 
Q 29.59375 -1.421875 25.265625 0.953125 
Q 20.953125 3.328125 18.109375 8.203125 
z
M 48.6875 27.296875 
Q 48.6875 37.203125 44.609375 42.84375 
Q 40.53125 48.484375 33.40625 48.484375 
Q 26.265625 48.484375 22.1875 42.84375 
Q 18.109375 37.203125 18.109375 27.296875 
Q 18.109375 17.390625 22.1875 11.75 
Q 26.265625 6.109375 33.40625 6.109375 
Q 40.53125 6.109375 44.609375 11.75 
Q 48.6875 17.390625 48.6875 27.296875 
z
" id="DejaVuSans-112"/>
      </defs>
      <use xlink:href="#DejaVuSans-68"/>
      <use x="77.001953" xlink:href="#DejaVuSans-114"/>
      <use x="115.865234" xlink:href="#DejaVuSans-111"/>
      <use x="177.046875" xlink:href="#DejaVuSans-112"/>
      <use x="240.523438" xlink:href="#DejaVuSans-111"/>
      <use x="301.705078" xlink:href="#DejaVuSans-117"/>
      <use x="365.083984" xlink:href="#DejaVuSans-116"/>
     </g>
    </g>
    <g id="patch_228">
     <path d="M 564.125 89.154688 
L 584.125 89.154688 
L 584.125 82.154688 
L 564.125 82.154688 
z
" style="fill:#ff7f0e;fill-opacity:0.5;stroke:#000000;stroke-linejoin:miter;"/>
    </g>
    <g id="text_18">
     <!-- Graduate -->
     <g transform="translate(592.125 89.154688)scale(0.1 -0.1)">
      <defs>
       <path d="M 59.515625 10.40625 
L 59.515625 29.984375 
L 43.40625 29.984375 
L 43.40625 38.09375 
L 69.28125 38.09375 
L 69.28125 6.78125 
Q 63.578125 2.734375 56.6875 0.65625 
Q 49.8125 -1.421875 42 -1.421875 
Q 24.90625 -1.421875 15.25 8.5625 
Q 5.609375 18.5625 5.609375 36.375 
Q 5.609375 54.25 15.25 64.234375 
Q 24.90625 74.21875 42 74.21875 
Q 49.125 74.21875 55.546875 72.453125 
Q 61.96875 70.703125 67.390625 67.28125 
L 67.390625 56.78125 
Q 61.921875 61.421875 55.765625 63.765625 
Q 49.609375 66.109375 42.828125 66.109375 
Q 29.4375 66.109375 22.71875 58.640625 
Q 16.015625 51.171875 16.015625 36.375 
Q 16.015625 21.625 22.71875 14.15625 
Q 29.4375 6.6875 42.828125 6.6875 
Q 48.046875 6.6875 52.140625 7.59375 
Q 56.25 8.5 59.515625 10.40625 
z
" id="DejaVuSans-71"/>
       <path d="M 45.40625 46.390625 
L 45.40625 75.984375 
L 54.390625 75.984375 
L 54.390625 0 
L 45.40625 0 
L 45.40625 8.203125 
Q 42.578125 3.328125 38.25 0.953125 
Q 33.9375 -1.421875 27.875 -1.421875 
Q 17.96875 -1.421875 11.734375 6.484375 
Q 5.515625 14.40625 5.515625 27.296875 
Q 5.515625 40.1875 11.734375 48.09375 
Q 17.96875 56 27.875 56 
Q 33.9375 56 38.25 53.625 
Q 42.578125 51.265625 45.40625 46.390625 
z
M 14.796875 27.296875 
Q 14.796875 17.390625 18.875 11.75 
Q 22.953125 6.109375 30.078125 6.109375 
Q 37.203125 6.109375 41.296875 11.75 
Q 45.40625 17.390625 45.40625 27.296875 
Q 45.40625 37.203125 41.296875 42.84375 
Q 37.203125 48.484375 30.078125 48.484375 
Q 22.953125 48.484375 18.875 42.84375 
Q 14.796875 37.203125 14.796875 27.296875 
z
" id="DejaVuSans-100"/>
      </defs>
      <use xlink:href="#DejaVuSans-71"/>
      <use x="77.490234" xlink:href="#DejaVuSans-114"/>
      <use x="118.603516" xlink:href="#DejaVuSans-97"/>
      <use x="179.882812" xlink:href="#DejaVuSans-100"/>
      <use x="243.359375" xlink:href="#DejaVuSans-117"/>
      <use x="306.738281" xlink:href="#DejaVuSans-97"/>
      <use x="368.017578" xlink:href="#DejaVuSans-116"/>
      <use x="407.226562" xlink:href="#DejaVuSans-101"/>
     </g>
    </g>
    <g id="patch_229">
     <path d="M 564.125 103.832812 
L 584.125 103.832812 
L 584.125 96.832812 
L 564.125 96.832812 
z
" style="fill:#2ca02c;fill-opacity:0.5;stroke:#000000;stroke-linejoin:miter;"/>
    </g>
    <g id="text_19">
     <!-- Enrolled -->
     <g transform="translate(592.125 103.832812)scale(0.1 -0.1)">
      <defs>
       <path d="M 9.8125 72.90625 
L 55.90625 72.90625 
L 55.90625 64.59375 
L 19.671875 64.59375 
L 19.671875 43.015625 
L 54.390625 43.015625 
L 54.390625 34.71875 
L 19.671875 34.71875 
L 19.671875 8.296875 
L 56.78125 8.296875 
L 56.78125 0 
L 9.8125 0 
z
" id="DejaVuSans-69"/>
      </defs>
      <use xlink:href="#DejaVuSans-69"/>
      <use x="63.183594" xlink:href="#DejaVuSans-110"/>
      <use x="126.5625" xlink:href="#DejaVuSans-114"/>
      <use x="165.425781" xlink:href="#DejaVuSans-111"/>
      <use x="226.607422" xlink:href="#DejaVuSans-108"/>
      <use x="254.390625" xlink:href="#DejaVuSans-108"/>
      <use x="282.173828" xlink:href="#DejaVuSans-101"/>
      <use x="343.697266" xlink:href="#DejaVuSans-100"/>
     </g>
    </g>
   </g>
  </g>
 </g>
 <defs>
  <clipPath id="p2f08693dcf">
   <rect height="277.2" width="558" x="90" y="43.2"/>
  </clipPath>
 </defs>
</svg>
