<?xml version="1.0" encoding="utf-8" standalone="no"?>
<!DOCTYPE svg PUBLIC "-//W3C//DTD SVG 1.1//EN"
  "http://www.w3.org/Graphics/SVG/1.1/DTD/svg11.dtd">
<!-- Created with matplotlib (https://matplotlib.org/) -->
<svg height="345.870475pt" version="1.1" viewBox="0 0 410.036875 345.870475" width="410.036875pt" xmlns="http://www.w3.org/2000/svg" xmlns:xlink="http://www.w3.org/1999/xlink">
 <defs>
  <style type="text/css">
*{stroke-linecap:butt;stroke-linejoin:round;}
  </style>
 </defs>
 <g id="figure_1">
  <g id="patch_1">
   <path d="M 0 345.870475 
L 410.036875 345.870475 
L 410.036875 0 
L 0 0 
z
" style="fill:#ffffff;"/>
  </g>
  <g id="axes_1">
   <g id="patch_2">
    <path d="M 45.716875 161.2266 
L 402.836875 161.2266 
L 402.836875 40.2666 
L 45.716875 40.2666 
z
" style="fill:#e5e5e5;"/>
   </g>
   <g id="matplotlib.axis_1">
    <g id="xtick_1">
     <g id="line2d_1">
      <path clip-path="url(#p9455806866)" d="M 61.949602 161.2266 
L 61.949602 40.2666 
" style="fill:none;stroke:#ffffff;stroke-linecap:square;stroke-width:0.8;"/>
     </g>
     <g id="line2d_2">
      <defs>
       <path d="M 0 0 
L 0 3.5 
" id="m4c31b4157e" style="stroke:#555555;stroke-width:0.8;"/>
      </defs>
      <g>
       <use style="fill:#555555;stroke:#555555;stroke-width:0.8;" x="61.949602" xlink:href="#m4c31b4157e" y="161.2266"/>
      </g>
     </g>
     <g id="text_1">
      <!-- $\mathdefault{10^{-5}}$ -->
      <defs>
       <path d="M 12.40625 8.296875 
L 28.515625 8.296875 
L 28.515625 63.921875 
L 10.984375 60.40625 
L 10.984375 69.390625 
L 28.421875 72.90625 
L 38.28125 72.90625 
L 38.28125 8.296875 
L 54.390625 8.296875 
L 54.390625 0 
L 12.40625 0 
z
" id="DejaVuSans-49"/>
       <path d="M 31.78125 66.40625 
Q 24.171875 66.40625 20.328125 58.90625 
Q 16.5 51.421875 16.5 36.375 
Q 16.5 21.390625 20.328125 13.890625 
Q 24.171875 6.390625 31.78125 6.390625 
Q 39.453125 6.390625 43.28125 13.890625 
Q 47.125 21.390625 47.125 36.375 
Q 47.125 51.421875 43.28125 58.90625 
Q 39.453125 66.40625 31.78125 66.40625 
z
M 31.78125 74.21875 
Q 44.046875 74.21875 50.515625 64.515625 
Q 56.984375 54.828125 56.984375 36.375 
Q 56.984375 17.96875 50.515625 8.265625 
Q 44.046875 -1.421875 31.78125 -1.421875 
Q 19.53125 -1.421875 13.0625 8.265625 
Q 6.59375 17.96875 6.59375 36.375 
Q 6.59375 54.828125 13.0625 64.515625 
Q 19.53125 74.21875 31.78125 74.21875 
z
" id="DejaVuSans-48"/>
       <path d="M 10.59375 35.5 
L 73.1875 35.5 
L 73.1875 27.203125 
L 10.59375 27.203125 
z
" id="DejaVuSans-8722"/>
       <path d="M 10.796875 72.90625 
L 49.515625 72.90625 
L 49.515625 64.59375 
L 19.828125 64.59375 
L 19.828125 46.734375 
Q 21.96875 47.46875 24.109375 47.828125 
Q 26.265625 48.1875 28.421875 48.1875 
Q 40.625 48.1875 47.75 41.5 
Q 54.890625 34.8125 54.890625 23.390625 
Q 54.890625 11.625 47.5625 5.09375 
Q 40.234375 -1.421875 26.90625 -1.421875 
Q 22.3125 -1.421875 17.546875 -0.640625 
Q 12.796875 0.140625 7.71875 1.703125 
L 7.71875 11.625 
Q 12.109375 9.234375 16.796875 8.0625 
Q 21.484375 6.890625 26.703125 6.890625 
Q 35.15625 6.890625 40.078125 11.328125 
Q 45.015625 15.765625 45.015625 23.390625 
Q 45.015625 31 40.078125 35.4375 
Q 35.15625 39.890625 26.703125 39.890625 
Q 22.75 39.890625 18.8125 39.015625 
Q 14.890625 38.140625 10.796875 36.28125 
z
" id="DejaVuSans-53"/>
      </defs>
      <g style="fill:#555555;" transform="translate(50.199602 175.825037)scale(0.1 -0.1)">
       <use transform="translate(0 0.684375)" xlink:href="#DejaVuSans-49"/>
       <use transform="translate(63.623047 0.684375)" xlink:href="#DejaVuSans-48"/>
       <use transform="translate(128.203125 38.965625)scale(0.7)" xlink:href="#DejaVuSans-8722"/>
       <use transform="translate(186.855469 38.965625)scale(0.7)" xlink:href="#DejaVuSans-53"/>
      </g>
     </g>
    </g>
    <g id="xtick_2">
     <g id="line2d_3">
      <path clip-path="url(#p9455806866)" d="M 143.113239 161.2266 
L 143.113239 40.2666 
" style="fill:none;stroke:#ffffff;stroke-linecap:square;stroke-width:0.8;"/>
     </g>
     <g id="line2d_4">
      <g>
       <use style="fill:#555555;stroke:#555555;stroke-width:0.8;" x="143.113239" xlink:href="#m4c31b4157e" y="161.2266"/>
      </g>
     </g>
     <g id="text_2">
      <!-- $\mathdefault{10^{-4}}$ -->
      <defs>
       <path d="M 37.796875 64.3125 
L 12.890625 25.390625 
L 37.796875 25.390625 
z
M 35.203125 72.90625 
L 47.609375 72.90625 
L 47.609375 25.390625 
L 58.015625 25.390625 
L 58.015625 17.1875 
L 47.609375 17.1875 
L 47.609375 0 
L 37.796875 0 
L 37.796875 17.1875 
L 4.890625 17.1875 
L 4.890625 26.703125 
z
" id="DejaVuSans-52"/>
      </defs>
      <g style="fill:#555555;" transform="translate(131.363239 175.825037)scale(0.1 -0.1)">
       <use transform="translate(0 0.684375)" xlink:href="#DejaVuSans-49"/>
       <use transform="translate(63.623047 0.684375)" xlink:href="#DejaVuSans-48"/>
       <use transform="translate(128.203125 38.965625)scale(0.7)" xlink:href="#DejaVuSans-8722"/>
       <use transform="translate(186.855469 38.965625)scale(0.7)" xlink:href="#DejaVuSans-52"/>
      </g>
     </g>
    </g>
    <g id="xtick_3">
     <g id="line2d_5">
      <path clip-path="url(#p9455806866)" d="M 224.276875 161.2266 
L 224.276875 40.2666 
" style="fill:none;stroke:#ffffff;stroke-linecap:square;stroke-width:0.8;"/>
     </g>
     <g id="line2d_6">
      <g>
       <use style="fill:#555555;stroke:#555555;stroke-width:0.8;" x="224.276875" xlink:href="#m4c31b4157e" y="161.2266"/>
      </g>
     </g>
     <g id="text_3">
      <!-- $\mathdefault{10^{-3}}$ -->
      <defs>
       <path d="M 40.578125 39.3125 
Q 47.65625 37.796875 51.625 33 
Q 55.609375 28.21875 55.609375 21.1875 
Q 55.609375 10.40625 48.1875 4.484375 
Q 40.765625 -1.421875 27.09375 -1.421875 
Q 22.515625 -1.421875 17.65625 -0.515625 
Q 12.796875 0.390625 7.625 2.203125 
L 7.625 11.71875 
Q 11.71875 9.328125 16.59375 8.109375 
Q 21.484375 6.890625 26.8125 6.890625 
Q 36.078125 6.890625 40.9375 10.546875 
Q 45.796875 14.203125 45.796875 21.1875 
Q 45.796875 27.640625 41.28125 31.265625 
Q 36.765625 34.90625 28.71875 34.90625 
L 20.21875 34.90625 
L 20.21875 43.015625 
L 29.109375 43.015625 
Q 36.375 43.015625 40.234375 45.921875 
Q 44.09375 48.828125 44.09375 54.296875 
Q 44.09375 59.90625 40.109375 62.90625 
Q 36.140625 65.921875 28.71875 65.921875 
Q 24.65625 65.921875 20.015625 65.03125 
Q 15.375 64.15625 9.8125 62.3125 
L 9.8125 71.09375 
Q 15.4375 72.65625 20.34375 73.4375 
Q 25.25 74.21875 29.59375 74.21875 
Q 40.828125 74.21875 47.359375 69.109375 
Q 53.90625 64.015625 53.90625 55.328125 
Q 53.90625 49.265625 50.4375 45.09375 
Q 46.96875 40.921875 40.578125 39.3125 
z
" id="DejaVuSans-51"/>
      </defs>
      <g style="fill:#555555;" transform="translate(212.526875 175.825037)scale(0.1 -0.1)">
       <use transform="translate(0 0.765625)" xlink:href="#DejaVuSans-49"/>
       <use transform="translate(63.623047 0.765625)" xlink:href="#DejaVuSans-48"/>
       <use transform="translate(128.203125 39.046875)scale(0.7)" xlink:href="#DejaVuSans-8722"/>
       <use transform="translate(186.855469 39.046875)scale(0.7)" xlink:href="#DejaVuSans-51"/>
      </g>
     </g>
    </g>
    <g id="xtick_4">
     <g id="line2d_7">
      <path clip-path="url(#p9455806866)" d="M 305.440511 161.2266 
L 305.440511 40.2666 
" style="fill:none;stroke:#ffffff;stroke-linecap:square;stroke-width:0.8;"/>
     </g>
     <g id="line2d_8">
      <g>
       <use style="fill:#555555;stroke:#555555;stroke-width:0.8;" x="305.440511" xlink:href="#m4c31b4157e" y="161.2266"/>
      </g>
     </g>
     <g id="text_4">
      <!-- $\mathdefault{10^{-2}}$ -->
      <defs>
       <path d="M 19.1875 8.296875 
L 53.609375 8.296875 
L 53.609375 0 
L 7.328125 0 
L 7.328125 8.296875 
Q 12.9375 14.109375 22.625 23.890625 
Q 32.328125 33.6875 34.8125 36.53125 
Q 39.546875 41.84375 41.421875 45.53125 
Q 43.3125 49.21875 43.3125 52.78125 
Q 43.3125 58.59375 39.234375 62.25 
Q 35.15625 65.921875 28.609375 65.921875 
Q 23.96875 65.921875 18.8125 64.3125 
Q 13.671875 62.703125 7.8125 59.421875 
L 7.8125 69.390625 
Q 13.765625 71.78125 18.9375 73 
Q 24.125 74.21875 28.421875 74.21875 
Q 39.75 74.21875 46.484375 68.546875 
Q 53.21875 62.890625 53.21875 53.421875 
Q 53.21875 48.921875 51.53125 44.890625 
Q 49.859375 40.875 45.40625 35.40625 
Q 44.1875 33.984375 37.640625 27.21875 
Q 31.109375 20.453125 19.1875 8.296875 
z
" id="DejaVuSans-50"/>
      </defs>
      <g style="fill:#555555;" transform="translate(293.690511 175.825037)scale(0.1 -0.1)">
       <use transform="translate(0 0.765625)" xlink:href="#DejaVuSans-49"/>
       <use transform="translate(63.623047 0.765625)" xlink:href="#DejaVuSans-48"/>
       <use transform="translate(128.203125 39.046875)scale(0.7)" xlink:href="#DejaVuSans-8722"/>
       <use transform="translate(186.855469 39.046875)scale(0.7)" xlink:href="#DejaVuSans-50"/>
      </g>
     </g>
    </g>
    <g id="xtick_5">
     <g id="line2d_9">
      <path clip-path="url(#p9455806866)" d="M 386.604148 161.2266 
L 386.604148 40.2666 
" style="fill:none;stroke:#ffffff;stroke-linecap:square;stroke-width:0.8;"/>
     </g>
     <g id="line2d_10">
      <g>
       <use style="fill:#555555;stroke:#555555;stroke-width:0.8;" x="386.604148" xlink:href="#m4c31b4157e" y="161.2266"/>
      </g>
     </g>
     <g id="text_5">
      <!-- $\mathdefault{10^{-1}}$ -->
      <g style="fill:#555555;" transform="translate(374.854148 175.825037)scale(0.1 -0.1)">
       <use transform="translate(0 0.684375)" xlink:href="#DejaVuSans-49"/>
       <use transform="translate(63.623047 0.684375)" xlink:href="#DejaVuSans-48"/>
       <use transform="translate(128.203125 38.965625)scale(0.7)" xlink:href="#DejaVuSans-8722"/>
       <use transform="translate(186.855469 38.965625)scale(0.7)" xlink:href="#DejaVuSans-49"/>
      </g>
     </g>
    </g>
    <g id="xtick_6">
     <g id="line2d_11">
      <defs>
       <path d="M 0 0 
L 0 2 
" id="md0f4fba66e" style="stroke:#555555;stroke-width:0.6;"/>
      </defs>
      <g>
       <use style="fill:#555555;stroke:#555555;stroke-width:0.6;" x="49.377196" xlink:href="#md0f4fba66e" y="161.2266"/>
      </g>
     </g>
    </g>
    <g id="xtick_7">
     <g id="line2d_12">
      <g>
       <use style="fill:#555555;stroke:#555555;stroke-width:0.6;" x="54.084033" xlink:href="#md0f4fba66e" y="161.2266"/>
      </g>
     </g>
    </g>
    <g id="xtick_8">
     <g id="line2d_13">
      <g>
       <use style="fill:#555555;stroke:#555555;stroke-width:0.6;" x="58.235758" xlink:href="#md0f4fba66e" y="161.2266"/>
      </g>
     </g>
    </g>
    <g id="xtick_9">
     <g id="line2d_14">
      <g>
       <use style="fill:#555555;stroke:#555555;stroke-width:0.6;" x="86.382291" xlink:href="#md0f4fba66e" y="161.2266"/>
      </g>
     </g>
    </g>
    <g id="xtick_10">
     <g id="line2d_15">
      <g>
       <use style="fill:#555555;stroke:#555555;stroke-width:0.6;" x="100.674498" xlink:href="#md0f4fba66e" y="161.2266"/>
      </g>
     </g>
    </g>
    <g id="xtick_11">
     <g id="line2d_16">
      <g>
       <use style="fill:#555555;stroke:#555555;stroke-width:0.6;" x="110.81498" xlink:href="#md0f4fba66e" y="161.2266"/>
      </g>
     </g>
    </g>
    <g id="xtick_12">
     <g id="line2d_17">
      <g>
       <use style="fill:#555555;stroke:#555555;stroke-width:0.6;" x="118.68055" xlink:href="#md0f4fba66e" y="161.2266"/>
      </g>
     </g>
    </g>
    <g id="xtick_13">
     <g id="line2d_18">
      <g>
       <use style="fill:#555555;stroke:#555555;stroke-width:0.6;" x="125.107187" xlink:href="#md0f4fba66e" y="161.2266"/>
      </g>
     </g>
    </g>
    <g id="xtick_14">
     <g id="line2d_19">
      <g>
       <use style="fill:#555555;stroke:#555555;stroke-width:0.6;" x="130.540832" xlink:href="#md0f4fba66e" y="161.2266"/>
      </g>
     </g>
    </g>
    <g id="xtick_15">
     <g id="line2d_20">
      <g>
       <use style="fill:#555555;stroke:#555555;stroke-width:0.6;" x="135.24767" xlink:href="#md0f4fba66e" y="161.2266"/>
      </g>
     </g>
    </g>
    <g id="xtick_16">
     <g id="line2d_21">
      <g>
       <use style="fill:#555555;stroke:#555555;stroke-width:0.6;" x="139.399394" xlink:href="#md0f4fba66e" y="161.2266"/>
      </g>
     </g>
    </g>
    <g id="xtick_17">
     <g id="line2d_22">
      <g>
       <use style="fill:#555555;stroke:#555555;stroke-width:0.6;" x="167.545928" xlink:href="#md0f4fba66e" y="161.2266"/>
      </g>
     </g>
    </g>
    <g id="xtick_18">
     <g id="line2d_23">
      <g>
       <use style="fill:#555555;stroke:#555555;stroke-width:0.6;" x="181.838135" xlink:href="#md0f4fba66e" y="161.2266"/>
      </g>
     </g>
    </g>
    <g id="xtick_19">
     <g id="line2d_24">
      <g>
       <use style="fill:#555555;stroke:#555555;stroke-width:0.6;" x="191.978617" xlink:href="#md0f4fba66e" y="161.2266"/>
      </g>
     </g>
    </g>
    <g id="xtick_20">
     <g id="line2d_25">
      <g>
       <use style="fill:#555555;stroke:#555555;stroke-width:0.6;" x="199.844186" xlink:href="#md0f4fba66e" y="161.2266"/>
      </g>
     </g>
    </g>
    <g id="xtick_21">
     <g id="line2d_26">
      <g>
       <use style="fill:#555555;stroke:#555555;stroke-width:0.6;" x="206.270824" xlink:href="#md0f4fba66e" y="161.2266"/>
      </g>
     </g>
    </g>
    <g id="xtick_22">
     <g id="line2d_27">
      <g>
       <use style="fill:#555555;stroke:#555555;stroke-width:0.6;" x="211.704469" xlink:href="#md0f4fba66e" y="161.2266"/>
      </g>
     </g>
    </g>
    <g id="xtick_23">
     <g id="line2d_28">
      <g>
       <use style="fill:#555555;stroke:#555555;stroke-width:0.6;" x="216.411306" xlink:href="#md0f4fba66e" y="161.2266"/>
      </g>
     </g>
    </g>
    <g id="xtick_24">
     <g id="line2d_29">
      <g>
       <use style="fill:#555555;stroke:#555555;stroke-width:0.6;" x="220.563031" xlink:href="#md0f4fba66e" y="161.2266"/>
      </g>
     </g>
    </g>
    <g id="xtick_25">
     <g id="line2d_30">
      <g>
       <use style="fill:#555555;stroke:#555555;stroke-width:0.6;" x="248.709564" xlink:href="#md0f4fba66e" y="161.2266"/>
      </g>
     </g>
    </g>
    <g id="xtick_26">
     <g id="line2d_31">
      <g>
       <use style="fill:#555555;stroke:#555555;stroke-width:0.6;" x="263.001771" xlink:href="#md0f4fba66e" y="161.2266"/>
      </g>
     </g>
    </g>
    <g id="xtick_27">
     <g id="line2d_32">
      <g>
       <use style="fill:#555555;stroke:#555555;stroke-width:0.6;" x="273.142253" xlink:href="#md0f4fba66e" y="161.2266"/>
      </g>
     </g>
    </g>
    <g id="xtick_28">
     <g id="line2d_33">
      <g>
       <use style="fill:#555555;stroke:#555555;stroke-width:0.6;" x="281.007822" xlink:href="#md0f4fba66e" y="161.2266"/>
      </g>
     </g>
    </g>
    <g id="xtick_29">
     <g id="line2d_34">
      <g>
       <use style="fill:#555555;stroke:#555555;stroke-width:0.6;" x="287.43446" xlink:href="#md0f4fba66e" y="161.2266"/>
      </g>
     </g>
    </g>
    <g id="xtick_30">
     <g id="line2d_35">
      <g>
       <use style="fill:#555555;stroke:#555555;stroke-width:0.6;" x="292.868105" xlink:href="#md0f4fba66e" y="161.2266"/>
      </g>
     </g>
    </g>
    <g id="xtick_31">
     <g id="line2d_36">
      <g>
       <use style="fill:#555555;stroke:#555555;stroke-width:0.6;" x="297.574942" xlink:href="#md0f4fba66e" y="161.2266"/>
      </g>
     </g>
    </g>
    <g id="xtick_32">
     <g id="line2d_37">
      <g>
       <use style="fill:#555555;stroke:#555555;stroke-width:0.6;" x="301.726667" xlink:href="#md0f4fba66e" y="161.2266"/>
      </g>
     </g>
    </g>
    <g id="xtick_33">
     <g id="line2d_38">
      <g>
       <use style="fill:#555555;stroke:#555555;stroke-width:0.6;" x="329.8732" xlink:href="#md0f4fba66e" y="161.2266"/>
      </g>
     </g>
    </g>
    <g id="xtick_34">
     <g id="line2d_39">
      <g>
       <use style="fill:#555555;stroke:#555555;stroke-width:0.6;" x="344.165407" xlink:href="#md0f4fba66e" y="161.2266"/>
      </g>
     </g>
    </g>
    <g id="xtick_35">
     <g id="line2d_40">
      <g>
       <use style="fill:#555555;stroke:#555555;stroke-width:0.6;" x="354.30589" xlink:href="#md0f4fba66e" y="161.2266"/>
      </g>
     </g>
    </g>
    <g id="xtick_36">
     <g id="line2d_41">
      <g>
       <use style="fill:#555555;stroke:#555555;stroke-width:0.6;" x="362.171459" xlink:href="#md0f4fba66e" y="161.2266"/>
      </g>
     </g>
    </g>
    <g id="xtick_37">
     <g id="line2d_42">
      <g>
       <use style="fill:#555555;stroke:#555555;stroke-width:0.6;" x="368.598096" xlink:href="#md0f4fba66e" y="161.2266"/>
      </g>
     </g>
    </g>
    <g id="xtick_38">
     <g id="line2d_43">
      <g>
       <use style="fill:#555555;stroke:#555555;stroke-width:0.6;" x="374.031741" xlink:href="#md0f4fba66e" y="161.2266"/>
      </g>
     </g>
    </g>
    <g id="xtick_39">
     <g id="line2d_44">
      <g>
       <use style="fill:#555555;stroke:#555555;stroke-width:0.6;" x="378.738579" xlink:href="#md0f4fba66e" y="161.2266"/>
      </g>
     </g>
    </g>
    <g id="xtick_40">
     <g id="line2d_45">
      <g>
       <use style="fill:#555555;stroke:#555555;stroke-width:0.6;" x="382.890303" xlink:href="#md0f4fba66e" y="161.2266"/>
      </g>
     </g>
    </g>
   </g>
   <g id="matplotlib.axis_2">
    <g id="ytick_1">
     <g id="line2d_46">
      <path clip-path="url(#p9455806866)" d="M 45.716875 155.582383 
L 402.836875 155.582383 
" style="fill:none;stroke:#ffffff;stroke-linecap:square;stroke-width:0.8;"/>
     </g>
     <g id="line2d_47">
      <defs>
       <path d="M 0 0 
L -3.5 0 
" id="m92f46c5804" style="stroke:#555555;stroke-width:0.8;"/>
      </defs>
      <g>
       <use style="fill:#555555;stroke:#555555;stroke-width:0.8;" x="45.716875" xlink:href="#m92f46c5804" y="155.582383"/>
      </g>
     </g>
     <g id="text_6">
      <!-- 0.0 -->
      <defs>
       <path d="M 10.6875 12.40625 
L 21 12.40625 
L 21 0 
L 10.6875 0 
z
" id="DejaVuSans-46"/>
      </defs>
      <g style="fill:#555555;" transform="translate(22.81375 159.381602)scale(0.1 -0.1)">
       <use xlink:href="#DejaVuSans-48"/>
       <use x="63.623047" xlink:href="#DejaVuSans-46"/>
       <use x="95.410156" xlink:href="#DejaVuSans-48"/>
      </g>
     </g>
    </g>
    <g id="ytick_2">
     <g id="line2d_48">
      <path clip-path="url(#p9455806866)" d="M 45.716875 127.778267 
L 402.836875 127.778267 
" style="fill:none;stroke:#ffffff;stroke-linecap:square;stroke-width:0.8;"/>
     </g>
     <g id="line2d_49">
      <g>
       <use style="fill:#555555;stroke:#555555;stroke-width:0.8;" x="45.716875" xlink:href="#m92f46c5804" y="127.778267"/>
      </g>
     </g>
     <g id="text_7">
      <!-- 0.2 -->
      <g style="fill:#555555;" transform="translate(22.81375 131.577486)scale(0.1 -0.1)">
       <use xlink:href="#DejaVuSans-48"/>
       <use x="63.623047" xlink:href="#DejaVuSans-46"/>
       <use x="95.410156" xlink:href="#DejaVuSans-50"/>
      </g>
     </g>
    </g>
    <g id="ytick_3">
     <g id="line2d_50">
      <path clip-path="url(#p9455806866)" d="M 45.716875 99.97415 
L 402.836875 99.97415 
" style="fill:none;stroke:#ffffff;stroke-linecap:square;stroke-width:0.8;"/>
     </g>
     <g id="line2d_51">
      <g>
       <use style="fill:#555555;stroke:#555555;stroke-width:0.8;" x="45.716875" xlink:href="#m92f46c5804" y="99.97415"/>
      </g>
     </g>
     <g id="text_8">
      <!-- 0.4 -->
      <g style="fill:#555555;" transform="translate(22.81375 103.773369)scale(0.1 -0.1)">
       <use xlink:href="#DejaVuSans-48"/>
       <use x="63.623047" xlink:href="#DejaVuSans-46"/>
       <use x="95.410156" xlink:href="#DejaVuSans-52"/>
      </g>
     </g>
    </g>
    <g id="ytick_4">
     <g id="line2d_52">
      <path clip-path="url(#p9455806866)" d="M 45.716875 72.170033 
L 402.836875 72.170033 
" style="fill:none;stroke:#ffffff;stroke-linecap:square;stroke-width:0.8;"/>
     </g>
     <g id="line2d_53">
      <g>
       <use style="fill:#555555;stroke:#555555;stroke-width:0.8;" x="45.716875" xlink:href="#m92f46c5804" y="72.170033"/>
      </g>
     </g>
     <g id="text_9">
      <!-- 0.6 -->
      <defs>
       <path d="M 33.015625 40.375 
Q 26.375 40.375 22.484375 35.828125 
Q 18.609375 31.296875 18.609375 23.390625 
Q 18.609375 15.53125 22.484375 10.953125 
Q 26.375 6.390625 33.015625 6.390625 
Q 39.65625 6.390625 43.53125 10.953125 
Q 47.40625 15.53125 47.40625 23.390625 
Q 47.40625 31.296875 43.53125 35.828125 
Q 39.65625 40.375 33.015625 40.375 
z
M 52.59375 71.296875 
L 52.59375 62.3125 
Q 48.875 64.0625 45.09375 64.984375 
Q 41.3125 65.921875 37.59375 65.921875 
Q 27.828125 65.921875 22.671875 59.328125 
Q 17.53125 52.734375 16.796875 39.40625 
Q 19.671875 43.65625 24.015625 45.921875 
Q 28.375 48.1875 33.59375 48.1875 
Q 44.578125 48.1875 50.953125 41.515625 
Q 57.328125 34.859375 57.328125 23.390625 
Q 57.328125 12.15625 50.6875 5.359375 
Q 44.046875 -1.421875 33.015625 -1.421875 
Q 20.359375 -1.421875 13.671875 8.265625 
Q 6.984375 17.96875 6.984375 36.375 
Q 6.984375 53.65625 15.1875 63.9375 
Q 23.390625 74.21875 37.203125 74.21875 
Q 40.921875 74.21875 44.703125 73.484375 
Q 48.484375 72.75 52.59375 71.296875 
z
" id="DejaVuSans-54"/>
      </defs>
      <g style="fill:#555555;" transform="translate(22.81375 75.969252)scale(0.1 -0.1)">
       <use xlink:href="#DejaVuSans-48"/>
       <use x="63.623047" xlink:href="#DejaVuSans-46"/>
       <use x="95.410156" xlink:href="#DejaVuSans-54"/>
      </g>
     </g>
    </g>
    <g id="ytick_5">
     <g id="line2d_54">
      <path clip-path="url(#p9455806866)" d="M 45.716875 44.365917 
L 402.836875 44.365917 
" style="fill:none;stroke:#ffffff;stroke-linecap:square;stroke-width:0.8;"/>
     </g>
     <g id="line2d_55">
      <g>
       <use style="fill:#555555;stroke:#555555;stroke-width:0.8;" x="45.716875" xlink:href="#m92f46c5804" y="44.365917"/>
      </g>
     </g>
     <g id="text_10">
      <!-- 0.8 -->
      <defs>
       <path d="M 31.78125 34.625 
Q 24.75 34.625 20.71875 30.859375 
Q 16.703125 27.09375 16.703125 20.515625 
Q 16.703125 13.921875 20.71875 10.15625 
Q 24.75 6.390625 31.78125 6.390625 
Q 38.8125 6.390625 42.859375 10.171875 
Q 46.921875 13.96875 46.921875 20.515625 
Q 46.921875 27.09375 42.890625 30.859375 
Q 38.875 34.625 31.78125 34.625 
z
M 21.921875 38.8125 
Q 15.578125 40.375 12.03125 44.71875 
Q 8.5 49.078125 8.5 55.328125 
Q 8.5 64.0625 14.71875 69.140625 
Q 20.953125 74.21875 31.78125 74.21875 
Q 42.671875 74.21875 48.875 69.140625 
Q 55.078125 64.0625 55.078125 55.328125 
Q 55.078125 49.078125 51.53125 44.71875 
Q 48 40.375 41.703125 38.8125 
Q 48.828125 37.15625 52.796875 32.3125 
Q 56.78125 27.484375 56.78125 20.515625 
Q 56.78125 9.90625 50.3125 4.234375 
Q 43.84375 -1.421875 31.78125 -1.421875 
Q 19.734375 -1.421875 13.25 4.234375 
Q 6.78125 9.90625 6.78125 20.515625 
Q 6.78125 27.484375 10.78125 32.3125 
Q 14.796875 37.15625 21.921875 38.8125 
z
M 18.3125 54.390625 
Q 18.3125 48.734375 21.84375 45.5625 
Q 25.390625 42.390625 31.78125 42.390625 
Q 38.140625 42.390625 41.71875 45.5625 
Q 45.3125 48.734375 45.3125 54.390625 
Q 45.3125 60.0625 41.71875 63.234375 
Q 38.140625 66.40625 31.78125 66.40625 
Q 25.390625 66.40625 21.84375 63.234375 
Q 18.3125 60.0625 18.3125 54.390625 
z
" id="DejaVuSans-56"/>
      </defs>
      <g style="fill:#555555;" transform="translate(22.81375 48.165135)scale(0.1 -0.1)">
       <use xlink:href="#DejaVuSans-48"/>
       <use x="63.623047" xlink:href="#DejaVuSans-46"/>
       <use x="95.410156" xlink:href="#DejaVuSans-56"/>
      </g>
     </g>
    </g>
    <g id="text_11">
     <!-- F1-score -->
     <defs>
      <path d="M 9.8125 72.90625 
L 51.703125 72.90625 
L 51.703125 64.59375 
L 19.671875 64.59375 
L 19.671875 43.109375 
L 48.578125 43.109375 
L 48.578125 34.8125 
L 19.671875 34.8125 
L 19.671875 0 
L 9.8125 0 
z
" id="DejaVuSans-70"/>
      <path d="M 4.890625 31.390625 
L 31.203125 31.390625 
L 31.203125 23.390625 
L 4.890625 23.390625 
z
" id="DejaVuSans-45"/>
      <path d="M 44.28125 53.078125 
L 44.28125 44.578125 
Q 40.484375 46.53125 36.375 47.5 
Q 32.28125 48.484375 27.875 48.484375 
Q 21.1875 48.484375 17.84375 46.4375 
Q 14.5 44.390625 14.5 40.28125 
Q 14.5 37.15625 16.890625 35.375 
Q 19.28125 33.59375 26.515625 31.984375 
L 29.59375 31.296875 
Q 39.15625 29.25 43.1875 25.515625 
Q 47.21875 21.78125 47.21875 15.09375 
Q 47.21875 7.46875 41.1875 3.015625 
Q 35.15625 -1.421875 24.609375 -1.421875 
Q 20.21875 -1.421875 15.453125 -0.5625 
Q 10.6875 0.296875 5.421875 2 
L 5.421875 11.28125 
Q 10.40625 8.6875 15.234375 7.390625 
Q 20.0625 6.109375 24.8125 6.109375 
Q 31.15625 6.109375 34.5625 8.28125 
Q 37.984375 10.453125 37.984375 14.40625 
Q 37.984375 18.0625 35.515625 20.015625 
Q 33.0625 21.96875 24.703125 23.78125 
L 21.578125 24.515625 
Q 13.234375 26.265625 9.515625 29.90625 
Q 5.8125 33.546875 5.8125 39.890625 
Q 5.8125 47.609375 11.28125 51.796875 
Q 16.75 56 26.8125 56 
Q 31.78125 56 36.171875 55.265625 
Q 40.578125 54.546875 44.28125 53.078125 
z
" id="DejaVuSans-115"/>
      <path d="M 48.78125 52.59375 
L 48.78125 44.1875 
Q 44.96875 46.296875 41.140625 47.34375 
Q 37.3125 48.390625 33.40625 48.390625 
Q 24.65625 48.390625 19.8125 42.84375 
Q 14.984375 37.3125 14.984375 27.296875 
Q 14.984375 17.28125 19.8125 11.734375 
Q 24.65625 6.203125 33.40625 6.203125 
Q 37.3125 6.203125 41.140625 7.25 
Q 44.96875 8.296875 48.78125 10.40625 
L 48.78125 2.09375 
Q 45.015625 0.34375 40.984375 -0.53125 
Q 36.96875 -1.421875 32.421875 -1.421875 
Q 20.0625 -1.421875 12.78125 6.34375 
Q 5.515625 14.109375 5.515625 27.296875 
Q 5.515625 40.671875 12.859375 48.328125 
Q 20.21875 56 33.015625 56 
Q 37.15625 56 41.109375 55.140625 
Q 45.0625 54.296875 48.78125 52.59375 
z
" id="DejaVuSans-99"/>
      <path d="M 30.609375 48.390625 
Q 23.390625 48.390625 19.1875 42.75 
Q 14.984375 37.109375 14.984375 27.296875 
Q 14.984375 17.484375 19.15625 11.84375 
Q 23.34375 6.203125 30.609375 6.203125 
Q 37.796875 6.203125 41.984375 11.859375 
Q 46.1875 17.53125 46.1875 27.296875 
Q 46.1875 37.015625 41.984375 42.703125 
Q 37.796875 48.390625 30.609375 48.390625 
z
M 30.609375 56 
Q 42.328125 56 49.015625 48.375 
Q 55.71875 40.765625 55.71875 27.296875 
Q 55.71875 13.875 49.015625 6.21875 
Q 42.328125 -1.421875 30.609375 -1.421875 
Q 18.84375 -1.421875 12.171875 6.21875 
Q 5.515625 13.875 5.515625 27.296875 
Q 5.515625 40.765625 12.171875 48.375 
Q 18.84375 56 30.609375 56 
z
" id="DejaVuSans-111"/>
      <path d="M 41.109375 46.296875 
Q 39.59375 47.171875 37.8125 47.578125 
Q 36.03125 48 33.890625 48 
Q 26.265625 48 22.1875 43.046875 
Q 18.109375 38.09375 18.109375 28.8125 
L 18.109375 0 
L 9.078125 0 
L 9.078125 54.6875 
L 18.109375 54.6875 
L 18.109375 46.1875 
Q 20.953125 51.171875 25.484375 53.578125 
Q 30.03125 56 36.53125 56 
Q 37.453125 56 38.578125 55.875 
Q 39.703125 55.765625 41.0625 55.515625 
z
" id="DejaVuSans-114"/>
      <path d="M 56.203125 29.59375 
L 56.203125 25.203125 
L 14.890625 25.203125 
Q 15.484375 15.921875 20.484375 11.0625 
Q 25.484375 6.203125 34.421875 6.203125 
Q 39.59375 6.203125 44.453125 7.46875 
Q 49.3125 8.734375 54.109375 11.28125 
L 54.109375 2.78125 
Q 49.265625 0.734375 44.1875 -0.34375 
Q 39.109375 -1.421875 33.890625 -1.421875 
Q 20.796875 -1.421875 13.15625 6.1875 
Q 5.515625 13.8125 5.515625 26.8125 
Q 5.515625 40.234375 12.765625 48.109375 
Q 20.015625 56 32.328125 56 
Q 43.359375 56 49.78125 48.890625 
Q 56.203125 41.796875 56.203125 29.59375 
z
M 47.21875 32.234375 
Q 47.125 39.59375 43.09375 43.984375 
Q 39.0625 48.390625 32.421875 48.390625 
Q 24.90625 48.390625 20.390625 44.140625 
Q 15.875 39.890625 15.1875 32.171875 
z
" id="DejaVuSans-101"/>
     </defs>
     <g style="fill:#555555;" transform="translate(16.318125 126.2991)rotate(-90)scale(0.12 -0.12)">
      <use xlink:href="#DejaVuSans-70"/>
      <use x="57.519531" xlink:href="#DejaVuSans-49"/>
      <use x="121.142578" xlink:href="#DejaVuSans-45"/>
      <use x="157.226562" xlink:href="#DejaVuSans-115"/>
      <use x="209.326172" xlink:href="#DejaVuSans-99"/>
      <use x="264.306641" xlink:href="#DejaVuSans-111"/>
      <use x="325.488281" xlink:href="#DejaVuSans-114"/>
      <use x="364.351562" xlink:href="#DejaVuSans-101"/>
     </g>
    </g>
   </g>
   <g id="PolyCollection_1">
    <path clip-path="url(#p9455806866)" d="M 61.949602 67.848321 
L 61.949602 59.908162 
L 118.68055 62.669873 
L 143.113239 64.132972 
L 199.844186 62.266903 
L 224.276875 65.198173 
L 281.007822 76.041754 
L 305.440511 77.251865 
L 362.171459 85.977467 
L 386.604148 117.786495 
L 386.604148 141.170709 
L 386.604148 141.170709 
L 362.171459 95.137257 
L 305.440511 81.007756 
L 281.007822 79.38265 
L 224.276875 70.744393 
L 199.844186 69.718955 
L 143.113239 67.507867 
L 118.68055 64.334095 
L 61.949602 67.848321 
z
" style="fill:#e24a33;fill-opacity:0.2;"/>
   </g>
   <g id="PolyCollection_2">
    <path clip-path="url(#p9455806866)" d="M 61.949602 79.90708 
L 61.949602 70.208026 
L 118.68055 70.056012 
L 143.113239 70.967787 
L 199.844186 76.11515 
L 224.276875 77.497809 
L 281.007822 80.251027 
L 305.440511 82.818615 
L 362.171459 87.651285 
L 386.604148 121.310734 
L 386.604148 144.095153 
L 386.604148 144.095153 
L 362.171459 105.099652 
L 305.440511 92.660681 
L 281.007822 90.580321 
L 224.276875 82.216465 
L 199.844186 80.168518 
L 143.113239 79.763267 
L 118.68055 77.689582 
L 61.949602 79.90708 
z
" style="fill:#348abd;fill-opacity:0.2;"/>
   </g>
   <g id="PolyCollection_3">
    <path clip-path="url(#p9455806866)" d="M 61.949602 92.41879 
L 61.949602 63.000796 
L 118.68055 63.000796 
L 143.113239 63.000796 
L 199.844186 63.000796 
L 224.276875 63.000796 
L 281.007822 58.322637 
L 305.440511 61.272686 
L 362.171459 45.764782 
L 386.604148 84.999253 
L 386.604148 155.728418 
L 386.604148 155.728418 
L 362.171459 96.007517 
L 305.440511 97.832049 
L 281.007822 92.131928 
L 224.276875 92.41879 
L 199.844186 92.41879 
L 143.113239 92.41879 
L 118.68055 92.41879 
L 61.949602 92.41879 
z
" style="fill:#988ed5;fill-opacity:0.2;"/>
   </g>
   <g id="PolyCollection_4">
    <path clip-path="url(#p9455806866)" d="M 61.949602 73.543349 
L 61.949602 65.426335 
L 118.68055 66.317343 
L 143.113239 67.595083 
L 199.844186 71.427234 
L 224.276875 72.873059 
L 281.007822 77.738831 
L 305.440511 79.856858 
L 362.171459 87.683198 
L 386.604148 121.115723 
L 386.604148 141.893271 
L 386.604148 141.893271 
L 362.171459 100.974536 
L 305.440511 87.819264 
L 281.007822 86.196948 
L 224.276875 75.22096 
L 199.844186 72.862981 
L 143.113239 73.63499 
L 118.68055 71.035916 
L 61.949602 73.543349 
z
" style="fill:#777777;fill-opacity:0.2;"/>
   </g>
   <g id="PolyCollection_5">
    <path clip-path="url(#p9455806866)" d="M 61.949602 56.536251 
L 61.949602 50.571925 
L 118.68055 46.711297 
L 143.113239 47.944086 
L 199.844186 48.172333 
L 224.276875 53.215398 
L 281.007822 65.445238 
L 305.440511 66.1013 
L 362.171459 73.8891 
L 386.604148 120.299584 
L 386.604148 145.272808 
L 386.604148 145.272808 
L 362.171459 91.595205 
L 305.440511 77.366597 
L 281.007822 73.973506 
L 224.276875 66.345959 
L 199.844186 65.508435 
L 143.113239 59.574804 
L 118.68055 57.783309 
L 61.949602 56.536251 
z
" style="fill:#fbc15e;fill-opacity:0.2;"/>
   </g>
   <g id="PolyCollection_6">
    <path clip-path="url(#p9455806866)" d="M 61.949602 79.249706 
L 61.949602 68.693466 
L 118.68055 70.526882 
L 143.113239 71.234932 
L 199.844186 73.994925 
L 224.276875 75.434413 
L 281.007822 80.02872 
L 305.440511 82.290708 
L 362.171459 89.052066 
L 386.604148 120.487041 
L 386.604148 141.468916 
L 386.604148 141.468916 
L 362.171459 103.150316 
L 305.440511 90.206889 
L 281.007822 88.7032 
L 224.276875 79.243483 
L 199.844186 77.849331 
L 143.113239 79.336186 
L 118.68055 76.230422 
L 61.949602 79.249706 
z
" style="fill:#8eba42;fill-opacity:0.2;"/>
   </g>
   <g id="line2d_56">
    <path clip-path="url(#p9455806866)" d="M 61.949602 63.878242 
L 118.68055 63.501984 
L 143.113239 65.820419 
L 199.844186 65.992929 
L 224.276875 67.971283 
L 281.007822 77.712202 
L 305.440511 79.12981 
L 362.171459 90.557362 
L 386.604148 129.478602 
" style="fill:none;stroke:#e24a33;stroke-linecap:square;stroke-width:1.5;"/>
   </g>
   <g id="line2d_57">
    <path clip-path="url(#p9455806866)" d="M 61.949602 75.057553 
L 118.68055 73.872797 
L 143.113239 75.365527 
L 199.844186 78.141834 
L 224.276875 79.857137 
L 281.007822 85.415674 
L 305.440511 87.739648 
L 362.171459 96.375468 
L 386.604148 132.702944 
" style="fill:none;stroke:#348abd;stroke-linecap:square;stroke-width:1.5;"/>
   </g>
   <g id="line2d_58">
    <path clip-path="url(#p9455806866)" d="M 61.949602 77.709793 
L 118.68055 77.709793 
L 143.113239 77.709793 
L 199.844186 77.709793 
L 224.276875 77.709793 
L 281.007822 75.227283 
L 305.440511 79.552367 
L 362.171459 70.886149 
L 386.604148 120.363836 
" style="fill:none;stroke:#988ed5;stroke-linecap:square;stroke-width:1.5;"/>
   </g>
   <g id="line2d_59">
    <path clip-path="url(#p9455806866)" d="M 61.949602 69.484842 
L 118.68055 68.676629 
L 143.113239 70.615036 
L 199.844186 72.145107 
L 224.276875 74.047009 
L 281.007822 81.96789 
L 305.440511 83.838061 
L 362.171459 94.328867 
L 386.604148 131.504497 
" style="fill:none;stroke:#777777;stroke-linecap:square;stroke-width:1.5;"/>
   </g>
   <g id="line2d_60">
    <path clip-path="url(#p9455806866)" d="M 61.949602 53.554088 
L 118.68055 52.247303 
L 143.113239 53.759445 
L 199.844186 56.840384 
L 224.276875 59.780679 
L 281.007822 69.709372 
L 305.440511 71.733948 
L 362.171459 82.742153 
L 386.604148 132.786196 
" style="fill:none;stroke:#fbc15e;stroke-linecap:square;stroke-width:1.5;"/>
   </g>
   <g id="line2d_61">
    <path clip-path="url(#p9455806866)" d="M 61.949602 73.971586 
L 118.68055 73.378652 
L 143.113239 75.285559 
L 199.844186 75.922128 
L 224.276875 77.338948 
L 281.007822 84.36596 
L 305.440511 86.248799 
L 362.171459 96.101191 
L 386.604148 130.977978 
" style="fill:none;stroke:#8eba42;stroke-linecap:square;stroke-width:1.5;"/>
   </g>
   <g id="patch_3">
    <path d="M 45.716875 161.2266 
L 45.716875 40.2666 
" style="fill:none;stroke:#ffffff;stroke-linecap:square;stroke-linejoin:miter;"/>
   </g>
   <g id="patch_4">
    <path d="M 402.836875 161.2266 
L 402.836875 40.2666 
" style="fill:none;stroke:#ffffff;stroke-linecap:square;stroke-linejoin:miter;"/>
   </g>
   <g id="patch_5">
    <path d="M 45.716875 161.2266 
L 402.836875 161.2266 
" style="fill:none;stroke:#ffffff;stroke-linecap:square;stroke-linejoin:miter;"/>
   </g>
   <g id="patch_6">
    <path d="M 45.716875 40.2666 
L 402.836875 40.2666 
" style="fill:none;stroke:#ffffff;stroke-linecap:square;stroke-linejoin:miter;"/>
   </g>
   <g id="text_12">
    <!-- Student dropout - triple constrained model -->
    <defs>
     <path d="M 53.515625 70.515625 
L 53.515625 60.890625 
Q 47.90625 63.578125 42.921875 64.890625 
Q 37.9375 66.21875 33.296875 66.21875 
Q 25.25 66.21875 20.875 63.09375 
Q 16.5 59.96875 16.5 54.203125 
Q 16.5 49.359375 19.40625 46.890625 
Q 22.3125 44.4375 30.421875 42.921875 
L 36.375 41.703125 
Q 47.40625 39.59375 52.65625 34.296875 
Q 57.90625 29 57.90625 20.125 
Q 57.90625 9.515625 50.796875 4.046875 
Q 43.703125 -1.421875 29.984375 -1.421875 
Q 24.8125 -1.421875 18.96875 -0.25 
Q 13.140625 0.921875 6.890625 3.21875 
L 6.890625 13.375 
Q 12.890625 10.015625 18.65625 8.296875 
Q 24.421875 6.59375 29.984375 6.59375 
Q 38.421875 6.59375 43.015625 9.90625 
Q 47.609375 13.234375 47.609375 19.390625 
Q 47.609375 24.75 44.3125 27.78125 
Q 41.015625 30.8125 33.5 32.328125 
L 27.484375 33.5 
Q 16.453125 35.6875 11.515625 40.375 
Q 6.59375 45.0625 6.59375 53.421875 
Q 6.59375 63.09375 13.40625 68.65625 
Q 20.21875 74.21875 32.171875 74.21875 
Q 37.3125 74.21875 42.625 73.28125 
Q 47.953125 72.359375 53.515625 70.515625 
z
" id="DejaVuSans-83"/>
     <path d="M 18.3125 70.21875 
L 18.3125 54.6875 
L 36.8125 54.6875 
L 36.8125 47.703125 
L 18.3125 47.703125 
L 18.3125 18.015625 
Q 18.3125 11.328125 20.140625 9.421875 
Q 21.96875 7.515625 27.59375 7.515625 
L 36.8125 7.515625 
L 36.8125 0 
L 27.59375 0 
Q 17.1875 0 13.234375 3.875 
Q 9.28125 7.765625 9.28125 18.015625 
L 9.28125 47.703125 
L 2.6875 47.703125 
L 2.6875 54.6875 
L 9.28125 54.6875 
L 9.28125 70.21875 
z
" id="DejaVuSans-116"/>
     <path d="M 8.5 21.578125 
L 8.5 54.6875 
L 17.484375 54.6875 
L 17.484375 21.921875 
Q 17.484375 14.15625 20.5 10.265625 
Q 23.53125 6.390625 29.59375 6.390625 
Q 36.859375 6.390625 41.078125 11.03125 
Q 45.3125 15.671875 45.3125 23.6875 
L 45.3125 54.6875 
L 54.296875 54.6875 
L 54.296875 0 
L 45.3125 0 
L 45.3125 8.40625 
Q 42.046875 3.421875 37.71875 1 
Q 33.40625 -1.421875 27.6875 -1.421875 
Q 18.265625 -1.421875 13.375 4.4375 
Q 8.5 10.296875 8.5 21.578125 
z
M 31.109375 56 
z
" id="DejaVuSans-117"/>
     <path d="M 45.40625 46.390625 
L 45.40625 75.984375 
L 54.390625 75.984375 
L 54.390625 0 
L 45.40625 0 
L 45.40625 8.203125 
Q 42.578125 3.328125 38.25 0.953125 
Q 33.9375 -1.421875 27.875 -1.421875 
Q 17.96875 -1.421875 11.734375 6.484375 
Q 5.515625 14.40625 5.515625 27.296875 
Q 5.515625 40.1875 11.734375 48.09375 
Q 17.96875 56 27.875 56 
Q 33.9375 56 38.25 53.625 
Q 42.578125 51.265625 45.40625 46.390625 
z
M 14.796875 27.296875 
Q 14.796875 17.390625 18.875 11.75 
Q 22.953125 6.109375 30.078125 6.109375 
Q 37.203125 6.109375 41.296875 11.75 
Q 45.40625 17.390625 45.40625 27.296875 
Q 45.40625 37.203125 41.296875 42.84375 
Q 37.203125 48.484375 30.078125 48.484375 
Q 22.953125 48.484375 18.875 42.84375 
Q 14.796875 37.203125 14.796875 27.296875 
z
" id="DejaVuSans-100"/>
     <path d="M 54.890625 33.015625 
L 54.890625 0 
L 45.90625 0 
L 45.90625 32.71875 
Q 45.90625 40.484375 42.875 44.328125 
Q 39.84375 48.1875 33.796875 48.1875 
Q 26.515625 48.1875 22.3125 43.546875 
Q 18.109375 38.921875 18.109375 30.90625 
L 18.109375 0 
L 9.078125 0 
L 9.078125 54.6875 
L 18.109375 54.6875 
L 18.109375 46.1875 
Q 21.34375 51.125 25.703125 53.5625 
Q 30.078125 56 35.796875 56 
Q 45.21875 56 50.046875 50.171875 
Q 54.890625 44.34375 54.890625 33.015625 
z
" id="DejaVuSans-110"/>
     <path id="DejaVuSans-32"/>
     <path d="M 18.109375 8.203125 
L 18.109375 -20.796875 
L 9.078125 -20.796875 
L 9.078125 54.6875 
L 18.109375 54.6875 
L 18.109375 46.390625 
Q 20.953125 51.265625 25.265625 53.625 
Q 29.59375 56 35.59375 56 
Q 45.5625 56 51.78125 48.09375 
Q 58.015625 40.1875 58.015625 27.296875 
Q 58.015625 14.40625 51.78125 6.484375 
Q 45.5625 -1.421875 35.59375 -1.421875 
Q 29.59375 -1.421875 25.265625 0.953125 
Q 20.953125 3.328125 18.109375 8.203125 
z
M 48.6875 27.296875 
Q 48.6875 37.203125 44.609375 42.84375 
Q 40.53125 48.484375 33.40625 48.484375 
Q 26.265625 48.484375 22.1875 42.84375 
Q 18.109375 37.203125 18.109375 27.296875 
Q 18.109375 17.390625 22.1875 11.75 
Q 26.265625 6.109375 33.40625 6.109375 
Q 40.53125 6.109375 44.609375 11.75 
Q 48.6875 17.390625 48.6875 27.296875 
z
" id="DejaVuSans-112"/>
     <path d="M 9.421875 54.6875 
L 18.40625 54.6875 
L 18.40625 0 
L 9.421875 0 
z
M 9.421875 75.984375 
L 18.40625 75.984375 
L 18.40625 64.59375 
L 9.421875 64.59375 
z
" id="DejaVuSans-105"/>
     <path d="M 9.421875 75.984375 
L 18.40625 75.984375 
L 18.40625 0 
L 9.421875 0 
z
" id="DejaVuSans-108"/>
     <path d="M 34.28125 27.484375 
Q 23.390625 27.484375 19.1875 25 
Q 14.984375 22.515625 14.984375 16.5 
Q 14.984375 11.71875 18.140625 8.90625 
Q 21.296875 6.109375 26.703125 6.109375 
Q 34.1875 6.109375 38.703125 11.40625 
Q 43.21875 16.703125 43.21875 25.484375 
L 43.21875 27.484375 
z
M 52.203125 31.203125 
L 52.203125 0 
L 43.21875 0 
L 43.21875 8.296875 
Q 40.140625 3.328125 35.546875 0.953125 
Q 30.953125 -1.421875 24.3125 -1.421875 
Q 15.921875 -1.421875 10.953125 3.296875 
Q 6 8.015625 6 15.921875 
Q 6 25.140625 12.171875 29.828125 
Q 18.359375 34.515625 30.609375 34.515625 
L 43.21875 34.515625 
L 43.21875 35.40625 
Q 43.21875 41.609375 39.140625 45 
Q 35.0625 48.390625 27.6875 48.390625 
Q 23 48.390625 18.546875 47.265625 
Q 14.109375 46.140625 10.015625 43.890625 
L 10.015625 52.203125 
Q 14.9375 54.109375 19.578125 55.046875 
Q 24.21875 56 28.609375 56 
Q 40.484375 56 46.34375 49.84375 
Q 52.203125 43.703125 52.203125 31.203125 
z
" id="DejaVuSans-97"/>
     <path d="M 52 44.1875 
Q 55.375 50.25 60.0625 53.125 
Q 64.75 56 71.09375 56 
Q 79.640625 56 84.28125 50.015625 
Q 88.921875 44.046875 88.921875 33.015625 
L 88.921875 0 
L 79.890625 0 
L 79.890625 32.71875 
Q 79.890625 40.578125 77.09375 44.375 
Q 74.3125 48.1875 68.609375 48.1875 
Q 61.625 48.1875 57.5625 43.546875 
Q 53.515625 38.921875 53.515625 30.90625 
L 53.515625 0 
L 44.484375 0 
L 44.484375 32.71875 
Q 44.484375 40.625 41.703125 44.40625 
Q 38.921875 48.1875 33.109375 48.1875 
Q 26.21875 48.1875 22.15625 43.53125 
Q 18.109375 38.875 18.109375 30.90625 
L 18.109375 0 
L 9.078125 0 
L 9.078125 54.6875 
L 18.109375 54.6875 
L 18.109375 46.1875 
Q 21.1875 51.21875 25.484375 53.609375 
Q 29.78125 56 35.6875 56 
Q 41.65625 56 45.828125 52.96875 
Q 50 49.953125 52 44.1875 
z
" id="DejaVuSans-109"/>
    </defs>
    <g transform="translate(70.117 18.14175)scale(0.144 -0.144)">
     <use xlink:href="#DejaVuSans-83"/>
     <use x="63.476562" xlink:href="#DejaVuSans-116"/>
     <use x="102.685547" xlink:href="#DejaVuSans-117"/>
     <use x="166.064453" xlink:href="#DejaVuSans-100"/>
     <use x="229.541016" xlink:href="#DejaVuSans-101"/>
     <use x="291.064453" xlink:href="#DejaVuSans-110"/>
     <use x="354.443359" xlink:href="#DejaVuSans-116"/>
     <use x="393.652344" xlink:href="#DejaVuSans-32"/>
     <use x="425.439453" xlink:href="#DejaVuSans-100"/>
     <use x="488.916016" xlink:href="#DejaVuSans-114"/>
     <use x="527.779297" xlink:href="#DejaVuSans-111"/>
     <use x="588.960938" xlink:href="#DejaVuSans-112"/>
     <use x="652.4375" xlink:href="#DejaVuSans-111"/>
     <use x="713.619141" xlink:href="#DejaVuSans-117"/>
     <use x="776.998047" xlink:href="#DejaVuSans-116"/>
     <use x="816.207031" xlink:href="#DejaVuSans-32"/>
     <use x="847.994141" xlink:href="#DejaVuSans-45"/>
     <use x="884.078125" xlink:href="#DejaVuSans-32"/>
     <use x="915.865234" xlink:href="#DejaVuSans-116"/>
     <use x="955.074219" xlink:href="#DejaVuSans-114"/>
     <use x="996.1875" xlink:href="#DejaVuSans-105"/>
     <use x="1023.970703" xlink:href="#DejaVuSans-112"/>
     <use x="1087.447266" xlink:href="#DejaVuSans-108"/>
     <use x="1115.230469" xlink:href="#DejaVuSans-101"/>
     <use x="1176.753906" xlink:href="#DejaVuSans-32"/>
     <use x="1208.541016" xlink:href="#DejaVuSans-99"/>
     <use x="1263.521484" xlink:href="#DejaVuSans-111"/>
     <use x="1324.703125" xlink:href="#DejaVuSans-110"/>
     <use x="1388.082031" xlink:href="#DejaVuSans-115"/>
     <use x="1440.181641" xlink:href="#DejaVuSans-116"/>
     <use x="1479.390625" xlink:href="#DejaVuSans-114"/>
     <use x="1520.503906" xlink:href="#DejaVuSans-97"/>
     <use x="1581.783203" xlink:href="#DejaVuSans-105"/>
     <use x="1609.566406" xlink:href="#DejaVuSans-110"/>
     <use x="1672.945312" xlink:href="#DejaVuSans-101"/>
     <use x="1734.46875" xlink:href="#DejaVuSans-100"/>
     <use x="1797.945312" xlink:href="#DejaVuSans-32"/>
     <use x="1829.732422" xlink:href="#DejaVuSans-109"/>
     <use x="1927.144531" xlink:href="#DejaVuSans-111"/>
     <use x="1988.326172" xlink:href="#DejaVuSans-100"/>
     <use x="2051.802734" xlink:href="#DejaVuSans-101"/>
     <use x="2113.326172" xlink:href="#DejaVuSans-108"/>
    </g>
    <!-- Pareto curves for different values of gamma -->
    <defs>
     <path d="M 19.671875 64.796875 
L 19.671875 37.40625 
L 32.078125 37.40625 
Q 38.96875 37.40625 42.71875 40.96875 
Q 46.484375 44.53125 46.484375 51.125 
Q 46.484375 57.671875 42.71875 61.234375 
Q 38.96875 64.796875 32.078125 64.796875 
z
M 9.8125 72.90625 
L 32.078125 72.90625 
Q 44.34375 72.90625 50.609375 67.359375 
Q 56.890625 61.8125 56.890625 51.125 
Q 56.890625 40.328125 50.609375 34.8125 
Q 44.34375 29.296875 32.078125 29.296875 
L 19.671875 29.296875 
L 19.671875 0 
L 9.8125 0 
z
" id="DejaVuSans-80"/>
     <path d="M 2.984375 54.6875 
L 12.5 54.6875 
L 29.59375 8.796875 
L 46.6875 54.6875 
L 56.203125 54.6875 
L 35.6875 0 
L 23.484375 0 
z
" id="DejaVuSans-118"/>
     <path d="M 37.109375 75.984375 
L 37.109375 68.5 
L 28.515625 68.5 
Q 23.6875 68.5 21.796875 66.546875 
Q 19.921875 64.59375 19.921875 59.515625 
L 19.921875 54.6875 
L 34.71875 54.6875 
L 34.71875 47.703125 
L 19.921875 47.703125 
L 19.921875 0 
L 10.890625 0 
L 10.890625 47.703125 
L 2.296875 47.703125 
L 2.296875 54.6875 
L 10.890625 54.6875 
L 10.890625 58.5 
Q 10.890625 67.625 15.140625 71.796875 
Q 19.390625 75.984375 28.609375 75.984375 
z
" id="DejaVuSans-102"/>
     <path d="M 45.40625 27.984375 
Q 45.40625 37.75 41.375 43.109375 
Q 37.359375 48.484375 30.078125 48.484375 
Q 22.859375 48.484375 18.828125 43.109375 
Q 14.796875 37.75 14.796875 27.984375 
Q 14.796875 18.265625 18.828125 12.890625 
Q 22.859375 7.515625 30.078125 7.515625 
Q 37.359375 7.515625 41.375 12.890625 
Q 45.40625 18.265625 45.40625 27.984375 
z
M 54.390625 6.78125 
Q 54.390625 -7.171875 48.1875 -13.984375 
Q 42 -20.796875 29.203125 -20.796875 
Q 24.46875 -20.796875 20.265625 -20.09375 
Q 16.0625 -19.390625 12.109375 -17.921875 
L 12.109375 -9.1875 
Q 16.0625 -11.328125 19.921875 -12.34375 
Q 23.78125 -13.375 27.78125 -13.375 
Q 36.625 -13.375 41.015625 -8.765625 
Q 45.40625 -4.15625 45.40625 5.171875 
L 45.40625 9.625 
Q 42.625 4.78125 38.28125 2.390625 
Q 33.9375 0 27.875 0 
Q 17.828125 0 11.671875 7.65625 
Q 5.515625 15.328125 5.515625 27.984375 
Q 5.515625 40.671875 11.671875 48.328125 
Q 17.828125 56 27.875 56 
Q 33.9375 56 38.28125 53.609375 
Q 42.625 51.21875 45.40625 46.390625 
L 45.40625 54.6875 
L 54.390625 54.6875 
z
" id="DejaVuSans-103"/>
    </defs>
    <g transform="translate(65.372875 34.2666)scale(0.144 -0.144)">
     <use xlink:href="#DejaVuSans-80"/>
     <use x="55.802734" xlink:href="#DejaVuSans-97"/>
     <use x="117.082031" xlink:href="#DejaVuSans-114"/>
     <use x="155.945312" xlink:href="#DejaVuSans-101"/>
     <use x="217.46875" xlink:href="#DejaVuSans-116"/>
     <use x="256.677734" xlink:href="#DejaVuSans-111"/>
     <use x="317.859375" xlink:href="#DejaVuSans-32"/>
     <use x="349.646484" xlink:href="#DejaVuSans-99"/>
     <use x="404.626953" xlink:href="#DejaVuSans-117"/>
     <use x="468.005859" xlink:href="#DejaVuSans-114"/>
     <use x="509.119141" xlink:href="#DejaVuSans-118"/>
     <use x="568.298828" xlink:href="#DejaVuSans-101"/>
     <use x="629.822266" xlink:href="#DejaVuSans-115"/>
     <use x="681.921875" xlink:href="#DejaVuSans-32"/>
     <use x="713.708984" xlink:href="#DejaVuSans-102"/>
     <use x="748.914062" xlink:href="#DejaVuSans-111"/>
     <use x="810.095703" xlink:href="#DejaVuSans-114"/>
     <use x="851.208984" xlink:href="#DejaVuSans-32"/>
     <use x="882.996094" xlink:href="#DejaVuSans-100"/>
     <use x="946.472656" xlink:href="#DejaVuSans-105"/>
     <use x="974.255859" xlink:href="#DejaVuSans-102"/>
     <use x="1009.460938" xlink:href="#DejaVuSans-102"/>
     <use x="1044.666016" xlink:href="#DejaVuSans-101"/>
     <use x="1106.189453" xlink:href="#DejaVuSans-114"/>
     <use x="1145.052734" xlink:href="#DejaVuSans-101"/>
     <use x="1206.576172" xlink:href="#DejaVuSans-110"/>
     <use x="1269.955078" xlink:href="#DejaVuSans-116"/>
     <use x="1309.164062" xlink:href="#DejaVuSans-32"/>
     <use x="1340.951172" xlink:href="#DejaVuSans-118"/>
     <use x="1400.130859" xlink:href="#DejaVuSans-97"/>
     <use x="1461.410156" xlink:href="#DejaVuSans-108"/>
     <use x="1489.193359" xlink:href="#DejaVuSans-117"/>
     <use x="1552.572266" xlink:href="#DejaVuSans-101"/>
     <use x="1614.095703" xlink:href="#DejaVuSans-115"/>
     <use x="1666.195312" xlink:href="#DejaVuSans-32"/>
     <use x="1697.982422" xlink:href="#DejaVuSans-111"/>
     <use x="1759.164062" xlink:href="#DejaVuSans-102"/>
     <use x="1794.369141" xlink:href="#DejaVuSans-32"/>
     <use x="1826.15625" xlink:href="#DejaVuSans-103"/>
     <use x="1889.632812" xlink:href="#DejaVuSans-97"/>
     <use x="1950.912109" xlink:href="#DejaVuSans-109"/>
     <use x="2048.324219" xlink:href="#DejaVuSans-109"/>
     <use x="2145.736328" xlink:href="#DejaVuSans-97"/>
    </g>
   </g>
   <g id="legend_1">
    <g id="patch_7">
     <path d="M 52.716875 156.2266 
L 184.354375 156.2266 
Q 186.354375 156.2266 186.354375 154.2266 
L 186.354375 66.6016 
Q 186.354375 64.6016 184.354375 64.6016 
L 52.716875 64.6016 
Q 50.716875 64.6016 50.716875 66.6016 
L 50.716875 154.2266 
Q 50.716875 156.2266 52.716875 156.2266 
z
" style="fill:#e5e5e5;opacity:0.8;stroke:#cccccc;stroke-linejoin:miter;stroke-width:0.5;"/>
    </g>
    <g id="line2d_62">
     <path d="M 54.716875 72.700037 
L 74.716875 72.700037 
" style="fill:none;stroke:#e24a33;stroke-linecap:square;stroke-width:1.5;"/>
    </g>
    <g id="line2d_63"/>
    <g id="text_13">
     <!-- male -->
     <g transform="translate(82.716875 76.200037)scale(0.1 -0.1)">
      <use xlink:href="#DejaVuSans-109"/>
      <use x="97.412109" xlink:href="#DejaVuSans-97"/>
      <use x="158.691406" xlink:href="#DejaVuSans-108"/>
      <use x="186.474609" xlink:href="#DejaVuSans-101"/>
     </g>
    </g>
    <g id="line2d_64">
     <path d="M 54.716875 87.378162 
L 74.716875 87.378162 
" style="fill:none;stroke:#348abd;stroke-linecap:square;stroke-width:1.5;"/>
    </g>
    <g id="line2d_65"/>
    <g id="text_14">
     <!-- female -->
     <g transform="translate(82.716875 90.878162)scale(0.1 -0.1)">
      <use xlink:href="#DejaVuSans-102"/>
      <use x="35.205078" xlink:href="#DejaVuSans-101"/>
      <use x="96.728516" xlink:href="#DejaVuSans-109"/>
      <use x="194.140625" xlink:href="#DejaVuSans-97"/>
      <use x="255.419922" xlink:href="#DejaVuSans-108"/>
      <use x="283.203125" xlink:href="#DejaVuSans-101"/>
     </g>
    </g>
    <g id="line2d_66">
     <path d="M 54.716875 102.056287 
L 74.716875 102.056287 
" style="fill:none;stroke:#988ed5;stroke-linecap:square;stroke-width:1.5;"/>
    </g>
    <g id="line2d_67"/>
    <g id="text_15">
     <!-- majority_nationality -->
     <defs>
      <path d="M 9.421875 54.6875 
L 18.40625 54.6875 
L 18.40625 -0.984375 
Q 18.40625 -11.421875 14.421875 -16.109375 
Q 10.453125 -20.796875 1.609375 -20.796875 
L -1.8125 -20.796875 
L -1.8125 -13.1875 
L 0.59375 -13.1875 
Q 5.71875 -13.1875 7.5625 -10.8125 
Q 9.421875 -8.453125 9.421875 -0.984375 
z
M 9.421875 75.984375 
L 18.40625 75.984375 
L 18.40625 64.59375 
L 9.421875 64.59375 
z
" id="DejaVuSans-106"/>
      <path d="M 32.171875 -5.078125 
Q 28.375 -14.84375 24.75 -17.8125 
Q 21.140625 -20.796875 15.09375 -20.796875 
L 7.90625 -20.796875 
L 7.90625 -13.28125 
L 13.1875 -13.28125 
Q 16.890625 -13.28125 18.9375 -11.515625 
Q 21 -9.765625 23.484375 -3.21875 
L 25.09375 0.875 
L 2.984375 54.6875 
L 12.5 54.6875 
L 29.59375 11.921875 
L 46.6875 54.6875 
L 56.203125 54.6875 
z
" id="DejaVuSans-121"/>
      <path d="M 50.984375 -16.609375 
L 50.984375 -23.578125 
L -0.984375 -23.578125 
L -0.984375 -16.609375 
z
" id="DejaVuSans-95"/>
     </defs>
     <g transform="translate(82.716875 105.556287)scale(0.1 -0.1)">
      <use xlink:href="#DejaVuSans-109"/>
      <use x="97.412109" xlink:href="#DejaVuSans-97"/>
      <use x="158.691406" xlink:href="#DejaVuSans-106"/>
      <use x="186.474609" xlink:href="#DejaVuSans-111"/>
      <use x="247.65625" xlink:href="#DejaVuSans-114"/>
      <use x="288.769531" xlink:href="#DejaVuSans-105"/>
      <use x="316.552734" xlink:href="#DejaVuSans-116"/>
      <use x="355.761719" xlink:href="#DejaVuSans-121"/>
      <use x="414.941406" xlink:href="#DejaVuSans-95"/>
      <use x="464.941406" xlink:href="#DejaVuSans-110"/>
      <use x="528.320312" xlink:href="#DejaVuSans-97"/>
      <use x="589.599609" xlink:href="#DejaVuSans-116"/>
      <use x="628.808594" xlink:href="#DejaVuSans-105"/>
      <use x="656.591797" xlink:href="#DejaVuSans-111"/>
      <use x="717.773438" xlink:href="#DejaVuSans-110"/>
      <use x="781.152344" xlink:href="#DejaVuSans-97"/>
      <use x="842.431641" xlink:href="#DejaVuSans-108"/>
      <use x="870.214844" xlink:href="#DejaVuSans-105"/>
      <use x="897.998047" xlink:href="#DejaVuSans-116"/>
      <use x="937.207031" xlink:href="#DejaVuSans-121"/>
     </g>
    </g>
    <g id="line2d_68">
     <path d="M 54.716875 117.012537 
L 74.716875 117.012537 
" style="fill:none;stroke:#777777;stroke-linecap:square;stroke-width:1.5;"/>
    </g>
    <g id="line2d_69"/>
    <g id="text_16">
     <!-- other_nationality -->
     <defs>
      <path d="M 54.890625 33.015625 
L 54.890625 0 
L 45.90625 0 
L 45.90625 32.71875 
Q 45.90625 40.484375 42.875 44.328125 
Q 39.84375 48.1875 33.796875 48.1875 
Q 26.515625 48.1875 22.3125 43.546875 
Q 18.109375 38.921875 18.109375 30.90625 
L 18.109375 0 
L 9.078125 0 
L 9.078125 75.984375 
L 18.109375 75.984375 
L 18.109375 46.1875 
Q 21.34375 51.125 25.703125 53.5625 
Q 30.078125 56 35.796875 56 
Q 45.21875 56 50.046875 50.171875 
Q 54.890625 44.34375 54.890625 33.015625 
z
" id="DejaVuSans-104"/>
     </defs>
     <g transform="translate(82.716875 120.512537)scale(0.1 -0.1)">
      <use xlink:href="#DejaVuSans-111"/>
      <use x="61.181641" xlink:href="#DejaVuSans-116"/>
      <use x="100.390625" xlink:href="#DejaVuSans-104"/>
      <use x="163.769531" xlink:href="#DejaVuSans-101"/>
      <use x="225.292969" xlink:href="#DejaVuSans-114"/>
      <use x="266.40625" xlink:href="#DejaVuSans-95"/>
      <use x="316.40625" xlink:href="#DejaVuSans-110"/>
      <use x="379.785156" xlink:href="#DejaVuSans-97"/>
      <use x="441.064453" xlink:href="#DejaVuSans-116"/>
      <use x="480.273438" xlink:href="#DejaVuSans-105"/>
      <use x="508.056641" xlink:href="#DejaVuSans-111"/>
      <use x="569.238281" xlink:href="#DejaVuSans-110"/>
      <use x="632.617188" xlink:href="#DejaVuSans-97"/>
      <use x="693.896484" xlink:href="#DejaVuSans-108"/>
      <use x="721.679688" xlink:href="#DejaVuSans-105"/>
      <use x="749.462891" xlink:href="#DejaVuSans-116"/>
      <use x="788.671875" xlink:href="#DejaVuSans-121"/>
     </g>
    </g>
    <g id="line2d_70">
     <path d="M 54.716875 131.968787 
L 74.716875 131.968787 
" style="fill:none;stroke:#fbc15e;stroke-linecap:square;stroke-width:1.5;"/>
    </g>
    <g id="line2d_71"/>
    <g id="text_17">
     <!-- young -->
     <g transform="translate(82.716875 135.468787)scale(0.1 -0.1)">
      <use xlink:href="#DejaVuSans-121"/>
      <use x="59.179688" xlink:href="#DejaVuSans-111"/>
      <use x="120.361328" xlink:href="#DejaVuSans-117"/>
      <use x="183.740234" xlink:href="#DejaVuSans-110"/>
      <use x="247.119141" xlink:href="#DejaVuSans-103"/>
     </g>
    </g>
    <g id="line2d_72">
     <path d="M 54.716875 146.646912 
L 74.716875 146.646912 
" style="fill:none;stroke:#8eba42;stroke-linecap:square;stroke-width:1.5;"/>
    </g>
    <g id="line2d_73"/>
    <g id="text_18">
     <!-- old -->
     <g transform="translate(82.716875 150.146912)scale(0.1 -0.1)">
      <use xlink:href="#DejaVuSans-111"/>
      <use x="61.181641" xlink:href="#DejaVuSans-108"/>
      <use x="88.964844" xlink:href="#DejaVuSans-100"/>
     </g>
    </g>
   </g>
  </g>
  <g id="axes_2">
   <g id="patch_8">
    <path d="M 45.716875 306.3786 
L 402.836875 306.3786 
L 402.836875 185.4186 
L 45.716875 185.4186 
z
" style="fill:#e5e5e5;"/>
   </g>
   <g id="matplotlib.axis_3">
    <g id="xtick_41">
     <g id="line2d_74">
      <path clip-path="url(#pc37a152cac)" d="M 61.949602 306.3786 
L 61.949602 185.4186 
" style="fill:none;stroke:#ffffff;stroke-linecap:square;stroke-width:0.8;"/>
     </g>
     <g id="line2d_75">
      <g>
       <use style="fill:#555555;stroke:#555555;stroke-width:0.8;" x="61.949602" xlink:href="#m4c31b4157e" y="306.3786"/>
      </g>
     </g>
     <g id="text_19">
      <!-- $\mathdefault{10^{-5}}$ -->
      <g style="fill:#555555;" transform="translate(50.199602 320.977037)scale(0.1 -0.1)">
       <use transform="translate(0 0.684375)" xlink:href="#DejaVuSans-49"/>
       <use transform="translate(63.623047 0.684375)" xlink:href="#DejaVuSans-48"/>
       <use transform="translate(128.203125 38.965625)scale(0.7)" xlink:href="#DejaVuSans-8722"/>
       <use transform="translate(186.855469 38.965625)scale(0.7)" xlink:href="#DejaVuSans-53"/>
      </g>
     </g>
    </g>
    <g id="xtick_42">
     <g id="line2d_76">
      <path clip-path="url(#pc37a152cac)" d="M 143.113239 306.3786 
L 143.113239 185.4186 
" style="fill:none;stroke:#ffffff;stroke-linecap:square;stroke-width:0.8;"/>
     </g>
     <g id="line2d_77">
      <g>
       <use style="fill:#555555;stroke:#555555;stroke-width:0.8;" x="143.113239" xlink:href="#m4c31b4157e" y="306.3786"/>
      </g>
     </g>
     <g id="text_20">
      <!-- $\mathdefault{10^{-4}}$ -->
      <g style="fill:#555555;" transform="translate(131.363239 320.977037)scale(0.1 -0.1)">
       <use transform="translate(0 0.684375)" xlink:href="#DejaVuSans-49"/>
       <use transform="translate(63.623047 0.684375)" xlink:href="#DejaVuSans-48"/>
       <use transform="translate(128.203125 38.965625)scale(0.7)" xlink:href="#DejaVuSans-8722"/>
       <use transform="translate(186.855469 38.965625)scale(0.7)" xlink:href="#DejaVuSans-52"/>
      </g>
     </g>
    </g>
    <g id="xtick_43">
     <g id="line2d_78">
      <path clip-path="url(#pc37a152cac)" d="M 224.276875 306.3786 
L 224.276875 185.4186 
" style="fill:none;stroke:#ffffff;stroke-linecap:square;stroke-width:0.8;"/>
     </g>
     <g id="line2d_79">
      <g>
       <use style="fill:#555555;stroke:#555555;stroke-width:0.8;" x="224.276875" xlink:href="#m4c31b4157e" y="306.3786"/>
      </g>
     </g>
     <g id="text_21">
      <!-- $\mathdefault{10^{-3}}$ -->
      <g style="fill:#555555;" transform="translate(212.526875 320.977037)scale(0.1 -0.1)">
       <use transform="translate(0 0.765625)" xlink:href="#DejaVuSans-49"/>
       <use transform="translate(63.623047 0.765625)" xlink:href="#DejaVuSans-48"/>
       <use transform="translate(128.203125 39.046875)scale(0.7)" xlink:href="#DejaVuSans-8722"/>
       <use transform="translate(186.855469 39.046875)scale(0.7)" xlink:href="#DejaVuSans-51"/>
      </g>
     </g>
    </g>
    <g id="xtick_44">
     <g id="line2d_80">
      <path clip-path="url(#pc37a152cac)" d="M 305.440511 306.3786 
L 305.440511 185.4186 
" style="fill:none;stroke:#ffffff;stroke-linecap:square;stroke-width:0.8;"/>
     </g>
     <g id="line2d_81">
      <g>
       <use style="fill:#555555;stroke:#555555;stroke-width:0.8;" x="305.440511" xlink:href="#m4c31b4157e" y="306.3786"/>
      </g>
     </g>
     <g id="text_22">
      <!-- $\mathdefault{10^{-2}}$ -->
      <g style="fill:#555555;" transform="translate(293.690511 320.977037)scale(0.1 -0.1)">
       <use transform="translate(0 0.765625)" xlink:href="#DejaVuSans-49"/>
       <use transform="translate(63.623047 0.765625)" xlink:href="#DejaVuSans-48"/>
       <use transform="translate(128.203125 39.046875)scale(0.7)" xlink:href="#DejaVuSans-8722"/>
       <use transform="translate(186.855469 39.046875)scale(0.7)" xlink:href="#DejaVuSans-50"/>
      </g>
     </g>
    </g>
    <g id="xtick_45">
     <g id="line2d_82">
      <path clip-path="url(#pc37a152cac)" d="M 386.604148 306.3786 
L 386.604148 185.4186 
" style="fill:none;stroke:#ffffff;stroke-linecap:square;stroke-width:0.8;"/>
     </g>
     <g id="line2d_83">
      <g>
       <use style="fill:#555555;stroke:#555555;stroke-width:0.8;" x="386.604148" xlink:href="#m4c31b4157e" y="306.3786"/>
      </g>
     </g>
     <g id="text_23">
      <!-- $\mathdefault{10^{-1}}$ -->
      <g style="fill:#555555;" transform="translate(374.854148 320.977037)scale(0.1 -0.1)">
       <use transform="translate(0 0.684375)" xlink:href="#DejaVuSans-49"/>
       <use transform="translate(63.623047 0.684375)" xlink:href="#DejaVuSans-48"/>
       <use transform="translate(128.203125 38.965625)scale(0.7)" xlink:href="#DejaVuSans-8722"/>
       <use transform="translate(186.855469 38.965625)scale(0.7)" xlink:href="#DejaVuSans-49"/>
      </g>
     </g>
    </g>
    <g id="xtick_46">
     <g id="line2d_84">
      <g>
       <use style="fill:#555555;stroke:#555555;stroke-width:0.6;" x="49.377196" xlink:href="#md0f4fba66e" y="306.3786"/>
      </g>
     </g>
    </g>
    <g id="xtick_47">
     <g id="line2d_85">
      <g>
       <use style="fill:#555555;stroke:#555555;stroke-width:0.6;" x="54.084033" xlink:href="#md0f4fba66e" y="306.3786"/>
      </g>
     </g>
    </g>
    <g id="xtick_48">
     <g id="line2d_86">
      <g>
       <use style="fill:#555555;stroke:#555555;stroke-width:0.6;" x="58.235758" xlink:href="#md0f4fba66e" y="306.3786"/>
      </g>
     </g>
    </g>
    <g id="xtick_49">
     <g id="line2d_87">
      <g>
       <use style="fill:#555555;stroke:#555555;stroke-width:0.6;" x="86.382291" xlink:href="#md0f4fba66e" y="306.3786"/>
      </g>
     </g>
    </g>
    <g id="xtick_50">
     <g id="line2d_88">
      <g>
       <use style="fill:#555555;stroke:#555555;stroke-width:0.6;" x="100.674498" xlink:href="#md0f4fba66e" y="306.3786"/>
      </g>
     </g>
    </g>
    <g id="xtick_51">
     <g id="line2d_89">
      <g>
       <use style="fill:#555555;stroke:#555555;stroke-width:0.6;" x="110.81498" xlink:href="#md0f4fba66e" y="306.3786"/>
      </g>
     </g>
    </g>
    <g id="xtick_52">
     <g id="line2d_90">
      <g>
       <use style="fill:#555555;stroke:#555555;stroke-width:0.6;" x="118.68055" xlink:href="#md0f4fba66e" y="306.3786"/>
      </g>
     </g>
    </g>
    <g id="xtick_53">
     <g id="line2d_91">
      <g>
       <use style="fill:#555555;stroke:#555555;stroke-width:0.6;" x="125.107187" xlink:href="#md0f4fba66e" y="306.3786"/>
      </g>
     </g>
    </g>
    <g id="xtick_54">
     <g id="line2d_92">
      <g>
       <use style="fill:#555555;stroke:#555555;stroke-width:0.6;" x="130.540832" xlink:href="#md0f4fba66e" y="306.3786"/>
      </g>
     </g>
    </g>
    <g id="xtick_55">
     <g id="line2d_93">
      <g>
       <use style="fill:#555555;stroke:#555555;stroke-width:0.6;" x="135.24767" xlink:href="#md0f4fba66e" y="306.3786"/>
      </g>
     </g>
    </g>
    <g id="xtick_56">
     <g id="line2d_94">
      <g>
       <use style="fill:#555555;stroke:#555555;stroke-width:0.6;" x="139.399394" xlink:href="#md0f4fba66e" y="306.3786"/>
      </g>
     </g>
    </g>
    <g id="xtick_57">
     <g id="line2d_95">
      <g>
       <use style="fill:#555555;stroke:#555555;stroke-width:0.6;" x="167.545928" xlink:href="#md0f4fba66e" y="306.3786"/>
      </g>
     </g>
    </g>
    <g id="xtick_58">
     <g id="line2d_96">
      <g>
       <use style="fill:#555555;stroke:#555555;stroke-width:0.6;" x="181.838135" xlink:href="#md0f4fba66e" y="306.3786"/>
      </g>
     </g>
    </g>
    <g id="xtick_59">
     <g id="line2d_97">
      <g>
       <use style="fill:#555555;stroke:#555555;stroke-width:0.6;" x="191.978617" xlink:href="#md0f4fba66e" y="306.3786"/>
      </g>
     </g>
    </g>
    <g id="xtick_60">
     <g id="line2d_98">
      <g>
       <use style="fill:#555555;stroke:#555555;stroke-width:0.6;" x="199.844186" xlink:href="#md0f4fba66e" y="306.3786"/>
      </g>
     </g>
    </g>
    <g id="xtick_61">
     <g id="line2d_99">
      <g>
       <use style="fill:#555555;stroke:#555555;stroke-width:0.6;" x="206.270824" xlink:href="#md0f4fba66e" y="306.3786"/>
      </g>
     </g>
    </g>
    <g id="xtick_62">
     <g id="line2d_100">
      <g>
       <use style="fill:#555555;stroke:#555555;stroke-width:0.6;" x="211.704469" xlink:href="#md0f4fba66e" y="306.3786"/>
      </g>
     </g>
    </g>
    <g id="xtick_63">
     <g id="line2d_101">
      <g>
       <use style="fill:#555555;stroke:#555555;stroke-width:0.6;" x="216.411306" xlink:href="#md0f4fba66e" y="306.3786"/>
      </g>
     </g>
    </g>
    <g id="xtick_64">
     <g id="line2d_102">
      <g>
       <use style="fill:#555555;stroke:#555555;stroke-width:0.6;" x="220.563031" xlink:href="#md0f4fba66e" y="306.3786"/>
      </g>
     </g>
    </g>
    <g id="xtick_65">
     <g id="line2d_103">
      <g>
       <use style="fill:#555555;stroke:#555555;stroke-width:0.6;" x="248.709564" xlink:href="#md0f4fba66e" y="306.3786"/>
      </g>
     </g>
    </g>
    <g id="xtick_66">
     <g id="line2d_104">
      <g>
       <use style="fill:#555555;stroke:#555555;stroke-width:0.6;" x="263.001771" xlink:href="#md0f4fba66e" y="306.3786"/>
      </g>
     </g>
    </g>
    <g id="xtick_67">
     <g id="line2d_105">
      <g>
       <use style="fill:#555555;stroke:#555555;stroke-width:0.6;" x="273.142253" xlink:href="#md0f4fba66e" y="306.3786"/>
      </g>
     </g>
    </g>
    <g id="xtick_68">
     <g id="line2d_106">
      <g>
       <use style="fill:#555555;stroke:#555555;stroke-width:0.6;" x="281.007822" xlink:href="#md0f4fba66e" y="306.3786"/>
      </g>
     </g>
    </g>
    <g id="xtick_69">
     <g id="line2d_107">
      <g>
       <use style="fill:#555555;stroke:#555555;stroke-width:0.6;" x="287.43446" xlink:href="#md0f4fba66e" y="306.3786"/>
      </g>
     </g>
    </g>
    <g id="xtick_70">
     <g id="line2d_108">
      <g>
       <use style="fill:#555555;stroke:#555555;stroke-width:0.6;" x="292.868105" xlink:href="#md0f4fba66e" y="306.3786"/>
      </g>
     </g>
    </g>
    <g id="xtick_71">
     <g id="line2d_109">
      <g>
       <use style="fill:#555555;stroke:#555555;stroke-width:0.6;" x="297.574942" xlink:href="#md0f4fba66e" y="306.3786"/>
      </g>
     </g>
    </g>
    <g id="xtick_72">
     <g id="line2d_110">
      <g>
       <use style="fill:#555555;stroke:#555555;stroke-width:0.6;" x="301.726667" xlink:href="#md0f4fba66e" y="306.3786"/>
      </g>
     </g>
    </g>
    <g id="xtick_73">
     <g id="line2d_111">
      <g>
       <use style="fill:#555555;stroke:#555555;stroke-width:0.6;" x="329.8732" xlink:href="#md0f4fba66e" y="306.3786"/>
      </g>
     </g>
    </g>
    <g id="xtick_74">
     <g id="line2d_112">
      <g>
       <use style="fill:#555555;stroke:#555555;stroke-width:0.6;" x="344.165407" xlink:href="#md0f4fba66e" y="306.3786"/>
      </g>
     </g>
    </g>
    <g id="xtick_75">
     <g id="line2d_113">
      <g>
       <use style="fill:#555555;stroke:#555555;stroke-width:0.6;" x="354.30589" xlink:href="#md0f4fba66e" y="306.3786"/>
      </g>
     </g>
    </g>
    <g id="xtick_76">
     <g id="line2d_114">
      <g>
       <use style="fill:#555555;stroke:#555555;stroke-width:0.6;" x="362.171459" xlink:href="#md0f4fba66e" y="306.3786"/>
      </g>
     </g>
    </g>
    <g id="xtick_77">
     <g id="line2d_115">
      <g>
       <use style="fill:#555555;stroke:#555555;stroke-width:0.6;" x="368.598096" xlink:href="#md0f4fba66e" y="306.3786"/>
      </g>
     </g>
    </g>
    <g id="xtick_78">
     <g id="line2d_116">
      <g>
       <use style="fill:#555555;stroke:#555555;stroke-width:0.6;" x="374.031741" xlink:href="#md0f4fba66e" y="306.3786"/>
      </g>
     </g>
    </g>
    <g id="xtick_79">
     <g id="line2d_117">
      <g>
       <use style="fill:#555555;stroke:#555555;stroke-width:0.6;" x="378.738579" xlink:href="#md0f4fba66e" y="306.3786"/>
      </g>
     </g>
    </g>
    <g id="xtick_80">
     <g id="line2d_118">
      <g>
       <use style="fill:#555555;stroke:#555555;stroke-width:0.6;" x="382.890303" xlink:href="#md0f4fba66e" y="306.3786"/>
      </g>
     </g>
    </g>
    <g id="text_24">
     <!-- $\gamma$ -->
     <defs>
      <path d="M 23.296875 46.09375 
L 28.71875 12.3125 
L 54 54.6875 
L 63.53125 54.6875 
L 30.8125 0 
L 26.765625 -20.796875 
L 17.78125 -20.796875 
L 21.828125 0 
L 15.4375 40.828125 
Q 14.453125 46.96875 9.8125 46.96875 
L 7.421875 46.96875 
L 8.890625 54.6875 
L 12.3125 54.6875 
Q 21.921875 54.6875 23.296875 46.09375 
z
" id="DejaVuSans-Oblique-947"/>
     </defs>
     <g style="fill:#555555;" transform="translate(220.676875 336.150475)scale(0.12 -0.12)">
      <use transform="translate(0 0.3125)" xlink:href="#DejaVuSans-Oblique-947"/>
     </g>
    </g>
   </g>
   <g id="matplotlib.axis_4">
    <g id="ytick_6">
     <g id="line2d_119">
      <path clip-path="url(#pc37a152cac)" d="M 45.716875 300.244636 
L 402.836875 300.244636 
" style="fill:none;stroke:#ffffff;stroke-linecap:square;stroke-width:0.8;"/>
     </g>
     <g id="line2d_120">
      <g>
       <use style="fill:#555555;stroke:#555555;stroke-width:0.8;" x="45.716875" xlink:href="#m92f46c5804" y="300.244636"/>
      </g>
     </g>
     <g id="text_25">
      <!-- 0.0 -->
      <g style="fill:#555555;" transform="translate(22.81375 304.043855)scale(0.1 -0.1)">
       <use xlink:href="#DejaVuSans-48"/>
       <use x="63.623047" xlink:href="#DejaVuSans-46"/>
       <use x="95.410156" xlink:href="#DejaVuSans-48"/>
      </g>
     </g>
    </g>
    <g id="ytick_7">
     <g id="line2d_121">
      <path clip-path="url(#pc37a152cac)" d="M 45.716875 273.920618 
L 402.836875 273.920618 
" style="fill:none;stroke:#ffffff;stroke-linecap:square;stroke-width:0.8;"/>
     </g>
     <g id="line2d_122">
      <g>
       <use style="fill:#555555;stroke:#555555;stroke-width:0.8;" x="45.716875" xlink:href="#m92f46c5804" y="273.920618"/>
      </g>
     </g>
     <g id="text_26">
      <!-- 0.2 -->
      <g style="fill:#555555;" transform="translate(22.81375 277.719837)scale(0.1 -0.1)">
       <use xlink:href="#DejaVuSans-48"/>
       <use x="63.623047" xlink:href="#DejaVuSans-46"/>
       <use x="95.410156" xlink:href="#DejaVuSans-50"/>
      </g>
     </g>
    </g>
    <g id="ytick_8">
     <g id="line2d_123">
      <path clip-path="url(#pc37a152cac)" d="M 45.716875 247.5966 
L 402.836875 247.5966 
" style="fill:none;stroke:#ffffff;stroke-linecap:square;stroke-width:0.8;"/>
     </g>
     <g id="line2d_124">
      <g>
       <use style="fill:#555555;stroke:#555555;stroke-width:0.8;" x="45.716875" xlink:href="#m92f46c5804" y="247.5966"/>
      </g>
     </g>
     <g id="text_27">
      <!-- 0.4 -->
      <g style="fill:#555555;" transform="translate(22.81375 251.395819)scale(0.1 -0.1)">
       <use xlink:href="#DejaVuSans-48"/>
       <use x="63.623047" xlink:href="#DejaVuSans-46"/>
       <use x="95.410156" xlink:href="#DejaVuSans-52"/>
      </g>
     </g>
    </g>
    <g id="ytick_9">
     <g id="line2d_125">
      <path clip-path="url(#pc37a152cac)" d="M 45.716875 221.272582 
L 402.836875 221.272582 
" style="fill:none;stroke:#ffffff;stroke-linecap:square;stroke-width:0.8;"/>
     </g>
     <g id="line2d_126">
      <g>
       <use style="fill:#555555;stroke:#555555;stroke-width:0.8;" x="45.716875" xlink:href="#m92f46c5804" y="221.272582"/>
      </g>
     </g>
     <g id="text_28">
      <!-- 0.6 -->
      <g style="fill:#555555;" transform="translate(22.81375 225.071801)scale(0.1 -0.1)">
       <use xlink:href="#DejaVuSans-48"/>
       <use x="63.623047" xlink:href="#DejaVuSans-46"/>
       <use x="95.410156" xlink:href="#DejaVuSans-54"/>
      </g>
     </g>
    </g>
    <g id="ytick_10">
     <g id="line2d_127">
      <path clip-path="url(#pc37a152cac)" d="M 45.716875 194.948565 
L 402.836875 194.948565 
" style="fill:none;stroke:#ffffff;stroke-linecap:square;stroke-width:0.8;"/>
     </g>
     <g id="line2d_128">
      <g>
       <use style="fill:#555555;stroke:#555555;stroke-width:0.8;" x="45.716875" xlink:href="#m92f46c5804" y="194.948565"/>
      </g>
     </g>
     <g id="text_29">
      <!-- 0.8 -->
      <g style="fill:#555555;" transform="translate(22.81375 198.747783)scale(0.1 -0.1)">
       <use xlink:href="#DejaVuSans-48"/>
       <use x="63.623047" xlink:href="#DejaVuSans-46"/>
       <use x="95.410156" xlink:href="#DejaVuSans-56"/>
      </g>
     </g>
    </g>
    <g id="text_30">
     <!-- TPR -->
     <defs>
      <path d="M -0.296875 72.90625 
L 61.375 72.90625 
L 61.375 64.59375 
L 35.5 64.59375 
L 35.5 0 
L 25.59375 0 
L 25.59375 64.59375 
L -0.296875 64.59375 
z
" id="DejaVuSans-84"/>
      <path d="M 44.390625 34.1875 
Q 47.5625 33.109375 50.5625 29.59375 
Q 53.5625 26.078125 56.59375 19.921875 
L 66.609375 0 
L 56 0 
L 46.6875 18.703125 
Q 43.0625 26.03125 39.671875 28.421875 
Q 36.28125 30.8125 30.421875 30.8125 
L 19.671875 30.8125 
L 19.671875 0 
L 9.8125 0 
L 9.8125 72.90625 
L 32.078125 72.90625 
Q 44.578125 72.90625 50.734375 67.671875 
Q 56.890625 62.453125 56.890625 51.90625 
Q 56.890625 45.015625 53.6875 40.46875 
Q 50.484375 35.9375 44.390625 34.1875 
z
M 19.671875 64.796875 
L 19.671875 38.921875 
L 32.078125 38.921875 
Q 39.203125 38.921875 42.84375 42.21875 
Q 46.484375 45.515625 46.484375 51.90625 
Q 46.484375 58.296875 42.84375 61.546875 
Q 39.203125 64.796875 32.078125 64.796875 
z
" id="DejaVuSans-82"/>
     </defs>
     <g style="fill:#555555;" transform="translate(16.318125 257.350162)rotate(-90)scale(0.12 -0.12)">
      <use xlink:href="#DejaVuSans-84"/>
      <use x="61.083984" xlink:href="#DejaVuSans-80"/>
      <use x="121.386719" xlink:href="#DejaVuSans-82"/>
     </g>
    </g>
   </g>
   <g id="PolyCollection_7">
    <path clip-path="url(#pc37a152cac)" d="M 61.949602 232.396958 
L 61.949602 223.219225 
L 118.68055 225.074073 
L 143.113239 229.336832 
L 199.844186 227.623871 
L 224.276875 232.166279 
L 281.007822 246.014868 
L 305.440511 247.06889 
L 362.171459 256.122097 
L 386.604148 279.364547 
L 386.604148 293.143881 
L 386.604148 293.143881 
L 362.171459 263.328732 
L 305.440511 251.369894 
L 281.007822 248.824255 
L 224.276875 239.060279 
L 199.844186 237.203136 
L 143.113239 233.865581 
L 118.68055 229.883334 
L 61.949602 232.396958 
z
" style="fill:#e24a33;fill-opacity:0.2;"/>
   </g>
   <g id="PolyCollection_8">
    <path clip-path="url(#pc37a152cac)" d="M 61.949602 242.890138 
L 61.949602 230.08494 
L 118.68055 230.525603 
L 143.113239 232.634259 
L 199.844186 239.123021 
L 224.276875 242.135013 
L 281.007822 247.410363 
L 305.440511 250.121261 
L 362.171459 256.89944 
L 386.604148 281.480913 
L 386.604148 294.610565 
L 386.604148 294.610565 
L 362.171459 270.47125 
L 305.440511 258.498026 
L 281.007822 256.829696 
L 224.276875 247.021235 
L 199.844186 244.691192 
L 143.113239 243.916486 
L 118.68055 240.138598 
L 61.949602 242.890138 
z
" style="fill:#348abd;fill-opacity:0.2;"/>
   </g>
   <g id="PolyCollection_9">
    <path clip-path="url(#pc37a152cac)" d="M 61.949602 259.469046 
L 61.949602 193.417696 
L 118.68055 193.417696 
L 143.113239 193.417696 
L 199.844186 193.417696 
L 224.276875 193.417696 
L 281.007822 193.417696 
L 305.440511 194.453768 
L 362.171459 194.453768 
L 386.604148 249.154481 
L 386.604148 300.880418 
L 386.604148 300.880418 
L 362.171459 265.954133 
L 305.440511 265.954133 
L 281.007822 259.469046 
L 224.276875 259.469046 
L 199.844186 259.469046 
L 143.113239 259.469046 
L 118.68055 259.469046 
L 61.949602 259.469046 
z
" style="fill:#988ed5;fill-opacity:0.2;"/>
   </g>
   <g id="PolyCollection_10">
    <path clip-path="url(#pc37a152cac)" d="M 61.949602 237.507826 
L 61.949602 227.125718 
L 118.68055 228.362415 
L 143.113239 231.250528 
L 199.844186 235.231378 
L 224.276875 238.442853 
L 281.007822 246.648224 
L 305.440511 248.764102 
L 362.171459 257.258846 
L 386.604148 281.407445 
L 386.604148 293.515232 
L 386.604148 293.515232 
L 362.171459 267.66379 
L 305.440511 255.74689 
L 281.007822 253.931491 
L 224.276875 242.443544 
L 199.844186 239.688979 
L 143.113239 239.018865 
L 118.68055 234.724506 
L 61.949602 237.507826 
z
" style="fill:#777777;fill-opacity:0.2;"/>
   </g>
   <g id="PolyCollection_11">
    <path clip-path="url(#pc37a152cac)" d="M 61.949602 207.678581 
L 61.949602 191.080197 
L 118.68055 190.916782 
L 143.113239 197.255851 
L 199.844186 202.985005 
L 224.276875 213.246046 
L 281.007822 233.908698 
L 305.440511 235.730048 
L 362.171459 245.313145 
L 386.604148 280.935018 
L 386.604148 295.340247 
L 386.604148 295.340247 
L 362.171459 260.733264 
L 305.440511 247.589456 
L 281.007822 243.567431 
L 224.276875 230.239733 
L 199.844186 227.219264 
L 143.113239 213.3242 
L 118.68055 207.862989 
L 61.949602 207.678581 
z
" style="fill:#fbc15e;fill-opacity:0.2;"/>
   </g>
   <g id="PolyCollection_12">
    <path clip-path="url(#pc37a152cac)" d="M 61.949602 244.563014 
L 61.949602 233.234069 
L 118.68055 235.625425 
L 143.113239 237.03397 
L 199.844186 239.789856 
L 224.276875 242.747356 
L 281.007822 248.62345 
L 305.440511 250.773814 
L 362.171459 258.206712 
L 386.604148 280.957832 
L 386.604148 293.28854 
L 386.604148 293.28854 
L 362.171459 269.189424 
L 305.440511 257.316112 
L 281.007822 255.820733 
L 224.276875 245.199732 
L 199.844186 243.877307 
L 143.113239 245.400913 
L 118.68055 240.790057 
L 61.949602 244.563014 
z
" style="fill:#8eba42;fill-opacity:0.2;"/>
   </g>
   <g id="line2d_129">
    <path clip-path="url(#pc37a152cac)" d="M 61.949602 227.808091 
L 118.68055 227.478704 
L 143.113239 231.601207 
L 199.844186 232.413503 
L 224.276875 235.613281 
L 281.007822 247.419561 
L 305.440511 249.219392 
L 362.171459 259.725415 
L 386.604148 286.254213 
" style="fill:none;stroke:#e24a33;stroke-linecap:square;stroke-width:1.5;"/>
   </g>
   <g id="line2d_130">
    <path clip-path="url(#pc37a152cac)" d="M 61.949602 236.487539 
L 118.68055 235.332102 
L 143.113239 238.275374 
L 199.844186 241.907107 
L 224.276875 244.578124 
L 281.007822 252.12003 
L 305.440511 254.309644 
L 362.171459 263.685346 
L 386.604148 288.045739 
" style="fill:none;stroke:#348abd;stroke-linecap:square;stroke-width:1.5;"/>
   </g>
   <g id="line2d_131">
    <path clip-path="url(#pc37a152cac)" d="M 61.949602 226.443369 
L 118.68055 226.443369 
L 143.113239 226.443369 
L 199.844186 226.443369 
L 224.276875 226.443369 
L 281.007822 226.443369 
L 305.440511 230.203951 
L 362.171459 230.203951 
L 386.604148 275.017451 
" style="fill:none;stroke:#988ed5;stroke-linecap:square;stroke-width:1.5;"/>
   </g>
   <g id="line2d_132">
    <path clip-path="url(#pc37a152cac)" d="M 61.949602 232.316772 
L 118.68055 231.543458 
L 143.113239 235.134694 
L 199.844186 237.460179 
L 224.276875 240.443198 
L 281.007822 250.289858 
L 305.440511 252.255496 
L 362.171459 262.461319 
L 386.604148 287.461339 
" style="fill:none;stroke:#777777;stroke-linecap:square;stroke-width:1.5;"/>
   </g>
   <g id="line2d_133">
    <path clip-path="url(#pc37a152cac)" d="M 61.949602 199.379389 
L 118.68055 199.389886 
L 143.113239 205.290025 
L 199.844186 215.102134 
L 224.276875 221.742889 
L 281.007822 238.738063 
L 305.440511 241.659752 
L 362.171459 253.023205 
L 386.604148 288.137632 
" style="fill:none;stroke:#fbc15e;stroke-linecap:square;stroke-width:1.5;"/>
   </g>
   <g id="line2d_134">
    <path clip-path="url(#pc37a152cac)" d="M 61.949602 238.898543 
L 118.68055 238.207741 
L 143.113239 241.217442 
L 199.844186 241.833582 
L 224.276875 243.973544 
L 281.007822 252.222091 
L 305.440511 254.044963 
L 362.171459 263.698067 
L 386.604148 287.123186 
" style="fill:none;stroke:#8eba42;stroke-linecap:square;stroke-width:1.5;"/>
   </g>
   <g id="patch_9">
    <path d="M 45.716875 306.3786 
L 45.716875 185.4186 
" style="fill:none;stroke:#ffffff;stroke-linecap:square;stroke-linejoin:miter;"/>
   </g>
   <g id="patch_10">
    <path d="M 402.836875 306.3786 
L 402.836875 185.4186 
" style="fill:none;stroke:#ffffff;stroke-linecap:square;stroke-linejoin:miter;"/>
   </g>
   <g id="patch_11">
    <path d="M 45.716875 306.3786 
L 402.836875 306.3786 
" style="fill:none;stroke:#ffffff;stroke-linecap:square;stroke-linejoin:miter;"/>
   </g>
   <g id="patch_12">
    <path d="M 45.716875 185.4186 
L 402.836875 185.4186 
" style="fill:none;stroke:#ffffff;stroke-linecap:square;stroke-linejoin:miter;"/>
   </g>
  </g>
 </g>
 <defs>
  <clipPath id="p9455806866">
   <rect height="120.96" width="357.12" x="45.716875" y="40.2666"/>
  </clipPath>
  <clipPath id="pc37a152cac">
   <rect height="120.96" width="357.12" x="45.716875" y="185.4186"/>
  </clipPath>
 </defs>
</svg>
