<?xml version="1.0" encoding="utf-8" standalone="no"?>
<!DOCTYPE svg PUBLIC "-//W3C//DTD SVG 1.1//EN"
  "http://www.w3.org/Graphics/SVG/1.1/DTD/svg11.dtd">
<!-- Created with matplotlib (https://matplotlib.org/) -->
<svg height="318.491875pt" version="1.1" viewBox="0 0 618.51375 318.491875" width="618.51375pt" xmlns="http://www.w3.org/2000/svg" xmlns:xlink="http://www.w3.org/1999/xlink">
 <metadata>
  <rdf:RDF xmlns:cc="http://creativecommons.org/ns#" xmlns:dc="http://purl.org/dc/elements/1.1/" xmlns:rdf="http://www.w3.org/1999/02/22-rdf-syntax-ns#">
   <cc:Work>
    <dc:type rdf:resource="http://purl.org/dc/dcmitype/StillImage"/>
    <dc:date>2023-05-17T19:34:20.912279</dc:date>
    <dc:format>image/svg+xml</dc:format>
    <dc:creator>
     <cc:Agent>
      <dc:title>Matplotlib v3.3.4, https://matplotlib.org/</dc:title>
     </cc:Agent>
    </dc:creator>
   </cc:Work>
  </rdf:RDF>
 </metadata>
 <defs>
  <style type="text/css">*{stroke-linecap:butt;stroke-linejoin:round;}</style>
 </defs>
 <g id="figure_1">
  <g id="patch_1">
   <path d="M 0 318.491875 
L 618.51375 318.491875 
L 618.51375 0 
L 0 0 
z
" style="fill:#ffffff;"/>
  </g>
  <g id="axes_1">
   <g id="patch_2">
    <path d="M 53.31375 279 
L 611.31375 279 
L 611.31375 7.2 
L 53.31375 7.2 
z
" style="fill:#e5e5e5;"/>
   </g>
   <g id="matplotlib.axis_1">
    <g id="xtick_1">
     <g id="line2d_1">
      <path clip-path="url(#pe87c8b959d)" d="M 110.735514 279 
L 110.735514 7.2 
" style="fill:none;stroke:#ffffff;stroke-linecap:square;stroke-width:0.8;"/>
     </g>
     <g id="line2d_2">
      <defs>
       <path d="M 0 0 
L 0 3.5 
" id="m7ccf76db09" style="stroke:#555555;stroke-width:0.8;"/>
      </defs>
      <g>
       <use style="fill:#555555;stroke:#555555;stroke-width:0.8;" x="110.735514" xlink:href="#m7ccf76db09" y="279"/>
      </g>
     </g>
     <g id="text_1">
      <!-- 20 -->
      <g style="fill:#555555;" transform="translate(104.373014 293.598437)scale(0.1 -0.1)">
       <defs>
        <path d="M 19.1875 8.296875 
L 53.609375 8.296875 
L 53.609375 0 
L 7.328125 0 
L 7.328125 8.296875 
Q 12.9375 14.109375 22.625 23.890625 
Q 32.328125 33.6875 34.8125 36.53125 
Q 39.546875 41.84375 41.421875 45.53125 
Q 43.3125 49.21875 43.3125 52.78125 
Q 43.3125 58.59375 39.234375 62.25 
Q 35.15625 65.921875 28.609375 65.921875 
Q 23.96875 65.921875 18.8125 64.3125 
Q 13.671875 62.703125 7.8125 59.421875 
L 7.8125 69.390625 
Q 13.765625 71.78125 18.9375 73 
Q 24.125 74.21875 28.421875 74.21875 
Q 39.75 74.21875 46.484375 68.546875 
Q 53.21875 62.890625 53.21875 53.421875 
Q 53.21875 48.921875 51.53125 44.890625 
Q 49.859375 40.875 45.40625 35.40625 
Q 44.1875 33.984375 37.640625 27.21875 
Q 31.109375 20.453125 19.1875 8.296875 
z
" id="DejaVuSans-50"/>
        <path d="M 31.78125 66.40625 
Q 24.171875 66.40625 20.328125 58.90625 
Q 16.5 51.421875 16.5 36.375 
Q 16.5 21.390625 20.328125 13.890625 
Q 24.171875 6.390625 31.78125 6.390625 
Q 39.453125 6.390625 43.28125 13.890625 
Q 47.125 21.390625 47.125 36.375 
Q 47.125 51.421875 43.28125 58.90625 
Q 39.453125 66.40625 31.78125 66.40625 
z
M 31.78125 74.21875 
Q 44.046875 74.21875 50.515625 64.515625 
Q 56.984375 54.828125 56.984375 36.375 
Q 56.984375 17.96875 50.515625 8.265625 
Q 44.046875 -1.421875 31.78125 -1.421875 
Q 19.53125 -1.421875 13.0625 8.265625 
Q 6.59375 17.96875 6.59375 36.375 
Q 6.59375 54.828125 13.0625 64.515625 
Q 19.53125 74.21875 31.78125 74.21875 
z
" id="DejaVuSans-48"/>
       </defs>
       <use xlink:href="#DejaVuSans-50"/>
       <use x="63.623047" xlink:href="#DejaVuSans-48"/>
      </g>
     </g>
    </g>
    <g id="xtick_2">
     <g id="line2d_3">
      <path clip-path="url(#pe87c8b959d)" d="M 205.024125 279 
L 205.024125 7.2 
" style="fill:none;stroke:#ffffff;stroke-linecap:square;stroke-width:0.8;"/>
     </g>
     <g id="line2d_4">
      <g>
       <use style="fill:#555555;stroke:#555555;stroke-width:0.8;" x="205.024125" xlink:href="#m7ccf76db09" y="279"/>
      </g>
     </g>
     <g id="text_2">
      <!-- 30 -->
      <g style="fill:#555555;" transform="translate(198.661625 293.598437)scale(0.1 -0.1)">
       <defs>
        <path d="M 40.578125 39.3125 
Q 47.65625 37.796875 51.625 33 
Q 55.609375 28.21875 55.609375 21.1875 
Q 55.609375 10.40625 48.1875 4.484375 
Q 40.765625 -1.421875 27.09375 -1.421875 
Q 22.515625 -1.421875 17.65625 -0.515625 
Q 12.796875 0.390625 7.625 2.203125 
L 7.625 11.71875 
Q 11.71875 9.328125 16.59375 8.109375 
Q 21.484375 6.890625 26.8125 6.890625 
Q 36.078125 6.890625 40.9375 10.546875 
Q 45.796875 14.203125 45.796875 21.1875 
Q 45.796875 27.640625 41.28125 31.265625 
Q 36.765625 34.90625 28.71875 34.90625 
L 20.21875 34.90625 
L 20.21875 43.015625 
L 29.109375 43.015625 
Q 36.375 43.015625 40.234375 45.921875 
Q 44.09375 48.828125 44.09375 54.296875 
Q 44.09375 59.90625 40.109375 62.90625 
Q 36.140625 65.921875 28.71875 65.921875 
Q 24.65625 65.921875 20.015625 65.03125 
Q 15.375 64.15625 9.8125 62.3125 
L 9.8125 71.09375 
Q 15.4375 72.65625 20.34375 73.4375 
Q 25.25 74.21875 29.59375 74.21875 
Q 40.828125 74.21875 47.359375 69.109375 
Q 53.90625 64.015625 53.90625 55.328125 
Q 53.90625 49.265625 50.4375 45.09375 
Q 46.96875 40.921875 40.578125 39.3125 
z
" id="DejaVuSans-51"/>
       </defs>
       <use xlink:href="#DejaVuSans-51"/>
       <use x="63.623047" xlink:href="#DejaVuSans-48"/>
      </g>
     </g>
    </g>
    <g id="xtick_3">
     <g id="line2d_5">
      <path clip-path="url(#pe87c8b959d)" d="M 299.312736 279 
L 299.312736 7.2 
" style="fill:none;stroke:#ffffff;stroke-linecap:square;stroke-width:0.8;"/>
     </g>
     <g id="line2d_6">
      <g>
       <use style="fill:#555555;stroke:#555555;stroke-width:0.8;" x="299.312736" xlink:href="#m7ccf76db09" y="279"/>
      </g>
     </g>
     <g id="text_3">
      <!-- 40 -->
      <g style="fill:#555555;" transform="translate(292.950236 293.598437)scale(0.1 -0.1)">
       <defs>
        <path d="M 37.796875 64.3125 
L 12.890625 25.390625 
L 37.796875 25.390625 
z
M 35.203125 72.90625 
L 47.609375 72.90625 
L 47.609375 25.390625 
L 58.015625 25.390625 
L 58.015625 17.1875 
L 47.609375 17.1875 
L 47.609375 0 
L 37.796875 0 
L 37.796875 17.1875 
L 4.890625 17.1875 
L 4.890625 26.703125 
z
" id="DejaVuSans-52"/>
       </defs>
       <use xlink:href="#DejaVuSans-52"/>
       <use x="63.623047" xlink:href="#DejaVuSans-48"/>
      </g>
     </g>
    </g>
    <g id="xtick_4">
     <g id="line2d_7">
      <path clip-path="url(#pe87c8b959d)" d="M 393.601347 279 
L 393.601347 7.2 
" style="fill:none;stroke:#ffffff;stroke-linecap:square;stroke-width:0.8;"/>
     </g>
     <g id="line2d_8">
      <g>
       <use style="fill:#555555;stroke:#555555;stroke-width:0.8;" x="393.601347" xlink:href="#m7ccf76db09" y="279"/>
      </g>
     </g>
     <g id="text_4">
      <!-- 50 -->
      <g style="fill:#555555;" transform="translate(387.238847 293.598437)scale(0.1 -0.1)">
       <defs>
        <path d="M 10.796875 72.90625 
L 49.515625 72.90625 
L 49.515625 64.59375 
L 19.828125 64.59375 
L 19.828125 46.734375 
Q 21.96875 47.46875 24.109375 47.828125 
Q 26.265625 48.1875 28.421875 48.1875 
Q 40.625 48.1875 47.75 41.5 
Q 54.890625 34.8125 54.890625 23.390625 
Q 54.890625 11.625 47.5625 5.09375 
Q 40.234375 -1.421875 26.90625 -1.421875 
Q 22.3125 -1.421875 17.546875 -0.640625 
Q 12.796875 0.140625 7.71875 1.703125 
L 7.71875 11.625 
Q 12.109375 9.234375 16.796875 8.0625 
Q 21.484375 6.890625 26.703125 6.890625 
Q 35.15625 6.890625 40.078125 11.328125 
Q 45.015625 15.765625 45.015625 23.390625 
Q 45.015625 31 40.078125 35.4375 
Q 35.15625 39.890625 26.703125 39.890625 
Q 22.75 39.890625 18.8125 39.015625 
Q 14.890625 38.140625 10.796875 36.28125 
z
" id="DejaVuSans-53"/>
       </defs>
       <use xlink:href="#DejaVuSans-53"/>
       <use x="63.623047" xlink:href="#DejaVuSans-48"/>
      </g>
     </g>
    </g>
    <g id="xtick_5">
     <g id="line2d_9">
      <path clip-path="url(#pe87c8b959d)" d="M 487.889958 279 
L 487.889958 7.2 
" style="fill:none;stroke:#ffffff;stroke-linecap:square;stroke-width:0.8;"/>
     </g>
     <g id="line2d_10">
      <g>
       <use style="fill:#555555;stroke:#555555;stroke-width:0.8;" x="487.889958" xlink:href="#m7ccf76db09" y="279"/>
      </g>
     </g>
     <g id="text_5">
      <!-- 60 -->
      <g style="fill:#555555;" transform="translate(481.527458 293.598437)scale(0.1 -0.1)">
       <defs>
        <path d="M 33.015625 40.375 
Q 26.375 40.375 22.484375 35.828125 
Q 18.609375 31.296875 18.609375 23.390625 
Q 18.609375 15.53125 22.484375 10.953125 
Q 26.375 6.390625 33.015625 6.390625 
Q 39.65625 6.390625 43.53125 10.953125 
Q 47.40625 15.53125 47.40625 23.390625 
Q 47.40625 31.296875 43.53125 35.828125 
Q 39.65625 40.375 33.015625 40.375 
z
M 52.59375 71.296875 
L 52.59375 62.3125 
Q 48.875 64.0625 45.09375 64.984375 
Q 41.3125 65.921875 37.59375 65.921875 
Q 27.828125 65.921875 22.671875 59.328125 
Q 17.53125 52.734375 16.796875 39.40625 
Q 19.671875 43.65625 24.015625 45.921875 
Q 28.375 48.1875 33.59375 48.1875 
Q 44.578125 48.1875 50.953125 41.515625 
Q 57.328125 34.859375 57.328125 23.390625 
Q 57.328125 12.15625 50.6875 5.359375 
Q 44.046875 -1.421875 33.015625 -1.421875 
Q 20.359375 -1.421875 13.671875 8.265625 
Q 6.984375 17.96875 6.984375 36.375 
Q 6.984375 53.65625 15.1875 63.9375 
Q 23.390625 74.21875 37.203125 74.21875 
Q 40.921875 74.21875 44.703125 73.484375 
Q 48.484375 72.75 52.59375 71.296875 
z
" id="DejaVuSans-54"/>
       </defs>
       <use xlink:href="#DejaVuSans-54"/>
       <use x="63.623047" xlink:href="#DejaVuSans-48"/>
      </g>
     </g>
    </g>
    <g id="xtick_6">
     <g id="line2d_11">
      <path clip-path="url(#pe87c8b959d)" d="M 582.178569 279 
L 582.178569 7.2 
" style="fill:none;stroke:#ffffff;stroke-linecap:square;stroke-width:0.8;"/>
     </g>
     <g id="line2d_12">
      <g>
       <use style="fill:#555555;stroke:#555555;stroke-width:0.8;" x="582.178569" xlink:href="#m7ccf76db09" y="279"/>
      </g>
     </g>
     <g id="text_6">
      <!-- 70 -->
      <g style="fill:#555555;" transform="translate(575.816069 293.598437)scale(0.1 -0.1)">
       <defs>
        <path d="M 8.203125 72.90625 
L 55.078125 72.90625 
L 55.078125 68.703125 
L 28.609375 0 
L 18.3125 0 
L 43.21875 64.59375 
L 8.203125 64.59375 
z
" id="DejaVuSans-55"/>
       </defs>
       <use xlink:href="#DejaVuSans-55"/>
       <use x="63.623047" xlink:href="#DejaVuSans-48"/>
      </g>
     </g>
    </g>
    <g id="text_7">
     <!-- Age at enrollment -->
     <g style="fill:#555555;" transform="translate(278.34375 308.79625)scale(0.12 -0.12)">
      <defs>
       <path d="M 34.1875 63.1875 
L 20.796875 26.90625 
L 47.609375 26.90625 
z
M 28.609375 72.90625 
L 39.796875 72.90625 
L 67.578125 0 
L 57.328125 0 
L 50.6875 18.703125 
L 17.828125 18.703125 
L 11.1875 0 
L 0.78125 0 
z
" id="DejaVuSans-65"/>
       <path d="M 45.40625 27.984375 
Q 45.40625 37.75 41.375 43.109375 
Q 37.359375 48.484375 30.078125 48.484375 
Q 22.859375 48.484375 18.828125 43.109375 
Q 14.796875 37.75 14.796875 27.984375 
Q 14.796875 18.265625 18.828125 12.890625 
Q 22.859375 7.515625 30.078125 7.515625 
Q 37.359375 7.515625 41.375 12.890625 
Q 45.40625 18.265625 45.40625 27.984375 
z
M 54.390625 6.78125 
Q 54.390625 -7.171875 48.1875 -13.984375 
Q 42 -20.796875 29.203125 -20.796875 
Q 24.46875 -20.796875 20.265625 -20.09375 
Q 16.0625 -19.390625 12.109375 -17.921875 
L 12.109375 -9.1875 
Q 16.0625 -11.328125 19.921875 -12.34375 
Q 23.78125 -13.375 27.78125 -13.375 
Q 36.625 -13.375 41.015625 -8.765625 
Q 45.40625 -4.15625 45.40625 5.171875 
L 45.40625 9.625 
Q 42.625 4.78125 38.28125 2.390625 
Q 33.9375 0 27.875 0 
Q 17.828125 0 11.671875 7.65625 
Q 5.515625 15.328125 5.515625 27.984375 
Q 5.515625 40.671875 11.671875 48.328125 
Q 17.828125 56 27.875 56 
Q 33.9375 56 38.28125 53.609375 
Q 42.625 51.21875 45.40625 46.390625 
L 45.40625 54.6875 
L 54.390625 54.6875 
z
" id="DejaVuSans-103"/>
       <path d="M 56.203125 29.59375 
L 56.203125 25.203125 
L 14.890625 25.203125 
Q 15.484375 15.921875 20.484375 11.0625 
Q 25.484375 6.203125 34.421875 6.203125 
Q 39.59375 6.203125 44.453125 7.46875 
Q 49.3125 8.734375 54.109375 11.28125 
L 54.109375 2.78125 
Q 49.265625 0.734375 44.1875 -0.34375 
Q 39.109375 -1.421875 33.890625 -1.421875 
Q 20.796875 -1.421875 13.15625 6.1875 
Q 5.515625 13.8125 5.515625 26.8125 
Q 5.515625 40.234375 12.765625 48.109375 
Q 20.015625 56 32.328125 56 
Q 43.359375 56 49.78125 48.890625 
Q 56.203125 41.796875 56.203125 29.59375 
z
M 47.21875 32.234375 
Q 47.125 39.59375 43.09375 43.984375 
Q 39.0625 48.390625 32.421875 48.390625 
Q 24.90625 48.390625 20.390625 44.140625 
Q 15.875 39.890625 15.1875 32.171875 
z
" id="DejaVuSans-101"/>
       <path id="DejaVuSans-32"/>
       <path d="M 34.28125 27.484375 
Q 23.390625 27.484375 19.1875 25 
Q 14.984375 22.515625 14.984375 16.5 
Q 14.984375 11.71875 18.140625 8.90625 
Q 21.296875 6.109375 26.703125 6.109375 
Q 34.1875 6.109375 38.703125 11.40625 
Q 43.21875 16.703125 43.21875 25.484375 
L 43.21875 27.484375 
z
M 52.203125 31.203125 
L 52.203125 0 
L 43.21875 0 
L 43.21875 8.296875 
Q 40.140625 3.328125 35.546875 0.953125 
Q 30.953125 -1.421875 24.3125 -1.421875 
Q 15.921875 -1.421875 10.953125 3.296875 
Q 6 8.015625 6 15.921875 
Q 6 25.140625 12.171875 29.828125 
Q 18.359375 34.515625 30.609375 34.515625 
L 43.21875 34.515625 
L 43.21875 35.40625 
Q 43.21875 41.609375 39.140625 45 
Q 35.0625 48.390625 27.6875 48.390625 
Q 23 48.390625 18.546875 47.265625 
Q 14.109375 46.140625 10.015625 43.890625 
L 10.015625 52.203125 
Q 14.9375 54.109375 19.578125 55.046875 
Q 24.21875 56 28.609375 56 
Q 40.484375 56 46.34375 49.84375 
Q 52.203125 43.703125 52.203125 31.203125 
z
" id="DejaVuSans-97"/>
       <path d="M 18.3125 70.21875 
L 18.3125 54.6875 
L 36.8125 54.6875 
L 36.8125 47.703125 
L 18.3125 47.703125 
L 18.3125 18.015625 
Q 18.3125 11.328125 20.140625 9.421875 
Q 21.96875 7.515625 27.59375 7.515625 
L 36.8125 7.515625 
L 36.8125 0 
L 27.59375 0 
Q 17.1875 0 13.234375 3.875 
Q 9.28125 7.765625 9.28125 18.015625 
L 9.28125 47.703125 
L 2.6875 47.703125 
L 2.6875 54.6875 
L 9.28125 54.6875 
L 9.28125 70.21875 
z
" id="DejaVuSans-116"/>
       <path d="M 54.890625 33.015625 
L 54.890625 0 
L 45.90625 0 
L 45.90625 32.71875 
Q 45.90625 40.484375 42.875 44.328125 
Q 39.84375 48.1875 33.796875 48.1875 
Q 26.515625 48.1875 22.3125 43.546875 
Q 18.109375 38.921875 18.109375 30.90625 
L 18.109375 0 
L 9.078125 0 
L 9.078125 54.6875 
L 18.109375 54.6875 
L 18.109375 46.1875 
Q 21.34375 51.125 25.703125 53.5625 
Q 30.078125 56 35.796875 56 
Q 45.21875 56 50.046875 50.171875 
Q 54.890625 44.34375 54.890625 33.015625 
z
" id="DejaVuSans-110"/>
       <path d="M 41.109375 46.296875 
Q 39.59375 47.171875 37.8125 47.578125 
Q 36.03125 48 33.890625 48 
Q 26.265625 48 22.1875 43.046875 
Q 18.109375 38.09375 18.109375 28.8125 
L 18.109375 0 
L 9.078125 0 
L 9.078125 54.6875 
L 18.109375 54.6875 
L 18.109375 46.1875 
Q 20.953125 51.171875 25.484375 53.578125 
Q 30.03125 56 36.53125 56 
Q 37.453125 56 38.578125 55.875 
Q 39.703125 55.765625 41.0625 55.515625 
z
" id="DejaVuSans-114"/>
       <path d="M 30.609375 48.390625 
Q 23.390625 48.390625 19.1875 42.75 
Q 14.984375 37.109375 14.984375 27.296875 
Q 14.984375 17.484375 19.15625 11.84375 
Q 23.34375 6.203125 30.609375 6.203125 
Q 37.796875 6.203125 41.984375 11.859375 
Q 46.1875 17.53125 46.1875 27.296875 
Q 46.1875 37.015625 41.984375 42.703125 
Q 37.796875 48.390625 30.609375 48.390625 
z
M 30.609375 56 
Q 42.328125 56 49.015625 48.375 
Q 55.71875 40.765625 55.71875 27.296875 
Q 55.71875 13.875 49.015625 6.21875 
Q 42.328125 -1.421875 30.609375 -1.421875 
Q 18.84375 -1.421875 12.171875 6.21875 
Q 5.515625 13.875 5.515625 27.296875 
Q 5.515625 40.765625 12.171875 48.375 
Q 18.84375 56 30.609375 56 
z
" id="DejaVuSans-111"/>
       <path d="M 9.421875 75.984375 
L 18.40625 75.984375 
L 18.40625 0 
L 9.421875 0 
z
" id="DejaVuSans-108"/>
       <path d="M 52 44.1875 
Q 55.375 50.25 60.0625 53.125 
Q 64.75 56 71.09375 56 
Q 79.640625 56 84.28125 50.015625 
Q 88.921875 44.046875 88.921875 33.015625 
L 88.921875 0 
L 79.890625 0 
L 79.890625 32.71875 
Q 79.890625 40.578125 77.09375 44.375 
Q 74.3125 48.1875 68.609375 48.1875 
Q 61.625 48.1875 57.5625 43.546875 
Q 53.515625 38.921875 53.515625 30.90625 
L 53.515625 0 
L 44.484375 0 
L 44.484375 32.71875 
Q 44.484375 40.625 41.703125 44.40625 
Q 38.921875 48.1875 33.109375 48.1875 
Q 26.21875 48.1875 22.15625 43.53125 
Q 18.109375 38.875 18.109375 30.90625 
L 18.109375 0 
L 9.078125 0 
L 9.078125 54.6875 
L 18.109375 54.6875 
L 18.109375 46.1875 
Q 21.1875 51.21875 25.484375 53.609375 
Q 29.78125 56 35.6875 56 
Q 41.65625 56 45.828125 52.96875 
Q 50 49.953125 52 44.1875 
z
" id="DejaVuSans-109"/>
      </defs>
      <use xlink:href="#DejaVuSans-65"/>
      <use x="68.408203" xlink:href="#DejaVuSans-103"/>
      <use x="131.884766" xlink:href="#DejaVuSans-101"/>
      <use x="193.408203" xlink:href="#DejaVuSans-32"/>
      <use x="225.195312" xlink:href="#DejaVuSans-97"/>
      <use x="286.474609" xlink:href="#DejaVuSans-116"/>
      <use x="325.683594" xlink:href="#DejaVuSans-32"/>
      <use x="357.470703" xlink:href="#DejaVuSans-101"/>
      <use x="418.994141" xlink:href="#DejaVuSans-110"/>
      <use x="482.373047" xlink:href="#DejaVuSans-114"/>
      <use x="521.236328" xlink:href="#DejaVuSans-111"/>
      <use x="582.417969" xlink:href="#DejaVuSans-108"/>
      <use x="610.201172" xlink:href="#DejaVuSans-108"/>
      <use x="637.984375" xlink:href="#DejaVuSans-109"/>
      <use x="735.396484" xlink:href="#DejaVuSans-101"/>
      <use x="796.919922" xlink:href="#DejaVuSans-110"/>
      <use x="860.298828" xlink:href="#DejaVuSans-116"/>
     </g>
    </g>
   </g>
   <g id="matplotlib.axis_2">
    <g id="ytick_1">
     <g id="line2d_13">
      <path clip-path="url(#pe87c8b959d)" d="M 53.31375 219.532501 
L 611.31375 219.532501 
" style="fill:none;stroke:#ffffff;stroke-linecap:square;stroke-width:0.8;"/>
     </g>
     <g id="line2d_14">
      <defs>
       <path d="M 0 0 
L -3.5 0 
" id="mc98f686231" style="stroke:#555555;stroke-width:0.8;"/>
      </defs>
      <g>
       <use style="fill:#555555;stroke:#555555;stroke-width:0.8;" x="53.31375" xlink:href="#mc98f686231" y="219.532501"/>
      </g>
     </g>
     <g id="text_8">
      <!-- $\mathdefault{10^{-3}}$ -->
      <g style="fill:#555555;" transform="translate(22.81375 223.331719)scale(0.1 -0.1)">
       <defs>
        <path d="M 12.40625 8.296875 
L 28.515625 8.296875 
L 28.515625 63.921875 
L 10.984375 60.40625 
L 10.984375 69.390625 
L 28.421875 72.90625 
L 38.28125 72.90625 
L 38.28125 8.296875 
L 54.390625 8.296875 
L 54.390625 0 
L 12.40625 0 
z
" id="DejaVuSans-49"/>
        <path d="M 10.59375 35.5 
L 73.1875 35.5 
L 73.1875 27.203125 
L 10.59375 27.203125 
z
" id="DejaVuSans-8722"/>
       </defs>
       <use transform="translate(0 0.765625)" xlink:href="#DejaVuSans-49"/>
       <use transform="translate(63.623047 0.765625)" xlink:href="#DejaVuSans-48"/>
       <use transform="translate(128.203125 39.046875)scale(0.7)" xlink:href="#DejaVuSans-8722"/>
       <use transform="translate(186.855469 39.046875)scale(0.7)" xlink:href="#DejaVuSans-51"/>
      </g>
     </g>
    </g>
    <g id="ytick_2">
     <g id="line2d_15">
      <path clip-path="url(#pe87c8b959d)" d="M 53.31375 135.388195 
L 611.31375 135.388195 
" style="fill:none;stroke:#ffffff;stroke-linecap:square;stroke-width:0.8;"/>
     </g>
     <g id="line2d_16">
      <g>
       <use style="fill:#555555;stroke:#555555;stroke-width:0.8;" x="53.31375" xlink:href="#mc98f686231" y="135.388195"/>
      </g>
     </g>
     <g id="text_9">
      <!-- $\mathdefault{10^{-2}}$ -->
      <g style="fill:#555555;" transform="translate(22.81375 139.187414)scale(0.1 -0.1)">
       <use transform="translate(0 0.765625)" xlink:href="#DejaVuSans-49"/>
       <use transform="translate(63.623047 0.765625)" xlink:href="#DejaVuSans-48"/>
       <use transform="translate(128.203125 39.046875)scale(0.7)" xlink:href="#DejaVuSans-8722"/>
       <use transform="translate(186.855469 39.046875)scale(0.7)" xlink:href="#DejaVuSans-50"/>
      </g>
     </g>
    </g>
    <g id="ytick_3">
     <g id="line2d_17">
      <path clip-path="url(#pe87c8b959d)" d="M 53.31375 51.24389 
L 611.31375 51.24389 
" style="fill:none;stroke:#ffffff;stroke-linecap:square;stroke-width:0.8;"/>
     </g>
     <g id="line2d_18">
      <g>
       <use style="fill:#555555;stroke:#555555;stroke-width:0.8;" x="53.31375" xlink:href="#mc98f686231" y="51.24389"/>
      </g>
     </g>
     <g id="text_10">
      <!-- $\mathdefault{10^{-1}}$ -->
      <g style="fill:#555555;" transform="translate(22.81375 55.043109)scale(0.1 -0.1)">
       <use transform="translate(0 0.684375)" xlink:href="#DejaVuSans-49"/>
       <use transform="translate(63.623047 0.684375)" xlink:href="#DejaVuSans-48"/>
       <use transform="translate(128.203125 38.965625)scale(0.7)" xlink:href="#DejaVuSans-8722"/>
       <use transform="translate(186.855469 38.965625)scale(0.7)" xlink:href="#DejaVuSans-49"/>
      </g>
     </g>
    </g>
    <g id="ytick_4">
     <g id="line2d_19">
      <defs>
       <path d="M 0 0 
L -2 0 
" id="m39c5b4f2fe" style="stroke:#555555;stroke-width:0.6;"/>
      </defs>
      <g>
       <use style="fill:#555555;stroke:#555555;stroke-width:0.6;" x="53.31375" xlink:href="#m39c5b4f2fe" y="278.346846"/>
      </g>
     </g>
    </g>
    <g id="ytick_5">
     <g id="line2d_20">
      <g>
       <use style="fill:#555555;stroke:#555555;stroke-width:0.6;" x="53.31375" xlink:href="#m39c5b4f2fe" y="263.529769"/>
      </g>
     </g>
    </g>
    <g id="ytick_6">
     <g id="line2d_21">
      <g>
       <use style="fill:#555555;stroke:#555555;stroke-width:0.6;" x="53.31375" xlink:href="#m39c5b4f2fe" y="253.016886"/>
      </g>
     </g>
    </g>
    <g id="ytick_7">
     <g id="line2d_22">
      <g>
       <use style="fill:#555555;stroke:#555555;stroke-width:0.6;" x="53.31375" xlink:href="#m39c5b4f2fe" y="244.86246"/>
      </g>
     </g>
    </g>
    <g id="ytick_8">
     <g id="line2d_23">
      <g>
       <use style="fill:#555555;stroke:#555555;stroke-width:0.6;" x="53.31375" xlink:href="#m39c5b4f2fe" y="238.199809"/>
      </g>
     </g>
    </g>
    <g id="ytick_9">
     <g id="line2d_24">
      <g>
       <use style="fill:#555555;stroke:#555555;stroke-width:0.6;" x="53.31375" xlink:href="#m39c5b4f2fe" y="232.566618"/>
      </g>
     </g>
    </g>
    <g id="ytick_10">
     <g id="line2d_25">
      <g>
       <use style="fill:#555555;stroke:#555555;stroke-width:0.6;" x="53.31375" xlink:href="#m39c5b4f2fe" y="227.686926"/>
      </g>
     </g>
    </g>
    <g id="ytick_11">
     <g id="line2d_26">
      <g>
       <use style="fill:#555555;stroke:#555555;stroke-width:0.6;" x="53.31375" xlink:href="#m39c5b4f2fe" y="223.382733"/>
      </g>
     </g>
    </g>
    <g id="ytick_12">
     <g id="line2d_27">
      <g>
       <use style="fill:#555555;stroke:#555555;stroke-width:0.6;" x="53.31375" xlink:href="#m39c5b4f2fe" y="194.202541"/>
      </g>
     </g>
    </g>
    <g id="ytick_13">
     <g id="line2d_28">
      <g>
       <use style="fill:#555555;stroke:#555555;stroke-width:0.6;" x="53.31375" xlink:href="#m39c5b4f2fe" y="179.385464"/>
      </g>
     </g>
    </g>
    <g id="ytick_14">
     <g id="line2d_29">
      <g>
       <use style="fill:#555555;stroke:#555555;stroke-width:0.6;" x="53.31375" xlink:href="#m39c5b4f2fe" y="168.872581"/>
      </g>
     </g>
    </g>
    <g id="ytick_15">
     <g id="line2d_30">
      <g>
       <use style="fill:#555555;stroke:#555555;stroke-width:0.6;" x="53.31375" xlink:href="#m39c5b4f2fe" y="160.718155"/>
      </g>
     </g>
    </g>
    <g id="ytick_16">
     <g id="line2d_31">
      <g>
       <use style="fill:#555555;stroke:#555555;stroke-width:0.6;" x="53.31375" xlink:href="#m39c5b4f2fe" y="154.055504"/>
      </g>
     </g>
    </g>
    <g id="ytick_17">
     <g id="line2d_32">
      <g>
       <use style="fill:#555555;stroke:#555555;stroke-width:0.6;" x="53.31375" xlink:href="#m39c5b4f2fe" y="148.422313"/>
      </g>
     </g>
    </g>
    <g id="ytick_18">
     <g id="line2d_33">
      <g>
       <use style="fill:#555555;stroke:#555555;stroke-width:0.6;" x="53.31375" xlink:href="#m39c5b4f2fe" y="143.542621"/>
      </g>
     </g>
    </g>
    <g id="ytick_19">
     <g id="line2d_34">
      <g>
       <use style="fill:#555555;stroke:#555555;stroke-width:0.6;" x="53.31375" xlink:href="#m39c5b4f2fe" y="139.238427"/>
      </g>
     </g>
    </g>
    <g id="ytick_20">
     <g id="line2d_35">
      <g>
       <use style="fill:#555555;stroke:#555555;stroke-width:0.6;" x="53.31375" xlink:href="#m39c5b4f2fe" y="110.058235"/>
      </g>
     </g>
    </g>
    <g id="ytick_21">
     <g id="line2d_36">
      <g>
       <use style="fill:#555555;stroke:#555555;stroke-width:0.6;" x="53.31375" xlink:href="#m39c5b4f2fe" y="95.241159"/>
      </g>
     </g>
    </g>
    <g id="ytick_22">
     <g id="line2d_37">
      <g>
       <use style="fill:#555555;stroke:#555555;stroke-width:0.6;" x="53.31375" xlink:href="#m39c5b4f2fe" y="84.728275"/>
      </g>
     </g>
    </g>
    <g id="ytick_23">
     <g id="line2d_38">
      <g>
       <use style="fill:#555555;stroke:#555555;stroke-width:0.6;" x="53.31375" xlink:href="#m39c5b4f2fe" y="76.57385"/>
      </g>
     </g>
    </g>
    <g id="ytick_24">
     <g id="line2d_39">
      <g>
       <use style="fill:#555555;stroke:#555555;stroke-width:0.6;" x="53.31375" xlink:href="#m39c5b4f2fe" y="69.911199"/>
      </g>
     </g>
    </g>
    <g id="ytick_25">
     <g id="line2d_40">
      <g>
       <use style="fill:#555555;stroke:#555555;stroke-width:0.6;" x="53.31375" xlink:href="#m39c5b4f2fe" y="64.278008"/>
      </g>
     </g>
    </g>
    <g id="ytick_26">
     <g id="line2d_41">
      <g>
       <use style="fill:#555555;stroke:#555555;stroke-width:0.6;" x="53.31375" xlink:href="#m39c5b4f2fe" y="59.398315"/>
      </g>
     </g>
    </g>
    <g id="ytick_27">
     <g id="line2d_42">
      <g>
       <use style="fill:#555555;stroke:#555555;stroke-width:0.6;" x="53.31375" xlink:href="#m39c5b4f2fe" y="55.094122"/>
      </g>
     </g>
    </g>
    <g id="ytick_28">
     <g id="line2d_43">
      <g>
       <use style="fill:#555555;stroke:#555555;stroke-width:0.6;" x="53.31375" xlink:href="#m39c5b4f2fe" y="25.91393"/>
      </g>
     </g>
    </g>
    <g id="ytick_29">
     <g id="line2d_44">
      <g>
       <use style="fill:#555555;stroke:#555555;stroke-width:0.6;" x="53.31375" xlink:href="#m39c5b4f2fe" y="11.096853"/>
      </g>
     </g>
    </g>
    <g id="text_11">
     <!-- Density -->
     <g style="fill:#555555;" transform="translate(16.318125 165.910313)rotate(-90)scale(0.12 -0.12)">
      <defs>
       <path d="M 19.671875 64.796875 
L 19.671875 8.109375 
L 31.59375 8.109375 
Q 46.6875 8.109375 53.6875 14.9375 
Q 60.6875 21.78125 60.6875 36.53125 
Q 60.6875 51.171875 53.6875 57.984375 
Q 46.6875 64.796875 31.59375 64.796875 
z
M 9.8125 72.90625 
L 30.078125 72.90625 
Q 51.265625 72.90625 61.171875 64.09375 
Q 71.09375 55.28125 71.09375 36.53125 
Q 71.09375 17.671875 61.125 8.828125 
Q 51.171875 0 30.078125 0 
L 9.8125 0 
z
" id="DejaVuSans-68"/>
       <path d="M 44.28125 53.078125 
L 44.28125 44.578125 
Q 40.484375 46.53125 36.375 47.5 
Q 32.28125 48.484375 27.875 48.484375 
Q 21.1875 48.484375 17.84375 46.4375 
Q 14.5 44.390625 14.5 40.28125 
Q 14.5 37.15625 16.890625 35.375 
Q 19.28125 33.59375 26.515625 31.984375 
L 29.59375 31.296875 
Q 39.15625 29.25 43.1875 25.515625 
Q 47.21875 21.78125 47.21875 15.09375 
Q 47.21875 7.46875 41.1875 3.015625 
Q 35.15625 -1.421875 24.609375 -1.421875 
Q 20.21875 -1.421875 15.453125 -0.5625 
Q 10.6875 0.296875 5.421875 2 
L 5.421875 11.28125 
Q 10.40625 8.6875 15.234375 7.390625 
Q 20.0625 6.109375 24.8125 6.109375 
Q 31.15625 6.109375 34.5625 8.28125 
Q 37.984375 10.453125 37.984375 14.40625 
Q 37.984375 18.0625 35.515625 20.015625 
Q 33.0625 21.96875 24.703125 23.78125 
L 21.578125 24.515625 
Q 13.234375 26.265625 9.515625 29.90625 
Q 5.8125 33.546875 5.8125 39.890625 
Q 5.8125 47.609375 11.28125 51.796875 
Q 16.75 56 26.8125 56 
Q 31.78125 56 36.171875 55.265625 
Q 40.578125 54.546875 44.28125 53.078125 
z
" id="DejaVuSans-115"/>
       <path d="M 9.421875 54.6875 
L 18.40625 54.6875 
L 18.40625 0 
L 9.421875 0 
z
M 9.421875 75.984375 
L 18.40625 75.984375 
L 18.40625 64.59375 
L 9.421875 64.59375 
z
" id="DejaVuSans-105"/>
       <path d="M 32.171875 -5.078125 
Q 28.375 -14.84375 24.75 -17.8125 
Q 21.140625 -20.796875 15.09375 -20.796875 
L 7.90625 -20.796875 
L 7.90625 -13.28125 
L 13.1875 -13.28125 
Q 16.890625 -13.28125 18.9375 -11.515625 
Q 21 -9.765625 23.484375 -3.21875 
L 25.09375 0.875 
L 2.984375 54.6875 
L 12.5 54.6875 
L 29.59375 11.921875 
L 46.6875 54.6875 
L 56.203125 54.6875 
z
" id="DejaVuSans-121"/>
      </defs>
      <use xlink:href="#DejaVuSans-68"/>
      <use x="77.001953" xlink:href="#DejaVuSans-101"/>
      <use x="138.525391" xlink:href="#DejaVuSans-110"/>
      <use x="201.904297" xlink:href="#DejaVuSans-115"/>
      <use x="254.003906" xlink:href="#DejaVuSans-105"/>
      <use x="281.787109" xlink:href="#DejaVuSans-116"/>
      <use x="320.996094" xlink:href="#DejaVuSans-121"/>
     </g>
    </g>
   </g>
   <g id="patch_3">
    <path clip-path="url(#pe87c8b959d)" d="M 78.677386 84111.404961 
L 86.220475 84111.404961 
L 86.220475 226.498418 
L 78.677386 226.498418 
z
" style="fill:#348abd;fill-opacity:0.75;stroke:#eeeeee;stroke-linejoin:miter;stroke-width:0.5;"/>
   </g>
   <g id="patch_4">
    <path clip-path="url(#pe87c8b959d)" d="M 88.106247 84111.404961 
L 95.649336 84111.404961 
L 95.649336 29.286318 
L 88.106247 29.286318 
z
" style="fill:#348abd;fill-opacity:0.75;stroke:#eeeeee;stroke-linejoin:miter;stroke-width:0.5;"/>
   </g>
   <g id="patch_5">
    <path clip-path="url(#pe87c8b959d)" d="M 97.535109 84111.404961 
L 105.078197 84111.404961 
L 105.078197 36.259413 
L 97.535109 36.259413 
z
" style="fill:#348abd;fill-opacity:0.75;stroke:#eeeeee;stroke-linejoin:miter;stroke-width:0.5;"/>
   </g>
   <g id="patch_6">
    <path clip-path="url(#pe87c8b959d)" d="M 106.96397 84111.404961 
L 114.507059 84111.404961 
L 114.507059 55.172505 
L 106.96397 55.172505 
z
" style="fill:#348abd;fill-opacity:0.75;stroke:#eeeeee;stroke-linejoin:miter;stroke-width:0.5;"/>
   </g>
   <g id="patch_7">
    <path clip-path="url(#pe87c8b959d)" d="M 116.392831 84111.404961 
L 123.93592 84111.404961 
L 123.93592 81.410423 
L 116.392831 81.410423 
z
" style="fill:#348abd;fill-opacity:0.75;stroke:#eeeeee;stroke-linejoin:miter;stroke-width:0.5;"/>
   </g>
   <g id="patch_8">
    <path clip-path="url(#pe87c8b959d)" d="M 125.821692 84111.404961 
L 133.364781 84111.404961 
L 133.364781 106.970941 
L 125.821692 106.970941 
z
" style="fill:#348abd;fill-opacity:0.75;stroke:#eeeeee;stroke-linejoin:miter;stroke-width:0.5;"/>
   </g>
   <g id="patch_9">
    <path clip-path="url(#pe87c8b959d)" d="M 135.250553 84111.404961 
L 142.793642 84111.404961 
L 142.793642 129.198386 
L 135.250553 129.198386 
z
" style="fill:#348abd;fill-opacity:0.75;stroke:#eeeeee;stroke-linejoin:miter;stroke-width:0.5;"/>
   </g>
   <g id="patch_10">
    <path clip-path="url(#pe87c8b959d)" d="M 144.679414 84111.404961 
L 152.222503 84111.404961 
L 152.222503 127.537036 
L 144.679414 127.537036 
z
" style="fill:#348abd;fill-opacity:0.75;stroke:#eeeeee;stroke-linejoin:miter;stroke-width:0.5;"/>
   </g>
   <g id="patch_11">
    <path clip-path="url(#pe87c8b959d)" d="M 154.108275 84111.404961 
L 161.651364 84111.404961 
L 161.651364 149.016764 
L 154.108275 149.016764 
z
" style="fill:#348abd;fill-opacity:0.75;stroke:#eeeeee;stroke-linejoin:miter;stroke-width:0.5;"/>
   </g>
   <g id="patch_12">
    <path clip-path="url(#pe87c8b959d)" d="M 163.537136 84111.404961 
L 171.080225 84111.404961 
L 171.080225 152.063812 
L 163.537136 152.063812 
z
" style="fill:#348abd;fill-opacity:0.75;stroke:#eeeeee;stroke-linejoin:miter;stroke-width:0.5;"/>
   </g>
   <g id="patch_13">
    <path clip-path="url(#pe87c8b959d)" d="M 172.965997 84111.404961 
L 180.509086 84111.404961 
L 180.509086 150.508538 
L 172.965997 150.508538 
z
" style="fill:#348abd;fill-opacity:0.75;stroke:#eeeeee;stroke-linejoin:miter;stroke-width:0.5;"/>
   </g>
   <g id="patch_14">
    <path clip-path="url(#pe87c8b959d)" d="M 182.394858 84111.404961 
L 189.937947 84111.404961 
L 189.937947 155.38823 
L 182.394858 155.38823 
z
" style="fill:#348abd;fill-opacity:0.75;stroke:#eeeeee;stroke-linejoin:miter;stroke-width:0.5;"/>
   </g>
   <g id="patch_15">
    <path clip-path="url(#pe87c8b959d)" d="M 191.82372 84111.404961 
L 199.366808 84111.404961 
L 199.366808 165.325615 
L 191.82372 165.325615 
z
" style="fill:#348abd;fill-opacity:0.75;stroke:#eeeeee;stroke-linejoin:miter;stroke-width:0.5;"/>
   </g>
   <g id="patch_16">
    <path clip-path="url(#pe87c8b959d)" d="M 201.252581 84111.404961 
L 208.79567 84111.404961 
L 208.79567 172.913465 
L 201.252581 172.913465 
z
" style="fill:#348abd;fill-opacity:0.75;stroke:#eeeeee;stroke-linejoin:miter;stroke-width:0.5;"/>
   </g>
   <g id="patch_17">
    <path clip-path="url(#pe87c8b959d)" d="M 210.681442 84111.404961 
L 218.224531 84111.404961 
L 218.224531 175.838498 
L 210.681442 175.838498 
z
" style="fill:#348abd;fill-opacity:0.75;stroke:#eeeeee;stroke-linejoin:miter;stroke-width:0.5;"/>
   </g>
   <g id="patch_18">
    <path clip-path="url(#pe87c8b959d)" d="M 220.110303 84111.404961 
L 227.653392 84111.404961 
L 227.653392 152.063812 
L 220.110303 152.063812 
z
" style="fill:#348abd;fill-opacity:0.75;stroke:#eeeeee;stroke-linejoin:miter;stroke-width:0.5;"/>
   </g>
   <g id="patch_19">
    <path clip-path="url(#pe87c8b959d)" d="M 229.539164 84111.404961 
L 237.082253 84111.404961 
L 237.082253 163.110185 
L 229.539164 163.110185 
z
" style="fill:#348abd;fill-opacity:0.75;stroke:#eeeeee;stroke-linejoin:miter;stroke-width:0.5;"/>
   </g>
   <g id="patch_20">
    <path clip-path="url(#pe87c8b959d)" d="M 238.968025 84111.404961 
L 246.511114 84111.404961 
L 246.511114 159.045621 
L 238.968025 159.045621 
z
" style="fill:#348abd;fill-opacity:0.75;stroke:#eeeeee;stroke-linejoin:miter;stroke-width:0.5;"/>
   </g>
   <g id="patch_21">
    <path clip-path="url(#pe87c8b959d)" d="M 248.396886 84111.404961 
L 255.939975 84111.404961 
L 255.939975 167.684072 
L 248.396886 167.684072 
z
" style="fill:#348abd;fill-opacity:0.75;stroke:#eeeeee;stroke-linejoin:miter;stroke-width:0.5;"/>
   </g>
   <g id="patch_22">
    <path clip-path="url(#pe87c8b959d)" d="M 257.825747 84111.404961 
L 265.368836 84111.404961 
L 265.368836 179.01819 
L 257.825747 179.01819 
z
" style="fill:#348abd;fill-opacity:0.75;stroke:#eeeeee;stroke-linejoin:miter;stroke-width:0.5;"/>
   </g>
   <g id="patch_23">
    <path clip-path="url(#pe87c8b959d)" d="M 267.254608 84111.404961 
L 274.797697 84111.404961 
L 274.797697 170.205307 
L 267.254608 170.205307 
z
" style="fill:#348abd;fill-opacity:0.75;stroke:#eeeeee;stroke-linejoin:miter;stroke-width:0.5;"/>
   </g>
   <g id="patch_24">
    <path clip-path="url(#pe87c8b959d)" d="M 276.683469 84111.404961 
L 284.226558 84111.404961 
L 284.226558 201.168458 
L 276.683469 201.168458 
z
" style="fill:#348abd;fill-opacity:0.75;stroke:#eeeeee;stroke-linejoin:miter;stroke-width:0.5;"/>
   </g>
   <g id="patch_25">
    <path clip-path="url(#pe87c8b959d)" d="M 286.112331 84111.404961 
L 293.655419 84111.404961 
L 293.655419 167.684072 
L 286.112331 167.684072 
z
" style="fill:#348abd;fill-opacity:0.75;stroke:#eeeeee;stroke-linejoin:miter;stroke-width:0.5;"/>
   </g>
   <g id="patch_26">
    <path clip-path="url(#pe87c8b959d)" d="M 295.541192 84111.404961 
L 303.084281 84111.404961 
L 303.084281 201.168458 
L 295.541192 201.168458 
z
" style="fill:#348abd;fill-opacity:0.75;stroke:#eeeeee;stroke-linejoin:miter;stroke-width:0.5;"/>
   </g>
   <g id="patch_27">
    <path clip-path="url(#pe87c8b959d)" d="M 304.970053 84111.404961 
L 312.513142 84111.404961 
L 312.513142 167.684072 
L 304.970053 167.684072 
z
" style="fill:#348abd;fill-opacity:0.75;stroke:#eeeeee;stroke-linejoin:miter;stroke-width:0.5;"/>
   </g>
   <g id="patch_28">
    <path clip-path="url(#pe87c8b959d)" d="M 314.398914 84111.404961 
L 321.942003 84111.404961 
L 321.942003 215.985535 
L 314.398914 215.985535 
z
" style="fill:#348abd;fill-opacity:0.75;stroke:#eeeeee;stroke-linejoin:miter;stroke-width:0.5;"/>
   </g>
   <g id="patch_29">
    <path clip-path="url(#pe87c8b959d)" d="M 323.827775 84111.404961 
L 331.370864 84111.404961 
L 331.370864 179.01819 
L 323.827775 179.01819 
z
" style="fill:#348abd;fill-opacity:0.75;stroke:#eeeeee;stroke-linejoin:miter;stroke-width:0.5;"/>
   </g>
   <g id="patch_30">
    <path clip-path="url(#pe87c8b959d)" d="M 333.256636 84111.404961 
L 340.799725 84111.404961 
L 340.799725 186.351381 
L 333.256636 186.351381 
z
" style="fill:#348abd;fill-opacity:0.75;stroke:#eeeeee;stroke-linejoin:miter;stroke-width:0.5;"/>
   </g>
   <g id="patch_31">
    <path clip-path="url(#pe87c8b959d)" d="M 342.685497 84111.404961 
L 350.228586 84111.404961 
L 350.228586 207.831109 
L 342.685497 207.831109 
z
" style="fill:#348abd;fill-opacity:0.75;stroke:#eeeeee;stroke-linejoin:miter;stroke-width:0.5;"/>
   </g>
   <g id="patch_32">
    <path clip-path="url(#pe87c8b959d)" d="M 352.114358 84111.404961 
L 359.657447 84111.404961 
L 359.657447 201.168458 
L 352.114358 201.168458 
z
" style="fill:#348abd;fill-opacity:0.75;stroke:#eeeeee;stroke-linejoin:miter;stroke-width:0.5;"/>
   </g>
   <g id="patch_33">
    <path clip-path="url(#pe87c8b959d)" d="M 361.543219 84111.404961 
L 369.086308 84111.404961 
L 369.086308 207.831109 
L 361.543219 207.831109 
z
" style="fill:#348abd;fill-opacity:0.75;stroke:#eeeeee;stroke-linejoin:miter;stroke-width:0.5;"/>
   </g>
   <g id="patch_34">
    <path clip-path="url(#pe87c8b959d)" d="M 370.972081 84111.404961 
L 378.515169 84111.404961 
L 378.515169 266.645455 
L 370.972081 266.645455 
z
" style="fill:#348abd;fill-opacity:0.75;stroke:#eeeeee;stroke-linejoin:miter;stroke-width:0.5;"/>
   </g>
   <g id="patch_35">
    <path clip-path="url(#pe87c8b959d)" d="M 380.400942 84111.404961 
L 387.944031 84111.404961 
L 387.944031 207.831109 
L 380.400942 207.831109 
z
" style="fill:#348abd;fill-opacity:0.75;stroke:#eeeeee;stroke-linejoin:miter;stroke-width:0.5;"/>
   </g>
   <g id="patch_36">
    <path clip-path="url(#pe87c8b959d)" d="M 389.829803 84111.404961 
L 397.372892 84111.404961 
L 397.372892 207.831109 
L 389.829803 207.831109 
z
" style="fill:#348abd;fill-opacity:0.75;stroke:#eeeeee;stroke-linejoin:miter;stroke-width:0.5;"/>
   </g>
   <g id="patch_37">
    <path clip-path="url(#pe87c8b959d)" d="M 399.258664 84111.404961 
L 406.801753 84111.404961 
L 406.801753 241.315495 
L 399.258664 241.315495 
z
" style="fill:#348abd;fill-opacity:0.75;stroke:#eeeeee;stroke-linejoin:miter;stroke-width:0.5;"/>
   </g>
   <g id="patch_38">
    <path clip-path="url(#pe87c8b959d)" d="M 408.687525 84111.404961 
L 416.230614 84111.404961 
L 416.230614 215.985535 
L 408.687525 215.985535 
z
" style="fill:#348abd;fill-opacity:0.75;stroke:#eeeeee;stroke-linejoin:miter;stroke-width:0.5;"/>
   </g>
   <g id="patch_39">
    <path clip-path="url(#pe87c8b959d)" d="M 418.116386 84111.404961 
L 425.659475 84111.404961 
L 425.659475 226.498418 
L 418.116386 226.498418 
z
" style="fill:#348abd;fill-opacity:0.75;stroke:#eeeeee;stroke-linejoin:miter;stroke-width:0.5;"/>
   </g>
   <g id="patch_40">
    <path clip-path="url(#pe87c8b959d)" d="M 427.545247 84111.404961 
L 435.088336 84111.404961 
L 435.088336 241.315495 
L 427.545247 241.315495 
z
" style="fill:#348abd;fill-opacity:0.75;stroke:#eeeeee;stroke-linejoin:miter;stroke-width:0.5;"/>
   </g>
   <g id="patch_41">
    <path clip-path="url(#pe87c8b959d)" d="M 436.974108 84111.404961 
L 444.517197 84111.404961 
L 444.517197 241.315495 
L 436.974108 241.315495 
z
" style="fill:#348abd;fill-opacity:0.75;stroke:#eeeeee;stroke-linejoin:miter;stroke-width:0.5;"/>
   </g>
   <g id="patch_42">
    <path clip-path="url(#pe87c8b959d)" d="M 446.402969 84111.404961 
L 453.946058 84111.404961 
L 453.946058 84111.404961 
L 446.402969 84111.404961 
z
" style="fill:#348abd;fill-opacity:0.75;stroke:#eeeeee;stroke-linejoin:miter;stroke-width:0.5;"/>
   </g>
   <g id="patch_43">
    <path clip-path="url(#pe87c8b959d)" d="M 455.83183 84111.404961 
L 463.374919 84111.404961 
L 463.374919 266.645455 
L 455.83183 266.645455 
z
" style="fill:#348abd;fill-opacity:0.75;stroke:#eeeeee;stroke-linejoin:miter;stroke-width:0.5;"/>
   </g>
   <g id="patch_44">
    <path clip-path="url(#pe87c8b959d)" d="M 465.260692 84111.404961 
L 472.80378 84111.404961 
L 472.80378 266.645455 
L 465.260692 266.645455 
z
" style="fill:#348abd;fill-opacity:0.75;stroke:#eeeeee;stroke-linejoin:miter;stroke-width:0.5;"/>
   </g>
   <g id="patch_45">
    <path clip-path="url(#pe87c8b959d)" d="M 474.689553 84111.404961 
L 482.232642 84111.404961 
L 482.232642 266.645455 
L 474.689553 266.645455 
z
" style="fill:#348abd;fill-opacity:0.75;stroke:#eeeeee;stroke-linejoin:miter;stroke-width:0.5;"/>
   </g>
   <g id="patch_46">
    <path clip-path="url(#pe87c8b959d)" d="M 484.118414 84111.404961 
L 491.661503 84111.404961 
L 491.661503 241.315495 
L 484.118414 241.315495 
z
" style="fill:#348abd;fill-opacity:0.75;stroke:#eeeeee;stroke-linejoin:miter;stroke-width:0.5;"/>
   </g>
   <g id="patch_47">
    <path clip-path="url(#pe87c8b959d)" d="M 493.547275 84111.404961 
L 501.090364 84111.404961 
L 501.090364 84111.404961 
L 493.547275 84111.404961 
z
" style="fill:#348abd;fill-opacity:0.75;stroke:#eeeeee;stroke-linejoin:miter;stroke-width:0.5;"/>
   </g>
   <g id="patch_48">
    <path clip-path="url(#pe87c8b959d)" d="M 502.976136 84111.404961 
L 510.519225 84111.404961 
L 510.519225 266.645455 
L 502.976136 266.645455 
z
" style="fill:#348abd;fill-opacity:0.75;stroke:#eeeeee;stroke-linejoin:miter;stroke-width:0.5;"/>
   </g>
   <g id="patch_49">
    <path clip-path="url(#pe87c8b959d)" d="M 512.404997 84111.404961 
L 519.948086 84111.404961 
L 519.948086 84111.404961 
L 512.404997 84111.404961 
z
" style="fill:#348abd;fill-opacity:0.75;stroke:#eeeeee;stroke-linejoin:miter;stroke-width:0.5;"/>
   </g>
   <g id="patch_50">
    <path clip-path="url(#pe87c8b959d)" d="M 521.833858 84111.404961 
L 529.376947 84111.404961 
L 529.376947 84111.404961 
L 521.833858 84111.404961 
z
" style="fill:#348abd;fill-opacity:0.75;stroke:#eeeeee;stroke-linejoin:miter;stroke-width:0.5;"/>
   </g>
   <g id="patch_51">
    <path clip-path="url(#pe87c8b959d)" d="M 531.262719 84111.404961 
L 538.805808 84111.404961 
L 538.805808 84111.404961 
L 531.262719 84111.404961 
z
" style="fill:#348abd;fill-opacity:0.75;stroke:#eeeeee;stroke-linejoin:miter;stroke-width:0.5;"/>
   </g>
   <g id="patch_52">
    <path clip-path="url(#pe87c8b959d)" d="M 540.69158 84111.404961 
L 548.234669 84111.404961 
L 548.234669 84111.404961 
L 540.69158 84111.404961 
z
" style="fill:#348abd;fill-opacity:0.75;stroke:#eeeeee;stroke-linejoin:miter;stroke-width:0.5;"/>
   </g>
   <g id="patch_53">
    <path clip-path="url(#pe87c8b959d)" d="M 550.120441 84111.404961 
L 557.66353 84111.404961 
L 557.66353 84111.404961 
L 550.120441 84111.404961 
z
" style="fill:#348abd;fill-opacity:0.75;stroke:#eeeeee;stroke-linejoin:miter;stroke-width:0.5;"/>
   </g>
   <g id="patch_54">
    <path clip-path="url(#pe87c8b959d)" d="M 559.549303 84111.404961 
L 567.092391 84111.404961 
L 567.092391 84111.404961 
L 559.549303 84111.404961 
z
" style="fill:#348abd;fill-opacity:0.75;stroke:#eeeeee;stroke-linejoin:miter;stroke-width:0.5;"/>
   </g>
   <g id="patch_55">
    <path clip-path="url(#pe87c8b959d)" d="M 568.978164 84111.404961 
L 576.521253 84111.404961 
L 576.521253 84111.404961 
L 568.978164 84111.404961 
z
" style="fill:#348abd;fill-opacity:0.75;stroke:#eeeeee;stroke-linejoin:miter;stroke-width:0.5;"/>
   </g>
   <g id="patch_56">
    <path clip-path="url(#pe87c8b959d)" d="M 578.407025 84111.404961 
L 585.950114 84111.404961 
L 585.950114 84111.404961 
L 578.407025 84111.404961 
z
" style="fill:#348abd;fill-opacity:0.75;stroke:#eeeeee;stroke-linejoin:miter;stroke-width:0.5;"/>
   </g>
   <g id="patch_57">
    <path clip-path="url(#pe87c8b959d)" d="M 78.677386 226.498418 
L 86.220475 226.498418 
L 86.220475 226.498418 
L 78.677386 226.498418 
z
" style="fill:#e24a33;fill-opacity:0.75;stroke:#eeeeee;stroke-linejoin:miter;stroke-width:0.5;"/>
   </g>
   <g id="patch_58">
    <path clip-path="url(#pe87c8b959d)" d="M 88.106247 29.286318 
L 95.649336 29.286318 
L 95.649336 19.554545 
L 88.106247 19.554545 
z
" style="fill:#e24a33;fill-opacity:0.75;stroke:#eeeeee;stroke-linejoin:miter;stroke-width:0.5;"/>
   </g>
   <g id="patch_59">
    <path clip-path="url(#pe87c8b959d)" d="M 97.535109 36.259413 
L 105.078197 36.259413 
L 105.078197 24.531041 
L 97.535109 24.531041 
z
" style="fill:#e24a33;fill-opacity:0.75;stroke:#eeeeee;stroke-linejoin:miter;stroke-width:0.5;"/>
   </g>
   <g id="patch_60">
    <path clip-path="url(#pe87c8b959d)" d="M 106.96397 55.172505 
L 114.507059 55.172505 
L 114.507059 42.669075 
L 106.96397 42.669075 
z
" style="fill:#e24a33;fill-opacity:0.75;stroke:#eeeeee;stroke-linejoin:miter;stroke-width:0.5;"/>
   </g>
   <g id="patch_61">
    <path clip-path="url(#pe87c8b959d)" d="M 116.392831 81.410423 
L 123.93592 81.410423 
L 123.93592 64.581274 
L 116.392831 64.581274 
z
" style="fill:#e24a33;fill-opacity:0.75;stroke:#eeeeee;stroke-linejoin:miter;stroke-width:0.5;"/>
   </g>
   <g id="patch_62">
    <path clip-path="url(#pe87c8b959d)" d="M 125.821692 106.970941 
L 133.364781 106.970941 
L 133.364781 86.852587 
L 125.821692 86.852587 
z
" style="fill:#e24a33;fill-opacity:0.75;stroke:#eeeeee;stroke-linejoin:miter;stroke-width:0.5;"/>
   </g>
   <g id="patch_63">
    <path clip-path="url(#pe87c8b959d)" d="M 135.250553 129.198386 
L 142.793642 129.198386 
L 142.793642 104.728311 
L 135.250553 104.728311 
z
" style="fill:#e24a33;fill-opacity:0.75;stroke:#eeeeee;stroke-linejoin:miter;stroke-width:0.5;"/>
   </g>
   <g id="patch_64">
    <path clip-path="url(#pe87c8b959d)" d="M 144.679414 127.537036 
L 152.222503 127.537036 
L 152.222503 97.993225 
L 144.679414 97.993225 
z
" style="fill:#e24a33;fill-opacity:0.75;stroke:#eeeeee;stroke-linejoin:miter;stroke-width:0.5;"/>
   </g>
   <g id="patch_65">
    <path clip-path="url(#pe87c8b959d)" d="M 154.108275 149.016764 
L 161.651364 149.016764 
L 161.651364 110.361502 
L 154.108275 110.361502 
z
" style="fill:#e24a33;fill-opacity:0.75;stroke:#eeeeee;stroke-linejoin:miter;stroke-width:0.5;"/>
   </g>
   <g id="patch_66">
    <path clip-path="url(#pe87c8b959d)" d="M 163.537136 152.063812 
L 171.080225 152.063812 
L 171.080225 108.869727 
L 163.537136 108.869727 
z
" style="fill:#e24a33;fill-opacity:0.75;stroke:#eeeeee;stroke-linejoin:miter;stroke-width:0.5;"/>
   </g>
   <g id="patch_67">
    <path clip-path="url(#pe87c8b959d)" d="M 172.965997 150.508538 
L 180.509086 150.508538 
L 180.509086 106.970941 
L 172.965997 106.970941 
z
" style="fill:#e24a33;fill-opacity:0.75;stroke:#eeeeee;stroke-linejoin:miter;stroke-width:0.5;"/>
   </g>
   <g id="patch_68">
    <path clip-path="url(#pe87c8b959d)" d="M 182.394858 155.38823 
L 189.937947 155.38823 
L 189.937947 112.450265 
L 182.394858 112.450265 
z
" style="fill:#e24a33;fill-opacity:0.75;stroke:#eeeeee;stroke-linejoin:miter;stroke-width:0.5;"/>
   </g>
   <g id="patch_69">
    <path clip-path="url(#pe87c8b959d)" d="M 191.82372 165.325615 
L 199.366808 165.325615 
L 199.366808 116.420116 
L 191.82372 116.420116 
z
" style="fill:#e24a33;fill-opacity:0.75;stroke:#eeeeee;stroke-linejoin:miter;stroke-width:0.5;"/>
   </g>
   <g id="patch_70">
    <path clip-path="url(#pe87c8b959d)" d="M 201.252581 172.913465 
L 208.79567 172.913465 
L 208.79567 129.198386 
L 201.252581 129.198386 
z
" style="fill:#e24a33;fill-opacity:0.75;stroke:#eeeeee;stroke-linejoin:miter;stroke-width:0.5;"/>
   </g>
   <g id="patch_71">
    <path clip-path="url(#pe87c8b959d)" d="M 210.681442 175.838498 
L 218.224531 175.838498 
L 218.224531 125.178578 
L 210.681442 125.178578 
z
" style="fill:#e24a33;fill-opacity:0.75;stroke:#eeeeee;stroke-linejoin:miter;stroke-width:0.5;"/>
   </g>
   <g id="patch_72">
    <path clip-path="url(#pe87c8b959d)" d="M 220.110303 152.063812 
L 227.653392 152.063812 
L 227.653392 119.545387 
L 220.110303 119.545387 
z
" style="fill:#e24a33;fill-opacity:0.75;stroke:#eeeeee;stroke-linejoin:miter;stroke-width:0.5;"/>
   </g>
   <g id="patch_73">
    <path clip-path="url(#pe87c8b959d)" d="M 229.539164 163.110185 
L 237.082253 163.110185 
L 237.082253 134.69021 
L 229.539164 134.69021 
z
" style="fill:#e24a33;fill-opacity:0.75;stroke:#eeeeee;stroke-linejoin:miter;stroke-width:0.5;"/>
   </g>
   <g id="patch_74">
    <path clip-path="url(#pe87c8b959d)" d="M 238.968025 159.045621 
L 246.511114 159.045621 
L 246.511114 125.178578 
L 238.968025 125.178578 
z
" style="fill:#e24a33;fill-opacity:0.75;stroke:#eeeeee;stroke-linejoin:miter;stroke-width:0.5;"/>
   </g>
   <g id="patch_75">
    <path clip-path="url(#pe87c8b959d)" d="M 248.396886 167.684072 
L 255.939975 167.684072 
L 255.939975 128.358271 
L 248.396886 128.358271 
z
" style="fill:#e24a33;fill-opacity:0.75;stroke:#eeeeee;stroke-linejoin:miter;stroke-width:0.5;"/>
   </g>
   <g id="patch_76">
    <path clip-path="url(#pe87c8b959d)" d="M 257.825747 179.01819 
L 265.368836 179.01819 
L 265.368836 139.995655 
L 257.825747 139.995655 
z
" style="fill:#e24a33;fill-opacity:0.75;stroke:#eeeeee;stroke-linejoin:miter;stroke-width:0.5;"/>
   </g>
   <g id="patch_77">
    <path clip-path="url(#pe87c8b959d)" d="M 267.254608 170.205307 
L 274.797697 170.205307 
L 274.797697 134.69021 
L 267.254608 134.69021 
z
" style="fill:#e24a33;fill-opacity:0.75;stroke:#eeeeee;stroke-linejoin:miter;stroke-width:0.5;"/>
   </g>
   <g id="patch_78">
    <path clip-path="url(#pe87c8b959d)" d="M 276.683469 201.168458 
L 284.226558 201.168458 
L 284.226558 149.016764 
L 276.683469 149.016764 
z
" style="fill:#e24a33;fill-opacity:0.75;stroke:#eeeeee;stroke-linejoin:miter;stroke-width:0.5;"/>
   </g>
   <g id="patch_79">
    <path clip-path="url(#pe87c8b959d)" d="M 286.112331 167.684072 
L 293.655419 167.684072 
L 293.655419 138.871154 
L 286.112331 138.871154 
z
" style="fill:#e24a33;fill-opacity:0.75;stroke:#eeeeee;stroke-linejoin:miter;stroke-width:0.5;"/>
   </g>
   <g id="patch_80">
    <path clip-path="url(#pe87c8b959d)" d="M 295.541192 201.168458 
L 303.084281 201.168458 
L 303.084281 159.045621 
L 295.541192 159.045621 
z
" style="fill:#e24a33;fill-opacity:0.75;stroke:#eeeeee;stroke-linejoin:miter;stroke-width:0.5;"/>
   </g>
   <g id="patch_81">
    <path clip-path="url(#pe87c8b959d)" d="M 304.970053 167.684072 
L 312.513142 167.684072 
L 312.513142 147.583505 
L 304.970053 147.583505 
z
" style="fill:#e24a33;fill-opacity:0.75;stroke:#eeeeee;stroke-linejoin:miter;stroke-width:0.5;"/>
   </g>
   <g id="patch_82">
    <path clip-path="url(#pe87c8b959d)" d="M 314.398914 215.985535 
L 321.942003 215.985535 
L 321.942003 179.01819 
L 314.398914 179.01819 
z
" style="fill:#e24a33;fill-opacity:0.75;stroke:#eeeeee;stroke-linejoin:miter;stroke-width:0.5;"/>
   </g>
   <g id="patch_83">
    <path clip-path="url(#pe87c8b959d)" d="M 323.827775 179.01819 
L 331.370864 179.01819 
L 331.370864 153.688231 
L 323.827775 153.688231 
z
" style="fill:#e24a33;fill-opacity:0.75;stroke:#eeeeee;stroke-linejoin:miter;stroke-width:0.5;"/>
   </g>
   <g id="patch_84">
    <path clip-path="url(#pe87c8b959d)" d="M 333.256636 186.351381 
L 340.799725 186.351381 
L 340.799725 159.045621 
L 333.256636 159.045621 
z
" style="fill:#e24a33;fill-opacity:0.75;stroke:#eeeeee;stroke-linejoin:miter;stroke-width:0.5;"/>
   </g>
   <g id="patch_85">
    <path clip-path="url(#pe87c8b959d)" d="M 342.685497 207.831109 
L 350.228586 207.831109 
L 350.228586 161.021422 
L 342.685497 161.021422 
z
" style="fill:#e24a33;fill-opacity:0.75;stroke:#eeeeee;stroke-linejoin:miter;stroke-width:0.5;"/>
   </g>
   <g id="patch_86">
    <path clip-path="url(#pe87c8b959d)" d="M 352.114358 201.168458 
L 359.657447 201.168458 
L 359.657447 175.838498 
L 352.114358 175.838498 
z
" style="fill:#e24a33;fill-opacity:0.75;stroke:#eeeeee;stroke-linejoin:miter;stroke-width:0.5;"/>
   </g>
   <g id="patch_87">
    <path clip-path="url(#pe87c8b959d)" d="M 361.543219 207.831109 
L 369.086308 207.831109 
L 369.086308 165.325615 
L 361.543219 165.325615 
z
" style="fill:#e24a33;fill-opacity:0.75;stroke:#eeeeee;stroke-linejoin:miter;stroke-width:0.5;"/>
   </g>
   <g id="patch_88">
    <path clip-path="url(#pe87c8b959d)" d="M 370.972081 266.645455 
L 378.515169 266.645455 
L 378.515169 190.655575 
L 370.972081 190.655575 
z
" style="fill:#e24a33;fill-opacity:0.75;stroke:#eeeeee;stroke-linejoin:miter;stroke-width:0.5;"/>
   </g>
   <g id="patch_89">
    <path clip-path="url(#pe87c8b959d)" d="M 380.400942 207.831109 
L 387.944031 207.831109 
L 387.944031 175.838498 
L 380.400942 175.838498 
z
" style="fill:#e24a33;fill-opacity:0.75;stroke:#eeeeee;stroke-linejoin:miter;stroke-width:0.5;"/>
   </g>
   <g id="patch_90">
    <path clip-path="url(#pe87c8b959d)" d="M 389.829803 207.831109 
L 397.372892 207.831109 
L 397.372892 170.205307 
L 389.829803 170.205307 
z
" style="fill:#e24a33;fill-opacity:0.75;stroke:#eeeeee;stroke-linejoin:miter;stroke-width:0.5;"/>
   </g>
   <g id="patch_91">
    <path clip-path="url(#pe87c8b959d)" d="M 399.258664 241.315495 
L 406.801753 241.315495 
L 406.801753 195.535267 
L 399.258664 195.535267 
z
" style="fill:#e24a33;fill-opacity:0.75;stroke:#eeeeee;stroke-linejoin:miter;stroke-width:0.5;"/>
   </g>
   <g id="patch_92">
    <path clip-path="url(#pe87c8b959d)" d="M 408.687525 215.985535 
L 416.230614 215.985535 
L 416.230614 215.985535 
L 408.687525 215.985535 
z
" style="fill:#e24a33;fill-opacity:0.75;stroke:#eeeeee;stroke-linejoin:miter;stroke-width:0.5;"/>
   </g>
   <g id="patch_93">
    <path clip-path="url(#pe87c8b959d)" d="M 418.116386 226.498418 
L 425.659475 226.498418 
L 425.659475 201.168458 
L 418.116386 201.168458 
z
" style="fill:#e24a33;fill-opacity:0.75;stroke:#eeeeee;stroke-linejoin:miter;stroke-width:0.5;"/>
   </g>
   <g id="patch_94">
    <path clip-path="url(#pe87c8b959d)" d="M 427.545247 241.315495 
L 435.088336 241.315495 
L 435.088336 201.168458 
L 427.545247 201.168458 
z
" style="fill:#e24a33;fill-opacity:0.75;stroke:#eeeeee;stroke-linejoin:miter;stroke-width:0.5;"/>
   </g>
   <g id="patch_95">
    <path clip-path="url(#pe87c8b959d)" d="M 436.974108 241.315495 
L 444.517197 241.315495 
L 444.517197 207.831109 
L 436.974108 207.831109 
z
" style="fill:#e24a33;fill-opacity:0.75;stroke:#eeeeee;stroke-linejoin:miter;stroke-width:0.5;"/>
   </g>
   <g id="patch_96">
    <path clip-path="url(#pe87c8b959d)" d="M 446.402969 84111.404961 
L 453.946058 84111.404961 
L 453.946058 84111.404961 
L 446.402969 84111.404961 
z
" style="fill:#e24a33;fill-opacity:0.75;stroke:#eeeeee;stroke-linejoin:miter;stroke-width:0.5;"/>
   </g>
   <g id="patch_97">
    <path clip-path="url(#pe87c8b959d)" d="M 455.83183 266.645455 
L 463.374919 266.645455 
L 463.374919 241.315495 
L 455.83183 241.315495 
z
" style="fill:#e24a33;fill-opacity:0.75;stroke:#eeeeee;stroke-linejoin:miter;stroke-width:0.5;"/>
   </g>
   <g id="patch_98">
    <path clip-path="url(#pe87c8b959d)" d="M 465.260692 266.645455 
L 472.80378 266.645455 
L 472.80378 226.498418 
L 465.260692 226.498418 
z
" style="fill:#e24a33;fill-opacity:0.75;stroke:#eeeeee;stroke-linejoin:miter;stroke-width:0.5;"/>
   </g>
   <g id="patch_99">
    <path clip-path="url(#pe87c8b959d)" d="M 474.689553 266.645455 
L 482.232642 266.645455 
L 482.232642 226.498418 
L 474.689553 226.498418 
z
" style="fill:#e24a33;fill-opacity:0.75;stroke:#eeeeee;stroke-linejoin:miter;stroke-width:0.5;"/>
   </g>
   <g id="patch_100">
    <path clip-path="url(#pe87c8b959d)" d="M 484.118414 241.315495 
L 491.661503 241.315495 
L 491.661503 241.315495 
L 484.118414 241.315495 
z
" style="fill:#e24a33;fill-opacity:0.75;stroke:#eeeeee;stroke-linejoin:miter;stroke-width:0.5;"/>
   </g>
   <g id="patch_101">
    <path clip-path="url(#pe87c8b959d)" d="M 493.547275 84111.404961 
L 501.090364 84111.404961 
L 501.090364 266.645455 
L 493.547275 266.645455 
z
" style="fill:#e24a33;fill-opacity:0.75;stroke:#eeeeee;stroke-linejoin:miter;stroke-width:0.5;"/>
   </g>
   <g id="patch_102">
    <path clip-path="url(#pe87c8b959d)" d="M 502.976136 266.645455 
L 510.519225 266.645455 
L 510.519225 266.645455 
L 502.976136 266.645455 
z
" style="fill:#e24a33;fill-opacity:0.75;stroke:#eeeeee;stroke-linejoin:miter;stroke-width:0.5;"/>
   </g>
   <g id="patch_103">
    <path clip-path="url(#pe87c8b959d)" d="M 512.404997 84111.404961 
L 519.948086 84111.404961 
L 519.948086 84111.404961 
L 512.404997 84111.404961 
z
" style="fill:#e24a33;fill-opacity:0.75;stroke:#eeeeee;stroke-linejoin:miter;stroke-width:0.5;"/>
   </g>
   <g id="patch_104">
    <path clip-path="url(#pe87c8b959d)" d="M 521.833858 84111.404961 
L 529.376947 84111.404961 
L 529.376947 84111.404961 
L 521.833858 84111.404961 
z
" style="fill:#e24a33;fill-opacity:0.75;stroke:#eeeeee;stroke-linejoin:miter;stroke-width:0.5;"/>
   </g>
   <g id="patch_105">
    <path clip-path="url(#pe87c8b959d)" d="M 531.262719 84111.404961 
L 538.805808 84111.404961 
L 538.805808 84111.404961 
L 531.262719 84111.404961 
z
" style="fill:#e24a33;fill-opacity:0.75;stroke:#eeeeee;stroke-linejoin:miter;stroke-width:0.5;"/>
   </g>
   <g id="patch_106">
    <path clip-path="url(#pe87c8b959d)" d="M 540.69158 84111.404961 
L 548.234669 84111.404961 
L 548.234669 84111.404961 
L 540.69158 84111.404961 
z
" style="fill:#e24a33;fill-opacity:0.75;stroke:#eeeeee;stroke-linejoin:miter;stroke-width:0.5;"/>
   </g>
   <g id="patch_107">
    <path clip-path="url(#pe87c8b959d)" d="M 550.120441 84111.404961 
L 557.66353 84111.404961 
L 557.66353 84111.404961 
L 550.120441 84111.404961 
z
" style="fill:#e24a33;fill-opacity:0.75;stroke:#eeeeee;stroke-linejoin:miter;stroke-width:0.5;"/>
   </g>
   <g id="patch_108">
    <path clip-path="url(#pe87c8b959d)" d="M 559.549303 84111.404961 
L 567.092391 84111.404961 
L 567.092391 84111.404961 
L 559.549303 84111.404961 
z
" style="fill:#e24a33;fill-opacity:0.75;stroke:#eeeeee;stroke-linejoin:miter;stroke-width:0.5;"/>
   </g>
   <g id="patch_109">
    <path clip-path="url(#pe87c8b959d)" d="M 568.978164 84111.404961 
L 576.521253 84111.404961 
L 576.521253 84111.404961 
L 568.978164 84111.404961 
z
" style="fill:#e24a33;fill-opacity:0.75;stroke:#eeeeee;stroke-linejoin:miter;stroke-width:0.5;"/>
   </g>
   <g id="patch_110">
    <path clip-path="url(#pe87c8b959d)" d="M 578.407025 84111.404961 
L 585.950114 84111.404961 
L 585.950114 266.645455 
L 578.407025 266.645455 
z
" style="fill:#e24a33;fill-opacity:0.75;stroke:#eeeeee;stroke-linejoin:miter;stroke-width:0.5;"/>
   </g>
   <g id="patch_111">
    <path d="M 53.31375 279 
L 53.31375 7.2 
" style="fill:none;stroke:#ffffff;stroke-linecap:square;stroke-linejoin:miter;"/>
   </g>
   <g id="patch_112">
    <path d="M 611.31375 279 
L 611.31375 7.2 
" style="fill:none;stroke:#ffffff;stroke-linecap:square;stroke-linejoin:miter;"/>
   </g>
   <g id="patch_113">
    <path d="M 53.31375 279 
L 611.31375 279 
" style="fill:none;stroke:#ffffff;stroke-linecap:square;stroke-linejoin:miter;"/>
   </g>
   <g id="patch_114">
    <path d="M 53.31375 7.2 
L 611.31375 7.2 
" style="fill:none;stroke:#ffffff;stroke-linecap:square;stroke-linejoin:miter;"/>
   </g>
   <g id="legend_1">
    <g id="patch_115">
     <path d="M 512.041875 59.234375 
L 604.31375 59.234375 
Q 606.31375 59.234375 606.31375 57.234375 
L 606.31375 14.2 
Q 606.31375 12.2 604.31375 12.2 
L 512.041875 12.2 
Q 510.041875 12.2 510.041875 14.2 
L 510.041875 57.234375 
Q 510.041875 59.234375 512.041875 59.234375 
z
" style="fill:#e5e5e5;opacity:0.8;stroke:#cccccc;stroke-linejoin:miter;stroke-width:0.5;"/>
    </g>
    <g id="text_12">
     <!-- Enrollment status -->
     <g transform="translate(514.041875 23.798437)scale(0.1 -0.1)">
      <defs>
       <path d="M 9.8125 72.90625 
L 55.90625 72.90625 
L 55.90625 64.59375 
L 19.671875 64.59375 
L 19.671875 43.015625 
L 54.390625 43.015625 
L 54.390625 34.71875 
L 19.671875 34.71875 
L 19.671875 8.296875 
L 56.78125 8.296875 
L 56.78125 0 
L 9.8125 0 
z
" id="DejaVuSans-69"/>
       <path d="M 8.5 21.578125 
L 8.5 54.6875 
L 17.484375 54.6875 
L 17.484375 21.921875 
Q 17.484375 14.15625 20.5 10.265625 
Q 23.53125 6.390625 29.59375 6.390625 
Q 36.859375 6.390625 41.078125 11.03125 
Q 45.3125 15.671875 45.3125 23.6875 
L 45.3125 54.6875 
L 54.296875 54.6875 
L 54.296875 0 
L 45.3125 0 
L 45.3125 8.40625 
Q 42.046875 3.421875 37.71875 1 
Q 33.40625 -1.421875 27.6875 -1.421875 
Q 18.265625 -1.421875 13.375 4.4375 
Q 8.5 10.296875 8.5 21.578125 
z
M 31.109375 56 
z
" id="DejaVuSans-117"/>
      </defs>
      <use xlink:href="#DejaVuSans-69"/>
      <use x="63.183594" xlink:href="#DejaVuSans-110"/>
      <use x="126.5625" xlink:href="#DejaVuSans-114"/>
      <use x="165.425781" xlink:href="#DejaVuSans-111"/>
      <use x="226.607422" xlink:href="#DejaVuSans-108"/>
      <use x="254.390625" xlink:href="#DejaVuSans-108"/>
      <use x="282.173828" xlink:href="#DejaVuSans-109"/>
      <use x="379.585938" xlink:href="#DejaVuSans-101"/>
      <use x="441.109375" xlink:href="#DejaVuSans-110"/>
      <use x="504.488281" xlink:href="#DejaVuSans-116"/>
      <use x="543.697266" xlink:href="#DejaVuSans-32"/>
      <use x="575.484375" xlink:href="#DejaVuSans-115"/>
      <use x="627.583984" xlink:href="#DejaVuSans-116"/>
      <use x="666.792969" xlink:href="#DejaVuSans-97"/>
      <use x="728.072266" xlink:href="#DejaVuSans-116"/>
      <use x="767.28125" xlink:href="#DejaVuSans-117"/>
      <use x="830.660156" xlink:href="#DejaVuSans-115"/>
     </g>
    </g>
    <g id="patch_116">
     <path d="M 520.740312 38.476562 
L 540.740312 38.476562 
L 540.740312 31.476562 
L 520.740312 31.476562 
z
" style="fill:#e24a33;fill-opacity:0.75;stroke:#eeeeee;stroke-linejoin:miter;stroke-width:0.5;"/>
    </g>
    <g id="text_13">
     <!-- Dropout -->
     <g transform="translate(548.740312 38.476562)scale(0.1 -0.1)">
      <defs>
       <path d="M 18.109375 8.203125 
L 18.109375 -20.796875 
L 9.078125 -20.796875 
L 9.078125 54.6875 
L 18.109375 54.6875 
L 18.109375 46.390625 
Q 20.953125 51.265625 25.265625 53.625 
Q 29.59375 56 35.59375 56 
Q 45.5625 56 51.78125 48.09375 
Q 58.015625 40.1875 58.015625 27.296875 
Q 58.015625 14.40625 51.78125 6.484375 
Q 45.5625 -1.421875 35.59375 -1.421875 
Q 29.59375 -1.421875 25.265625 0.953125 
Q 20.953125 3.328125 18.109375 8.203125 
z
M 48.6875 27.296875 
Q 48.6875 37.203125 44.609375 42.84375 
Q 40.53125 48.484375 33.40625 48.484375 
Q 26.265625 48.484375 22.1875 42.84375 
Q 18.109375 37.203125 18.109375 27.296875 
Q 18.109375 17.390625 22.1875 11.75 
Q 26.265625 6.109375 33.40625 6.109375 
Q 40.53125 6.109375 44.609375 11.75 
Q 48.6875 17.390625 48.6875 27.296875 
z
" id="DejaVuSans-112"/>
      </defs>
      <use xlink:href="#DejaVuSans-68"/>
      <use x="77.001953" xlink:href="#DejaVuSans-114"/>
      <use x="115.865234" xlink:href="#DejaVuSans-111"/>
      <use x="177.046875" xlink:href="#DejaVuSans-112"/>
      <use x="240.523438" xlink:href="#DejaVuSans-111"/>
      <use x="301.705078" xlink:href="#DejaVuSans-117"/>
      <use x="365.083984" xlink:href="#DejaVuSans-116"/>
     </g>
    </g>
    <g id="patch_117">
     <path d="M 520.740312 53.154688 
L 540.740312 53.154688 
L 540.740312 46.154688 
L 520.740312 46.154688 
z
" style="fill:#348abd;fill-opacity:0.75;stroke:#eeeeee;stroke-linejoin:miter;stroke-width:0.5;"/>
    </g>
    <g id="text_14">
     <!-- Graduate -->
     <g transform="translate(548.740312 53.154688)scale(0.1 -0.1)">
      <defs>
       <path d="M 59.515625 10.40625 
L 59.515625 29.984375 
L 43.40625 29.984375 
L 43.40625 38.09375 
L 69.28125 38.09375 
L 69.28125 6.78125 
Q 63.578125 2.734375 56.6875 0.65625 
Q 49.8125 -1.421875 42 -1.421875 
Q 24.90625 -1.421875 15.25 8.5625 
Q 5.609375 18.5625 5.609375 36.375 
Q 5.609375 54.25 15.25 64.234375 
Q 24.90625 74.21875 42 74.21875 
Q 49.125 74.21875 55.546875 72.453125 
Q 61.96875 70.703125 67.390625 67.28125 
L 67.390625 56.78125 
Q 61.921875 61.421875 55.765625 63.765625 
Q 49.609375 66.109375 42.828125 66.109375 
Q 29.4375 66.109375 22.71875 58.640625 
Q 16.015625 51.171875 16.015625 36.375 
Q 16.015625 21.625 22.71875 14.15625 
Q 29.4375 6.6875 42.828125 6.6875 
Q 48.046875 6.6875 52.140625 7.59375 
Q 56.25 8.5 59.515625 10.40625 
z
" id="DejaVuSans-71"/>
       <path d="M 45.40625 46.390625 
L 45.40625 75.984375 
L 54.390625 75.984375 
L 54.390625 0 
L 45.40625 0 
L 45.40625 8.203125 
Q 42.578125 3.328125 38.25 0.953125 
Q 33.9375 -1.421875 27.875 -1.421875 
Q 17.96875 -1.421875 11.734375 6.484375 
Q 5.515625 14.40625 5.515625 27.296875 
Q 5.515625 40.1875 11.734375 48.09375 
Q 17.96875 56 27.875 56 
Q 33.9375 56 38.25 53.625 
Q 42.578125 51.265625 45.40625 46.390625 
z
M 14.796875 27.296875 
Q 14.796875 17.390625 18.875 11.75 
Q 22.953125 6.109375 30.078125 6.109375 
Q 37.203125 6.109375 41.296875 11.75 
Q 45.40625 17.390625 45.40625 27.296875 
Q 45.40625 37.203125 41.296875 42.84375 
Q 37.203125 48.484375 30.078125 48.484375 
Q 22.953125 48.484375 18.875 42.84375 
Q 14.796875 37.203125 14.796875 27.296875 
z
" id="DejaVuSans-100"/>
      </defs>
      <use xlink:href="#DejaVuSans-71"/>
      <use x="77.490234" xlink:href="#DejaVuSans-114"/>
      <use x="118.603516" xlink:href="#DejaVuSans-97"/>
      <use x="179.882812" xlink:href="#DejaVuSans-100"/>
      <use x="243.359375" xlink:href="#DejaVuSans-117"/>
      <use x="306.738281" xlink:href="#DejaVuSans-97"/>
      <use x="368.017578" xlink:href="#DejaVuSans-116"/>
      <use x="407.226562" xlink:href="#DejaVuSans-101"/>
     </g>
    </g>
   </g>
  </g>
 </g>
 <defs>
  <clipPath id="pe87c8b959d">
   <rect height="271.8" width="558" x="53.31375" y="7.2"/>
  </clipPath>
 </defs>
</svg>
