<?xml version="1.0" encoding="utf-8" standalone="no"?>
<!DOCTYPE svg PUBLIC "-//W3C//DTD SVG 1.1//EN"
  "http://www.w3.org/Graphics/SVG/1.1/DTD/svg11.dtd">
<svg xmlns:xlink="http://www.w3.org/1999/xlink" width="416.399375pt" height="329.745625pt" viewBox="0 0 416.399375 329.745625" xmlns="http://www.w3.org/2000/svg" version="1.1">
 <metadata>
  <rdf:RDF xmlns:dc="http://purl.org/dc/elements/1.1/" xmlns:cc="http://creativecommons.org/ns#" xmlns:rdf="http://www.w3.org/1999/02/22-rdf-syntax-ns#">
   <cc:Work>
    <dc:type rdf:resource="http://purl.org/dc/dcmitype/StillImage"/>
    <dc:date>2023-05-13T15:06:02.046474</dc:date>
    <dc:format>image/svg+xml</dc:format>
    <dc:creator>
     <cc:Agent>
      <dc:title>Matplotlib v3.5.1, https://matplotlib.org/</dc:title>
     </cc:Agent>
    </dc:creator>
   </cc:Work>
  </rdf:RDF>
 </metadata>
 <defs>
  <style type="text/css">*{stroke-linejoin: round; stroke-linecap: butt}</style>
 </defs>
 <g id="figure_1">
  <g id="patch_1">
   <path d="M 0 329.745625 
L 416.399375 329.745625 
L 416.399375 0 
L 0 0 
z
" style="fill: #ffffff"/>
  </g>
  <g id="axes_1">
   <g id="patch_2">
    <path d="M 52.079375 290.25375 
L 409.199375 290.25375 
L 409.199375 24.14175 
L 52.079375 24.14175 
z
" style="fill: #e5e5e5"/>
   </g>
   <g id="matplotlib.axis_1">
    <g id="xtick_1">
     <g id="line2d_1">
      <path d="M 88.829304 290.25375 
L 88.829304 24.14175 
" clip-path="url(#pb1d8a389ef)" style="fill: none; stroke: #ffffff; stroke-width: 0.8; stroke-linecap: square"/>
     </g>
     <g id="line2d_2">
      <defs>
       <path id="mb4272f5fa9" d="M 0 0 
L 0 3.5 
" style="stroke: #555555; stroke-width: 0.8"/>
      </defs>
      <g>
       <use xlink:href="#mb4272f5fa9" x="88.829304" y="290.25375" style="fill: #555555; stroke: #555555; stroke-width: 0.8"/>
      </g>
     </g>
     <g id="text_1">
      <!-- 20 -->
      <g style="fill: #555555" transform="translate(82.466804 304.852187)scale(0.1 -0.1)">
       <defs>
        <path id="DejaVuSans-32" d="M 1228 531 
L 3431 531 
L 3431 0 
L 469 0 
L 469 531 
Q 828 903 1448 1529 
Q 2069 2156 2228 2338 
Q 2531 2678 2651 2914 
Q 2772 3150 2772 3378 
Q 2772 3750 2511 3984 
Q 2250 4219 1831 4219 
Q 1534 4219 1204 4116 
Q 875 4013 500 3803 
L 500 4441 
Q 881 4594 1212 4672 
Q 1544 4750 1819 4750 
Q 2544 4750 2975 4387 
Q 3406 4025 3406 3419 
Q 3406 3131 3298 2873 
Q 3191 2616 2906 2266 
Q 2828 2175 2409 1742 
Q 1991 1309 1228 531 
z
" transform="scale(0.015625)"/>
        <path id="DejaVuSans-30" d="M 2034 4250 
Q 1547 4250 1301 3770 
Q 1056 3291 1056 2328 
Q 1056 1369 1301 889 
Q 1547 409 2034 409 
Q 2525 409 2770 889 
Q 3016 1369 3016 2328 
Q 3016 3291 2770 3770 
Q 2525 4250 2034 4250 
z
M 2034 4750 
Q 2819 4750 3233 4129 
Q 3647 3509 3647 2328 
Q 3647 1150 3233 529 
Q 2819 -91 2034 -91 
Q 1250 -91 836 529 
Q 422 1150 422 2328 
Q 422 3509 836 4129 
Q 1250 4750 2034 4750 
z
" transform="scale(0.015625)"/>
       </defs>
       <use xlink:href="#DejaVuSans-32"/>
       <use xlink:href="#DejaVuSans-30" x="63.623047"/>
      </g>
     </g>
    </g>
    <g id="xtick_2">
     <g id="line2d_3">
      <path d="M 149.174015 290.25375 
L 149.174015 24.14175 
" clip-path="url(#pb1d8a389ef)" style="fill: none; stroke: #ffffff; stroke-width: 0.8; stroke-linecap: square"/>
     </g>
     <g id="line2d_4">
      <g>
       <use xlink:href="#mb4272f5fa9" x="149.174015" y="290.25375" style="fill: #555555; stroke: #555555; stroke-width: 0.8"/>
      </g>
     </g>
     <g id="text_2">
      <!-- 30 -->
      <g style="fill: #555555" transform="translate(142.811515 304.852187)scale(0.1 -0.1)">
       <defs>
        <path id="DejaVuSans-33" d="M 2597 2516 
Q 3050 2419 3304 2112 
Q 3559 1806 3559 1356 
Q 3559 666 3084 287 
Q 2609 -91 1734 -91 
Q 1441 -91 1130 -33 
Q 819 25 488 141 
L 488 750 
Q 750 597 1062 519 
Q 1375 441 1716 441 
Q 2309 441 2620 675 
Q 2931 909 2931 1356 
Q 2931 1769 2642 2001 
Q 2353 2234 1838 2234 
L 1294 2234 
L 1294 2753 
L 1863 2753 
Q 2328 2753 2575 2939 
Q 2822 3125 2822 3475 
Q 2822 3834 2567 4026 
Q 2313 4219 1838 4219 
Q 1578 4219 1281 4162 
Q 984 4106 628 3988 
L 628 4550 
Q 988 4650 1302 4700 
Q 1616 4750 1894 4750 
Q 2613 4750 3031 4423 
Q 3450 4097 3450 3541 
Q 3450 3153 3228 2886 
Q 3006 2619 2597 2516 
z
" transform="scale(0.015625)"/>
       </defs>
       <use xlink:href="#DejaVuSans-33"/>
       <use xlink:href="#DejaVuSans-30" x="63.623047"/>
      </g>
     </g>
    </g>
    <g id="xtick_3">
     <g id="line2d_5">
      <path d="M 209.518726 290.25375 
L 209.518726 24.14175 
" clip-path="url(#pb1d8a389ef)" style="fill: none; stroke: #ffffff; stroke-width: 0.8; stroke-linecap: square"/>
     </g>
     <g id="line2d_6">
      <g>
       <use xlink:href="#mb4272f5fa9" x="209.518726" y="290.25375" style="fill: #555555; stroke: #555555; stroke-width: 0.8"/>
      </g>
     </g>
     <g id="text_3">
      <!-- 40 -->
      <g style="fill: #555555" transform="translate(203.156226 304.852187)scale(0.1 -0.1)">
       <defs>
        <path id="DejaVuSans-34" d="M 2419 4116 
L 825 1625 
L 2419 1625 
L 2419 4116 
z
M 2253 4666 
L 3047 4666 
L 3047 1625 
L 3713 1625 
L 3713 1100 
L 3047 1100 
L 3047 0 
L 2419 0 
L 2419 1100 
L 313 1100 
L 313 1709 
L 2253 4666 
z
" transform="scale(0.015625)"/>
       </defs>
       <use xlink:href="#DejaVuSans-34"/>
       <use xlink:href="#DejaVuSans-30" x="63.623047"/>
      </g>
     </g>
    </g>
    <g id="xtick_4">
     <g id="line2d_7">
      <path d="M 269.863437 290.25375 
L 269.863437 24.14175 
" clip-path="url(#pb1d8a389ef)" style="fill: none; stroke: #ffffff; stroke-width: 0.8; stroke-linecap: square"/>
     </g>
     <g id="line2d_8">
      <g>
       <use xlink:href="#mb4272f5fa9" x="269.863437" y="290.25375" style="fill: #555555; stroke: #555555; stroke-width: 0.8"/>
      </g>
     </g>
     <g id="text_4">
      <!-- 50 -->
      <g style="fill: #555555" transform="translate(263.500937 304.852187)scale(0.1 -0.1)">
       <defs>
        <path id="DejaVuSans-35" d="M 691 4666 
L 3169 4666 
L 3169 4134 
L 1269 4134 
L 1269 2991 
Q 1406 3038 1543 3061 
Q 1681 3084 1819 3084 
Q 2600 3084 3056 2656 
Q 3513 2228 3513 1497 
Q 3513 744 3044 326 
Q 2575 -91 1722 -91 
Q 1428 -91 1123 -41 
Q 819 9 494 109 
L 494 744 
Q 775 591 1075 516 
Q 1375 441 1709 441 
Q 2250 441 2565 725 
Q 2881 1009 2881 1497 
Q 2881 1984 2565 2268 
Q 2250 2553 1709 2553 
Q 1456 2553 1204 2497 
Q 953 2441 691 2322 
L 691 4666 
z
" transform="scale(0.015625)"/>
       </defs>
       <use xlink:href="#DejaVuSans-35"/>
       <use xlink:href="#DejaVuSans-30" x="63.623047"/>
      </g>
     </g>
    </g>
    <g id="xtick_5">
     <g id="line2d_9">
      <path d="M 330.208148 290.25375 
L 330.208148 24.14175 
" clip-path="url(#pb1d8a389ef)" style="fill: none; stroke: #ffffff; stroke-width: 0.8; stroke-linecap: square"/>
     </g>
     <g id="line2d_10">
      <g>
       <use xlink:href="#mb4272f5fa9" x="330.208148" y="290.25375" style="fill: #555555; stroke: #555555; stroke-width: 0.8"/>
      </g>
     </g>
     <g id="text_5">
      <!-- 60 -->
      <g style="fill: #555555" transform="translate(323.845648 304.852187)scale(0.1 -0.1)">
       <defs>
        <path id="DejaVuSans-36" d="M 2113 2584 
Q 1688 2584 1439 2293 
Q 1191 2003 1191 1497 
Q 1191 994 1439 701 
Q 1688 409 2113 409 
Q 2538 409 2786 701 
Q 3034 994 3034 1497 
Q 3034 2003 2786 2293 
Q 2538 2584 2113 2584 
z
M 3366 4563 
L 3366 3988 
Q 3128 4100 2886 4159 
Q 2644 4219 2406 4219 
Q 1781 4219 1451 3797 
Q 1122 3375 1075 2522 
Q 1259 2794 1537 2939 
Q 1816 3084 2150 3084 
Q 2853 3084 3261 2657 
Q 3669 2231 3669 1497 
Q 3669 778 3244 343 
Q 2819 -91 2113 -91 
Q 1303 -91 875 529 
Q 447 1150 447 2328 
Q 447 3434 972 4092 
Q 1497 4750 2381 4750 
Q 2619 4750 2861 4703 
Q 3103 4656 3366 4563 
z
" transform="scale(0.015625)"/>
       </defs>
       <use xlink:href="#DejaVuSans-36"/>
       <use xlink:href="#DejaVuSans-30" x="63.623047"/>
      </g>
     </g>
    </g>
    <g id="xtick_6">
     <g id="line2d_11">
      <path d="M 390.552859 290.25375 
L 390.552859 24.14175 
" clip-path="url(#pb1d8a389ef)" style="fill: none; stroke: #ffffff; stroke-width: 0.8; stroke-linecap: square"/>
     </g>
     <g id="line2d_12">
      <g>
       <use xlink:href="#mb4272f5fa9" x="390.552859" y="290.25375" style="fill: #555555; stroke: #555555; stroke-width: 0.8"/>
      </g>
     </g>
     <g id="text_6">
      <!-- 70 -->
      <g style="fill: #555555" transform="translate(384.190359 304.852187)scale(0.1 -0.1)">
       <defs>
        <path id="DejaVuSans-37" d="M 525 4666 
L 3525 4666 
L 3525 4397 
L 1831 0 
L 1172 0 
L 2766 4134 
L 525 4134 
L 525 4666 
z
" transform="scale(0.015625)"/>
       </defs>
       <use xlink:href="#DejaVuSans-37"/>
       <use xlink:href="#DejaVuSans-30" x="63.623047"/>
      </g>
     </g>
    </g>
    <g id="text_7">
     <!-- Age at enrollment -->
     <g style="fill: #555555" transform="translate(176.669375 320.05)scale(0.12 -0.12)">
      <defs>
       <path id="DejaVuSans-41" d="M 2188 4044 
L 1331 1722 
L 3047 1722 
L 2188 4044 
z
M 1831 4666 
L 2547 4666 
L 4325 0 
L 3669 0 
L 3244 1197 
L 1141 1197 
L 716 0 
L 50 0 
L 1831 4666 
z
" transform="scale(0.015625)"/>
       <path id="DejaVuSans-67" d="M 2906 1791 
Q 2906 2416 2648 2759 
Q 2391 3103 1925 3103 
Q 1463 3103 1205 2759 
Q 947 2416 947 1791 
Q 947 1169 1205 825 
Q 1463 481 1925 481 
Q 2391 481 2648 825 
Q 2906 1169 2906 1791 
z
M 3481 434 
Q 3481 -459 3084 -895 
Q 2688 -1331 1869 -1331 
Q 1566 -1331 1297 -1286 
Q 1028 -1241 775 -1147 
L 775 -588 
Q 1028 -725 1275 -790 
Q 1522 -856 1778 -856 
Q 2344 -856 2625 -561 
Q 2906 -266 2906 331 
L 2906 616 
Q 2728 306 2450 153 
Q 2172 0 1784 0 
Q 1141 0 747 490 
Q 353 981 353 1791 
Q 353 2603 747 3093 
Q 1141 3584 1784 3584 
Q 2172 3584 2450 3431 
Q 2728 3278 2906 2969 
L 2906 3500 
L 3481 3500 
L 3481 434 
z
" transform="scale(0.015625)"/>
       <path id="DejaVuSans-65" d="M 3597 1894 
L 3597 1613 
L 953 1613 
Q 991 1019 1311 708 
Q 1631 397 2203 397 
Q 2534 397 2845 478 
Q 3156 559 3463 722 
L 3463 178 
Q 3153 47 2828 -22 
Q 2503 -91 2169 -91 
Q 1331 -91 842 396 
Q 353 884 353 1716 
Q 353 2575 817 3079 
Q 1281 3584 2069 3584 
Q 2775 3584 3186 3129 
Q 3597 2675 3597 1894 
z
M 3022 2063 
Q 3016 2534 2758 2815 
Q 2500 3097 2075 3097 
Q 1594 3097 1305 2825 
Q 1016 2553 972 2059 
L 3022 2063 
z
" transform="scale(0.015625)"/>
       <path id="DejaVuSans-20" transform="scale(0.015625)"/>
       <path id="DejaVuSans-61" d="M 2194 1759 
Q 1497 1759 1228 1600 
Q 959 1441 959 1056 
Q 959 750 1161 570 
Q 1363 391 1709 391 
Q 2188 391 2477 730 
Q 2766 1069 2766 1631 
L 2766 1759 
L 2194 1759 
z
M 3341 1997 
L 3341 0 
L 2766 0 
L 2766 531 
Q 2569 213 2275 61 
Q 1981 -91 1556 -91 
Q 1019 -91 701 211 
Q 384 513 384 1019 
Q 384 1609 779 1909 
Q 1175 2209 1959 2209 
L 2766 2209 
L 2766 2266 
Q 2766 2663 2505 2880 
Q 2244 3097 1772 3097 
Q 1472 3097 1187 3025 
Q 903 2953 641 2809 
L 641 3341 
Q 956 3463 1253 3523 
Q 1550 3584 1831 3584 
Q 2591 3584 2966 3190 
Q 3341 2797 3341 1997 
z
" transform="scale(0.015625)"/>
       <path id="DejaVuSans-74" d="M 1172 4494 
L 1172 3500 
L 2356 3500 
L 2356 3053 
L 1172 3053 
L 1172 1153 
Q 1172 725 1289 603 
Q 1406 481 1766 481 
L 2356 481 
L 2356 0 
L 1766 0 
Q 1100 0 847 248 
Q 594 497 594 1153 
L 594 3053 
L 172 3053 
L 172 3500 
L 594 3500 
L 594 4494 
L 1172 4494 
z
" transform="scale(0.015625)"/>
       <path id="DejaVuSans-6e" d="M 3513 2113 
L 3513 0 
L 2938 0 
L 2938 2094 
Q 2938 2591 2744 2837 
Q 2550 3084 2163 3084 
Q 1697 3084 1428 2787 
Q 1159 2491 1159 1978 
L 1159 0 
L 581 0 
L 581 3500 
L 1159 3500 
L 1159 2956 
Q 1366 3272 1645 3428 
Q 1925 3584 2291 3584 
Q 2894 3584 3203 3211 
Q 3513 2838 3513 2113 
z
" transform="scale(0.015625)"/>
       <path id="DejaVuSans-72" d="M 2631 2963 
Q 2534 3019 2420 3045 
Q 2306 3072 2169 3072 
Q 1681 3072 1420 2755 
Q 1159 2438 1159 1844 
L 1159 0 
L 581 0 
L 581 3500 
L 1159 3500 
L 1159 2956 
Q 1341 3275 1631 3429 
Q 1922 3584 2338 3584 
Q 2397 3584 2469 3576 
Q 2541 3569 2628 3553 
L 2631 2963 
z
" transform="scale(0.015625)"/>
       <path id="DejaVuSans-6f" d="M 1959 3097 
Q 1497 3097 1228 2736 
Q 959 2375 959 1747 
Q 959 1119 1226 758 
Q 1494 397 1959 397 
Q 2419 397 2687 759 
Q 2956 1122 2956 1747 
Q 2956 2369 2687 2733 
Q 2419 3097 1959 3097 
z
M 1959 3584 
Q 2709 3584 3137 3096 
Q 3566 2609 3566 1747 
Q 3566 888 3137 398 
Q 2709 -91 1959 -91 
Q 1206 -91 779 398 
Q 353 888 353 1747 
Q 353 2609 779 3096 
Q 1206 3584 1959 3584 
z
" transform="scale(0.015625)"/>
       <path id="DejaVuSans-6c" d="M 603 4863 
L 1178 4863 
L 1178 0 
L 603 0 
L 603 4863 
z
" transform="scale(0.015625)"/>
       <path id="DejaVuSans-6d" d="M 3328 2828 
Q 3544 3216 3844 3400 
Q 4144 3584 4550 3584 
Q 5097 3584 5394 3201 
Q 5691 2819 5691 2113 
L 5691 0 
L 5113 0 
L 5113 2094 
Q 5113 2597 4934 2840 
Q 4756 3084 4391 3084 
Q 3944 3084 3684 2787 
Q 3425 2491 3425 1978 
L 3425 0 
L 2847 0 
L 2847 2094 
Q 2847 2600 2669 2842 
Q 2491 3084 2119 3084 
Q 1678 3084 1418 2786 
Q 1159 2488 1159 1978 
L 1159 0 
L 581 0 
L 581 3500 
L 1159 3500 
L 1159 2956 
Q 1356 3278 1631 3431 
Q 1906 3584 2284 3584 
Q 2666 3584 2933 3390 
Q 3200 3197 3328 2828 
z
" transform="scale(0.015625)"/>
      </defs>
      <use xlink:href="#DejaVuSans-41"/>
      <use xlink:href="#DejaVuSans-67" x="68.408203"/>
      <use xlink:href="#DejaVuSans-65" x="131.884766"/>
      <use xlink:href="#DejaVuSans-20" x="193.408203"/>
      <use xlink:href="#DejaVuSans-61" x="225.195312"/>
      <use xlink:href="#DejaVuSans-74" x="286.474609"/>
      <use xlink:href="#DejaVuSans-20" x="325.683594"/>
      <use xlink:href="#DejaVuSans-65" x="357.470703"/>
      <use xlink:href="#DejaVuSans-6e" x="418.994141"/>
      <use xlink:href="#DejaVuSans-72" x="482.373047"/>
      <use xlink:href="#DejaVuSans-6f" x="521.236328"/>
      <use xlink:href="#DejaVuSans-6c" x="582.417969"/>
      <use xlink:href="#DejaVuSans-6c" x="610.201172"/>
      <use xlink:href="#DejaVuSans-6d" x="637.984375"/>
      <use xlink:href="#DejaVuSans-65" x="735.396484"/>
      <use xlink:href="#DejaVuSans-6e" x="796.919922"/>
      <use xlink:href="#DejaVuSans-74" x="860.298828"/>
     </g>
    </g>
   </g>
   <g id="matplotlib.axis_2">
    <g id="ytick_1">
     <g id="line2d_13">
      <path d="M 52.079375 290.25375 
L 409.199375 290.25375 
" clip-path="url(#pb1d8a389ef)" style="fill: none; stroke: #ffffff; stroke-width: 0.8; stroke-linecap: square"/>
     </g>
     <g id="line2d_14">
      <defs>
       <path id="m54c5ca2ffc" d="M 0 0 
L -3.5 0 
" style="stroke: #555555; stroke-width: 0.8"/>
      </defs>
      <g>
       <use xlink:href="#m54c5ca2ffc" x="52.079375" y="290.25375" style="fill: #555555; stroke: #555555; stroke-width: 0.8"/>
      </g>
     </g>
     <g id="text_8">
      <!-- 0.00 -->
      <g style="fill: #555555" transform="translate(22.81375 294.052969)scale(0.1 -0.1)">
       <defs>
        <path id="DejaVuSans-2e" d="M 684 794 
L 1344 794 
L 1344 0 
L 684 0 
L 684 794 
z
" transform="scale(0.015625)"/>
       </defs>
       <use xlink:href="#DejaVuSans-30"/>
       <use xlink:href="#DejaVuSans-2e" x="63.623047"/>
       <use xlink:href="#DejaVuSans-30" x="95.410156"/>
       <use xlink:href="#DejaVuSans-30" x="159.033203"/>
      </g>
     </g>
    </g>
    <g id="ytick_2">
     <g id="line2d_15">
      <path d="M 52.079375 237.01375 
L 409.199375 237.01375 
" clip-path="url(#pb1d8a389ef)" style="fill: none; stroke: #ffffff; stroke-width: 0.8; stroke-linecap: square"/>
     </g>
     <g id="line2d_16">
      <g>
       <use xlink:href="#m54c5ca2ffc" x="52.079375" y="237.01375" style="fill: #555555; stroke: #555555; stroke-width: 0.8"/>
      </g>
     </g>
     <g id="text_9">
      <!-- 0.05 -->
      <g style="fill: #555555" transform="translate(22.81375 240.812969)scale(0.1 -0.1)">
       <use xlink:href="#DejaVuSans-30"/>
       <use xlink:href="#DejaVuSans-2e" x="63.623047"/>
       <use xlink:href="#DejaVuSans-30" x="95.410156"/>
       <use xlink:href="#DejaVuSans-35" x="159.033203"/>
      </g>
     </g>
    </g>
    <g id="ytick_3">
     <g id="line2d_17">
      <path d="M 52.079375 183.77375 
L 409.199375 183.77375 
" clip-path="url(#pb1d8a389ef)" style="fill: none; stroke: #ffffff; stroke-width: 0.8; stroke-linecap: square"/>
     </g>
     <g id="line2d_18">
      <g>
       <use xlink:href="#m54c5ca2ffc" x="52.079375" y="183.77375" style="fill: #555555; stroke: #555555; stroke-width: 0.8"/>
      </g>
     </g>
     <g id="text_10">
      <!-- 0.10 -->
      <g style="fill: #555555" transform="translate(22.81375 187.572969)scale(0.1 -0.1)">
       <defs>
        <path id="DejaVuSans-31" d="M 794 531 
L 1825 531 
L 1825 4091 
L 703 3866 
L 703 4441 
L 1819 4666 
L 2450 4666 
L 2450 531 
L 3481 531 
L 3481 0 
L 794 0 
L 794 531 
z
" transform="scale(0.015625)"/>
       </defs>
       <use xlink:href="#DejaVuSans-30"/>
       <use xlink:href="#DejaVuSans-2e" x="63.623047"/>
       <use xlink:href="#DejaVuSans-31" x="95.410156"/>
       <use xlink:href="#DejaVuSans-30" x="159.033203"/>
      </g>
     </g>
    </g>
    <g id="ytick_4">
     <g id="line2d_19">
      <path d="M 52.079375 130.53375 
L 409.199375 130.53375 
" clip-path="url(#pb1d8a389ef)" style="fill: none; stroke: #ffffff; stroke-width: 0.8; stroke-linecap: square"/>
     </g>
     <g id="line2d_20">
      <g>
       <use xlink:href="#m54c5ca2ffc" x="52.079375" y="130.53375" style="fill: #555555; stroke: #555555; stroke-width: 0.8"/>
      </g>
     </g>
     <g id="text_11">
      <!-- 0.15 -->
      <g style="fill: #555555" transform="translate(22.81375 134.332969)scale(0.1 -0.1)">
       <use xlink:href="#DejaVuSans-30"/>
       <use xlink:href="#DejaVuSans-2e" x="63.623047"/>
       <use xlink:href="#DejaVuSans-31" x="95.410156"/>
       <use xlink:href="#DejaVuSans-35" x="159.033203"/>
      </g>
     </g>
    </g>
    <g id="ytick_5">
     <g id="line2d_21">
      <path d="M 52.079375 77.29375 
L 409.199375 77.29375 
" clip-path="url(#pb1d8a389ef)" style="fill: none; stroke: #ffffff; stroke-width: 0.8; stroke-linecap: square"/>
     </g>
     <g id="line2d_22">
      <g>
       <use xlink:href="#m54c5ca2ffc" x="52.079375" y="77.29375" style="fill: #555555; stroke: #555555; stroke-width: 0.8"/>
      </g>
     </g>
     <g id="text_12">
      <!-- 0.20 -->
      <g style="fill: #555555" transform="translate(22.81375 81.092969)scale(0.1 -0.1)">
       <use xlink:href="#DejaVuSans-30"/>
       <use xlink:href="#DejaVuSans-2e" x="63.623047"/>
       <use xlink:href="#DejaVuSans-32" x="95.410156"/>
       <use xlink:href="#DejaVuSans-30" x="159.033203"/>
      </g>
     </g>
    </g>
    <g id="text_13">
     <!-- Density -->
     <g style="fill: #555555" transform="translate(16.318125 180.008062)rotate(-90)scale(0.12 -0.12)">
      <defs>
       <path id="DejaVuSans-44" d="M 1259 4147 
L 1259 519 
L 2022 519 
Q 2988 519 3436 956 
Q 3884 1394 3884 2338 
Q 3884 3275 3436 3711 
Q 2988 4147 2022 4147 
L 1259 4147 
z
M 628 4666 
L 1925 4666 
Q 3281 4666 3915 4102 
Q 4550 3538 4550 2338 
Q 4550 1131 3912 565 
Q 3275 0 1925 0 
L 628 0 
L 628 4666 
z
" transform="scale(0.015625)"/>
       <path id="DejaVuSans-73" d="M 2834 3397 
L 2834 2853 
Q 2591 2978 2328 3040 
Q 2066 3103 1784 3103 
Q 1356 3103 1142 2972 
Q 928 2841 928 2578 
Q 928 2378 1081 2264 
Q 1234 2150 1697 2047 
L 1894 2003 
Q 2506 1872 2764 1633 
Q 3022 1394 3022 966 
Q 3022 478 2636 193 
Q 2250 -91 1575 -91 
Q 1294 -91 989 -36 
Q 684 19 347 128 
L 347 722 
Q 666 556 975 473 
Q 1284 391 1588 391 
Q 1994 391 2212 530 
Q 2431 669 2431 922 
Q 2431 1156 2273 1281 
Q 2116 1406 1581 1522 
L 1381 1569 
Q 847 1681 609 1914 
Q 372 2147 372 2553 
Q 372 3047 722 3315 
Q 1072 3584 1716 3584 
Q 2034 3584 2315 3537 
Q 2597 3491 2834 3397 
z
" transform="scale(0.015625)"/>
       <path id="DejaVuSans-69" d="M 603 3500 
L 1178 3500 
L 1178 0 
L 603 0 
L 603 3500 
z
M 603 4863 
L 1178 4863 
L 1178 4134 
L 603 4134 
L 603 4863 
z
" transform="scale(0.015625)"/>
       <path id="DejaVuSans-79" d="M 2059 -325 
Q 1816 -950 1584 -1140 
Q 1353 -1331 966 -1331 
L 506 -1331 
L 506 -850 
L 844 -850 
Q 1081 -850 1212 -737 
Q 1344 -625 1503 -206 
L 1606 56 
L 191 3500 
L 800 3500 
L 1894 763 
L 2988 3500 
L 3597 3500 
L 2059 -325 
z
" transform="scale(0.015625)"/>
      </defs>
      <use xlink:href="#DejaVuSans-44"/>
      <use xlink:href="#DejaVuSans-65" x="77.001953"/>
      <use xlink:href="#DejaVuSans-6e" x="138.525391"/>
      <use xlink:href="#DejaVuSans-73" x="201.904297"/>
      <use xlink:href="#DejaVuSans-69" x="254.003906"/>
      <use xlink:href="#DejaVuSans-74" x="281.787109"/>
      <use xlink:href="#DejaVuSans-79" x="320.996094"/>
     </g>
    </g>
   </g>
   <g id="patch_3">
    <path d="M 68.312102 290.25375 
L 73.139679 290.25375 
L 73.139679 289.37375 
L 68.312102 289.37375 
z
" clip-path="url(#pb1d8a389ef)" style="fill: #348abd; fill-opacity: 0.75; stroke: #eeeeee; stroke-width: 0.482758; stroke-linejoin: miter"/>
   </g>
   <g id="patch_4">
    <path d="M 74.346573 290.25375 
L 79.17415 290.25375 
L 79.17415 96.067083 
L 74.346573 96.067083 
z
" clip-path="url(#pb1d8a389ef)" style="fill: #348abd; fill-opacity: 0.75; stroke: #eeeeee; stroke-width: 0.482758; stroke-linejoin: miter"/>
   </g>
   <g id="patch_5">
    <path d="M 80.381044 290.25375 
L 85.208621 290.25375 
L 85.208621 129.800417 
L 80.381044 129.800417 
z
" clip-path="url(#pb1d8a389ef)" style="fill: #348abd; fill-opacity: 0.75; stroke: #eeeeee; stroke-width: 0.482758; stroke-linejoin: miter"/>
   </g>
   <g id="patch_6">
    <path d="M 86.415516 290.25375 
L 91.243092 290.25375 
L 91.243092 194.627083 
L 86.415516 194.627083 
z
" clip-path="url(#pb1d8a389ef)" style="fill: #348abd; fill-opacity: 0.75; stroke: #eeeeee; stroke-width: 0.482758; stroke-linejoin: miter"/>
   </g>
   <g id="patch_7">
    <path d="M 92.449987 290.25375 
L 97.277564 290.25375 
L 97.277564 243.61375 
L 92.449987 243.61375 
z
" clip-path="url(#pb1d8a389ef)" style="fill: #348abd; fill-opacity: 0.75; stroke: #eeeeee; stroke-width: 0.482758; stroke-linejoin: miter"/>
   </g>
   <g id="patch_8">
    <path d="M 98.484458 290.25375 
L 103.312035 290.25375 
L 103.312035 267.080417 
L 98.484458 267.080417 
z
" clip-path="url(#pb1d8a389ef)" style="fill: #348abd; fill-opacity: 0.75; stroke: #eeeeee; stroke-width: 0.482758; stroke-linejoin: miter"/>
   </g>
   <g id="patch_9">
    <path d="M 104.518929 290.25375 
L 109.346506 290.25375 
L 109.346506 277.640417 
L 104.518929 277.640417 
z
" clip-path="url(#pb1d8a389ef)" style="fill: #348abd; fill-opacity: 0.75; stroke: #eeeeee; stroke-width: 0.482758; stroke-linejoin: miter"/>
   </g>
   <g id="patch_10">
    <path d="M 110.5534 290.25375 
L 115.380977 290.25375 
L 115.380977 277.05375 
L 110.5534 277.05375 
z
" clip-path="url(#pb1d8a389ef)" style="fill: #348abd; fill-opacity: 0.75; stroke: #eeeeee; stroke-width: 0.482758; stroke-linejoin: miter"/>
   </g>
   <g id="patch_11">
    <path d="M 116.587871 290.25375 
L 121.415448 290.25375 
L 121.415448 282.920417 
L 116.587871 282.920417 
z
" clip-path="url(#pb1d8a389ef)" style="fill: #348abd; fill-opacity: 0.75; stroke: #eeeeee; stroke-width: 0.482758; stroke-linejoin: miter"/>
   </g>
   <g id="patch_12">
    <path d="M 122.622342 290.25375 
L 127.449919 290.25375 
L 127.449919 283.507083 
L 122.622342 283.507083 
z
" clip-path="url(#pb1d8a389ef)" style="fill: #348abd; fill-opacity: 0.75; stroke: #eeeeee; stroke-width: 0.482758; stroke-linejoin: miter"/>
   </g>
   <g id="patch_13">
    <path d="M 128.656813 290.25375 
L 133.48439 290.25375 
L 133.48439 283.21375 
L 128.656813 283.21375 
z
" clip-path="url(#pb1d8a389ef)" style="fill: #348abd; fill-opacity: 0.75; stroke: #eeeeee; stroke-width: 0.482758; stroke-linejoin: miter"/>
   </g>
   <g id="patch_14">
    <path d="M 134.691284 290.25375 
L 139.518861 290.25375 
L 139.518861 284.09375 
L 134.691284 284.09375 
z
" clip-path="url(#pb1d8a389ef)" style="fill: #348abd; fill-opacity: 0.75; stroke: #eeeeee; stroke-width: 0.482758; stroke-linejoin: miter"/>
   </g>
   <g id="patch_15">
    <path d="M 140.725756 290.25375 
L 145.553332 290.25375 
L 145.553332 285.560417 
L 140.725756 285.560417 
z
" clip-path="url(#pb1d8a389ef)" style="fill: #348abd; fill-opacity: 0.75; stroke: #eeeeee; stroke-width: 0.482758; stroke-linejoin: miter"/>
   </g>
   <g id="patch_16">
    <path d="M 146.760227 290.25375 
L 151.587804 290.25375 
L 151.587804 286.440417 
L 146.760227 286.440417 
z
" clip-path="url(#pb1d8a389ef)" style="fill: #348abd; fill-opacity: 0.75; stroke: #eeeeee; stroke-width: 0.482758; stroke-linejoin: miter"/>
   </g>
   <g id="patch_17">
    <path d="M 152.794698 290.25375 
L 157.622275 290.25375 
L 157.622275 286.73375 
L 152.794698 286.73375 
z
" clip-path="url(#pb1d8a389ef)" style="fill: #348abd; fill-opacity: 0.75; stroke: #eeeeee; stroke-width: 0.482758; stroke-linejoin: miter"/>
   </g>
   <g id="patch_18">
    <path d="M 158.829169 290.25375 
L 163.656746 290.25375 
L 163.656746 283.507083 
L 158.829169 283.507083 
z
" clip-path="url(#pb1d8a389ef)" style="fill: #348abd; fill-opacity: 0.75; stroke: #eeeeee; stroke-width: 0.482758; stroke-linejoin: miter"/>
   </g>
   <g id="patch_19">
    <path d="M 164.86364 290.25375 
L 169.691217 290.25375 
L 169.691217 285.267083 
L 164.86364 285.267083 
z
" clip-path="url(#pb1d8a389ef)" style="fill: #348abd; fill-opacity: 0.75; stroke: #eeeeee; stroke-width: 0.482758; stroke-linejoin: miter"/>
   </g>
   <g id="patch_20">
    <path d="M 170.898111 290.25375 
L 175.725688 290.25375 
L 175.725688 284.680417 
L 170.898111 284.680417 
z
" clip-path="url(#pb1d8a389ef)" style="fill: #348abd; fill-opacity: 0.75; stroke: #eeeeee; stroke-width: 0.482758; stroke-linejoin: miter"/>
   </g>
   <g id="patch_21">
    <path d="M 176.932582 290.25375 
L 181.760159 290.25375 
L 181.760159 285.85375 
L 176.932582 285.85375 
z
" clip-path="url(#pb1d8a389ef)" style="fill: #348abd; fill-opacity: 0.75; stroke: #eeeeee; stroke-width: 0.482758; stroke-linejoin: miter"/>
   </g>
   <g id="patch_22">
    <path d="M 182.967053 290.25375 
L 187.79463 290.25375 
L 187.79463 287.027083 
L 182.967053 287.027083 
z
" clip-path="url(#pb1d8a389ef)" style="fill: #348abd; fill-opacity: 0.75; stroke: #eeeeee; stroke-width: 0.482758; stroke-linejoin: miter"/>
   </g>
   <g id="patch_23">
    <path d="M 189.001524 290.25375 
L 193.829101 290.25375 
L 193.829101 286.147083 
L 189.001524 286.147083 
z
" clip-path="url(#pb1d8a389ef)" style="fill: #348abd; fill-opacity: 0.75; stroke: #eeeeee; stroke-width: 0.482758; stroke-linejoin: miter"/>
   </g>
   <g id="patch_24">
    <path d="M 195.035995 290.25375 
L 199.863572 290.25375 
L 199.863572 288.49375 
L 195.035995 288.49375 
z
" clip-path="url(#pb1d8a389ef)" style="fill: #348abd; fill-opacity: 0.75; stroke: #eeeeee; stroke-width: 0.482758; stroke-linejoin: miter"/>
   </g>
   <g id="patch_25">
    <path d="M 201.070467 290.25375 
L 205.898043 290.25375 
L 205.898043 285.85375 
L 201.070467 285.85375 
z
" clip-path="url(#pb1d8a389ef)" style="fill: #348abd; fill-opacity: 0.75; stroke: #eeeeee; stroke-width: 0.482758; stroke-linejoin: miter"/>
   </g>
   <g id="patch_26">
    <path d="M 207.104938 290.25375 
L 211.932515 290.25375 
L 211.932515 288.49375 
L 207.104938 288.49375 
z
" clip-path="url(#pb1d8a389ef)" style="fill: #348abd; fill-opacity: 0.75; stroke: #eeeeee; stroke-width: 0.482758; stroke-linejoin: miter"/>
   </g>
   <g id="patch_27">
    <path d="M 213.139409 290.25375 
L 217.966986 290.25375 
L 217.966986 285.85375 
L 213.139409 285.85375 
z
" clip-path="url(#pb1d8a389ef)" style="fill: #348abd; fill-opacity: 0.75; stroke: #eeeeee; stroke-width: 0.482758; stroke-linejoin: miter"/>
   </g>
   <g id="patch_28">
    <path d="M 219.17388 290.25375 
L 224.001457 290.25375 
L 224.001457 289.080417 
L 219.17388 289.080417 
z
" clip-path="url(#pb1d8a389ef)" style="fill: #348abd; fill-opacity: 0.75; stroke: #eeeeee; stroke-width: 0.482758; stroke-linejoin: miter"/>
   </g>
   <g id="patch_29">
    <path d="M 225.208351 290.25375 
L 230.035928 290.25375 
L 230.035928 287.027083 
L 225.208351 287.027083 
z
" clip-path="url(#pb1d8a389ef)" style="fill: #348abd; fill-opacity: 0.75; stroke: #eeeeee; stroke-width: 0.482758; stroke-linejoin: miter"/>
   </g>
   <g id="patch_30">
    <path d="M 231.242822 290.25375 
L 236.070399 290.25375 
L 236.070399 287.61375 
L 231.242822 287.61375 
z
" clip-path="url(#pb1d8a389ef)" style="fill: #348abd; fill-opacity: 0.75; stroke: #eeeeee; stroke-width: 0.482758; stroke-linejoin: miter"/>
   </g>
   <g id="patch_31">
    <path d="M 237.277293 290.25375 
L 242.10487 290.25375 
L 242.10487 288.787083 
L 237.277293 288.787083 
z
" clip-path="url(#pb1d8a389ef)" style="fill: #348abd; fill-opacity: 0.75; stroke: #eeeeee; stroke-width: 0.482758; stroke-linejoin: miter"/>
   </g>
   <g id="patch_32">
    <path d="M 243.311764 290.25375 
L 248.139341 290.25375 
L 248.139341 288.49375 
L 243.311764 288.49375 
z
" clip-path="url(#pb1d8a389ef)" style="fill: #348abd; fill-opacity: 0.75; stroke: #eeeeee; stroke-width: 0.482758; stroke-linejoin: miter"/>
   </g>
   <g id="patch_33">
    <path d="M 249.346235 290.25375 
L 254.173812 290.25375 
L 254.173812 288.787083 
L 249.346235 288.787083 
z
" clip-path="url(#pb1d8a389ef)" style="fill: #348abd; fill-opacity: 0.75; stroke: #eeeeee; stroke-width: 0.482758; stroke-linejoin: miter"/>
   </g>
   <g id="patch_34">
    <path d="M 255.380707 290.25375 
L 260.208283 290.25375 
L 260.208283 289.960417 
L 255.380707 289.960417 
z
" clip-path="url(#pb1d8a389ef)" style="fill: #348abd; fill-opacity: 0.75; stroke: #eeeeee; stroke-width: 0.482758; stroke-linejoin: miter"/>
   </g>
   <g id="patch_35">
    <path d="M 261.415178 290.25375 
L 266.242755 290.25375 
L 266.242755 288.787083 
L 261.415178 288.787083 
z
" clip-path="url(#pb1d8a389ef)" style="fill: #348abd; fill-opacity: 0.75; stroke: #eeeeee; stroke-width: 0.482758; stroke-linejoin: miter"/>
   </g>
   <g id="patch_36">
    <path d="M 267.449649 290.25375 
L 272.277226 290.25375 
L 272.277226 288.787083 
L 267.449649 288.787083 
z
" clip-path="url(#pb1d8a389ef)" style="fill: #348abd; fill-opacity: 0.75; stroke: #eeeeee; stroke-width: 0.482758; stroke-linejoin: miter"/>
   </g>
   <g id="patch_37">
    <path d="M 273.48412 290.25375 
L 278.311697 290.25375 
L 278.311697 289.667083 
L 273.48412 289.667083 
z
" clip-path="url(#pb1d8a389ef)" style="fill: #348abd; fill-opacity: 0.75; stroke: #eeeeee; stroke-width: 0.482758; stroke-linejoin: miter"/>
   </g>
   <g id="patch_38">
    <path d="M 279.518591 290.25375 
L 284.346168 290.25375 
L 284.346168 289.080417 
L 279.518591 289.080417 
z
" clip-path="url(#pb1d8a389ef)" style="fill: #348abd; fill-opacity: 0.75; stroke: #eeeeee; stroke-width: 0.482758; stroke-linejoin: miter"/>
   </g>
   <g id="patch_39">
    <path d="M 285.553062 290.25375 
L 290.380639 290.25375 
L 290.380639 289.37375 
L 285.553062 289.37375 
z
" clip-path="url(#pb1d8a389ef)" style="fill: #348abd; fill-opacity: 0.75; stroke: #eeeeee; stroke-width: 0.482758; stroke-linejoin: miter"/>
   </g>
   <g id="patch_40">
    <path d="M 291.587533 290.25375 
L 296.41511 290.25375 
L 296.41511 289.667083 
L 291.587533 289.667083 
z
" clip-path="url(#pb1d8a389ef)" style="fill: #348abd; fill-opacity: 0.75; stroke: #eeeeee; stroke-width: 0.482758; stroke-linejoin: miter"/>
   </g>
   <g id="patch_41">
    <path d="M 297.622004 290.25375 
L 302.449581 290.25375 
L 302.449581 289.667083 
L 297.622004 289.667083 
z
" clip-path="url(#pb1d8a389ef)" style="fill: #348abd; fill-opacity: 0.75; stroke: #eeeeee; stroke-width: 0.482758; stroke-linejoin: miter"/>
   </g>
   <g id="patch_42">
    <path d="M 303.656475 290.25375 
L 308.484052 290.25375 
L 308.484052 290.25375 
L 303.656475 290.25375 
z
" clip-path="url(#pb1d8a389ef)" style="fill: #348abd; fill-opacity: 0.75; stroke: #eeeeee; stroke-width: 0.482758; stroke-linejoin: miter"/>
   </g>
   <g id="patch_43">
    <path d="M 309.690946 290.25375 
L 314.518523 290.25375 
L 314.518523 289.960417 
L 309.690946 289.960417 
z
" clip-path="url(#pb1d8a389ef)" style="fill: #348abd; fill-opacity: 0.75; stroke: #eeeeee; stroke-width: 0.482758; stroke-linejoin: miter"/>
   </g>
   <g id="patch_44">
    <path d="M 315.725418 290.25375 
L 320.552994 290.25375 
L 320.552994 289.960417 
L 315.725418 289.960417 
z
" clip-path="url(#pb1d8a389ef)" style="fill: #348abd; fill-opacity: 0.75; stroke: #eeeeee; stroke-width: 0.482758; stroke-linejoin: miter"/>
   </g>
   <g id="patch_45">
    <path d="M 321.759889 290.25375 
L 326.587466 290.25375 
L 326.587466 289.960417 
L 321.759889 289.960417 
z
" clip-path="url(#pb1d8a389ef)" style="fill: #348abd; fill-opacity: 0.75; stroke: #eeeeee; stroke-width: 0.482758; stroke-linejoin: miter"/>
   </g>
   <g id="patch_46">
    <path d="M 327.79436 290.25375 
L 332.621937 290.25375 
L 332.621937 289.667083 
L 327.79436 289.667083 
z
" clip-path="url(#pb1d8a389ef)" style="fill: #348abd; fill-opacity: 0.75; stroke: #eeeeee; stroke-width: 0.482758; stroke-linejoin: miter"/>
   </g>
   <g id="patch_47">
    <path d="M 333.828831 290.25375 
L 338.656408 290.25375 
L 338.656408 290.25375 
L 333.828831 290.25375 
z
" clip-path="url(#pb1d8a389ef)" style="fill: #348abd; fill-opacity: 0.75; stroke: #eeeeee; stroke-width: 0.482758; stroke-linejoin: miter"/>
   </g>
   <g id="patch_48">
    <path d="M 339.863302 290.25375 
L 344.690879 290.25375 
L 344.690879 289.960417 
L 339.863302 289.960417 
z
" clip-path="url(#pb1d8a389ef)" style="fill: #348abd; fill-opacity: 0.75; stroke: #eeeeee; stroke-width: 0.482758; stroke-linejoin: miter"/>
   </g>
   <g id="patch_49">
    <path d="M 345.897773 290.25375 
L 350.72535 290.25375 
L 350.72535 290.25375 
L 345.897773 290.25375 
z
" clip-path="url(#pb1d8a389ef)" style="fill: #348abd; fill-opacity: 0.75; stroke: #eeeeee; stroke-width: 0.482758; stroke-linejoin: miter"/>
   </g>
   <g id="patch_50">
    <path d="M 351.932244 290.25375 
L 356.759821 290.25375 
L 356.759821 290.25375 
L 351.932244 290.25375 
z
" clip-path="url(#pb1d8a389ef)" style="fill: #348abd; fill-opacity: 0.75; stroke: #eeeeee; stroke-width: 0.482758; stroke-linejoin: miter"/>
   </g>
   <g id="patch_51">
    <path d="M 357.966715 290.25375 
L 362.794292 290.25375 
L 362.794292 290.25375 
L 357.966715 290.25375 
z
" clip-path="url(#pb1d8a389ef)" style="fill: #348abd; fill-opacity: 0.75; stroke: #eeeeee; stroke-width: 0.482758; stroke-linejoin: miter"/>
   </g>
   <g id="patch_52">
    <path d="M 364.001186 290.25375 
L 368.828763 290.25375 
L 368.828763 290.25375 
L 364.001186 290.25375 
z
" clip-path="url(#pb1d8a389ef)" style="fill: #348abd; fill-opacity: 0.75; stroke: #eeeeee; stroke-width: 0.482758; stroke-linejoin: miter"/>
   </g>
   <g id="patch_53">
    <path d="M 370.035658 290.25375 
L 374.863234 290.25375 
L 374.863234 290.25375 
L 370.035658 290.25375 
z
" clip-path="url(#pb1d8a389ef)" style="fill: #348abd; fill-opacity: 0.75; stroke: #eeeeee; stroke-width: 0.482758; stroke-linejoin: miter"/>
   </g>
   <g id="patch_54">
    <path d="M 376.070129 290.25375 
L 380.897706 290.25375 
L 380.897706 290.25375 
L 376.070129 290.25375 
z
" clip-path="url(#pb1d8a389ef)" style="fill: #348abd; fill-opacity: 0.75; stroke: #eeeeee; stroke-width: 0.482758; stroke-linejoin: miter"/>
   </g>
   <g id="patch_55">
    <path d="M 382.1046 290.25375 
L 386.932177 290.25375 
L 386.932177 290.25375 
L 382.1046 290.25375 
z
" clip-path="url(#pb1d8a389ef)" style="fill: #348abd; fill-opacity: 0.75; stroke: #eeeeee; stroke-width: 0.482758; stroke-linejoin: miter"/>
   </g>
   <g id="patch_56">
    <path d="M 388.139071 290.25375 
L 392.966648 290.25375 
L 392.966648 290.25375 
L 388.139071 290.25375 
z
" clip-path="url(#pb1d8a389ef)" style="fill: #348abd; fill-opacity: 0.75; stroke: #eeeeee; stroke-width: 0.482758; stroke-linejoin: miter"/>
   </g>
   <g id="patch_57">
    <path d="M 68.312102 289.37375 
L 73.139679 289.37375 
L 73.139679 289.37375 
L 68.312102 289.37375 
z
" clip-path="url(#pb1d8a389ef)" style="fill: #e24a33; fill-opacity: 0.75; stroke: #eeeeee; stroke-width: 0.482758; stroke-linejoin: miter"/>
   </g>
   <g id="patch_58">
    <path d="M 74.346573 96.067083 
L 79.17415 96.067083 
L 79.17415 36.81375 
L 74.346573 36.81375 
z
" clip-path="url(#pb1d8a389ef)" style="fill: #e24a33; fill-opacity: 0.75; stroke: #eeeeee; stroke-width: 0.482758; stroke-linejoin: miter"/>
   </g>
   <g id="patch_59">
    <path d="M 80.381044 129.800417 
L 85.208621 129.800417 
L 85.208621 69.080417 
L 80.381044 69.080417 
z
" clip-path="url(#pb1d8a389ef)" style="fill: #e24a33; fill-opacity: 0.75; stroke: #eeeeee; stroke-width: 0.482758; stroke-linejoin: miter"/>
   </g>
   <g id="patch_60">
    <path d="M 86.415516 194.627083 
L 91.243092 194.627083 
L 91.243092 155.61375 
L 86.415516 155.61375 
z
" clip-path="url(#pb1d8a389ef)" style="fill: #e24a33; fill-opacity: 0.75; stroke: #eeeeee; stroke-width: 0.482758; stroke-linejoin: miter"/>
   </g>
   <g id="patch_61">
    <path d="M 92.449987 243.61375 
L 97.277564 243.61375 
L 97.277564 216.33375 
L 92.449987 216.33375 
z
" clip-path="url(#pb1d8a389ef)" style="fill: #e24a33; fill-opacity: 0.75; stroke: #eeeeee; stroke-width: 0.482758; stroke-linejoin: miter"/>
   </g>
   <g id="patch_62">
    <path d="M 98.484458 267.080417 
L 103.312035 267.080417 
L 103.312035 250.067083 
L 98.484458 250.067083 
z
" clip-path="url(#pb1d8a389ef)" style="fill: #e24a33; fill-opacity: 0.75; stroke: #eeeeee; stroke-width: 0.482758; stroke-linejoin: miter"/>
   </g>
   <g id="patch_63">
    <path d="M 104.518929 277.640417 
L 109.346506 277.640417 
L 109.346506 265.61375 
L 104.518929 265.61375 
z
" clip-path="url(#pb1d8a389ef)" style="fill: #e24a33; fill-opacity: 0.75; stroke: #eeeeee; stroke-width: 0.482758; stroke-linejoin: miter"/>
   </g>
   <g id="patch_64">
    <path d="M 110.5534 277.05375 
L 115.380977 277.05375 
L 115.380977 260.627083 
L 110.5534 260.627083 
z
" clip-path="url(#pb1d8a389ef)" style="fill: #e24a33; fill-opacity: 0.75; stroke: #eeeeee; stroke-width: 0.482758; stroke-linejoin: miter"/>
   </g>
   <g id="patch_65">
    <path d="M 116.587871 282.920417 
L 121.415448 282.920417 
L 121.415448 269.13375 
L 116.587871 269.13375 
z
" clip-path="url(#pb1d8a389ef)" style="fill: #e24a33; fill-opacity: 0.75; stroke: #eeeeee; stroke-width: 0.482758; stroke-linejoin: miter"/>
   </g>
   <g id="patch_66">
    <path d="M 122.622342 283.507083 
L 127.449919 283.507083 
L 127.449919 268.25375 
L 122.622342 268.25375 
z
" clip-path="url(#pb1d8a389ef)" style="fill: #e24a33; fill-opacity: 0.75; stroke: #eeeeee; stroke-width: 0.482758; stroke-linejoin: miter"/>
   </g>
   <g id="patch_67">
    <path d="M 128.656813 283.21375 
L 133.48439 283.21375 
L 133.48439 267.080417 
L 128.656813 267.080417 
z
" clip-path="url(#pb1d8a389ef)" style="fill: #e24a33; fill-opacity: 0.75; stroke: #eeeeee; stroke-width: 0.482758; stroke-linejoin: miter"/>
   </g>
   <g id="patch_68">
    <path d="M 134.691284 284.09375 
L 139.518861 284.09375 
L 139.518861 270.307083 
L 134.691284 270.307083 
z
" clip-path="url(#pb1d8a389ef)" style="fill: #e24a33; fill-opacity: 0.75; stroke: #eeeeee; stroke-width: 0.482758; stroke-linejoin: miter"/>
   </g>
   <g id="patch_69">
    <path d="M 140.725756 285.560417 
L 145.553332 285.560417 
L 145.553332 272.360417 
L 140.725756 272.360417 
z
" clip-path="url(#pb1d8a389ef)" style="fill: #e24a33; fill-opacity: 0.75; stroke: #eeeeee; stroke-width: 0.482758; stroke-linejoin: miter"/>
   </g>
   <g id="patch_70">
    <path d="M 146.760227 286.440417 
L 151.587804 286.440417 
L 151.587804 277.640417 
L 146.760227 277.640417 
z
" clip-path="url(#pb1d8a389ef)" style="fill: #e24a33; fill-opacity: 0.75; stroke: #eeeeee; stroke-width: 0.482758; stroke-linejoin: miter"/>
   </g>
   <g id="patch_71">
    <path d="M 152.794698 286.73375 
L 157.622275 286.73375 
L 157.622275 276.17375 
L 152.794698 276.17375 
z
" clip-path="url(#pb1d8a389ef)" style="fill: #e24a33; fill-opacity: 0.75; stroke: #eeeeee; stroke-width: 0.482758; stroke-linejoin: miter"/>
   </g>
   <g id="patch_72">
    <path d="M 158.829169 283.507083 
L 163.656746 283.507083 
L 163.656746 273.827083 
L 158.829169 273.827083 
z
" clip-path="url(#pb1d8a389ef)" style="fill: #e24a33; fill-opacity: 0.75; stroke: #eeeeee; stroke-width: 0.482758; stroke-linejoin: miter"/>
   </g>
   <g id="patch_73">
    <path d="M 164.86364 285.267083 
L 169.691217 285.267083 
L 169.691217 279.400417 
L 164.86364 279.400417 
z
" clip-path="url(#pb1d8a389ef)" style="fill: #e24a33; fill-opacity: 0.75; stroke: #eeeeee; stroke-width: 0.482758; stroke-linejoin: miter"/>
   </g>
   <g id="patch_74">
    <path d="M 170.898111 284.680417 
L 175.725688 284.680417 
L 175.725688 276.17375 
L 170.898111 276.17375 
z
" clip-path="url(#pb1d8a389ef)" style="fill: #e24a33; fill-opacity: 0.75; stroke: #eeeeee; stroke-width: 0.482758; stroke-linejoin: miter"/>
   </g>
   <g id="patch_75">
    <path d="M 176.932582 285.85375 
L 181.760159 285.85375 
L 181.760159 277.347083 
L 176.932582 277.347083 
z
" clip-path="url(#pb1d8a389ef)" style="fill: #e24a33; fill-opacity: 0.75; stroke: #eeeeee; stroke-width: 0.482758; stroke-linejoin: miter"/>
   </g>
   <g id="patch_76">
    <path d="M 182.967053 287.027083 
L 187.79463 287.027083 
L 187.79463 280.867083 
L 182.967053 280.867083 
z
" clip-path="url(#pb1d8a389ef)" style="fill: #e24a33; fill-opacity: 0.75; stroke: #eeeeee; stroke-width: 0.482758; stroke-linejoin: miter"/>
   </g>
   <g id="patch_77">
    <path d="M 189.001524 286.147083 
L 193.829101 286.147083 
L 193.829101 279.400417 
L 189.001524 279.400417 
z
" clip-path="url(#pb1d8a389ef)" style="fill: #e24a33; fill-opacity: 0.75; stroke: #eeeeee; stroke-width: 0.482758; stroke-linejoin: miter"/>
   </g>
   <g id="patch_78">
    <path d="M 195.035995 288.49375 
L 199.863572 288.49375 
L 199.863572 282.920417 
L 195.035995 282.920417 
z
" clip-path="url(#pb1d8a389ef)" style="fill: #e24a33; fill-opacity: 0.75; stroke: #eeeeee; stroke-width: 0.482758; stroke-linejoin: miter"/>
   </g>
   <g id="patch_79">
    <path d="M 201.070467 285.85375 
L 205.898043 285.85375 
L 205.898043 280.57375 
L 201.070467 280.57375 
z
" clip-path="url(#pb1d8a389ef)" style="fill: #e24a33; fill-opacity: 0.75; stroke: #eeeeee; stroke-width: 0.482758; stroke-linejoin: miter"/>
   </g>
   <g id="patch_80">
    <path d="M 207.104938 288.49375 
L 211.932515 288.49375 
L 211.932515 284.680417 
L 207.104938 284.680417 
z
" clip-path="url(#pb1d8a389ef)" style="fill: #e24a33; fill-opacity: 0.75; stroke: #eeeeee; stroke-width: 0.482758; stroke-linejoin: miter"/>
   </g>
   <g id="patch_81">
    <path d="M 213.139409 285.85375 
L 217.966986 285.85375 
L 217.966986 282.627083 
L 213.139409 282.627083 
z
" clip-path="url(#pb1d8a389ef)" style="fill: #e24a33; fill-opacity: 0.75; stroke: #eeeeee; stroke-width: 0.482758; stroke-linejoin: miter"/>
   </g>
   <g id="patch_82">
    <path d="M 219.17388 289.080417 
L 224.001457 289.080417 
L 224.001457 287.027083 
L 219.17388 287.027083 
z
" clip-path="url(#pb1d8a389ef)" style="fill: #e24a33; fill-opacity: 0.75; stroke: #eeeeee; stroke-width: 0.482758; stroke-linejoin: miter"/>
   </g>
   <g id="patch_83">
    <path d="M 225.208351 287.027083 
L 230.035928 287.027083 
L 230.035928 283.800417 
L 225.208351 283.800417 
z
" clip-path="url(#pb1d8a389ef)" style="fill: #e24a33; fill-opacity: 0.75; stroke: #eeeeee; stroke-width: 0.482758; stroke-linejoin: miter"/>
   </g>
   <g id="patch_84">
    <path d="M 231.242822 287.61375 
L 236.070399 287.61375 
L 236.070399 284.680417 
L 231.242822 284.680417 
z
" clip-path="url(#pb1d8a389ef)" style="fill: #e24a33; fill-opacity: 0.75; stroke: #eeeeee; stroke-width: 0.482758; stroke-linejoin: miter"/>
   </g>
   <g id="patch_85">
    <path d="M 237.277293 288.787083 
L 242.10487 288.787083 
L 242.10487 284.97375 
L 237.277293 284.97375 
z
" clip-path="url(#pb1d8a389ef)" style="fill: #e24a33; fill-opacity: 0.75; stroke: #eeeeee; stroke-width: 0.482758; stroke-linejoin: miter"/>
   </g>
   <g id="patch_86">
    <path d="M 243.311764 288.49375 
L 248.139341 288.49375 
L 248.139341 286.73375 
L 243.311764 286.73375 
z
" clip-path="url(#pb1d8a389ef)" style="fill: #e24a33; fill-opacity: 0.75; stroke: #eeeeee; stroke-width: 0.482758; stroke-linejoin: miter"/>
   </g>
   <g id="patch_87">
    <path d="M 249.346235 288.787083 
L 254.173812 288.787083 
L 254.173812 285.560417 
L 249.346235 285.560417 
z
" clip-path="url(#pb1d8a389ef)" style="fill: #e24a33; fill-opacity: 0.75; stroke: #eeeeee; stroke-width: 0.482758; stroke-linejoin: miter"/>
   </g>
   <g id="patch_88">
    <path d="M 255.380707 289.960417 
L 260.208283 289.960417 
L 260.208283 287.907083 
L 255.380707 287.907083 
z
" clip-path="url(#pb1d8a389ef)" style="fill: #e24a33; fill-opacity: 0.75; stroke: #eeeeee; stroke-width: 0.482758; stroke-linejoin: miter"/>
   </g>
   <g id="patch_89">
    <path d="M 261.415178 288.787083 
L 266.242755 288.787083 
L 266.242755 286.73375 
L 261.415178 286.73375 
z
" clip-path="url(#pb1d8a389ef)" style="fill: #e24a33; fill-opacity: 0.75; stroke: #eeeeee; stroke-width: 0.482758; stroke-linejoin: miter"/>
   </g>
   <g id="patch_90">
    <path d="M 267.449649 288.787083 
L 272.277226 288.787083 
L 272.277226 286.147083 
L 267.449649 286.147083 
z
" clip-path="url(#pb1d8a389ef)" style="fill: #e24a33; fill-opacity: 0.75; stroke: #eeeeee; stroke-width: 0.482758; stroke-linejoin: miter"/>
   </g>
   <g id="patch_91">
    <path d="M 273.48412 289.667083 
L 278.311697 289.667083 
L 278.311697 288.200417 
L 273.48412 288.200417 
z
" clip-path="url(#pb1d8a389ef)" style="fill: #e24a33; fill-opacity: 0.75; stroke: #eeeeee; stroke-width: 0.482758; stroke-linejoin: miter"/>
   </g>
   <g id="patch_92">
    <path d="M 279.518591 289.080417 
L 284.346168 289.080417 
L 284.346168 289.080417 
L 279.518591 289.080417 
z
" clip-path="url(#pb1d8a389ef)" style="fill: #e24a33; fill-opacity: 0.75; stroke: #eeeeee; stroke-width: 0.482758; stroke-linejoin: miter"/>
   </g>
   <g id="patch_93">
    <path d="M 285.553062 289.37375 
L 290.380639 289.37375 
L 290.380639 288.49375 
L 285.553062 288.49375 
z
" clip-path="url(#pb1d8a389ef)" style="fill: #e24a33; fill-opacity: 0.75; stroke: #eeeeee; stroke-width: 0.482758; stroke-linejoin: miter"/>
   </g>
   <g id="patch_94">
    <path d="M 291.587533 289.667083 
L 296.41511 289.667083 
L 296.41511 288.49375 
L 291.587533 288.49375 
z
" clip-path="url(#pb1d8a389ef)" style="fill: #e24a33; fill-opacity: 0.75; stroke: #eeeeee; stroke-width: 0.482758; stroke-linejoin: miter"/>
   </g>
   <g id="patch_95">
    <path d="M 297.622004 289.667083 
L 302.449581 289.667083 
L 302.449581 288.787083 
L 297.622004 288.787083 
z
" clip-path="url(#pb1d8a389ef)" style="fill: #e24a33; fill-opacity: 0.75; stroke: #eeeeee; stroke-width: 0.482758; stroke-linejoin: miter"/>
   </g>
   <g id="patch_96">
    <path d="M 303.656475 290.25375 
L 308.484052 290.25375 
L 308.484052 290.25375 
L 303.656475 290.25375 
z
" clip-path="url(#pb1d8a389ef)" style="fill: #e24a33; fill-opacity: 0.75; stroke: #eeeeee; stroke-width: 0.482758; stroke-linejoin: miter"/>
   </g>
   <g id="patch_97">
    <path d="M 309.690946 289.960417 
L 314.518523 289.960417 
L 314.518523 289.667083 
L 309.690946 289.667083 
z
" clip-path="url(#pb1d8a389ef)" style="fill: #e24a33; fill-opacity: 0.75; stroke: #eeeeee; stroke-width: 0.482758; stroke-linejoin: miter"/>
   </g>
   <g id="patch_98">
    <path d="M 315.725418 289.960417 
L 320.552994 289.960417 
L 320.552994 289.37375 
L 315.725418 289.37375 
z
" clip-path="url(#pb1d8a389ef)" style="fill: #e24a33; fill-opacity: 0.75; stroke: #eeeeee; stroke-width: 0.482758; stroke-linejoin: miter"/>
   </g>
   <g id="patch_99">
    <path d="M 321.759889 289.960417 
L 326.587466 289.960417 
L 326.587466 289.37375 
L 321.759889 289.37375 
z
" clip-path="url(#pb1d8a389ef)" style="fill: #e24a33; fill-opacity: 0.75; stroke: #eeeeee; stroke-width: 0.482758; stroke-linejoin: miter"/>
   </g>
   <g id="patch_100">
    <path d="M 327.79436 289.667083 
L 332.621937 289.667083 
L 332.621937 289.667083 
L 327.79436 289.667083 
z
" clip-path="url(#pb1d8a389ef)" style="fill: #e24a33; fill-opacity: 0.75; stroke: #eeeeee; stroke-width: 0.482758; stroke-linejoin: miter"/>
   </g>
   <g id="patch_101">
    <path d="M 333.828831 290.25375 
L 338.656408 290.25375 
L 338.656408 289.960417 
L 333.828831 289.960417 
z
" clip-path="url(#pb1d8a389ef)" style="fill: #e24a33; fill-opacity: 0.75; stroke: #eeeeee; stroke-width: 0.482758; stroke-linejoin: miter"/>
   </g>
   <g id="patch_102">
    <path d="M 339.863302 289.960417 
L 344.690879 289.960417 
L 344.690879 289.960417 
L 339.863302 289.960417 
z
" clip-path="url(#pb1d8a389ef)" style="fill: #e24a33; fill-opacity: 0.75; stroke: #eeeeee; stroke-width: 0.482758; stroke-linejoin: miter"/>
   </g>
   <g id="patch_103">
    <path d="M 345.897773 290.25375 
L 350.72535 290.25375 
L 350.72535 290.25375 
L 345.897773 290.25375 
z
" clip-path="url(#pb1d8a389ef)" style="fill: #e24a33; fill-opacity: 0.75; stroke: #eeeeee; stroke-width: 0.482758; stroke-linejoin: miter"/>
   </g>
   <g id="patch_104">
    <path d="M 351.932244 290.25375 
L 356.759821 290.25375 
L 356.759821 290.25375 
L 351.932244 290.25375 
z
" clip-path="url(#pb1d8a389ef)" style="fill: #e24a33; fill-opacity: 0.75; stroke: #eeeeee; stroke-width: 0.482758; stroke-linejoin: miter"/>
   </g>
   <g id="patch_105">
    <path d="M 357.966715 290.25375 
L 362.794292 290.25375 
L 362.794292 290.25375 
L 357.966715 290.25375 
z
" clip-path="url(#pb1d8a389ef)" style="fill: #e24a33; fill-opacity: 0.75; stroke: #eeeeee; stroke-width: 0.482758; stroke-linejoin: miter"/>
   </g>
   <g id="patch_106">
    <path d="M 364.001186 290.25375 
L 368.828763 290.25375 
L 368.828763 290.25375 
L 364.001186 290.25375 
z
" clip-path="url(#pb1d8a389ef)" style="fill: #e24a33; fill-opacity: 0.75; stroke: #eeeeee; stroke-width: 0.482758; stroke-linejoin: miter"/>
   </g>
   <g id="patch_107">
    <path d="M 370.035658 290.25375 
L 374.863234 290.25375 
L 374.863234 290.25375 
L 370.035658 290.25375 
z
" clip-path="url(#pb1d8a389ef)" style="fill: #e24a33; fill-opacity: 0.75; stroke: #eeeeee; stroke-width: 0.482758; stroke-linejoin: miter"/>
   </g>
   <g id="patch_108">
    <path d="M 376.070129 290.25375 
L 380.897706 290.25375 
L 380.897706 290.25375 
L 376.070129 290.25375 
z
" clip-path="url(#pb1d8a389ef)" style="fill: #e24a33; fill-opacity: 0.75; stroke: #eeeeee; stroke-width: 0.482758; stroke-linejoin: miter"/>
   </g>
   <g id="patch_109">
    <path d="M 382.1046 290.25375 
L 386.932177 290.25375 
L 386.932177 290.25375 
L 382.1046 290.25375 
z
" clip-path="url(#pb1d8a389ef)" style="fill: #e24a33; fill-opacity: 0.75; stroke: #eeeeee; stroke-width: 0.482758; stroke-linejoin: miter"/>
   </g>
   <g id="patch_110">
    <path d="M 388.139071 290.25375 
L 392.966648 290.25375 
L 392.966648 289.960417 
L 388.139071 289.960417 
z
" clip-path="url(#pb1d8a389ef)" style="fill: #e24a33; fill-opacity: 0.75; stroke: #eeeeee; stroke-width: 0.482758; stroke-linejoin: miter"/>
   </g>
   <g id="patch_111">
    <path d="M 52.079375 290.25375 
L 52.079375 24.14175 
" style="fill: none; stroke: #ffffff; stroke-linejoin: miter; stroke-linecap: square"/>
   </g>
   <g id="patch_112">
    <path d="M 409.199375 290.25375 
L 409.199375 24.14175 
" style="fill: none; stroke: #ffffff; stroke-linejoin: miter; stroke-linecap: square"/>
   </g>
   <g id="patch_113">
    <path d="M 52.079375 290.25375 
L 409.199375 290.25375 
" style="fill: none; stroke: #ffffff; stroke-linejoin: miter; stroke-linecap: square"/>
   </g>
   <g id="patch_114">
    <path d="M 52.079375 24.14175 
L 409.199375 24.14175 
" style="fill: none; stroke: #ffffff; stroke-linejoin: miter; stroke-linecap: square"/>
   </g>
   <g id="text_14">
    <!-- Dropout in relation to enrollment age -->
    <g transform="translate(96.42575 18.14175)scale(0.144 -0.144)">
     <defs>
      <path id="DejaVuSans-70" d="M 1159 525 
L 1159 -1331 
L 581 -1331 
L 581 3500 
L 1159 3500 
L 1159 2969 
Q 1341 3281 1617 3432 
Q 1894 3584 2278 3584 
Q 2916 3584 3314 3078 
Q 3713 2572 3713 1747 
Q 3713 922 3314 415 
Q 2916 -91 2278 -91 
Q 1894 -91 1617 61 
Q 1341 213 1159 525 
z
M 3116 1747 
Q 3116 2381 2855 2742 
Q 2594 3103 2138 3103 
Q 1681 3103 1420 2742 
Q 1159 2381 1159 1747 
Q 1159 1113 1420 752 
Q 1681 391 2138 391 
Q 2594 391 2855 752 
Q 3116 1113 3116 1747 
z
" transform="scale(0.015625)"/>
      <path id="DejaVuSans-75" d="M 544 1381 
L 544 3500 
L 1119 3500 
L 1119 1403 
Q 1119 906 1312 657 
Q 1506 409 1894 409 
Q 2359 409 2629 706 
Q 2900 1003 2900 1516 
L 2900 3500 
L 3475 3500 
L 3475 0 
L 2900 0 
L 2900 538 
Q 2691 219 2414 64 
Q 2138 -91 1772 -91 
Q 1169 -91 856 284 
Q 544 659 544 1381 
z
M 1991 3584 
L 1991 3584 
z
" transform="scale(0.015625)"/>
     </defs>
     <use xlink:href="#DejaVuSans-44"/>
     <use xlink:href="#DejaVuSans-72" x="77.001953"/>
     <use xlink:href="#DejaVuSans-6f" x="115.865234"/>
     <use xlink:href="#DejaVuSans-70" x="177.046875"/>
     <use xlink:href="#DejaVuSans-6f" x="240.523438"/>
     <use xlink:href="#DejaVuSans-75" x="301.705078"/>
     <use xlink:href="#DejaVuSans-74" x="365.083984"/>
     <use xlink:href="#DejaVuSans-20" x="404.292969"/>
     <use xlink:href="#DejaVuSans-69" x="436.080078"/>
     <use xlink:href="#DejaVuSans-6e" x="463.863281"/>
     <use xlink:href="#DejaVuSans-20" x="527.242188"/>
     <use xlink:href="#DejaVuSans-72" x="559.029297"/>
     <use xlink:href="#DejaVuSans-65" x="597.892578"/>
     <use xlink:href="#DejaVuSans-6c" x="659.416016"/>
     <use xlink:href="#DejaVuSans-61" x="687.199219"/>
     <use xlink:href="#DejaVuSans-74" x="748.478516"/>
     <use xlink:href="#DejaVuSans-69" x="787.6875"/>
     <use xlink:href="#DejaVuSans-6f" x="815.470703"/>
     <use xlink:href="#DejaVuSans-6e" x="876.652344"/>
     <use xlink:href="#DejaVuSans-20" x="940.03125"/>
     <use xlink:href="#DejaVuSans-74" x="971.818359"/>
     <use xlink:href="#DejaVuSans-6f" x="1011.027344"/>
     <use xlink:href="#DejaVuSans-20" x="1072.208984"/>
     <use xlink:href="#DejaVuSans-65" x="1103.996094"/>
     <use xlink:href="#DejaVuSans-6e" x="1165.519531"/>
     <use xlink:href="#DejaVuSans-72" x="1228.898438"/>
     <use xlink:href="#DejaVuSans-6f" x="1267.761719"/>
     <use xlink:href="#DejaVuSans-6c" x="1328.943359"/>
     <use xlink:href="#DejaVuSans-6c" x="1356.726562"/>
     <use xlink:href="#DejaVuSans-6d" x="1384.509766"/>
     <use xlink:href="#DejaVuSans-65" x="1481.921875"/>
     <use xlink:href="#DejaVuSans-6e" x="1543.445312"/>
     <use xlink:href="#DejaVuSans-74" x="1606.824219"/>
     <use xlink:href="#DejaVuSans-20" x="1646.033203"/>
     <use xlink:href="#DejaVuSans-61" x="1677.820312"/>
     <use xlink:href="#DejaVuSans-67" x="1739.099609"/>
     <use xlink:href="#DejaVuSans-65" x="1802.576172"/>
    </g>
   </g>
   <g id="legend_1">
    <g id="patch_115">
     <path d="M 309.9275 76.176125 
L 402.199375 76.176125 
Q 404.199375 76.176125 404.199375 74.176125 
L 404.199375 31.14175 
Q 404.199375 29.14175 402.199375 29.14175 
L 309.9275 29.14175 
Q 307.9275 29.14175 307.9275 31.14175 
L 307.9275 74.176125 
Q 307.9275 76.176125 309.9275 76.176125 
z
" style="fill: #e5e5e5; opacity: 0.8; stroke: #cccccc; stroke-width: 0.5; stroke-linejoin: miter"/>
    </g>
    <g id="text_15">
     <!-- Enrollment status -->
     <g transform="translate(311.9275 40.740187)scale(0.1 -0.1)">
      <defs>
       <path id="DejaVuSans-45" d="M 628 4666 
L 3578 4666 
L 3578 4134 
L 1259 4134 
L 1259 2753 
L 3481 2753 
L 3481 2222 
L 1259 2222 
L 1259 531 
L 3634 531 
L 3634 0 
L 628 0 
L 628 4666 
z
" transform="scale(0.015625)"/>
      </defs>
      <use xlink:href="#DejaVuSans-45"/>
      <use xlink:href="#DejaVuSans-6e" x="63.183594"/>
      <use xlink:href="#DejaVuSans-72" x="126.5625"/>
      <use xlink:href="#DejaVuSans-6f" x="165.425781"/>
      <use xlink:href="#DejaVuSans-6c" x="226.607422"/>
      <use xlink:href="#DejaVuSans-6c" x="254.390625"/>
      <use xlink:href="#DejaVuSans-6d" x="282.173828"/>
      <use xlink:href="#DejaVuSans-65" x="379.585938"/>
      <use xlink:href="#DejaVuSans-6e" x="441.109375"/>
      <use xlink:href="#DejaVuSans-74" x="504.488281"/>
      <use xlink:href="#DejaVuSans-20" x="543.697266"/>
      <use xlink:href="#DejaVuSans-73" x="575.484375"/>
      <use xlink:href="#DejaVuSans-74" x="627.583984"/>
      <use xlink:href="#DejaVuSans-61" x="666.792969"/>
      <use xlink:href="#DejaVuSans-74" x="728.072266"/>
      <use xlink:href="#DejaVuSans-75" x="767.28125"/>
      <use xlink:href="#DejaVuSans-73" x="830.660156"/>
     </g>
    </g>
    <g id="patch_116">
     <path d="M 318.625938 55.418312 
L 338.625938 55.418312 
L 338.625938 48.418312 
L 318.625938 48.418312 
z
" style="fill: #e24a33; fill-opacity: 0.75; stroke: #eeeeee; stroke-width: 0.5; stroke-linejoin: miter"/>
    </g>
    <g id="text_16">
     <!-- Dropout -->
     <g transform="translate(346.625938 55.418312)scale(0.1 -0.1)">
      <use xlink:href="#DejaVuSans-44"/>
      <use xlink:href="#DejaVuSans-72" x="77.001953"/>
      <use xlink:href="#DejaVuSans-6f" x="115.865234"/>
      <use xlink:href="#DejaVuSans-70" x="177.046875"/>
      <use xlink:href="#DejaVuSans-6f" x="240.523438"/>
      <use xlink:href="#DejaVuSans-75" x="301.705078"/>
      <use xlink:href="#DejaVuSans-74" x="365.083984"/>
     </g>
    </g>
    <g id="patch_117">
     <path d="M 318.625938 70.096437 
L 338.625938 70.096437 
L 338.625938 63.096437 
L 318.625938 63.096437 
z
" style="fill: #348abd; fill-opacity: 0.75; stroke: #eeeeee; stroke-width: 0.5; stroke-linejoin: miter"/>
    </g>
    <g id="text_17">
     <!-- Graduate -->
     <g transform="translate(346.625938 70.096437)scale(0.1 -0.1)">
      <defs>
       <path id="DejaVuSans-47" d="M 3809 666 
L 3809 1919 
L 2778 1919 
L 2778 2438 
L 4434 2438 
L 4434 434 
Q 4069 175 3628 42 
Q 3188 -91 2688 -91 
Q 1594 -91 976 548 
Q 359 1188 359 2328 
Q 359 3472 976 4111 
Q 1594 4750 2688 4750 
Q 3144 4750 3555 4637 
Q 3966 4525 4313 4306 
L 4313 3634 
Q 3963 3931 3569 4081 
Q 3175 4231 2741 4231 
Q 1884 4231 1454 3753 
Q 1025 3275 1025 2328 
Q 1025 1384 1454 906 
Q 1884 428 2741 428 
Q 3075 428 3337 486 
Q 3600 544 3809 666 
z
" transform="scale(0.015625)"/>
       <path id="DejaVuSans-64" d="M 2906 2969 
L 2906 4863 
L 3481 4863 
L 3481 0 
L 2906 0 
L 2906 525 
Q 2725 213 2448 61 
Q 2172 -91 1784 -91 
Q 1150 -91 751 415 
Q 353 922 353 1747 
Q 353 2572 751 3078 
Q 1150 3584 1784 3584 
Q 2172 3584 2448 3432 
Q 2725 3281 2906 2969 
z
M 947 1747 
Q 947 1113 1208 752 
Q 1469 391 1925 391 
Q 2381 391 2643 752 
Q 2906 1113 2906 1747 
Q 2906 2381 2643 2742 
Q 2381 3103 1925 3103 
Q 1469 3103 1208 2742 
Q 947 2381 947 1747 
z
" transform="scale(0.015625)"/>
      </defs>
      <use xlink:href="#DejaVuSans-47"/>
      <use xlink:href="#DejaVuSans-72" x="77.490234"/>
      <use xlink:href="#DejaVuSans-61" x="118.603516"/>
      <use xlink:href="#DejaVuSans-64" x="179.882812"/>
      <use xlink:href="#DejaVuSans-75" x="243.359375"/>
      <use xlink:href="#DejaVuSans-61" x="306.738281"/>
      <use xlink:href="#DejaVuSans-74" x="368.017578"/>
      <use xlink:href="#DejaVuSans-65" x="407.226562"/>
     </g>
    </g>
   </g>
  </g>
 </g>
 <defs>
  <clipPath id="pb1d8a389ef">
   <rect x="52.079375" y="24.14175" width="357.12" height="266.112"/>
  </clipPath>
 </defs>
</svg>
